<svg id="Capa_1" enable-background="new 0 0 512 512" height="20" viewBox="0 0 512 512" width="20" xmlns="http://www.w3.org/2000/svg"><g><g><path d="m391 81h30v-66c0-8.284-6.716-15-15-15-8.284 0-15 6.716-15 15z" fill="#39326c"/><path d="m331 81h30v-66c0-8.284-6.716-15-15-15-8.284 0-15 6.716-15 15z" fill="#39326c"/><path d="m271 81h30v-66c0-8.284-6.716-15-15-15-8.284 0-15 6.716-15 15z" fill="#39326c"/><path d="m211 81h30v-66c0-8.284-6.716-15-15-15-8.284 0-15 6.716-15 15z" fill="#5f55af"/><path d="m151 81h30v-66c0-8.284-6.716-15-15-15-8.284 0-15 6.716-15 15z" fill="#5f55af"/><path d="m91 81h30v-66c0-8.284-6.716-15-15-15-8.284 0-15 6.716-15 15z" fill="#5f55af"/><path d="m406 512c8.284 0 15-6.716 15-15v-66h-30v66c0 8.284 6.716 15 15 15z" fill="#39326c"/><path d="m346 512c8.284 0 15-6.716 15-15v-66h-30v66c0 8.284 6.716 15 15 15z" fill="#39326c"/><path d="m286 512c8.284 0 15-6.716 15-15v-66h-30v66c0 8.284 6.716 15 15 15z" fill="#39326c"/><g fill="#5f55af"><path d="m226 512c8.284 0 15-6.716 15-15v-66h-30v66c0 8.284 6.716 15 15 15z"/><path d="m166 512c8.284 0 15-6.716 15-15v-66h-30v66c0 8.284 6.716 15 15 15z"/><path d="m106 512c8.284 0 15-6.716 15-15v-66h-30v66c0 8.284 6.716 15 15 15z"/><path d="m15 121h66v-30h-66c-8.284 0-15 6.716-15 15 0 8.284 6.716 15 15 15z"/><path d="m15 181h66v-30h-66c-8.284 0-15 6.716-15 15 0 8.284 6.716 15 15 15z"/><path d="m15 241h66v-30h-66c-8.284 0-15 6.716-15 15 0 8.284 6.716 15 15 15z"/><path d="m15 301h66v-30h-66c-8.284 0-15 6.716-15 15 0 8.284 6.716 15 15 15z"/><path d="m15 361h66v-30h-66c-8.284 0-15 6.716-15 15 0 8.284 6.716 15 15 15z"/><path d="m15 421h66v-30h-66c-8.284 0-15 6.716-15 15 0 8.284 6.716 15 15 15z"/></g><path d="m431 91v30h66c8.284 0 15-6.716 15-15 0-8.284-6.716-15-15-15z" fill="#39326c"/><path d="m431 181h66c8.284 0 15-6.716 15-15 0-8.284-6.716-15-15-15h-66z" fill="#39326c"/><path d="m431 241h66c8.284 0 15-6.716 15-15 0-8.284-6.716-15-15-15h-66z" fill="#39326c"/><path d="m431 301h66c8.284 0 15-6.716 15-15 0-8.284-6.716-15-15-15h-66z" fill="#39326c"/><path d="m431 361h66c8.284 0 15-6.716 15-15 0-8.284-6.716-15-15-15h-66z" fill="#39326c"/><path d="m431 421h66c8.284 0 15-6.716 15-15 0-8.284-6.716-15-15-15h-66z" fill="#39326c"/></g><g><path d="m446 51h-380c-8.284 0-15 6.716-15 15v380c0 8.284 6.716 15 15 15h380c8.284 0 15-6.716 15-15v-380c0-8.284-6.716-15-15-15z" fill="#aed0ff"/><g><path d="m461 446v-380c0-8.284-6.716-15-15-15h-190v410h190c8.284 0 15-6.716 15-15z" fill="#7c84e8"/></g><path d="m386 111h-260c-8.284 0-15 6.716-15 15v260c0 8.284 6.716 15 15 15h260c8.284 0 15-6.716 15-15v-260c0-8.284-6.716-15-15-15z" fill="#5f55af"/><g><path d="m401 386v-260c0-8.284-6.716-15-15-15h-130v290h130c8.284 0 15-6.716 15-15z" fill="#39326c"/></g></g><g><path d="m247.626 192.389c-.052-.138-.106-.274-.162-.411-2.744-6.671-9.175-10.978-16.387-10.978-.006 0-.012 0-.018 0-7.219.007-13.65 4.329-16.383 11.01-.046.113-.091.227-.134.341l-45.06 118.31c-2.949 7.742.937 16.408 8.679 19.356 7.742 2.95 16.408-.937 19.356-8.679l7.543-19.804h51.691l7.458 19.762c2.267 6.007 7.974 9.708 14.036 9.708 1.76 0 3.55-.312 5.294-.97 7.75-2.925 11.663-11.579 8.737-19.33zm-31.14 79.146 14.538-38.171 14.406 38.171z" fill="#f9f9f9"/><g fill="#e2dff4"><path d="m264.209 321.296c2.267 6.007 7.974 9.708 14.036 9.708 1.76 0 3.55-.312 5.294-.97 7.75-2.925 11.663-11.579 8.737-19.33l-36.276-96.126v86.956h.751z"/><path d="m328.5 181c-8.284 0-15 6.716-15 15v120c0 8.284 6.716 15 15 15s15-6.716 15-15v-120c0-8.284-6.716-15-15-15z"/></g></g></g></svg>