<svg id="filled_outline" height="20" viewBox="0 0 512 512" width="20" xmlns="http://www.w3.org/2000/svg"><path d="m296 480h-80l24-80h32z" fill="#476c99"/><path d="m473 408h-434c-8.284 0-15-6.716-15-15v-274c0-8.284 6.716-15 15-15h434c8.284 0 15 6.716 15 15v274c0 8.284-6.716 15-15 15z" fill="#ffda7d"/><path d="m473 408h-434c-8.284 0-15-6.716-15-15v-33h464v33c0 8.284-6.716 15-15 15z" fill="#6498d8"/><path d="m336 488h-160c0-17.673 14.327-32 32-32h96c17.673 0 32 14.327 32 32z" fill="#6498d8"/><path d="m256 336-80-40v-80l80 40z" fill="#ef7086"/><path d="m256 336 80-40v-80l-80 40z" fill="#b95667"/><path d="m336 216-80 40-80-40 80-40z" fill="#763742"/><path d="m80 296h32v32h-32z" fill="#6498d8"/><path d="m48 296h32v32h-32z" fill="#476c99"/><path d="m80 136h32v32h-32z" fill="#476c99"/><path d="m48 136h32v32h-32z" fill="#6498d8"/><path d="m80 168h32v32h-32z" fill="#6498d8"/><path d="m48 168h32v32h-32z" fill="#476c99"/><path d="m80 200h32v32h-32z" fill="#476c99"/><path d="m48 200h32v32h-32z" fill="#6498d8"/><path d="m80 232h32v32h-32z" fill="#6498d8"/><path d="m48 232h32v32h-32z" fill="#476c99"/><path d="m80 264h32v32h-32z" fill="#476c99"/><g fill="#6498d8"><path d="m48 264h32v32h-32z"/><path d="m384 136h80v80h-80z"/><path d="m384 248h80v80h-80z"/></g><path d="m384 248h80v24h-80z" fill="#476c99"/><path d="m384 136h80v24h-80z" fill="#476c99"/><path d="m320 104v-32h-18.742c-.567-1.604-1.21-3.172-1.938-4.692l13.249-13.249-22.627-22.627-13.25 13.248c-1.521-.728-3.088-1.371-4.692-1.938v-18.742h-32v18.742c-1.604.567-3.172 1.211-4.692 1.938l-13.249-13.249-22.627 22.627 13.249 13.249c-.728 1.521-1.371 3.088-1.938 4.692h-18.743v32h18.742c.567 1.604 1.21 3.172 1.938 4.692l-13.249 13.249 22.627 22.627 13.249-13.249c1.521.728 3.088 1.371 4.692 1.938v18.744h32v-18.742c1.604-.567 3.172-1.21 4.692-1.938l13.249 13.249 22.627-22.627-13.249-13.249c.728-1.521 1.371-3.088 1.938-4.692h18.744z" fill="#6498d8"/><circle cx="256" cy="88" fill="#ef7086" r="24"/><g fill="#476c99"><path d="m168 32h-88c-4.418 0-8 3.582-8 8v20.687l-2.343-2.343c-3.124-3.124-8.189-3.124-11.313 0-3.125 3.124-3.125 8.189 0 11.313l16 16c1.561 1.562 3.609 2.343 5.656 2.343s4.095-.781 5.657-2.343l16-16c3.125-3.124 3.125-8.189 0-11.313-3.124-3.124-8.189-3.124-11.313 0l-2.344 2.343v-12.687h80c4.418 0 8-3.582 8-8s-3.582-8-8-8z"/><path d="m453.657 58.343c-3.124-3.124-8.189-3.124-11.313 0l-2.344 2.344v-20.687c0-4.418-3.582-8-8-8h-88c-4.418 0-8 3.582-8 8s3.582 8 8 8h80v12.687l-2.343-2.343c-3.124-3.124-8.189-3.124-11.313 0-3.125 3.124-3.125 8.189 0 11.313l16 16c1.561 1.562 3.609 2.343 5.656 2.343s4.095-.781 5.657-2.343l16-16c3.124-3.124 3.124-8.19 0-11.314z"/></g><g><path d="m473 96h-145v-24c0-4.418-3.582-8-8-8h-6.059l4.284-4.285c1.5-1.5 2.343-3.535 2.343-5.657s-.843-4.157-2.343-5.657l-22.627-22.627c-3.123-3.125-8.188-3.124-11.313 0l-4.285 4.285v-6.059c0-4.418-3.582-8-8-8h-32c-4.418 0-8 3.582-8 8v6.059l-4.284-4.284c-3.124-3.125-8.189-3.124-11.313 0l-22.627 22.627c-3.124 3.124-3.125 8.189 0 11.313l4.283 4.285h-6.059c-4.418 0-8 3.582-8 8v24h-145c-12.682 0-23 10.318-23 23v274c0 12.682 10.318 23 23 23h187.848l-9.6 32h-9.248c-22.056 0-40 17.944-40 40 0 4.418 3.582 8 8 8h160c4.418 0 8-3.582 8-8 0-22.056-17.944-40-40-40h-9.248l-9.6-32h187.848c12.682 0 23-10.318 23-23v-274c0-12.682-10.318-23-23-23zm-273-16h10.742c3.391 0 6.413-2.137 7.543-5.334.481-1.363 1.024-2.677 1.611-3.905 1.464-3.06.839-6.711-1.56-9.11l-7.592-7.592 11.314-11.313 7.592 7.592c2.399 2.4 6.05 3.024 9.11 1.56 1.228-.587 2.542-1.13 3.905-1.611 3.197-1.13 5.334-4.152 5.334-7.543v-10.744h16v10.742c0 3.391 2.137 6.413 5.334 7.543 1.363.481 2.677 1.024 3.905 1.611 3.061 1.463 6.711.839 9.11-1.56l7.592-7.592 11.313 11.313-7.592 7.592c-2.399 2.398-3.024 6.049-1.56 9.11.587 1.228 1.13 2.542 1.611 3.905 1.13 3.197 4.152 5.334 7.543 5.334h10.745v16h-10.742c-3.391 0-6.413 2.137-7.543 5.334-.481 1.363-1.024 2.677-1.611 3.905-1.464 3.061-.839 6.711 1.56 9.11l7.592 7.592-11.313 11.313-7.592-7.592c-2.398-2.399-6.048-3.024-9.11-1.56-1.228.587-2.542 1.13-3.905 1.611-3.197 1.13-5.334 4.152-5.334 7.543v10.746h-16v-10.742c0-3.391-2.137-6.413-5.334-7.543-1.363-.481-2.677-1.024-3.905-1.611-3.06-1.465-6.71-.839-9.11 1.56l-7.592 7.592-11.314-11.314 7.592-7.592c2.399-2.398 3.024-6.049 1.56-9.11-.587-1.228-1.13-2.542-1.611-3.905-1.13-3.197-4.152-5.334-7.543-5.334h-10.363-.382zm104 384c10.43 0 19.327 6.688 22.629 16h-141.258c3.302-9.312 12.199-16 22.629-16zm-70.048-16 9.6-32h24.895l9.6 32zm246.048-55c0 3.86-3.14 7-7 7h-434c-3.86 0-7-3.14-7-7v-25h448zm0-41h-448v-233c0-3.86 3.14-7 7-7h153 6.059l-4.284 4.284c-3.125 3.124-3.125 8.189 0 11.313l22.627 22.627c3.124 3.124 8.189 3.124 11.313 0l4.284-4.284v6.06c0 4.418 3.582 8 8 8h32c4.418 0 8-3.582 8-8v-6.059l4.285 4.284c3.124 3.125 8.189 3.124 11.313 0l22.627-22.627c1.5-1.5 2.343-3.535 2.343-5.657s-.843-4.157-2.343-5.657l-4.283-4.284h6.059 153c3.86 0 7 3.14 7 7z"/><path d="m172.422 303.155 80 40c1.129.565 2.355.845 3.578.845 1.463 0 2.922-.401 4.207-1.195l79.372-39.65c2.709-1.355 4.421-4.125 4.421-7.155v-80c0-2.772-1.436-5.348-3.794-6.805l-80.628-40.35c-2.252-1.126-4.903-1.126-7.155 0l-80.628 40.35c-2.359 1.457-3.795 4.033-3.795 6.805v80c0 3.03 1.712 5.8 4.422 7.155zm155.578-12.099-64 32v-63.062l64-31.049zm-72-106.112 62.112 31.056-60.843 31.691-63.381-31.691zm-72 44 64 32v62.111l-64-32z"/><path d="m112 128h-64c-4.418 0-8 3.582-8 8v192c0 4.418 3.582 8 8 8h64c4.418 0 8-3.582 8-8v-192c0-4.418-3.582-8-8-8zm-40 192h-16v-16h16zm0-32h-16v-16h16zm0-32h-16v-16h16zm0-32h-16v-16h16zm0-32h-16v-16h16zm0-32h-16v-16h16zm32 160h-16v-16h16zm0-32h-16v-16h16zm0-32h-16v-16h16zm0-32h-16v-16h16zm0-32h-16v-16h16zm0-32h-16v-16h16z"/><path d="m384 224h80c4.418 0 8-3.582 8-8v-80c0-4.418-3.582-8-8-8h-80c-4.418 0-8 3.582-8 8v80c0 4.418 3.582 8 8 8zm8-16v-40h64v40zm64-64v8h-64v-8z"/><path d="m384 336h80c4.418 0 8-3.582 8-8v-80c0-4.418-3.582-8-8-8h-80c-4.418 0-8 3.582-8 8v80c0 4.418 3.582 8 8 8zm8-16v-40h64v40zm64-64v8h-64v-8z"/><path d="m256 120c17.645 0 32-14.355 32-32s-14.355-32-32-32-32 14.355-32 32 14.355 32 32 32zm0-48c8.822 0 16 7.178 16 16s-7.178 16-16 16-16-7.178-16-16 7.178-16 16-16z"/><path d="m74.343 85.657c1.562 1.562 3.61 2.343 5.657 2.343s4.095-.781 5.657-2.343l16-16c3.125-3.124 3.125-8.189 0-11.313-3.124-3.124-8.189-3.124-11.313 0l-2.344 2.343v-12.687h80c4.418 0 8-3.582 8-8s-3.582-8-8-8h-88c-4.418 0-8 3.582-8 8v20.687l-2.343-2.343c-3.124-3.124-8.189-3.124-11.313 0-3.125 3.124-3.125 8.189 0 11.313z"/><path d="m344 48h80v12.687l-2.343-2.343c-3.124-3.124-8.189-3.124-11.313 0-3.125 3.124-3.125 8.189 0 11.313l16 16c1.561 1.562 3.609 2.343 5.656 2.343s4.095-.781 5.657-2.343l16-16c3.125-3.124 3.125-8.189 0-11.313-3.124-3.124-8.189-3.124-11.313 0l-2.344 2.343v-20.687c0-4.418-3.582-8-8-8h-88c-4.418 0-8 3.582-8 8s3.582 8 8 8z"/></g></svg>