<svg id="Layer_1" width="20" height="20" viewBox="0 0 512 512" xmlns="http://www.w3.org/2000/svg" data-name="Layer 1"><path d="m419.215 282.621v-53.241h-36.243a128.983 128.983 0 0 0 -18.372-44.328l25.638-25.638-37.647-37.648-25.638 25.639a128.99 128.99 0 0 0 -44.329-18.377v-36.243h-53.244v36.243a128.958 128.958 0 0 0 -44.328 18.377l-25.639-25.639-37.648 37.648 25.635 25.638a128.983 128.983 0 0 0 -18.376 44.328h-36.239v53.241h36.243a128.964 128.964 0 0 0 18.372 44.328l-25.639 25.638 37.648 37.648 25.643-25.635a128.964 128.964 0 0 0 44.328 18.376v36.243h53.24v-36.247a128.964 128.964 0 0 0 44.328-18.372l25.639 25.639 37.648-37.648-25.635-25.642a128.993 128.993 0 0 0 18.377-44.328z" fill="#8ac9fe" fill-rule="evenodd"/><circle cx="256" cy="256.001" fill="#d8ecfe" r="78.399" transform="matrix(.995 -.099 .099 .995 -24.156 26.686)"/><path d="m411.215 274.621v-37.241h-28.243a8 8 0 0 1 -7.926-6.911 120.97 120.97 0 0 0 -17.138-41.042 8 8 0 0 1 1.036-10.027l19.983-19.982-26.335-26.335-19.982 19.983a8 8 0 0 1 -10.331.835 120.941 120.941 0 0 0 -41.279-17.06 7.984 7.984 0 0 1 -6.356-7.813h-.019v-28.243h-37.245v28.243a8 8 0 0 1 -6.911 7.926 120.946 120.946 0 0 0 -41.042 17.139 8 8 0 0 1 -10.027-1.036v.005l-19.983-19.983-26.335 26.335 19.979 19.986a8 8 0 0 1 .836 10.33 120.951 120.951 0 0 0 -17.057 41.279 7.982 7.982 0 0 1 -7.812 6.356v.019h-28.243v37.241h28.243a8 8 0 0 1 7.926 6.912 120.945 120.945 0 0 0 17.138 41.041 8 8 0 0 1 -1.036 10.027l-19.983 19.982 26.335 26.336 19.992-19.983a8 8 0 0 1 10.33-.836 121.007 121.007 0 0 0 41.279 17.056 7.982 7.982 0 0 1 6.356 7.812h.019v28.244h37.24v-28.244a8 8 0 0 1 6.912-7.926 120.945 120.945 0 0 0 41.041-17.138 8 8 0 0 1 10.027 1.036l19.983 19.983 26.335-26.336-19.983-19.982a8 8 0 0 1 -.836-10.33 120.982 120.982 0 0 0 17.057-41.279 7.982 7.982 0 0 1 7.812-6.356v-.019zm-13.868-189.836a220.917 220.917 0 0 0 -141.347-50.785c-122.586 0-222.031 99.408-222.031 222h.031a8 8 0 1 1 -16 0h.031c0-131.459 106.505-238 237.969-238a237.251 237.251 0 0 1 149.137 52.554l-7.777-36.5a7.986 7.986 0 0 1 15.625-3.312l12.762 59.892a7.988 7.988 0 0 1 -7.707 10.148h-50.089a8 8 0 0 1 0-16zm-282.694 342.43a220.912 220.912 0 0 0 141.347 50.785c122.608 0 222-99.392 222-222a8 8 0 0 1 16 0c0 131.442-106.558 238-238 238a237.255 237.255 0 0 1 -149.137-52.553l7.777 36.5a7.986 7.986 0 0 1 -15.625 3.312l-12.762-59.895a7.988 7.988 0 0 1 7.707-10.149h50.089a8 8 0 1 1 0 16zm97.391-165.558a8 8 0 0 1 11.313-11.313l19.877 19.877 45.409-45.41a8 8 0 0 1 11.313 11.313l-51.066 51.065a8 8 0 0 1 -11.313 0zm43.956 64.743a70.4 70.4 0 1 1 70.4-70.4 70.4 70.4 0 0 1 -70.4 70.4zm0 16a86.4 86.4 0 1 1 86.4-86.4 86.4 86.4 0 0 1 -86.4 86.4zm171.215-113.02v53.241a8 8 0 0 1 -8 8h-29.915a136.953 136.953 0 0 1 -14.563 35.151l21.159 21.159a8 8 0 0 1 0 11.313l-37.648 37.648a8 8 0 0 1 -11.313 0l-21.159-21.161a136.888 136.888 0 0 1 -35.156 14.569v29.919a8 8 0 0 1 -8 8h-53.24a8 8 0 0 1 -8-8v-29.919a136.956 136.956 0 0 1 -35.151-14.564l-21.16 21.16a8 8 0 0 1 -11.312 0l-37.648-37.648a8 8 0 0 1 0-11.313l21.16-21.159a136.923 136.923 0 0 1 -14.569-35.155h-29.915a8 8 0 0 1 -8-8v-53.241a8 8 0 0 1 8-8h29.92a136.885 136.885 0 0 1 14.564-35.151l-21.16-21.159a8 8 0 0 1 0-11.313l37.648-37.647a8 8 0 0 1 11.313 0l21.159 21.16a136.876 136.876 0 0 1 35.151-14.57v-29.915a8 8 0 0 1 8-8h53.24a8 8 0 0 1 8 8v29.92a136.912 136.912 0 0 1 35.152 14.564l21.158-21.159a8 8 0 0 1 11.313 0l37.647 37.648a8 8 0 0 1 0 11.312l-21.159 21.159a136.938 136.938 0 0 1 14.569 35.151h29.919a8 8 0 0 1 7.996 8z" fill="#0963c8" fill-rule="evenodd"/></svg>