<svg clip-rule="evenodd" fill-rule="evenodd" height="20" image-rendering="optimizeQuality" shape-rendering="geometricPrecision" text-rendering="geometricPrecision" viewBox="0 0 4335 4335" width="20" xmlns="http://www.w3.org/2000/svg"><g id="Layer_x0020_1"><path d="m1157 1770h-402v300h1244c171 7 421-6 592 0 171 7 421-6 591 0h398v-300h-1052c-106 62-229 97-361 97-131 0-254-35-360-97zm-521-58v-605c0-111-128-91-205-91-76 0-204-20-204 91v3016c0 50 41 91 91 91h227c50 0 91-41 91-91zm110-664h708c49-350 350-621 713-621 364 0 665 271 714 621h708c25-87 106-151 201-151h54v-197c-165-28-292-173-292-346 0-194 158-352 352-352 193 0 351 158 351 352 0 173-127 318-292 346v197h54c116 0 210 94 210 210v3016c-1 116-95 210-210 210h-227c-116 0-210-94-210-210v-1331h-2825v1331c0 116-95 210-210 210h-227c-116 0-210-94-210-210v-3016c0-116 94-210 210-210h54v-197c-166-28-292-173-292-346 0-194 158-352 351-352 194 0 352 158 352 352 0 173-127 318-292 346v197h54c95 0 175 64 201 151zm-315-927c-128 0-233 104-233 233 0 128 105 232 233 232 129 0 233-104 233-232 0-129-104-233-233-233zm3268 981c5 61 0 1499 0 1631v1390c0 50 41 91 91 91h227c50 0 91-41 91-91v-3016c0-111-128-91-204-91-79 0-199-20-205 86zm-119 550v-485h-362l-198 485zm324-1531c-129 0-233 104-233 233 0 128 104 232 233 232 128 0 233-104 233-232 0-129-105-233-233-233zm-2337 985c3 75-6 99 19 195 68 257 303 448 581 448 334 0 602-272 602-602 0-331-269-601-602-601-317 0-579 248-600 560zm-115 120c-2-20-4-39-4-59h-5l-198 485h409c-115-116-183-262-202-426zm1435-59c-5 182-77 355-205 485h210l198-485zm-960 279c-52 0-79-63-41-101l198-198-198-198c-55-55 28-139 84-84l198 198 197-197c55-56 139 28 84 83l-198 198 198 198c56 56-29 138-83 84l-199-198-198 198c-11 11-26 17-42 17zm-1172 1228h362l199-485h-561zm490 0h463l199-485h-463zm591 0h464l198-485h-463zm592 0h464l198-485h-464zm591 0h561v-485h-362zm-1902-1022 198-485h-560v485z" fill="#333"/><path d="m1970 865 198 198 197-197c55-56 139 28 84 83l-198 198 198 198c56 56-29 138-83 84l-199-198-198 198c-11 11-26 17-42 17-52 0-79-63-41-101l198-198-198-198c-55-55 28-139 84-84zm-384 436c68 257 303 448 581 448 334 0 602-272 602-602 0-331-269-601-602-601-317 0-579 248-600 560 3 75-6 99 19 195z" fill="#ff3131"/><path d="m2887 1167c-5 182-77 355-205 485h210l198-485z" fill="#ffa721"/><path d="m3218 1167-198 485h560v-485z" fill="#ff700d"/><path d="m3699 1102c5 61 0 1499 0 1631v1390c0 50 41 91 91 91h227c50 0 91-41 91-91v-3016c0-111-128-91-204-91-79 0-199-20-205 86z" fill="#58535a"/><path d="m3904 586c128 0 233-104 233-232 0-129-105-233-233-233-129 0-233 104-233 233 0 128 104 232 233 232z" fill="#ff3131"/><path d="m664 354c0-129-104-233-233-233-128 0-233 104-233 233 0 128 105 232 233 232 129 0 233-104 233-232z" fill="#ff3131"/><path d="m1443 1167-198 485h409c-115-116-183-262-202-426-2-20-4-39-4-59z" fill="#ff700d"/><path d="m1117 1652 198-485h-560v485z" fill="#ffa721"/><path d="m636 1712v-605c0-111-128-91-205-91-76 0-204-20-204 91v3016c0 50 41 91 91 91h227c50 0 91-41 91-91z" fill="#58535a"/><path d="m1316 2189h-561v485h362z" fill="#ffa721"/><path d="m1444 2189-199 485h463l199-485z" fill="#ff700d"/><path d="m2035 2189-199 485h464l198-485z" fill="#ffa721"/><path d="m2626 2189-198 485h464l198-485z" fill="#ff700d"/><path d="m3218 2189-199 485h561v-485z" fill="#ffa721"/></g></svg>