<svg width="20" height="20" clip-rule="evenodd" fill-rule="evenodd" stroke-linejoin="round" stroke-miterlimit="2" viewBox="0 0 510 510" xmlns="http://www.w3.org/2000/svg"><path d="m154.907 454.251c1.044 2.509 2.089 5.018 3.133 7.526l.003.008c2.095 5.067 2.099 10.172.03 15.269l-.013.029c-2.094 5.028-5.706 8.653-10.789 10.793l-.018.008s-30.359 12.585-30.359 12.585c-10.137 4.233-21.874-.624-26.079-10.752-17.127-41.155-34.279-82.31-51.406-123.465-2.138-5.058-2.145-10.192-.038-15.288 2.102-5.082 5.734-8.711 10.783-10.815l30.39-12.613c10.13-4.205 21.83.607 26.076 10.745l.003.008c.898 2.158 1.796 4.316 2.695 6.474 14.875-7.033 29.729-14.112 44.515-21.344 7.637-3.736 14.63-7.017 21.384-9.489v-11.926c0-9.015 5.845-16.729 13.933-19.539-3.958-36.885-15.606-50.688-24.508-65.01-7.132-11.473-12.747-23.228-12.747-44.617 0-49.496 40.15-89.647 89.669-89.647 49.497 0 89.648 40.15 89.648 89.647 0 1.792-.04 3.514-.118 5.173-.937 19.932-7.137 30.926-14.563 42.501-6.495 10.121-14.055 20.746-18.886 40.304-1.539 6.232-2.804 13.36-3.689 21.647.814.282 1.605.613 2.369.991 6.843 3.375 11.565 10.439 11.565 18.55v29.494c0 4.126-1.23 7.982-3.343 11.22l1.439.385c9.543 2.556 17.062 9.012 21.299 17.197l78.44-23.011c33.817-9.921 52.511-2.683 60.732 8.428 5.475 7.4 6.902 16.984 4.853 26.457-2.883 13.328-12.724 26.266-26.139 31.442l-118.547 45.681c-19.922 7.667-46.54 18.388-67.919 12.181l-63.156-18.321-.011-.004c-7.45-2.174-14.599-1.57-21.586 1.833zm-9.803 12.888c-1.882-4.521-49.574-119.061-51.404-123.458-1.269-3.026-4.761-4.468-7.788-3.212l-30.379 12.609c-1.509.629-2.593 1.717-3.222 3.237-.619 1.499-.631 3.008.01 4.518l.009.022c17.13 41.16 34.284 82.321 51.415 123.484l.001.003c1.252 3.016 4.744 4.466 7.771 3.198l30.35-12.582.009-.004c1.517-.644 2.611-1.723 3.255-3.25.603-1.518.6-3.047-.027-4.565zm44.113-157.137c17.577-3.255 35.522.452 60.701 18.081l37.559 10.062c3.549-.137 6.413-3.076 6.413-6.647v-29.494c0-2.626-1.544-4.903-3.759-5.995-.88-.435-1.87-.678-2.914-.678h-91.327c-3.671 0-6.673 3.002-6.673 6.673zm-39.701 131.299 18.305-8.904c10.242-4.988 20.72-5.873 31.629-2.689l63.157 18.322c8.862 2.572 18.778 1.319 28.549-1.185 10.76-2.758 21.347-7.118 30.436-10.615l118.538-45.678c9.053-3.493 15.548-12.345 17.494-21.339 1.17-5.409.703-10.941-2.424-15.167-2.661-3.597-7.172-6.064-13.634-7.058-7.95-1.223-18.432-.213-31.899 3.738l-78.631 23.067c.223 3.55-.115 7.19-1.082 10.803-4.82 17.997-23.507 28.792-41.493 23.943l-76.115-20.381c-3.732-1-5.951-4.842-4.952-8.575 1-3.732 4.842-5.951 8.574-4.952l76.115 20.382.011.003c10.553 2.845 21.507-3.49 24.334-14.043 2.827-10.556-3.508-21.516-14.065-24.344l-57.272-15.342c-.804-.215-1.563-.572-2.241-1.053-24.976-17.727-41.197-19.947-58.571-14.592-7.663 2.362-15.506 6.057-24.292 10.355-15.041 7.357-30.151 14.555-45.282 21.707 11.601 27.865 23.209 55.73 34.811 83.597zm53.595-159.97h31.453v-89.051l-31.957-18.457c-3.346-1.932-4.493-6.217-2.561-9.563 1.932-3.345 6.217-4.493 9.562-2.561 0 0 31.955 18.456 31.955 18.456l31.934-18.455c3.345-1.933 7.63-.786 9.563 2.559 1.934 3.345.787 7.63-2.558 9.563l-31.938 18.456v89.053h31.434c.963-9.16 2.362-17.016 4.056-23.872 5.327-21.568 13.532-33.346 20.693-44.508 6.23-9.708 11.577-18.879 12.362-35.597.068-1.448.103-2.952.103-4.516 0-41.767-33.881-75.647-75.648-75.647-41.787 0-75.669 33.88-75.669 75.647 0 22.658 7.608 32.499 15.695 45.124 8.644 13.495 17.993 29.717 21.521 63.369zm151.696 41.287h15.359c.926-22.457 27.961-33.658 44.497-18.425l10.866-10.866c-15.233-16.536-4.032-43.572 18.426-44.497v-15.359c-22.456-.926-33.656-27.956-18.431-44.492l-10.861-10.871c-16.537 15.233-43.572 4.045-44.497-18.426h-15.436c-.565 3.297-3.441 5.81-6.899 5.81-3.863 0-7-3.137-7-7 0-7.073 5.737-12.81 12.81-12.81h17.691c7.073 0 12.809 5.737 12.809 12.81 0 11.198 13.562 16.811 21.478 8.895 4.997-4.997 13.126-4.997 18.123 0l12.507 12.518c5.001 5.001 5.001 13.112 0 18.113-7.915 7.915-2.296 21.477 8.896 21.477 7.096 0 12.81 5.737 12.81 12.81v17.69c0 7.073-5.714 12.81-12.81 12.81-11.192 0-16.811 13.562-8.896 21.477 4.997 4.998 4.997 13.126 0 18.123l-12.507 12.508c-4.997 4.997-13.126 4.997-18.123 0-7.916-7.915-21.478-2.296-21.478 8.896 0 7.096-5.736 12.809-12.809 12.809h-17.691c-7.073 0-12.81-5.713-12.81-12.809 0-6.439-4.483-11.021-9.791-12.272-3.76-.887-6.093-4.66-5.207-8.42.887-3.76 4.659-6.093 8.42-5.207 10.853 2.559 20.023 11.767 20.554 24.708zm7.685-35.965c-25.064 0-45.497-20.445-45.497-45.498 0-25.063 20.433-45.497 45.497-45.497 25.052 0 45.497 20.434 45.497 45.497 0 25.053-20.445 45.498-45.497 45.498zm0-14c17.343 0 31.497-14.154 31.497-31.498 0-17.351-14.154-31.497-31.497-31.497-17.352 0-31.497 14.146-31.497 31.497 0 17.344 14.145 31.498 31.497 31.498zm-113.928-231.065c0 3.863-3.137 7-7 7s-7-3.137-7-7v-26.588c0-3.863 3.137-7 7-7s7 3.137 7 7zm-75.055 16.343c1.933 3.345.787 7.63-2.558 9.563s-7.63.787-9.563-2.558l-13.294-23.006c-1.933-3.345-.786-7.63 2.559-9.563s7.63-.787 9.563 2.558zm-56.807 51.69c3.345 1.933 4.491 6.218 2.558 9.563-1.932 3.346-6.218 4.492-9.563 2.559l-23.005-13.293c-3.345-1.933-4.492-6.219-2.559-9.564s6.218-4.491 9.563-2.558zm205.018-44.685c-1.933 3.345-6.219 4.491-9.564 2.558s-4.491-6.218-2.558-9.563l13.293-23.006c1.933-3.345 6.218-4.491 9.563-2.558 3.346 1.933 4.492 6.218 2.559 9.563zm51.69 56.807c-3.345 1.933-7.63.787-9.563-2.559-1.933-3.345-.787-7.63 2.558-9.563l23.006-13.293c3.345-1.933 7.63-.787 9.563 2.558s.787 7.631-2.558 9.564z"/></svg>