<?xml version="1.0"?>
<svg xmlns="http://www.w3.org/2000/svg" id="Outline" viewBox="0 0 64 64" width="20" height="20"><path d="M63.023,34l.017-.008A1,1,0,0,0,64.011,33a.989.989,0,0,0-.989-1C62.74,31.91,62,30.693,62,28.5s.741-3.41,1.023-3.5l.014-.007a1,1,0,0,0,.08-1.986l-32.229-3.79a16.013,16.013,0,0,0-3.777,0l-23.23,2.79-.015,0C1.985,22.137,1,24.831,1,27.5A7.834,7.834,0,0,0,2.2,32,7.829,7.829,0,0,0,1,36.5a8.065,8.065,0,0,0,1.1,4.358C.719,42.248,0,45.132,0,48c0,3.942,1.351,7.933,3.934,8l33.949,3.994A.918.918,0,0,0,38,60a.939.939,0,0,0,.119-.007L46,59.047V63a1,1,0,0,0,.733.964A1.022,1.022,0,0,0,47,64a1,1,0,0,0,.857-.485l2.235-3.725L52.2,62.6A1,1,0,0,0,54,62V58.088l9.119-1.095A1,1,0,0,0,63,55c-.7,0-2-2.278-2-6,0-3.69,1.228-5.826,2-6a1.008,1.008,0,0,0,1.011-1,.99.99,0,0,0-.877-.992A1.169,1.169,0,0,0,63.015,41C62.728,40.89,62,39.676,62,37.5,62,35.3,62.741,34.09,63.023,34ZM32.287,57.321A12.384,12.384,0,0,1,31,51.21a13.239,13.239,0,0,1,1.153-5.9l3.293.387A12.639,12.639,0,0,0,34,52a13.83,13.83,0,0,0,1.1,5.652Zm-4.036-.475A12.619,12.619,0,0,1,27,50.79a12.941,12.941,0,0,1,1.186-5.941l1.87.22A16.273,16.273,0,0,0,29,51.21a16.826,16.826,0,0,0,.947,5.836Zm-16.164-1.9a13.591,13.591,0,0,1-1.067-5.7A11.863,11.863,0,0,1,12.412,43l13.563,1.593c.03,0,.057.018.087.018a.185.185,0,0,0,.023,0A16.294,16.294,0,0,0,25,50.79a16.965,16.965,0,0,0,.926,5.783Zm-3.993-.469A13.5,13.5,0,0,1,7.02,48.76,11.869,11.869,0,0,1,8.4,42.524l1.862.219a15.529,15.529,0,0,0-1.246,6.5,17.385,17.385,0,0,0,.8,5.438ZM4.022,40C3.74,39.91,3,38.693,3,36.5c0-2.174.726-3.386.992-3.494l4.737.552c.017,0,.03.013.046.015l20.114,2.36A11.906,11.906,0,0,0,28.25,40a13.254,13.254,0,0,0,.309,2.881l-1.913-.224A8.922,8.922,0,0,1,26,39a7.868,7.868,0,0,1,.2-1.775,1,1,0,1,0-1.949-.45A9.929,9.929,0,0,0,24,39a12.579,12.579,0,0,0,.435,3.4L12.047,40.944l-.021,0L8.04,40.474c-.009,0-.017,0-.026,0ZM9.64,24.668l3.883.455h.01l22.22,2.619A8.946,8.946,0,0,0,35,31.5a9.578,9.578,0,0,0,.525,3.2L13.882,32.159A12.08,12.08,0,0,1,13.5,29a14.75,14.75,0,0,1,.115-1.872,1,1,0,1,0-1.984-.256A16.749,16.749,0,0,0,11.5,29a15.174,15.174,0,0,0,.273,2.912L9.541,31.65A10.413,10.413,0,0,1,9,28,8.949,8.949,0,0,1,9.64,24.668ZM38,28h0a.945.945,0,0,0,.118-.007l22.4-2.685A9.571,9.571,0,0,0,60,28.5a8.923,8.923,0,0,0,.757,3.765L38.011,34.991C37.721,34.876,37,33.673,37,31.5,37,29.307,37.74,28.09,38,28ZM30.7,43.132A10.279,10.279,0,0,1,30.25,40a8.087,8.087,0,0,1,.732-3.821l4.774.56A8.926,8.926,0,0,0,35,40.5a9.578,9.578,0,0,0,.525,3.2Zm7.314.86C37.722,43.877,37,42.674,37,40.5c0-2.193.74-3.41,1-3.5a.939.939,0,0,0,.119-.007l22.4-2.685A9.571,9.571,0,0,0,60,37.5a8.821,8.821,0,0,0,.78,3.762ZM27.348,21.2a14.053,14.053,0,0,1,3.305,0l23.88,2.808L38,25.993,13.767,23.137h-.01l-1.269-.149Zm-23.361,2.8,3.608.423A11.091,11.091,0,0,0,7,28a14.5,14.5,0,0,0,.373,3.389L4.022,31C3.74,30.91,3,29.693,3,27.5,3,25.342,3.716,24.13,3.987,24.005ZM4,54c-.7,0-2-2.278-2-6,0-3.7,1.278-5.966,1.985-5.995l2.274.267A15.566,15.566,0,0,0,5.02,48.76a17.326,17.326,0,0,0,.809,5.448l-1.712-.2A.908.908,0,0,0,4,54Zm46.8,3.4a.985.985,0,0,0-.852-.4,1,1,0,0,0-.8.484L48,59.39V50.812l4-.482V59ZM54,56.073V50.089l.628-.076a1,1,0,0,0-.237-1.987l-1.5.182h-.007l-6,.72c-.011,0-.02.008-.031.009l-1.246.151a1,1,0,0,0,.115,1.993.945.945,0,0,0,.118-.007L46,51.054v5.979l-8,.96-.088-.01C37.222,57.816,36,55.683,36,52c0-3.722,1.3-6,2-6a.939.939,0,0,0,.119-.007L60.1,43.358A13.819,13.819,0,0,0,59,49a12.682,12.682,0,0,0,1.439,6.3Z"/></svg>
