<?xml version="1.0" encoding="UTF-8" standalone="no"?>
<!-- Created with Inkscape (http://www.inkscape.org/) -->

<svg
   version="1.1"
   id="svg5859"
   xml:space="preserve"
   width="20"
   height="20"
   viewBox="0 0 682.66669 682.66669"
   xmlns="http://www.w3.org/2000/svg"
   xmlns:svg="http://www.w3.org/2000/svg"><defs
     id="defs5863"><clipPath
       clipPathUnits="userSpaceOnUse"
       id="clipPath5873"><path
         d="M 0,512 H 512 V 0 H 0 Z"
         id="path5871" /></clipPath></defs><g
     id="g5865"
     transform="matrix(1.3333333,0,0,-1.3333333,0,682.66667)"><g
       id="g5867"><g
         id="g5869"
         clip-path="url(#clipPath5873)"><g
           id="g5875"
           transform="translate(255.9854,68.7832)"><path
             d="M 0,0 C 33.194,19.238 144.397,30.374 210.53,0"
             style="fill:none;stroke:#000000;stroke-width:15.118;stroke-linecap:round;stroke-linejoin:round;stroke-miterlimit:10;stroke-dasharray:none;stroke-opacity:1"
             id="path5877" /></g><g
           id="g5879"
           transform="translate(255.9854,68.7832)"><path
             d="M 0,0 C -33.165,19.238 -144.396,30.374 -210.501,0"
             style="fill:none;stroke:#000000;stroke-width:15.118;stroke-linecap:round;stroke-linejoin:round;stroke-miterlimit:10;stroke-dasharray:none;stroke-opacity:1"
             id="path5881" /></g><g
           id="g5883"
           transform="translate(255.9854,10.5)"><path
             d="m 0,0 205.739,0.255 c 27.554,0.028 42.776,19.891 42.776,40.829 v 263.11 c 0,16.547 -13.55,30.09 -30.105,30.09 h -7.88 -421.031 -7.908 c -16.555,0 -30.076,-13.543 -30.076,-30.09 V 41.084 c 0,-20.938 15.193,-40.801 42.775,-40.829 z"
             style="fill:#8ebfe8;fill-opacity:1;fill-rule:evenodd;stroke:none"
             id="path5885" /></g><g
           id="g5887"
           transform="translate(255.9854,68.7832)"><path
             d="m 0,0 h 210.53 v 276.001 7.424 c 0,15.074 -6.066,16.688 -23.953,21.761 -20.239,5.751 -41.669,8.556 -79.2,9.605 C 51.449,313.204 16.3,305.724 0,296.288 Z"
             style="fill:#eceff1;fill-opacity:1;fill-rule:evenodd;stroke:none"
             id="path5889" /></g><g
           id="g5891"
           transform="translate(255.9854,68.7832)"><path
             d="M 0,0 29.367,163.147 0,296.288 c -16.299,9.436 -51.42,16.916 -107.348,18.503 -37.559,-1.049 -58.961,-3.854 -79.228,-9.605 -17.859,-5.073 -23.925,-6.687 -23.925,-21.761 V 276.001 0 Z"
             style="fill:#eceff1;fill-opacity:1;fill-rule:evenodd;stroke:none"
             id="path5893" /></g><g
           id="g5895"
           transform="translate(61.0469,48.666)"><path
             d="m 0,0 h 194.938 l 11.652,11.646 -11.652,8.471 c -33.165,19.238 -144.396,30.374 -210.501,0 V 15.98 C -15.563,7.196 -8.561,0 0,0"
             style="fill:#90a4ae;fill-opacity:1;fill-rule:evenodd;stroke:none"
             id="path5897" /></g><g
           id="g5899"
           transform="translate(466.5156,68.7832)"><path
             d="M 0,0 C -66.133,30.374 -177.336,19.238 -210.53,0 V -20.117 H -15.591 C -7.03,-20.117 0,-12.921 0,-4.137 Z"
             style="fill:#90a4ae;fill-opacity:1;fill-rule:evenodd;stroke:none"
             id="path5901" /></g><g
           id="g5903"
           transform="translate(331.6992,299.5918)"><path
             d="M 0,0 23.585,-13.997 47.197,0 h 1.815 c 0,40.857 39.571,46.128 39.514,90.074 C 88.47,131.951 56.041,152.551 23.585,152.068 -8.844,152.551 -41.272,131.951 -41.329,90.074 -41.386,46.128 -1.813,40.857 -1.813,0 Z"
             style="fill:#fcd968;fill-opacity:1;fill-rule:evenodd;stroke:none"
             id="path5905" /></g><g
           id="g5907"
           transform="translate(355.2842,299.5918)"><path
             d="m 0,0 h -23.585 c -10.232,0 -18.566,-8.358 -18.566,-18.559 0,-10.2 8.334,-18.53 18.566,-18.53 h 47.197 c 10.205,0 18.568,8.33 18.568,18.53 C 42.18,-8.358 33.817,0 23.612,0 Z"
             style="fill:#c4cccf;fill-opacity:1;fill-rule:evenodd;stroke:none"
             id="path5909" /></g><g
           id="g5911"
           transform="translate(395.7061,389.666)"><path
             d="m 0,0 c 0.057,-43.946 -39.516,-49.217 -39.516,-90.074 h 22.706 1.815 c 0,40.857 39.571,46.128 39.515,90.074 -0.057,41.877 -32.486,62.477 -64.942,61.994 -4.082,0.085 -8.192,-0.198 -12.246,-0.821 C -24.775,56.895 -0.028,36.551 0,0"
             style="fill:#e6a235;fill-opacity:1;fill-rule:evenodd;stroke:none"
             id="path5913" /></g><g
           id="g5915"
           transform="translate(397.4639,281.0332)"><path
             d="m 0,0 c 0,10.2 -8.362,18.559 -18.567,18.559 h -22.706 -0.907 -0.907 c 5.527,0 10.517,-2.437 13.918,-6.29 2.892,-3.288 4.648,-7.566 4.648,-12.269 0,-10.2 -8.333,-18.53 -18.566,-18.53 h 24.52 C -8.362,-18.53 0,-10.2 0,0"
             style="fill:#90a4ae;fill-opacity:1;fill-rule:evenodd;stroke:none"
             id="path5917" /></g><g
           id="g5919"
           transform="translate(436.6104,344.7842)"><path
             d="m 0,0 v -265.631 c 10.602,-2.72 20.692,-6.12 29.905,-10.37 V 0 7.424 c 0,15.074 -6.066,16.688 -23.953,21.761 C 3.996,29.751 2.013,30.289 0,30.8 Z"
             style="fill:#c4cccf;fill-opacity:1;fill-rule:evenodd;stroke:none"
             id="path5921" /></g><g
           id="g5923"
           transform="translate(466.5156,68.7832)"><path
             d="M 0,0 C -9.213,4.25 -19.304,7.65 -29.905,10.37 V 0 -20.117 h 14.314 C -7.03,-20.117 0,-12.921 0,-4.137 Z"
             style="fill:#7c8c94;fill-opacity:1;fill-rule:evenodd;stroke:none"
             id="path5925" /></g><g
           id="g5927"
           transform="translate(466.5156,64.6465)"><path
             d="m 0,0 c 0,-8.784 -7.03,-15.98 -15.591,-15.98 h -14.314 v -37.94 l 25.114,0.028 c 27.554,0.029 42.775,19.891 42.775,40.829 v 263.111 c 0,16.547 -13.549,30.09 -30.104,30.09 H 0 V 4.137 Z"
             style="fill:#519ad6;fill-opacity:1;fill-rule:evenodd;stroke:none"
             id="path5929" /></g><g
           id="g5931"
           transform="translate(373.8223,10.6416)"><path
             d="m 0,0 87.902,0.113 c 27.554,0.029 42.776,19.891 42.776,40.829 v 263.111 c 0,16.547 -13.55,30.09 -30.105,30.09 h -7.88 M -117.837,58.142 V -0.142 l 82.801,0.085"
             style="fill:none;stroke:#000000;stroke-width:15.118;stroke-linecap:round;stroke-linejoin:round;stroke-miterlimit:10;stroke-dasharray:none;stroke-opacity:1"
             id="path5933" /></g><g
           id="g5935"
           transform="translate(215.4219,198.5527)"><path
             d="M 0,0 C -20.693,12.014 -89.972,18.955 -131.187,0"
             style="fill:none;stroke:#000000;stroke-width:15.118;stroke-linecap:round;stroke-linejoin:round;stroke-miterlimit:10;stroke-dasharray:none;stroke-opacity:1"
             id="path5937" /></g><g
           id="g5939"
           transform="translate(215.4219,143.0752)"><path
             d="M 0,0 C -20.693,12.014 -89.972,18.955 -131.187,0"
             style="fill:none;stroke:#000000;stroke-width:15.118;stroke-linecap:round;stroke-linejoin:round;stroke-miterlimit:10;stroke-dasharray:none;stroke-opacity:1"
             id="path5941" /></g><g
           id="g5943"
           transform="translate(215.4219,254.0312)"><path
             d="M 0,0 C -20.693,12.013 -89.972,18.983 -131.187,0"
             style="fill:none;stroke:#000000;stroke-width:15.118;stroke-linecap:round;stroke-linejoin:round;stroke-miterlimit:10;stroke-dasharray:none;stroke-opacity:1"
             id="path5945" /></g><g
           id="g5947"
           transform="translate(255.9854,10.5)"><path
             d="m 0,0 -205.71,0.255 c -27.582,0.028 -42.775,19.891 -42.775,40.829 v 263.11 c 0,16.547 13.521,30.09 30.076,30.09 h 7.908"
             style="fill:none;stroke:#000000;stroke-width:15.118;stroke-linecap:round;stroke-linejoin:round;stroke-miterlimit:10;stroke-dasharray:none;stroke-opacity:1"
             id="path5949" /></g><g
           id="g5951"
           transform="translate(129.0781,382.7803)"><path
             d="m 0,0 c -25.993,-1.416 -43.2,-4.137 -59.669,-8.812 -17.858,-5.072 -23.925,-6.686 -23.925,-21.76 v -287.562 c 0,-8.784 7.002,-15.98 15.563,-15.98 h 194.938 m 0,316.405 C 112.395,-9.293 82.942,-2.437 37.19,0.057"
             style="fill:none;stroke:#000000;stroke-width:15.118;stroke-linecap:round;stroke-linejoin:round;stroke-miterlimit:10;stroke-dasharray:none;stroke-opacity:1"
             id="path5953" /></g><g
           id="g5955"
           transform="translate(296.5781,198.5527)"><path
             d="M 0,0 C 20.665,12.014 89.972,18.955 131.159,0"
             style="fill:none;stroke:#000000;stroke-width:15.118;stroke-linecap:round;stroke-linejoin:round;stroke-miterlimit:10;stroke-dasharray:none;stroke-opacity:1"
             id="path5957" /></g><g
           id="g5959"
           transform="translate(296.5781,143.0752)"><path
             d="M 0,0 C 20.665,12.014 89.972,18.955 131.159,0"
             style="fill:none;stroke:#000000;stroke-width:15.118;stroke-linecap:round;stroke-linejoin:round;stroke-miterlimit:10;stroke-dasharray:none;stroke-opacity:1"
             id="path5961" /></g><g
           id="g5963"
           transform="translate(255.9854,68.7832)"><path
             d="M 0,0 C 33.194,19.238 144.397,30.374 210.53,0"
             style="fill:none;stroke:#000000;stroke-width:15.118;stroke-linecap:round;stroke-linejoin:round;stroke-miterlimit:10;stroke-dasharray:none;stroke-opacity:1"
             id="path5965" /></g><g
           id="g5967"
           transform="translate(255.9854,68.7832)"><path
             d="M 0,0 C -33.165,19.238 -144.396,30.374 -210.501,0"
             style="fill:none;stroke:#000000;stroke-width:15.118;stroke-linecap:round;stroke-linejoin:round;stroke-miterlimit:10;stroke-dasharray:none;stroke-opacity:1"
             id="path5969" /></g><g
           id="g5971"
           transform="translate(255.9854,365.0713)"><path
             d="M 0,0 V -296.288"
             style="fill:none;stroke:#000000;stroke-width:15.118;stroke-linecap:round;stroke-linejoin:round;stroke-miterlimit:10;stroke-dasharray:none;stroke-opacity:1"
             id="path5973" /></g><g
           id="g5975"
           transform="translate(355.2842,299.5918)"><path
             d="M 0,0 V 67.491"
             style="fill:none;stroke:#000000;stroke-width:15.118;stroke-linecap:round;stroke-linejoin:round;stroke-miterlimit:10;stroke-dasharray:none;stroke-opacity:1"
             id="path5977" /></g><g
           id="g5979"
           transform="translate(374.7012,367.083)"><path
             d="M 0,0 H -19.417 -39.601"
             style="fill:none;stroke:#000000;stroke-width:15.118;stroke-linecap:round;stroke-linejoin:round;stroke-miterlimit:10;stroke-dasharray:none;stroke-opacity:1"
             id="path5981" /></g><g
           id="g5983"
           transform="translate(355.3408,481.666)"><path
             d="M 0,0 V 19.834"
             style="fill:none;stroke:#000000;stroke-width:15.118;stroke-linecap:round;stroke-linejoin:round;stroke-miterlimit:10;stroke-dasharray:none;stroke-opacity:1"
             id="path5985" /></g><g
           id="g5987"
           transform="translate(276.9619,478.0391)"><path
             d="M 0,0 14.061,-14.054"
             style="fill:none;stroke:#000000;stroke-width:15.118;stroke-linecap:round;stroke-linejoin:round;stroke-miterlimit:10;stroke-dasharray:none;stroke-opacity:1"
             id="path5989" /></g><g
           id="g5991"
           transform="translate(433.6904,478.0391)"><path
             d="M 0,0 -14.031,-14.054"
             style="fill:none;stroke:#000000;stroke-width:15.118;stroke-linecap:round;stroke-linejoin:round;stroke-miterlimit:10;stroke-dasharray:none;stroke-opacity:1"
             id="path5993" /></g><g
           id="g5995"
           transform="translate(331.6992,299.5918)"><path
             d="m 0,0 h 47.197 c 10.205,0 18.568,-8.358 18.568,-18.559 0,-10.2 -8.363,-18.53 -18.568,-18.53 H 0 c -10.232,0 -18.566,8.33 -18.566,18.53 C -18.566,-8.358 -10.232,0 0,0 Z"
             style="fill:none;stroke:#000000;stroke-width:15.118;stroke-linecap:round;stroke-linejoin:round;stroke-miterlimit:10;stroke-dasharray:none;stroke-opacity:1"
             id="path5997" /></g><g
           id="g5999"
           transform="translate(329.8857,299.5918)"><path
             d="m 0,0 h 25.398 25.427 c 0,40.857 39.571,46.128 39.515,90.074 -0.057,41.877 -32.486,62.477 -64.942,61.994 C -7.03,152.551 -39.459,131.951 -39.516,90.074 -39.572,46.128 0,40.857 0,0 Z"
             style="fill:none;stroke:#000000;stroke-width:15.118;stroke-linecap:round;stroke-linejoin:round;stroke-miterlimit:10;stroke-dasharray:none;stroke-opacity:1"
             id="path6001" /></g><g
           id="g6003"
           transform="translate(419.4033,379.125)"><path
             d="m 0,0 c 8.334,-1.359 15.846,-3.06 23.159,-5.156 17.887,-5.073 23.953,-6.687 23.953,-21.761 v -287.562 c 0,-8.784 -7.03,-15.98 -15.591,-15.98 h -194.939 m 0,316.405 c 7.654,4.45 19.475,8.445 35.66,11.589"
             style="fill:none;stroke:#000000;stroke-width:15.118;stroke-linecap:round;stroke-linejoin:round;stroke-miterlimit:10;stroke-dasharray:none;stroke-opacity:1"
             id="path6005" /></g><g
           id="g6007"
           transform="translate(215.4219,309.5371)"><path
             d="M 0,0 C -20.693,11.985 -89.972,18.955 -131.187,0"
             style="fill:none;stroke:#000000;stroke-width:15.118;stroke-linecap:round;stroke-linejoin:round;stroke-miterlimit:10;stroke-dasharray:none;stroke-opacity:1"
             id="path6009" /></g></g></g></g></svg>
