<svg width="20" height="20" clip-rule="evenodd" fill-rule="evenodd" stroke-linejoin="round" stroke-miterlimit="2" viewBox="0 0 510 510" xmlns="http://www.w3.org/2000/svg"><g><g><g fill="#66d4f1"><circle cx="195.931" cy="35.538" r="20.538"/><path d="m43.526 127.063c8.016-8.016 21.031-8.016 29.046 0 8.015 8.015 8.015 21.03 0 29.045-8.015 8.016-21.03 8.016-29.046 0-8.015-8.015-8.015-21.03 0-29.045z"/><path d="m15 314.069c0-11.335 9.203-20.538 20.538-20.538 11.336 0 20.539 9.203 20.539 20.538 0 11.336-9.203 20.539-20.539 20.539-11.335 0-20.538-9.203-20.538-20.539z"/><path d="m127.063 466.474c-8.016-8.016-8.016-21.031 0-29.046 8.015-8.015 21.03-8.015 29.045 0 8.016 8.015 8.016 21.03 0 29.046-8.015 8.015-21.03 8.015-29.045 0z"/><circle cx="314.069" cy="474.462" r="20.538"/><path d="m466.474 382.937c-8.016 8.016-21.031 8.016-29.046 0-8.015-8.015-8.015-21.03 0-29.045 8.015-8.016 21.03-8.016 29.046 0 8.015 8.015 8.015 21.03 0 29.045z"/><path d="m495 195.931c0 11.335-9.203 20.538-20.538 20.538-11.336 0-20.539-9.203-20.539-20.538 0-11.336 9.203-20.539 20.539-20.539 11.335 0 20.538 9.203 20.538 20.539z"/><path d="m382.937 43.526c8.016 8.016 8.016 21.031 0 29.046-8.015 8.015-21.03 8.015-29.045 0-8.016-8.015-8.016-21.03 0-29.046 8.015-8.015 21.03-8.015 29.045 0z"/></g><g><path d="m385.683 278.17c-27.539 0-41.367 33.37-21.889 52.848 3.585 3.585 3.585 9.416 0 13.001l-19.775 19.775c-3.585 3.585-9.416 3.585-13.001 0-19.478-19.478-52.848-5.65-52.848 21.889 0 5.088-4.114 9.185-9.186 9.185h-27.968c-5.072 0-9.186-4.097-9.186-9.185 0-27.572-33.354-41.383-52.848-21.889-3.585 3.585-9.4 3.585-12.985 0l-19.791-19.775c-3.585-3.585-3.585-9.416 0-13.001 19.478-19.478 5.667-52.848-21.889-52.848-5.072 0-9.185-4.114-9.185-9.186v-27.968c0-5.072 4.113-9.186 9.185-9.186 27.556 0 41.367-33.37 21.889-52.848-3.585-3.585-3.585-9.4 0-12.985l19.791-19.791c3.585-3.585 9.4-3.585 12.985 0 19.478 19.478 52.848 5.667 52.848-21.889 0-5.072 4.114-9.185 9.186-9.185h27.968c5.072 0 9.186 4.113 9.186 9.185 0 27.556 33.37 41.367 52.848 21.889 3.585-3.585 9.416-3.585 13.001 0l19.775 19.791c3.585 3.585 3.585 9.4 0 12.985-19.478 19.478-5.65 52.848 21.889 52.848 5.088 0 9.185 4.114 9.185 9.186v27.968c0 5.072-4.097 9.186-9.185 9.186z" fill="#fdcd56"/></g></g><path d="m42.538 287.43c11.814 3.1 20.539 13.859 20.539 26.639 0 15.199-12.34 27.539-27.539 27.539-15.198 0-27.538-12.34-27.538-27.539 0-12.78 8.725-23.539 20.538-26.639v-27.389c0-6.65 5.391-12.041 12.041-12.041h67.553v-6.984c0-8.937 7.248-16.186 16.185-16.186 21.325 0 32.013-25.825 16.939-40.898-6.318-6.318-6.318-16.566 0-22.884l4.946-4.946-46.385-46.385-17.981 17.981c6.161 10.546 4.723 24.323-4.314 33.36-10.747 10.747-28.198 10.747-38.946 0-10.747-10.747-10.747-28.198 0-38.945 9.038-9.037 22.815-10.475 33.36-4.314l19.367-19.367c4.702-4.702 12.326-4.702 17.028 0l47.771 47.77 4.946-4.946c6.318-6.318 16.566-6.318 22.884 0 15.073 15.074 40.898 4.386 40.898-16.939 0-8.937 7.249-16.185 16.186-16.185h6.984v-65.594h-25.43c-3.1 11.814-13.859 20.539-26.639 20.539-15.199 0-27.539-12.34-27.539-27.539 0-15.198 12.34-27.538 27.539-27.538 12.78 0 23.539 8.725 26.639 20.538h27.389c6.65 0 12.041 5.391 12.041 12.041v67.553h6.984c8.937 0 16.186 7.248 16.186 16.185 0 21.325 25.825 32.013 40.898 16.939 6.314-6.314 16.586-6.314 22.901 0l4.935 4.94 46.379-46.379-17.981-17.981c-10.546 6.161-24.323 4.723-33.36-4.314-10.747-10.747-10.747-28.198 0-38.946 10.747-10.747 28.198-10.747 38.945 0 9.037 9.038 10.475 22.815 4.314 33.36l19.367 19.367c4.702 4.702 4.702 12.326 0 17.028l-47.768 47.769 4.944 4.948c6.318 6.318 6.318 16.566 0 22.884-15.074 15.073-4.373 40.898 16.939 40.898 8.966 0 16.185 7.249 16.185 16.186v6.984h65.594v-25.43c-11.814-3.1-20.539-13.859-20.539-26.639 0-15.199 12.34-27.539 27.539-27.539 15.198 0 27.538 12.34 27.538 27.539 0 12.78-8.725 23.539-20.538 26.639v27.389c0 6.65-5.391 12.041-12.041 12.041h-67.553v6.984c0 8.937-7.219 16.186-16.185 16.186-21.312 0-32.013 25.825-16.939 40.898 6.314 6.314 6.314 16.586 0 22.901l-4.938 4.937 46.377 46.377 17.981-17.981c-6.161-10.546-4.723-24.323 4.314-33.36 10.747-10.747 28.198-10.747 38.946 0 10.747 10.747 10.747 28.198 0 38.945-9.038 9.037-22.815 10.475-33.36 4.314l-19.367 19.367c-4.702 4.702-12.326 4.702-17.028 0l-47.763-47.762-4.937 4.938c-6.315 6.314-16.587 6.314-22.901 0-15.073-15.074-40.898-4.373-40.898 16.939 0 8.966-7.249 16.185-16.186 16.185h-6.984v65.594h25.43c3.1-11.814 13.859-20.539 26.639-20.539 15.199 0 27.539 12.34 27.539 27.539 0 15.198-12.34 27.538-27.539 27.538-12.78 0-23.539-8.725-26.639-20.538h-27.389c-6.65 0-12.041-5.391-12.041-12.041v-67.553h-6.984c-8.937 0-16.186-7.219-16.186-16.185 0-21.338-25.812-32.025-40.898-16.939-6.318 6.318-16.566 6.318-22.882.002l-4.95-4.946-46.383 46.383 17.981 17.981c10.546-6.161 24.323-4.723 33.36 4.314 10.747 10.747 10.747 28.198 0 38.946-10.747 10.747-28.198 10.747-38.945 0-9.037-9.038-10.475-22.815-4.314-33.36l-19.367-19.367c-4.702-4.702-4.702-12.326 0-17.028l47.764-47.765-4.94-4.935c-6.314-6.315-6.314-16.587 0-22.901 15.074-15.073 4.386-40.898-16.939-40.898-8.937 0-16.185-7.249-16.185-16.186v-6.984h-65.594zm-7 13.101c-7.472 0-13.538 6.066-13.538 13.538s6.066 13.539 13.538 13.539c7.473 0 13.539-6.067 13.539-13.539s-6.066-13.538-13.539-13.538zm135.409-149.375-19.791 19.791c-.852.852-.852 2.234 0 3.086 23.881 23.881 6.947 64.797-26.839 64.797-1.207 0-2.185.979-2.185 2.186v27.968c0 1.207.978 2.186 2.185 2.186 33.786 0 50.72 40.916 26.839 64.797-.855.856-.855 2.247 0 3.102l19.791 19.775c.852.852 2.234.852 3.086 0 23.901-23.902 64.797-6.968 64.797 26.839 0 1.211.979 2.185 2.186 2.185h27.968c1.207 0 2.186-.974 2.186-2.185 0-33.766 40.916-50.72 64.797-26.839.856.855 2.247.855 3.102 0l19.775-19.775c.855-.855.855-2.246 0-3.102-23.881-23.881-6.927-64.797 26.839-64.797 1.211 0 2.185-.979 2.185-2.186v-27.968c0-1.207-.974-2.186-2.185-2.186-33.766 0-50.72-40.916-26.839-64.797.852-.852.852-2.234 0-3.086l-19.775-19.791c-.855-.855-2.246-.855-3.102 0-23.881 23.881-64.797 6.947-64.797-26.839 0-1.207-.979-2.185-2.186-2.185h-27.968c-1.207 0-2.186.978-2.186 2.185 0 33.786-40.916 50.72-64.797 26.839-.852-.852-2.234-.852-3.086 0zm-103.325-19.144c-5.283-5.283-13.862-5.283-19.146 0-5.284 5.284-5.284 13.863 0 19.147 5.284 5.283 13.863 5.283 19.146 0 5.284-5.284 5.284-13.863 0-19.147zm141.847-96.474c0-7.472-6.066-13.538-13.538-13.538s-13.539 6.066-13.539 13.538c0 7.473 6.067 13.539 13.539 13.539s13.538-6.066 13.538-13.539zm168.519 32.084c5.283-5.283 5.283-13.862 0-19.146-5.284-5.284-13.863-5.284-19.147 0-5.283 5.284-5.283 13.863 0 19.146 5.284 5.284 13.863 5.284 19.147 0zm96.474 141.847c7.472 0 13.538-6.066 13.538-13.538s-6.066-13.539-13.538-13.539c-7.473 0-13.539 6.067-13.539 13.539s6.066 13.538 13.539 13.538zm-32.084 168.519c5.283 5.283 13.862 5.283 19.146 0 5.284-5.284 5.284-13.863 0-19.147-5.284-5.283-13.863-5.283-19.146 0-5.284 5.284-5.284 13.863 0 19.147zm-141.847 96.474c0 7.472 6.066 13.538 13.538 13.538s13.539-6.066 13.539-13.538c0-7.473-6.067-13.539-13.539-13.539s-13.538 6.066-13.538 13.539zm-168.519-32.084c-5.283 5.283-5.283 13.862 0 19.146 5.284 5.284 13.863 5.284 19.147 0 5.283-5.284 5.283-13.863 0-19.146-5.284-5.284-13.863-5.284-19.147 0zm56.938-186.766c-.002-.201-.003-.402-.003-.604 0-36.392 29.669-66.061 66.061-66.061 36.376 0 66.061 29.669 66.061 66.061 0 36.376-29.685 66.061-66.061 66.061-11.315 0-21.981-2.87-31.308-7.916-3.398-1.839-4.664-6.09-2.826-9.488 1.839-3.398 6.09-4.664 9.488-2.826 7.342 3.973 15.739 6.23 24.646 6.23 28.667 0 52.061-23.394 52.061-52.061 0-28.679-23.394-52.061-52.061-52.061-28.679 0-52.061 23.382-52.061 52.061 0 .45.006.899.018 1.347l3.738-7.095c1.8-3.418 6.037-4.731 9.455-2.93s4.731 6.038 2.931 9.456l-12.78 24.256c-1.038 1.971-2.953 3.33-5.156 3.66s-4.432-.409-6.002-1.989l-19.326-19.447c-2.723-2.741-2.709-7.177.031-9.9 2.741-2.723 7.177-2.709 9.9.031z"/></g></svg>