<svg height="20" width="20" id="Layer_1" viewBox="0 0 24 24" xmlns="http://www.w3.org/2000/svg"><rect fill="#ffdc00" height="6" rx="1" width="7" x="5" y="14"/><path d="m6.5 12h-.5c-1.1 0-2-.9-2-2v-4c0-1.1.9-2 2-2h12c1.1 0 2 .9 2 2v4c0 1.1-.9 2-2 2h-1l-3 2v-2z" fill="#21ce62"/><path d="m8.5 14.5c-.28 0-.5-.22-.5-.5v-4c0-.28.22-.5.5-.5s.5.22.5.5v4c0 .28-.22.5-.5.5z"/><path d="m11 20.5h-5c-.83 0-1.5-.67-1.5-1.5v-4c0-.83.67-1.5 1.5-1.5h5c.83 0 1.5.67 1.5 1.5v4c0 .83-.67 1.5-1.5 1.5zm-5-6c-.28 0-.5.22-.5.5v4c0 .28.22.5.5.5h5c.28 0 .5-.22.5-.5v-4c0-.28-.22-.5-.5-.5z"/><path d="m7 16.75c-.28 0-.5-.22-.5-.5v-.25c0-.28.22-.5.5-.5s.5.22.5.5v.25c0 .28-.22.5-.5.5z"/><path d="m10 16.75c-.28 0-.5-.22-.5-.5v-.25c0-.28.22-.5.5-.5s.5.22.5.5v.25c0 .28-.22.5-.5.5z"/><path d="m7.28 18.45c-.25-.12-.35-.42-.22-.67.12-.25.42-.35.67-.22.49.24 1.07.24 1.55 0 .25-.12.55-.02.67.22s.02.55-.22.67c-.77.38-1.68.38-2.45 0z"/><path d="m13 16.5h-1c-.28 0-.5-.22-.5-.5s.22-.5.5-.5h1c.28 0 .5.22.5.5s-.22.5-.5.5z"/><path d="m5 16.5h-1c-.28 0-.5-.22-.5-.5s.22-.5.5-.5h1c.28 0 .5.22.5.5s-.22.5-.5.5z"/><path d="m13.5 14v-1.5h-3c-.28 0-.5-.22-.5-.5s.22-.5.5-.5h3.5c.28 0 .5.22.5.5v1.07l2.22-1.48c.08-.05.18-.08.28-.08h1c.83 0 1.5-.67 1.5-1.5v-4c0-.83-.67-1.5-1.5-1.5h-12c-.83 0-1.5.67-1.5 1.5v4c0 .83.67 1.5 1.5 1.5h.5c.28 0 .5.22.5.5s-.22.5-.5.5h-.5c-1.38 0-2.5-1.12-2.5-2.5v-4c0-1.38 1.12-2.5 2.5-2.5h12c1.38 0 2.5 1.12 2.5 2.5v4c0 1.38-1.12 2.5-2.5 2.5h-.85l-2.87 1.92c-.33.22-.78-.02-.78-.42z"/><g fill="#fff"><path d="m18 6.5h-12c-.28 0-.5-.22-.5-.5s.22-.5.5-.5h12c.28 0 .5.22.5.5s-.22.5-.5.5z"/><path d="m18 8.5h-12c-.28 0-.5-.22-.5-.5s.22-.5.5-.5h12c.28 0 .5.22.5.5s-.22.5-.5.5z"/><path d="m6.5 10.5h-.5c-.28 0-.5-.22-.5-.5s.22-.5.5-.5h.5c.28 0 .5.22.5.5s-.22.5-.5.5z"/><path d="m18 10.5h-7.5c-.28 0-.5-.22-.5-.5s.22-.5.5-.5h7.5c.28 0 .5.22.5.5s-.22.5-.5.5z"/></g></svg>