<svg clip-rule="evenodd" fill-rule="evenodd" height="20" stroke-linejoin="round" stroke-miterlimit="2" viewBox="0 0 48 48" width="20" xmlns="http://www.w3.org/2000/svg" xmlns:xlink="http://www.w3.org/1999/xlink"><linearGradient id="_Linear1" gradientTransform="matrix(48 48 -48 48 0 575.5)" gradientUnits="userSpaceOnUse" x1="0" x2="1" y1="0" y2="0"><stop offset="0" stop-color="#79c5d4"/><stop offset="1" stop-color="#276dd7"/></linearGradient><g transform="translate(0 -576)"><g id="SOLID-GRADIENT"><path d="m43 620.078h-38c-1.65 0-3-1.35-3-3v-34c0-1.65 1.35-3 3-3h38c1.65 0 3 1.35 3 3v34c0 1.65-1.35 3-3 3zm-4-11h-10c-.552 0-1 .449-1 1 0 .552.448 1 1 1h10c.552 0 1-.448 1-1 0-.551-.448-1-1-1zm-21.414-9-9.293 9.293c-.39.391-.39 1.024 0 1.415.39.39 1.024.39 1.414 0l9.293-9.293c.375-.375.586-.884.586-1.415 0-.53-.211-1.039-.586-1.414l-9.293-9.293c-.39-.39-1.024-.39-1.414 0-.39.391-.39 1.024 0 1.415z" fill="url(#_Linear1)"/></g></g></svg>