<svg enable-background="new 0 0 256 256" height="20" viewBox="0 0 256 256" width="20" xmlns="http://www.w3.org/2000/svg"><g id="Layer_1"><g><path d="m251.333 59.804v163.414c0 2.761-2.239 5-5 5h-236.666c-2.761 0-5-2.239-5-5v-163.414z" fill="#7c7b7a"/><path d="m251.333 32.782v27.022h-246.666v-27.022c0-2.761 2.239-5 5-5h236.667c2.761 0 4.999 2.239 4.999 5z" fill="#72c1e8"/><circle cx="23.756" cy="43.793" fill="#fc5d3d" r="6.132"/><circle cx="47.402" cy="43.793" fill="#f0c020" r="6.132"/><circle cx="71.048" cy="43.793" fill="#13bf6d" r="6.132"/><g fill="#efefef"><path d="m239 218.375h-203.615c-1.381 0-2.5-1.119-2.5-2.5s1.119-2.5 2.5-2.5h201.115v-139.885c0-1.381 1.119-2.5 2.5-2.5s2.5 1.119 2.5 2.5v142.385c0 1.381-1.119 2.5-2.5 2.5zm-213.615 0h-7.761c-1.381 0-2.5-1.119-2.5-2.5s1.119-2.5 2.5-2.5h7.761c1.381 0 2.5 1.119 2.5 2.5s-1.119 2.5-2.5 2.5z"/><path d="m59.457 193.205c-3.908-3.909-3.91-10.229 0-14.14l35.061-35.05-35.061-35.06c-3.89-3.89-3.89-10.24 0-14.14 3.94-3.938 10.27-3.881 14.15 0l42.12 42.13c3.867 3.866 3.933 10.186 0 14.14l-42.12 42.12c-3.9 3.902-10.229 3.92-14.15 0z"/><path d="m189.475 196.136h-59c-5.51 0-10-4.48-10-10 0-5.51 4.49-10 10-10h59c5.51 0 10 4.49 10 10 0 5.52-4.491 10-10 10z"/></g><path d="m2.17 119.01c0 1.38 1.12 2.5 2.5 2.5s2.5-1.12 2.5-2.5v-.01-56.7h241.66v160.92c0 1.38-1.12 2.5-2.5 2.5h-236.66c-1.38 0-2.5-1.13-2.5-2.5v-84.21c0-1.38-1.13-2.5-2.5-2.5-1.38 0-2.5 1.12-2.5 2.5v84.21c0 4.13 3.36 7.5 7.5 7.5h236.66c4.14 0 7.5-3.37 7.5-7.5 0-3.503.003-187.649.003-190.438 0-4.136-3.364-7.5-7.5-7.5h-236.666c-4.136 0-7.5 3.364-7.5 7.5 0 2.706.003 34.85.003 86.228zm7.497-88.728h236.666c1.379 0 2.5 1.122 2.5 2.5v24.518h-241.666v-24.518c0-1.378 1.121-2.5 2.5-2.5z"/><circle cx="4.67" cy="129.01" r="2.5"/><path d="m23.76 52.42c4.75 0 8.63-3.87 8.63-8.63s-3.88-8.63-8.63-8.63c-4.76 0-8.64 3.87-8.64 8.63s3.88 8.63 8.64 8.63zm0-12.26c2 0 3.62 1.63 3.63 3.63-.01 2-1.63 3.63-3.63 3.64-2-.01-3.63-1.64-3.64-3.64.01-2 1.64-3.63 3.64-3.63z"/><path d="m47.399 52.42c4.761 0 8.631-3.87 8.631-8.63 0-4.75-3.87-8.63-8.631-8.63-4.76 0-8.63 3.88-8.63 8.63.001 4.76 3.871 8.63 8.63 8.63zm0-12.26c2 0 3.631 1.63 3.641 3.63-.01 2-1.641 3.63-3.641 3.64-2-.01-3.63-1.64-3.63-3.64s1.63-3.63 3.63-3.63z"/><path d="m71.05 52.43c4.76-.01 8.63-3.88 8.63-8.64 0-4.75-3.87-8.63-8.63-8.63s-8.63 3.88-8.63 8.63c0 4.76 3.87 8.63 8.63 8.64zm0-12.27c2 0 3.63 1.64 3.63 3.63 0 2-1.63 3.63-3.63 3.64-2-.01-3.63-1.64-3.63-3.64 0-1.99 1.63-3.63 3.63-3.63z"/><path d="m96.58 46.29h100c1.38 0 2.5-1.12 2.5-2.5s-1.12-2.5-2.5-2.5h-100c-1.38 0-2.5 1.12-2.5 2.5s1.12 2.5 2.5 2.5z"/><circle cx="206.58" cy="43.79" r="2.5"/><path d="m216.58 46.29h20.42c1.38 0 2.5-1.12 2.5-2.5s-1.12-2.5-2.5-2.5h-20.42c-1.38 0-2.5 1.12-2.5 2.5s1.12 2.5 2.5 2.5z"/><path d="m57.68 194.96c0 .01.01.01.01.01 4.85 4.87 12.784 4.917 17.681 0l42.12-42.12c4.979-4.981 4.792-12.876 0-17.67l-42.111-42.13c-4.895-4.895-12.816-4.895-17.69 0-4.895 4.896-4.846 12.844 0 17.67l33.29 33.3-33.29 33.28c-4.866 4.844-4.915 12.756-.01 17.66zm3.54-14.13 35.061-35.05c.998-.978.973-2.576 0-3.53l-35.061-35.06c-6.941-6.99 3.563-17.619 10.62-10.61l42.12 42.13c2.891 2.891 2.954 7.646-.01 10.61l-42.11 42.12c-2.95 2.93-7.672 2.928-10.62 0-2.916-2.936-2.942-7.648 0-10.61z"/><path d="m130.47 198.63h59c6.89 0 12.5-5.61 12.5-12.49 0-6.89-5.61-12.5-12.5-12.5h-59c-6.88 0-12.49 5.61-12.5 12.5.009 6.88 5.62 12.49 12.5 12.49zm0-19.99h59c4.13 0 7.5 3.37 7.51 7.5-.01 4.13-3.38 7.49-7.51 7.5h-59c-4.12-.01-7.49-3.37-7.5-7.5.009-4.13 3.38-7.5 7.5-7.5z"/></g></g></svg>