<svg width="20" height="20" id="Layer_1" viewBox="0 0 512 512" xmlns="http://www.w3.org/2000/svg" data-name="Layer 1"><g fill-rule="evenodd"><path d="m255.412 299.909 42.708 87.84 42.739 87.839h-85.447-85.418l42.709-87.839z" fill="#4684cf"/><path d="m255.412 350.162a43.566 43.566 0 1 0 -43.476-43.55 43.593 43.593 0 0 0 43.476 43.55z" fill="#ffba3b"/><path d="m255.412 322.437a15.841 15.841 0 1 0 -15.8-15.825 15.856 15.856 0 0 0 15.8 15.825z" fill="#eaf6ff"/><path d="m66.98 267.933h27.088v23.827a13.579 13.579 0 0 1 -13.529 13.552 13.585 13.585 0 0 1 -13.559-13.552z" fill="#ffba3b"/><path d="m49.915 254.114c-12.262-26.366-42.68-40.714-42.68-82.814a73.289 73.289 0 1 1 146.578 0c0 42.1-30.389 56.453-42.68 82.819v20.4a9.593 9.593 0 0 1 -9.55 9.566h-42.089a9.6 9.6 0 0 1 -9.579-9.566z" fill="#ffba3b"/><path d="m111.133 254.114v20.4a9.593 9.593 0 0 1 -9.55 9.566h-42.089a9.6 9.6 0 0 1 -9.579-9.566v-20.4z" fill="#3a6584"/><path d="m416.874 204.187h27.087v23.827a13.61 13.61 0 0 1 -13.561 13.586 13.6 13.6 0 0 1 -13.528-13.582z" fill="#ffba3b"/><path d="m399.808 190.368c-12.291-26.337-42.68-40.686-42.68-82.79a73.289 73.289 0 1 1 146.578 0c0 42.1-30.418 56.453-42.679 82.79v20.4a9.575 9.575 0 0 1 -9.55 9.566h-42.119a9.574 9.574 0 0 1 -9.55-9.566z" fill="#ffba3b"/><path d="m461.027 190.368v20.4a9.575 9.575 0 0 1 -9.55 9.566h-42.119a9.574 9.574 0 0 1 -9.55-9.566v-20.4z" fill="#3a6584"/><path d="m234.544 396.488 22.548-46.355c-.56 0-1.12.029-1.68.029a43.013 43.013 0 0 1 -21.635-5.787l-21.077 43.374-42.709 87.839h26.085z" fill="#3f77ba"/><path d="m68.012 254.114h-18.1v20.4a9.6 9.6 0 0 0 9.579 9.566h18.071a9.593 9.593 0 0 1 -9.55-9.566z" fill="#2f526b"/><path d="m49.915 254.114h18.1c-12.265-26.366-42.682-40.714-42.682-82.814a73.363 73.363 0 0 1 64.254-72.846 76.42 76.42 0 0 0 -9.048-.561 73.363 73.363 0 0 0 -73.3 73.4c0 42.1 30.418 56.453 42.68 82.819z" fill="#e8a221"/><path d="m417.905 190.368h-18.1v20.4a9.574 9.574 0 0 0 9.55 9.566h18.1a9.574 9.574 0 0 1 -9.55-9.566z" fill="#2f526b"/><path d="m399.808 190.368h18.1c-12.291-26.337-42.679-40.686-42.679-82.79a73.412 73.412 0 0 1 64.225-72.87 76.065 76.065 0 0 0 -9.049-.532 73.338 73.338 0 0 0 -73.274 73.4c0 42.1 30.389 56.453 42.68 82.79z" fill="#e8a221"/></g><path d="m255.941 284.585a23.138 23.138 0 1 0 23.152 23.153 23.163 23.163 0 0 0 -23.152-23.153zm0 31.686a8.549 8.549 0 1 1 8.564-8.533 8.544 8.544 0 0 1 -8.564 8.533zm175.323-288.306a80.8 80.8 0 0 0 -80.707 80.707c0 30.263 14.492 47.614 27.278 62.922 5.975 7.154 11.638 13.934 15.482 21.559v18.728a16.882 16.882 0 0 0 16.862 16.863h.236v.384a20.891 20.891 0 0 0 13.555 19.533v20.839l-119.852 21.989a50.84 50.84 0 0 0 -99.028 16.249c0 .626.025 1.247.047 1.869l-117.194 21.5.066-18.709a20.867 20.867 0 0 0 13.576-19.515v-.383h.236a16.881 16.881 0 0 0 16.862-16.862v-18.732c3.847-7.64 9.514-14.429 15.495-21.594 12.78-15.309 27.265-32.661 27.265-62.913a80.722 80.722 0 0 0 -161.443.001c0 30.238 14.481 47.585 27.259 62.89 5.986 7.171 11.66 13.968 15.5 21.614v18.735a16.881 16.881 0 0 0 16.863 16.861h.237v.383a20.867 20.867 0 0 0 13.562 19.5l-.1 27.455a7.293 7.293 0 0 0 8.611 7.2l125.823-23.083a51.033 51.033 0 0 0 17.182 24.045l-61.137 125.547a7.295 7.295 0 0 0 6.558 10.488h171.192a7.294 7.294 0 0 0 6.557-10.489l-61.161-125.546a50.786 50.786 0 0 0 19.846-40.265c0-.637-.024-1.268-.048-1.9l125.836-23.082a7.294 7.294 0 0 0 5.978-7.174v-26.914a20.894 20.894 0 0 0 13.583-19.537v-.384h.237a16.882 16.882 0 0 0 16.862-16.863v-18.732c3.839-7.631 9.507-14.417 15.488-21.578 12.783-15.3 27.272-32.65 27.272-62.9a80.813 80.813 0 0 0 -80.736-80.706zm-356.817 264.918v-.383h12.553v.383a6.275 6.275 0 0 1 -12.55 0zm-35.99-66.943c-12.275-14.7-23.869-28.592-23.869-53.541a66.134 66.134 0 0 1 132.267 0c0 24.964-11.6 38.857-23.876 53.565-5.7 6.828-11.554 13.864-16.036 21.974h-52.438c-4.481-8.12-10.342-15.163-16.048-21.998zm21.165 51.971a2.3 2.3 0 0 1 -2.274-2.273v-13.112h46.752v13.112a2.3 2.3 0 0 1 -2.274 2.273zm270.261 191.535h-147.857l55.642-114.266a50.674 50.674 0 0 0 36.547 0zm-73.942-125.446a36.278 36.278 0 1 1 36.264-36.262 36.3 36.3 0 0 1 -36.264 36.262zm181.612-114.872a6.275 6.275 0 1 1 -12.55 0v-.384h12.55zm17.1-17.247a2.3 2.3 0 0 1 -2.274 2.274h-42.2a2.3 2.3 0 0 1 -2.274-2.274v-13.11h46.747zm18.88-49.662c-5.7 6.825-11.556 13.858-16.034 21.963h-52.444c-4.48-8.1-10.329-15.121-16.024-21.939-12.283-14.707-23.886-28.6-23.886-53.571a66.134 66.134 0 0 1 132.267 0c0 24.958-11.599 38.844-23.88 53.547zm-361.507 47.123-9.627-35.9a7.218 7.218 0 0 0 -.194-.725l-8.837-32.957c-1.368-5.178-6.408-8.66-12.532-8.671h-.022c-6.232 0-11.349 3.475-12.734 8.653l-18.634 69.6a7.294 7.294 0 1 0 14.091 3.772l8.263-30.851h17.861l8.275 30.858a7.294 7.294 0 0 0 14.09-3.779zm-36.326-41.668 5.02-18.747 5.027 18.747zm361.7-100.315h-30.469a7.294 7.294 0 0 0 -7.294 7.294v72.852a7.294 7.294 0 0 0 7.294 7.3h30.475a25.484 25.484 0 0 0 17.841-43.71 25.5 25.5 0 0 0 -17.841-43.731zm0 72.852h-23.175v-21.822h23.181a10.911 10.911 0 1 1 0 21.822zm0-36.411h-23.175v-21.852h23.181a10.926 10.926 0 1 1 0 21.852z"/></svg>