<svg width="20" height="20" clip-rule="evenodd" fill-rule="evenodd" stroke-linejoin="round" stroke-miterlimit="2" viewBox="0 0 510 510" xmlns="http://www.w3.org/2000/svg"><g><g><g><path d="m374.85 280.119h67.453v115.64c0 18.627-15.1 33.726-33.726 33.726h-171.935v-67.452h138.208z" fill="#eceff1"/><path d="m432.303 280.119h10v115.64c0 18.627-15.1 33.726-33.726 33.726h-10c18.626 0 33.726-15.099 33.726-33.726z" fill="#d1d1d6"/></g><g><path d="m243.133 352.511c2.762 0 5 2.238 5 5v76.497c0 2.761-2.238 5-5 5h-19c-2.762 0-5-2.239-5-5v-76.497c0-2.762 2.238-5 5-5z" fill="#9facba"/><path d="m241.369 352.511h1.764c2.762 0 5 2.238 5 5v76.497c0 2.761-2.238 5-5 5h-19c-2.762 0-5-2.239-5-5v-.882h17.236c2.762 0 5-2.239 5-5z" fill="#8d9ca8"/></g><g><path d="m451.825 282.166c0 2.762-2.239 5-5 5h-76.497c-2.761 0-5-2.238-5-5v-19c0-2.762 2.239-5 5-5h76.497c2.761 0 5 2.238 5 5z" fill="#9facba"/><path d="m446.825 258.166c2.761 0 5 2.238 5 5v19c0 2.762-2.239 5-5 5h-76.497c-2.761 0-5-2.238-5-5h76.497c2.761 0 5-2.238 5-5z" fill="#8d9ca8"/></g><g><path d="m135.023 230.984h-67.452v-115.641c0-18.626 15.1-33.726 33.726-33.726h171.935v67.453h-138.209z" fill="#eceff1"/><path d="m263.232 81.617h10v67.453h-10zm-128.209 67.453v81.914h-10v-81.914z" fill="#d1d1d6"/></g><g><path d="m266.74 158.592c-2.761 0-5-2.239-5-5v-76.497c0-2.761 2.239-5 5-5h19.001c2.761 0 5 2.239 5 5v76.497c0 2.761-2.239 5-5 5z" fill="#9facba"/><path d="m284.001 72.095h1.74c2.761 0 5 2.239 5 5v76.497c0 2.761-2.239 5-5 5h-19.001c-2.761 0-5-2.239-5-5v-1.88h17.261c2.761 0 5-2.239 5-5z" fill="#8d9ca8"/></g><g><path d="m58.049 228.936c0-2.761 2.238-5 5-5h76.497c2.761 0 5 2.239 5 5v19.001c0 2.761-2.239 5-5 5h-76.497c-2.762 0-5-2.239-5-5z" fill="#9facba"/><path d="m138.642 223.936h.904c2.761 0 5 2.239 5 5v19.001c0 2.761-2.239 5-5 5h-76.497c-2.762 0-5-2.239-5-5h75.593c2.762 0 5-2.239 5-5z" fill="#8d9ca8"/></g><g><path d="m487.818 13.449h-117.851c-1.826 0-3.444.626-4.749 1.983l-37.683 37.684c-1.305 1.304-1.984 2.922-1.984 4.749v160.962c0 3.706 3.028 6.733 6.733 6.733h155.534c3.706 0 6.733-3.027 6.733-6.733v-198.645c0-3.706-3.027-6.733-6.733-6.733z" fill="#c4e2ff"/><g fill="#add5fa"><path d="m479.723 225.56h8.095c3.706 0 6.733-3.027 6.733-6.733v-198.645c0-3.706-3.027-6.733-6.733-6.733h-8.095z"/><path d="m367.201 14.023c-.731.313-1.357.783-1.983 1.409l-37.683 37.684c-.627.574-1.096 1.252-1.41 1.983h37.684c1.879 0 3.392-1.514 3.392-3.393z"/></g></g><g><path d="m177.716 284.44h-117.851c-1.827 0-3.445.626-4.75 1.983l-37.683 37.683c-1.305 1.305-1.983 2.923-1.983 4.75v160.962c0 3.706 3.027 6.733 6.733 6.733h155.534c3.705 0 6.733-3.027 6.733-6.733v-198.645c0-3.706-3.028-6.733-6.733-6.733z" fill="#c4e2ff"/><g fill="#add5fa"><path d="m169.62 496.551h8.096c3.705 0 6.733-3.027 6.733-6.733v-198.645c0-3.706-3.028-6.733-6.733-6.733h-8.096z"/><path d="m57.098 285.014c-.73.313-1.357.783-1.983 1.409l-37.683 37.683c-.626.574-1.096 1.253-1.409 1.984h37.683c1.879 0 3.392-1.514 3.392-3.393z"/></g></g></g><path d="m256.133 437.46v1.522c0 4.418-3.581 8-8 8h-29c-4.419 0-8-3.582-8-8v-86.497c0-4.418 3.581-8 8-8h29c4.419 0 8 3.582 8 8v1.523h110.717v-58.867h-1.522c-4.418 0-8-3.582-8-8v-29.001c0-4.418 3.582-8 8-8h86.497c4.418 0 8 3.582 8 8v29.001c0 4.418-3.582 8-8 8h-1.522v100.593c0 23.044-18.682 41.726-41.726 41.726zm0-67.452v51.452h152.444c14.208 0 25.726-11.518 25.726-25.726v-100.593h-51.453v66.867c0 4.418-3.581 8-8 8zm-16-9.523h-13v70.497h13zm203.692-81.344v-13.001h-70.497v13.001zm-300.802-63.23h1.523c4.418 0 8 3.581 8 8v29c0 4.418-3.582 8-8 8h-86.497c-4.419 0-8-3.582-8-8v-29c0-4.419 3.581-8 8-8h1.522v-100.593c0-23.045 18.681-41.726 41.726-41.726h152.443v-1.523c0-4.418 3.582-8 8-8h29.001c4.418 0 8 3.582 8 8v86.497c0 4.418-3.582 8-8 8h-29.001c-4.418 0-8-3.582-8-8v-1.522c-26.647 0-110.717 0-110.717 0zm-67.452 0h51.452v-66.867c0-4.418 3.582-8 8-8h118.717v-51.452h-152.443c-14.208 0-25.726 11.518-25.726 25.726zm-9.522 16v13h70.497v-13zm203.691-81.345h13.001v-70.497h-13.001zm-93.161 127.393c8.071 0 14.665 6.594 14.665 14.666v195.741c0 8.072-6.594 14.665-14.665 14.665h-153.26c-8.072 0-14.666-6.593-14.666-14.665v-158.609c0-3.982 1.462-7.515 4.307-10.359 0 0 37.086-37.086 37.084-37.085 2.87-2.951 6.403-4.354 10.407-4.354zm-126.885 27.421-13.62 13.62h13.62zm-24.978 29.683v151.906h150.465v-192.947h-109.424v29.666c0 6.3-5.075 11.375-11.375 11.375zm121.879 68.847c4.433 0 8.032 3.599 8.032 8.031 0 4.433-3.599 8.032-8.032 8.032h-93.293c-4.433 0-8.031-3.599-8.031-8.032 0-4.432 3.598-8.031 8.031-8.031zm0-42.944c4.433 0 8.032 3.599 8.032 8.032s-3.599 8.031-8.032 8.031h-93.293c-4.433 0-8.031-3.598-8.031-8.031s3.598-8.032 8.031-8.032zm0 85.888c4.433 0 8.032 3.598 8.032 8.031s-3.599 8.032-8.032 8.032h-93.293c-4.433 0-8.031-3.599-8.031-8.032s3.598-8.031 8.031-8.031zm0-128.831c4.433 0 8.032 3.598 8.032 8.031s-3.599 8.032-8.032 8.032h-58.629c-4.433 0-8.032-3.599-8.032-8.032s3.599-8.031 8.032-8.031zm340.086-311.054c8.072 0 14.666 6.593 14.666 14.665v195.741c0 8.072-6.594 14.666-14.666 14.666h-153.26c-8.071 0-14.665-6.594-14.665-14.666v-158.609c0-3.981 1.462-7.515 4.306-10.359 0 0 37.087-37.086 37.085-37.084 2.869-2.952 6.403-4.354 10.407-4.354zm-126.885 27.421-13.619 13.619h13.619zm-24.977 29.682v151.906h150.465v-192.947h-109.425v29.667c0 6.299-5.074 11.374-11.374 11.374zm121.879-17.04c4.433 0 8.031 3.599 8.031 8.032 0 4.432-3.598 8.031-8.031 8.031h-58.63c-4.432 0-8.031-3.599-8.031-8.031 0-4.433 3.599-8.032 8.031-8.032zm0 85.887c4.433 0 8.031 3.599 8.031 8.032 0 4.432-3.598 8.031-8.031 8.031h-93.293c-4.433 0-8.032-3.599-8.032-8.031 0-4.433 3.599-8.032 8.032-8.032zm0-42.943c4.433 0 8.031 3.598 8.031 8.031s-3.598 8.032-8.031 8.032h-93.293c-4.433 0-8.032-3.599-8.032-8.032s3.599-8.031 8.032-8.031zm0 85.887c4.433 0 8.031 3.599 8.031 8.031 0 4.433-3.598 8.032-8.031 8.032h-93.293c-4.433 0-8.032-3.599-8.032-8.032 0-4.432 3.599-8.031 8.032-8.031z"/></g></svg>