<svg id="Layer_1" enable-background="new 0 0 124 124" height="20" viewBox="0 0 124 124" width="20" xmlns="http://www.w3.org/2000/svg"><ellipse id="XMLID_321_" cx="102.256" cy="28.584" fill="#d2edf8" rx="16.744" ry="16.828"/><ellipse id="XMLID_323_" cx="64.052" cy="59.864" fill="#e29e9a" rx="15.197" ry="15.273"/><ellipse id="XMLID_329_" cx="14.826" cy="47.611" fill="#d2edf8" rx="7.826" ry="7.865"/><ellipse id="XMLID_334_" cx="53.008" cy="9.865" fill="#d2edf8" rx="7.826" ry="7.865"/><ellipse cx="102.256" cy="28.373" fill="#f7f8fc" rx="7.826" ry="7.865"/><path id="XMLID_338_" d="m102.257 38.238c-5.418 0-9.826-4.425-9.826-9.865s4.408-9.865 9.826-9.865 9.825 4.425 9.825 9.865-4.407 9.865-9.825 9.865zm0-15.731c-3.213 0-5.826 2.631-5.826 5.865s2.613 5.865 5.826 5.865c3.212 0 5.825-2.631 5.825-5.865s-2.613-5.865-5.825-5.865z" fill="#43484a"/><ellipse id="XMLID_341_" cx="14.826" cy="102.557" fill="#d2edf8" rx="7.826" ry="7.865"/><path id="XMLID_342_" d="m14.826 112.422c-5.418 0-9.826-4.425-9.826-9.865s4.408-9.865 9.826-9.865 9.826 4.425 9.826 9.865-4.408 9.865-9.826 9.865zm0-15.731c-3.213 0-5.826 2.631-5.826 5.865s2.613 5.865 5.826 5.865 5.826-2.631 5.826-5.865-2.613-5.865-5.826-5.865z" fill="#43484a"/><ellipse id="XMLID_346_" cx="101.177" cy="83.505" fill="#d2edf8" rx="7.826" ry="7.865"/><ellipse id="XMLID_324_" cx="64.052" cy="59.864" fill="#fff" rx="7.826" ry="7.865"/><ellipse id="XMLID_351_" cx="62.736" cy="114.135" fill="#d2edf8" rx="7.826" ry="7.865"/><g fill="#43484a"><path id="XMLID_352_" d="m62.736 124c-5.418 0-9.826-4.425-9.826-9.865s4.408-9.865 9.826-9.865 9.826 4.425 9.826 9.865-4.408 9.865-9.826 9.865zm0-15.73c-3.213 0-5.826 2.631-5.826 5.865s2.613 5.865 5.826 5.865 5.826-2.631 5.826-5.865-2.613-5.865-5.826-5.865z"/><path id="XMLID_349_" d="m91.418 21.586-2.844-8.1c-.366-1.043-1.508-1.59-2.549-1.225-1.043.366-1.591 1.507-1.225 2.55l1.248 3.555-23.622-11.296c-1.204-4.081-4.968-7.07-9.418-7.07-5.418 0-9.825 4.425-9.825 9.865s4.407 9.865 9.825 9.865c4.82 0 8.833-3.506 9.661-8.11l21.651 10.353-3.485 1.236c-1.041.369-1.586 1.513-1.217 2.554.364 1.025 1.526 1.58 2.553 1.217l8.027-2.846c1.04-.369 1.585-1.508 1.22-2.548zm-38.41-5.856c-3.212 0-5.825-2.631-5.825-5.865s2.613-5.865 5.825-5.865c3.213 0 5.826 2.631 5.826 5.865s-2.613 5.865-5.826 5.865z"/><path id="XMLID_385_" d="m42.143 18.071-8.512-.767c-1.113-.106-2.072.713-2.172 1.812-.099 1.1.713 2.072 1.813 2.171l3.793.342-19.311 16.564c-.925-.291-1.909-.448-2.928-.448-5.418.001-9.826 4.426-9.826 9.866 0 4.75 3.361 8.725 7.821 9.657l-.079 26.105-2.773-2.67c-.797-.766-2.062-.741-2.828.054-.767.795-.742 2.062.053 2.828l6.146 5.918c.787.758 2.08.731 2.835-.061l5.912-6.202c.763-.799.732-2.065-.067-2.828-.798-.761-2.064-.732-2.827.068l-2.45 2.569.078-25.779c4.465-.928 7.832-4.906 7.832-9.66 0-2.891-1.253-5.487-3.232-7.293l18.114-15.537-.324 3.624c-.098 1.1.714 2.072 1.814 2.17 1.084.096 2.073-.73 2.17-1.814l.761-8.521c.097-1.098-.714-2.069-1.813-2.168zm-27.317 35.405c-3.213 0-5.826-2.631-5.826-5.865s2.613-5.865 5.826-5.865 5.826 2.631 5.826 5.865-2.613 5.865-5.826 5.865z"/><path id="XMLID_358_" d="m107.228 50.447c-.516 0-1.031-.198-1.423-.595l-4.585-4.641-4.643 4.632c-.78.78-2.048.778-2.828-.003-.78-.782-.778-2.048.004-2.829l6.065-6.051c.375-.374.883-.584 1.412-.584h.007c.532.002 1.042.216 1.416.595l5.997 6.071c1.217 1.231.319 3.405-1.422 3.405z"/><path id="XMLID_359_" d="m73.878 59.864c0-4.895-3.572-8.956-8.234-9.724l-5.573-21.97 2.952 1.825c.848.524 1.991.431 2.645-.322.832-.959.583-2.385-.45-3.024l-7.25-4.483c-.93-.574-2.188-.272-2.758.657l-4.571 7.32c-.587.94-.316 2.176.61 2.784.962.632 2.256.342 2.857-.64l2.037-3.328 5.421 21.373c-4.216 1.11-7.339 4.957-7.339 9.533 0 1.673.42 3.248 1.155 4.63l-25.631 25.273.122-3.531c.038-1.104-.826-2.03-1.93-2.068-1.104-.03-2.03.826-2.068 1.93l-.295 8.55c-.038 1.104.826 2.029 1.93 2.068l8.541.297c1.088.023 2.03-.83 2.068-1.929.038-1.104-.825-2.03-1.93-2.069l-3.898-.136 25.659-25.3c.884.706 1.89 1.26 2.982 1.629l-.324 24.632-2.043-2.424c-.712-.845-1.975-.953-2.818-.24-.845.712-.952 1.974-.24 2.818l5.502 6.527c.814.964 2.357.926 3.122-.079l5.155-6.783c.668-.879.497-2.134-.383-2.802-.88-.669-2.135-.496-2.803.382l-1.483 1.951.309-23.507c5.01-.444 8.954-4.676 8.954-9.82zm-15.651 0c0-3.234 2.613-5.865 5.825-5.865 3.213 0 5.826 2.631 5.826 5.865s-2.613 5.865-5.826 5.865c-3.212 0-5.825-2.631-5.825-5.865z"/><path id="XMLID_357_" d="m103.18 73.847.043-26.609 2.582 2.614c1.819 1.842 4.65-.985 2.846-2.811l-5.997-6.071c-.768-.778-2.061-.783-2.835-.011l-6.065 6.051c-.782.78-.784 2.046-.004 2.829.78.782 2.048.783 2.828.003l2.646-2.639-.044 26.642c-4.463.929-7.828 4.907-7.828 9.659 0 2.169.709 4.17 1.895 5.8l-15.253 11.527.631-3.296c.207-1.085-.504-2.132-1.589-2.34-1.087-.208-2.133.504-2.341 1.589l-1.606 8.401c-.207 1.083.503 2.13 1.586 2.339l8.393 1.621c1.07.204 2.136-.514 2.343-1.584.209-1.084-.5-2.134-1.585-2.343l-3.983-.769 16.425-12.413c1.447.843 3.121 1.333 4.911 1.333 5.418 0 9.826-4.425 9.826-9.865-.002-4.75-3.365-8.726-7.825-9.657zm-2.003 15.523c-3.212 0-5.825-2.631-5.825-5.865s2.613-5.865 5.825-5.865c3.213 0 5.826 2.631 5.826 5.865s-2.613 5.865-5.826 5.865z"/></g></svg>