<svg width="20px" height="20px" id="Capa_1" enable-background="new 0 0 511.98 511.98" viewBox="0 0 511.98 511.98" xmlns="http://www.w3.org/2000/svg"><g><g><path d="m105.99 285.127v-60c0-24.814-20.186-45-45-45h-45v150h45c24.815 0 45-20.186 45-45zm-60-75h15c8.262 0 15 6.724 15 15v60c0 8.276-6.738 15-15 15h-15z" fill="#6cf"/><path d="m225.99 210.127v-30h-90c0 11.515 0 157.508 0 150h90v-30h-60v-30h30v-30h-30v-30z" fill="#6cf"/><path d="m375.99 330.127v-150h-39.258l-20.742 41.455-20.742-41.455h-39.258v150h30v-101.455l30 60 30-60v101.455z" fill="#59abff"/><path d="m450.99 180.127c-24.814 0-45 20.186-45 45v60c0 24.814 20.186 45 45 45s45-20.186 45-45v-60c0-24.815-20.185-45-45-45zm15 105c0 8.276-6.738 15-15 15s-15-6.724-15-15v-60c0-8.276 6.738-15 15-15s15 6.724 15 15z" fill="#59abff"/><g fill="#4d5e80"><path d="m426.322 390.618-147.832 85.371c-13.887 7.998-31.113 7.998-45 0l-147.832-85.371c-7.588-4.38-13.682-10.811-17.666-18.618l-26.719 13.594c6.591 12.993 16.758 23.716 29.385 31.011l147.832 85.371c11.572 6.665 24.521 10.005 37.5 10.005 12.949 0 25.928-3.34 37.5-10.005l147.832-85.371c12.627-7.295 22.793-18.018 29.385-31.011l-26.719-13.594c-3.984 7.808-10.078 14.238-17.666 18.618z"/><path d="m85.658 121.366 147.832-85.371c13.887-7.998 31.113-7.998 45 0l147.832 85.371c7.588 4.38 13.682 10.811 17.666 18.618l26.719-13.594c-6.592-12.993-16.758-23.716-29.385-31.011l-147.832-85.37c-23.145-13.33-51.855-13.359-75 0l-147.832 85.371c-12.627 7.295-22.794 18.018-29.385 31.011l26.719 13.594c3.985-7.808 10.078-14.239 17.666-18.619z"/><path d="m338.49 139.94 15-25.986-97.5-56.323-97.5 56.308 15 25.987 82.5-47.637z"/></g></g><g fill="#3d4b66"><path d="m293.49 501.976 147.832-85.371c12.627-7.295 22.793-18.018 29.385-31.011l-26.719-13.594c-3.984 7.808-10.078 14.238-17.666 18.618l-147.832 85.371c-6.943 3.999-14.722 5.999-22.5 5.999v29.993c12.949-.001 25.928-3.34 37.5-10.005z"/><path d="m278.49 35.995 147.832 85.371c7.588 4.38 13.682 10.811 17.666 18.618l26.719-13.594c-6.592-12.993-16.758-23.716-29.385-31.011l-147.832-85.37c-11.572-6.665-24.536-10.005-37.5-10.009v29.996c7.779 0 15.557 2 22.5 5.999z"/><path d="m338.49 139.94 15-25.986-97.5-56.323v34.658z"/></g></g></svg>