<svg height="20" width="20" id="&#x421;&#x43B;&#x43E;&#x439;_1" enable-background="new 0 0 512 512" viewBox="0 0 512 512" xmlns="http://www.w3.org/2000/svg"><g><g stroke="#041c1e" stroke-miterlimit="10" stroke-width="7"><path d="m9.5 68.5h192v130h-192z" fill="#6fb98f"/><path d="m9.5 68.5h192v37h-192z" fill="#2b7974"/><path d="m161.5 306.5h193v151h-193z" fill="#6fb98f"/><path d="m161.5 306.5h193v36h-193z" fill="#2b7974"/><path d="m309.5 68.5h193v130h-193z" fill="#6fb98f"/><path d="m309.5 68.5h193v37h-193z" fill="#2b7974"/><path d="m162 389.5h-62.5v-187.5" fill="none"/><path d="m202 144.5h108" fill="#6fb98f"/><path d="m355 389.5h51.5v-191.5" fill="none"/><path d="m211.1 123.4 4.4-4.5v16.1" fill="none"/><ellipse cx="253.8" cy="161.6" fill="none" rx="4" ry="8.1"/></g><g><path d="" fill="#6fb98f"/><g><path d="m266 172.7c3.2 0 3.2-5 0-5s-3.2 5 0 5z" fill="#041c1e"/></g></g><g><path d="" fill="#6fb98f"/><g><path d="m273.2 172.8c3.2 0 3.2-5 0-5s-3.2 5 0 5z" fill="#041c1e"/></g></g><g><path d="" fill="#6fb98f"/><g><path d="m280.8 172.7c3.2 0 3.2-5 0-5-3.3 0-3.3 5 0 5z" fill="#041c1e"/></g></g><path d="m290 152.8.3 17.5s-.7-16 5.1-15.6c4.4.3 3.8 15.6 3.8 15.6" fill="none" stroke="#041c1e" stroke-miterlimit="10" stroke-width="7"/><path d="m99.7 202.4-8.4 14.6 8.4 14.9 8.3-14.8z" fill="#004344" stroke="#041c1e" stroke-miterlimit="10" stroke-width="7"/><path d="m406.7 202.4-8.4 14.6 8.4 14.9 8.3-14.8z" fill="#004344" stroke="#041c1e" stroke-miterlimit="10" stroke-width="7"/></g></svg>