<svg enable-background="new 0 0 512 512" height="20" viewBox="0 0 512 512" width="20" xmlns="http://www.w3.org/2000/svg" xmlns:xlink="http://www.w3.org/1999/xlink"><linearGradient id="SVGID_1_" gradientUnits="userSpaceOnUse" x1="77.656" x2="472.149" y1="74.643" y2="469.135"><stop offset="0" stop-color="#9257ff"/><stop offset="1" stop-color="#01d0fb"/></linearGradient><g id="Backup" display="none"><g display="inline"><g stroke="#000" stroke-linecap="round" stroke-linejoin="round" stroke-miterlimit="10" stroke-width="8"><g><path d="m484.824 430.201c-5.195-12.759-21.254-18.401-35.68-12.526l-9.241 3.762c3.388-7.32 3.482-15.636-.555-22.521-6.896-11.742-23.286-15.06-36.639-7.518-.503-1.748-1.207-3.453-2.157-5.071-6.976-11.88-23.678-15.154-37.111-7.269l-74.644 43.814c-1.834-3.921-4.575-7.585-8.196-10.618l-94.85-67.077h-111.11l-.005 108.96 131.866 53.856 153.659.007 107.875-43.915c14.426-5.875 21.982-21.118 16.788-33.884z" fill="#ffcebf"/><g fill="none"><path d="m402.236 391.658-91.981 53.992-22.296 3.238"/><path d="m439.925 421.437-89.57 36.457h-82.174v-.003c6.965-.111 13.56-2.871 18.05-8.234 6.164-7.363 6.803-17.769 2.578-26.785"/><path d="m185.749 410.536 62.679 40.14c5.884 4.926 12.992 7.31 19.753 7.204"/></g><path d="m25.538 475.028c0 7.621 6.235 13.855 13.855 13.858h33.237c7.621.003 13.855-6.232 13.855-13.853l.003-143.744c0-7.62-6.235-13.855-13.855-13.858l-33.242-.003c-7.62-.002-13.855 6.232-13.855 13.854z" fill="#01d0fb"/><path d="m72.854 453.683c0 9.298-7.542 16.84-16.843 16.84s-16.84-7.542-16.84-16.84c0-9.304 7.539-16.843 16.84-16.843s16.843 7.539 16.843 16.843z" fill="#3a313a"/></g><g fill="#ffd15b"><path d="m300.689 229.526c0 11.089-9.074 20.163-20.164 20.163h-189.55c-11.09 0-20.163-9.074-20.163-20.163v-134.046c0-11.09 9.073-20.163 20.163-20.163h52.767l31.086 26.507h105.698c11.09 0 20.164 9.073 20.164 20.163v107.539z"/><path d="m309.825 266.289c0 11.972-9.794 21.765-21.766 21.765h-204.621c-11.97 0-21.766-9.793-21.766-21.765v-116.088c0-11.972 9.796-21.766 21.766-21.766h204.622c11.972 0 21.766 9.794 21.766 21.766v116.088z"/></g><g><path d="m474.874 314.82c0 16.765-13.717 30.481-30.481 30.481h-136.476c-16.765 0-30.481-13.717-30.481-30.481v-72.048c0-16.765 13.717-30.481 30.481-30.481h136.476c16.765 0 30.481 13.717 30.481 30.481z" fill="#fd4755"/><path d="m341.019 251.746c0-10.532 7.461-14.841 16.583-9.574l46.852 27.05c9.122 5.267 9.122 13.883 0 19.149l-46.852 27.05c-9.122 5.267-16.583.955-16.583-9.577z" fill="#dedbee"/></g></g><g id="XMLID_21_"><g><path d="m392.529 26.482c9.935 0 18.021 8.064 18.021 18.021 0 9.934-8.086 18.02-18.021 18.02-9.956 0-18.02-8.086-18.02-18.02.001-9.956 8.064-18.021 18.02-18.021z" fill="#ffd15b"/><path d="m486.465 40.178v75.35c0 1.083-.046 2.141-.136 3.175-2.479-3.221-37.98-49.354-48.859-48.813-11.263.563-51.812 30.411-51.812 30.411s-43.362-52.374-57.439-50.686c-14.08 1.691-76.589 45.055-83.912 55.755v-65.192c0-19.893 16.288-36.178 36.178-36.178h169.804c19.888 0 36.176 16.285 36.176 36.178zm-75.915 4.325c0-9.956-8.086-18.021-18.021-18.021-9.956 0-18.02 8.064-18.02 18.021 0 9.934 8.063 18.02 18.02 18.02 9.935-.001 18.021-8.086 18.021-18.02z" fill="#01d0fb"/><path d="m486.329 118.702c-1.646 18.429-17.232 33.001-36.04 33.001h-116.215l-74.381 40.008 20.792-40.008c-19.891 0-36.179-16.285-36.179-36.176v-10.158c7.323-10.7 69.832-54.063 83.912-55.755 14.077-1.688 57.439 50.686 57.439 50.686s40.549-29.849 51.812-30.411c10.88-.541 46.382 45.592 48.86 48.813z" fill="#6fd7a3"/></g><g style="fill:none;stroke:#000;stroke-width:8;stroke-linecap:round;stroke-linejoin:round;stroke-miterlimit:10"><path d="m486.329 118.702c.09-1.034.136-2.092.136-3.175v-75.35c0-19.892-16.288-36.177-36.176-36.177h-169.804c-19.891 0-36.179 16.285-36.179 36.178v65.191 10.158c0 19.891 16.288 36.176 36.179 36.176l-20.792 40.008 74.381-40.008h116.215c18.808 0 34.395-14.572 36.04-33.001z"/><path d="m244.307 105.369c7.323-10.7 69.832-54.063 83.912-55.755 14.077-1.688 57.439 50.686 57.439 50.686s40.549-29.849 51.812-30.411c10.879-.541 46.381 45.593 48.859 48.813.09.113.136.181.136.181"/><path d="m410.55 44.503c0 9.934-8.086 18.02-18.021 18.02-9.956 0-18.02-8.086-18.02-18.02 0-9.956 8.063-18.021 18.02-18.021 9.935 0 18.021 8.065 18.021 18.021z"/></g></g></g></g><g id="Main" display="none"><g display="inline"><g stroke="#000" stroke-linecap="round" stroke-linejoin="round" stroke-miterlimit="10" stroke-width="8"><g><path d="m484.824 430.201c-5.195-12.759-21.254-18.401-35.68-12.526l-9.241 3.762c3.388-7.32 3.482-15.636-.555-22.521-6.896-11.742-23.286-15.06-36.639-7.518-.503-1.748-1.207-3.453-2.157-5.071-6.976-11.88-23.678-15.154-37.111-7.269l-74.644 43.814c-1.834-3.921-4.575-7.585-8.196-10.618l-94.85-67.077h-111.11l-.005 108.96 131.866 53.856 153.659.007 107.875-43.915c14.426-5.875 21.982-21.118 16.788-33.884z" fill="#ffcebf"/><g fill="none"><path d="m402.236 391.658-91.981 53.992-22.296 3.238"/><path d="m439.925 421.437-89.57 36.457h-82.174v-.003c6.965-.111 13.56-2.871 18.05-8.234 6.164-7.363 6.803-17.769 2.578-26.785"/><path d="m185.749 410.536 62.679 40.14c5.884 4.926 12.992 7.31 19.753 7.204"/></g><path d="m25.538 475.028c0 7.621 6.235 13.855 13.855 13.858h33.237c7.621.003 13.855-6.232 13.855-13.853l.003-143.744c0-7.62-6.235-13.855-13.855-13.858l-33.242-.003c-7.62-.002-13.855 6.232-13.855 13.854z" fill="#01d0fb"/><path d="m72.854 453.683c0 9.298-7.542 16.84-16.843 16.84s-16.84-7.542-16.84-16.84c0-9.304 7.539-16.843 16.84-16.843s16.843 7.539 16.843 16.843z" fill="#3a313a"/></g><g fill="#ffd15b"><path d="m300.689 229.526c0 11.089-9.074 20.163-20.164 20.163h-189.55c-11.09 0-20.163-9.074-20.163-20.163v-134.046c0-11.09 9.073-20.163 20.163-20.163h52.767l31.086 26.507h105.698c11.09 0 20.164 9.073 20.164 20.163v107.539z"/><path d="m309.825 266.289c0 11.972-9.794 21.765-21.766 21.765h-204.621c-11.97 0-21.766-9.793-21.766-21.765v-116.088c0-11.972 9.796-21.766 21.766-21.766h204.622c11.972 0 21.766 9.794 21.766 21.766v116.088z"/></g><g><path d="m474.874 314.82c0 16.765-13.717 30.481-30.481 30.481h-136.476c-16.765 0-30.481-13.717-30.481-30.481v-72.048c0-16.765 13.717-30.481 30.481-30.481h136.476c16.765 0 30.481 13.717 30.481 30.481z" fill="#fd4755"/><path d="m341.019 251.746c0-10.532 7.461-14.841 16.583-9.574l46.852 27.05c9.122 5.267 9.122 13.883 0 19.149l-46.852 27.05c-9.122 5.267-16.583.955-16.583-9.577z" fill="#dedbee"/></g></g><g id="XMLID_24_"><g><path d="m392.529 26.482c9.935 0 18.021 8.064 18.021 18.021 0 9.934-8.086 18.02-18.021 18.02-9.956 0-18.02-8.086-18.02-18.02.001-9.956 8.064-18.021 18.02-18.021z" fill="#ffd15b"/><path d="m486.465 40.178v75.35c0 1.083-.046 2.141-.136 3.175-2.479-3.221-37.98-49.354-48.859-48.813-11.263.563-51.812 30.411-51.812 30.411s-43.362-52.374-57.439-50.686c-14.08 1.691-76.589 45.055-83.912 55.755v-65.192c0-19.893 16.288-36.178 36.178-36.178h169.804c19.888 0 36.176 16.285 36.176 36.178zm-75.915 4.325c0-9.956-8.086-18.021-18.021-18.021-9.956 0-18.02 8.064-18.02 18.021 0 9.934 8.063 18.02 18.02 18.02 9.935-.001 18.021-8.086 18.021-18.02z" fill="#01d0fb"/><path d="m486.329 118.702c-1.646 18.429-17.232 33.001-36.04 33.001h-116.215l-74.381 40.008 20.792-40.008c-19.891 0-36.179-16.285-36.179-36.176v-10.158c7.323-10.7 69.832-54.063 83.912-55.755 14.077-1.688 57.439 50.686 57.439 50.686s40.549-29.849 51.812-30.411c10.88-.541 46.382 45.592 48.86 48.813z" fill="#6fd7a3"/></g><g style="fill:none;stroke:#000;stroke-width:8;stroke-linecap:round;stroke-linejoin:round;stroke-miterlimit:10"><path d="m486.329 118.702c.09-1.034.136-2.092.136-3.175v-75.35c0-19.892-16.288-36.177-36.176-36.177h-169.804c-19.891 0-36.179 16.285-36.179 36.178v65.191 10.158c0 19.891 16.288 36.176 36.179 36.176l-20.792 40.008 74.381-40.008h116.215c18.808 0 34.395-14.572 36.04-33.001z"/><path d="m244.307 105.369c7.323-10.7 69.832-54.063 83.912-55.755 14.077-1.688 57.439 50.686 57.439 50.686s40.549-29.849 51.812-30.411c10.879-.541 46.381 45.593 48.859 48.813.09.113.136.181.136.181"/><path d="m410.55 44.503c0 9.934-8.086 18.02-18.021 18.02-9.956 0-18.02-8.086-18.02-18.02 0-9.956 8.063-18.021 18.02-18.021 9.935 0 18.021 8.065 18.021 18.021z"/></g></g></g></g><g id="Light_Green" display="none"><g display="inline"><path d="m460.892 411.349c-4.524 0-8.983.882-13.255 2.621l-1.521.619c.925-6.2-.188-12.361-3.317-17.698-4.975-8.472-14.316-13.529-24.989-13.529-4.395 0-8.794.877-12.936 2.559-.272-.553-.563-1.093-.871-1.618-4.979-8.479-14.329-13.542-25.013-13.542-6.092 0-12.168 1.677-17.572 4.85l-71.101 41.734c-1.936-3.048-4.358-5.82-7.146-8.155-.083-.07-.17-.137-.259-.199l-94.85-67.077c-.676-.478-1.482-.734-2.31-.734h-95.264v-9.888c0-9.844-8.009-17.854-17.855-17.858l-33.246-.003c-9.843 0-17.852 8.009-17.852 17.854l.003 143.746c0 9.844 8.009 17.854 17.855 17.858h33.234.007.002c4.753 0 9.23-1.861 12.609-5.241 3.379-3.379 5.239-7.858 5.239-12.611v-10.103l114.504 46.766c.48.196.994.297 1.513.297l153.66.003c.517 0 1.029-.101 1.508-.295l107.876-43.915c16.504-6.722 25.021-24.26 18.984-39.098-4.291-10.536-15.139-17.343-27.637-17.343zm-378.407 63.685c0 2.617-1.028 5.087-2.896 6.955-1.868 1.869-4.337 2.897-6.952 2.897-.001 0-.001 0-.001 0h-.006-33.234c-5.436-.002-9.857-4.425-9.857-9.858l-.003-143.746c0-5.434 4.42-9.854 9.855-9.854l33.24.003c5.436.002 9.857 4.425 9.857 9.858zm282.982-92.526c4.178-2.452 8.854-3.748 13.522-3.748 7.815 0 14.587 3.586 18.114 9.593.242.413.463.845.673 1.286l-88.871 52.166-14.94 2.17c2.107-6.021 2.081-12.815-.173-19.396zm-76.706 70.305 22.069-3.203c.512-.075 1.004-.248 1.449-.51l91.981-53.992c.06-.035.106-.082.163-.119.084-.04.172-.062.253-.107 4.077-2.302 8.618-3.52 13.132-3.52 7.805 0 14.568 3.581 18.09 9.578 2.994 5.108 3.322 11.385.964 17.425l-87.291 35.529h-61.796c.342-.345.661-.716.986-1.081zm177.767 7.567-107.15 43.62-152.091-.006-116.801-47.704.002-107.112h93.992l93.674 66.245c3.015 2.555 5.376 5.63 7.021 9.145.011.023.028.043.04.066 3.689 7.933 2.908 16.53-2.052 22.455-3.569 4.263-8.871 6.669-14.936 6.796-.016 0-.03-.005-.046-.005-.021 0-.042 0-.063 0-6.09.101-12.179-2.132-17.123-6.271-.13-.108-.268-.209-.41-.301l-62.679-40.14c-1.86-1.191-4.335-.649-5.525 1.211-1.191 1.86-.649 4.334 1.211 5.525l62.47 40.006c6.248 5.154 13.918 7.974 21.682 7.973.104 0 .208-.001.313-.002.043.002.082.013.125.013h82.174c.517 0 1.029-.101 1.508-.295l89.57-36.457c.025-.011.046-.026.071-.038l9.149-3.725c3.31-1.348 6.754-2.03 10.238-2.03 9.23 0 17.17 4.852 20.228 12.359 4.373 10.752-2.173 23.614-14.592 28.672z"/><path d="m56.012 432.84c-11.491 0-20.84 9.35-20.84 20.843 0 11.491 9.349 20.84 20.84 20.84 11.493 0 20.843-9.349 20.843-20.84-.001-11.494-9.35-20.843-20.843-20.843zm0 33.682c-7.08 0-12.84-5.76-12.84-12.84 0-7.081 5.76-12.843 12.84-12.843 7.081 0 12.843 5.762 12.843 12.843-.001 7.081-5.762 12.84-12.843 12.84z"/><path d="m307.917 208.291h5.908v-41.154l21.257-11.434h115.207c20.608 0 38.189-16.097 40.025-36.655.1-1.15.15-2.336.15-3.521v-75.35c.001-22.154-18.022-40.177-40.175-40.177h-169.804c-22.154 0-40.179 18.023-40.179 40.178v57.646h-64.006l-29.964-25.551c-.725-.617-1.645-.956-2.596-.956h-52.765c-13.323 0-24.163 10.84-24.163 24.163v35.061c-5.584 4.729-9.139 11.786-9.139 19.66v116.088c0 14.207 11.559 25.765 25.766 25.765h189.997v-8h-189.998c-9.796 0-17.766-7.969-17.766-17.765v-116.088c0-9.796 7.97-17.766 17.766-17.766h160.612c5.542 11.893 16.732 20.646 30.106 22.77l-18.013 34.661c-.81 1.558-.51 3.461.74 4.693.768.756 1.783 1.151 2.81 1.151.646 0 1.297-.156 1.894-.478l44.237-23.794v36.921c.694-.041 1.39-.068 2.093-.068zm-224.479-83.855c-3.025 0-5.928.528-8.627 1.49v-30.446c0-8.912 7.251-16.163 16.163-16.163h51.293l29.964 25.551c.725.617 1.645.956 2.596.956h65.479v9.703c0 3.061.348 6.041.999 8.908h-157.867zm164.869-84.258c0-17.743 14.435-32.178 32.178-32.178h169.804c17.742 0 32.176 14.435 32.176 32.178v67.168c-3.964-4.92-9.07-11.091-14.427-17.12-19.507-21.953-26.697-24.52-30.768-24.332-10.63.531-39.979 21.045-50.958 28.979-3.932-4.609-12.171-14.078-21.235-23.346-23.825-24.359-32.718-26.438-37.336-25.885-13.427 1.613-60.483 33.603-79.435 50.105v-55.569zm20.92 141.863 14.808-28.493c.645-1.24.596-2.727-.13-3.921s-2.021-1.924-3.419-1.924c-17.743 0-32.179-14.434-32.179-32.176v-8.808c9.576-11.488 68.376-51.691 80.389-53.134 1.144-.147 7.986.357 30.63 23.502 12.345 12.617 23.145 25.633 23.252 25.763 1.352 1.633 3.745 1.928 5.452.671 15.305-11.265 42.314-29.271 49.633-29.638h.012c4.42 0 22.188 17.163 44.498 45.978-2.169 15.73-15.887 27.842-31.883 27.842h-116.216c-.661 0-1.313.164-1.895.478z"/></g><g display="inline" fill="#00ff97"><path d="m444.393 208.291h-130.568-5.908c-.703 0-1.399.027-2.092.069-18.042 1.086-32.39 16.103-32.39 34.412v41.281 8 22.767c0 19.013 15.469 34.481 34.481 34.481h136.476c19.013 0 34.481-15.469 34.481-34.481v-72.048c.001-19.012-15.468-34.481-34.48-34.481zm26.481 106.529c0 14.602-11.88 26.481-26.481 26.481h-136.476c-14.602 0-26.481-11.88-26.481-26.481v-72.048c0-14.602 11.88-26.481 26.481-26.481h136.476c14.602 0 26.481 11.88 26.481 26.481z"/><path d="m406.453 265.758-46.852-27.05c-3.199-1.848-6.352-2.784-9.369-2.784-7.903 0-13.214 6.358-13.214 15.822v54.098c0 9.465 5.312 15.824 13.216 15.824 3.017 0 6.169-.937 9.367-2.783l46.852-27.05c5.619-3.244 8.842-7.996 8.842-13.038 0-5.043-3.223-9.795-8.842-13.039zm-4 19.149-46.852 27.05c-1.939 1.119-3.795 1.711-5.367 1.711-4.708 0-5.216-5.472-5.216-7.824v-54.098c0-2.352.508-7.822 5.214-7.822 1.573 0 3.43.592 5.369 1.712l46.852 27.05c3.077 1.776 4.842 4.004 4.842 6.111 0 2.106-1.765 4.334-4.842 6.11z"/><path d="m370.51 44.503c0 12.142 9.878 22.02 22.02 22.02 12.143 0 22.021-9.878 22.021-22.02 0-12.143-9.878-22.021-22.021-22.021-12.142 0-22.02 9.878-22.02 22.021zm36.04 0c0 7.73-6.29 14.02-14.021 14.02s-14.02-6.289-14.02-14.02 6.289-14.021 14.02-14.021 14.021 6.29 14.021 14.021z"/></g></g><g id="Light_Blue" display="none"><g display="inline" fill="#0ff"><path d="m460.892 411.349c-4.524 0-8.983.882-13.255 2.621l-1.521.619c.925-6.2-.188-12.361-3.317-17.698-4.975-8.472-14.316-13.529-24.989-13.529-4.395 0-8.794.877-12.936 2.559-.272-.553-.563-1.093-.871-1.618-4.979-8.479-14.329-13.542-25.013-13.542-6.092 0-12.168 1.677-17.572 4.85l-71.101 41.734c-1.936-3.048-4.358-5.82-7.146-8.155-.083-.07-.17-.137-.259-.199l-94.85-67.077c-.676-.478-1.482-.734-2.31-.734h-95.264v-9.888c0-9.844-8.009-17.854-17.855-17.858l-33.246-.003c-9.843 0-17.852 8.009-17.852 17.854l.003 143.746c0 9.844 8.009 17.854 17.855 17.858h33.234.007.002c4.753 0 9.23-1.861 12.609-5.241 3.379-3.379 5.239-7.858 5.239-12.611v-10.103l114.504 46.766c.48.196.994.297 1.513.297l153.66.003c.517 0 1.029-.101 1.508-.295l107.876-43.915c16.504-6.722 25.021-24.26 18.984-39.098-4.291-10.536-15.139-17.343-27.637-17.343zm-378.407 63.685c0 2.617-1.028 5.087-2.896 6.955-1.868 1.869-4.337 2.897-6.952 2.897-.001 0-.001 0-.001 0h-.006-33.234c-5.436-.002-9.857-4.425-9.857-9.858l-.003-143.746c0-5.434 4.42-9.854 9.855-9.854l33.24.003c5.436.002 9.857 4.425 9.857 9.858zm282.982-92.526c4.178-2.452 8.854-3.748 13.522-3.748 7.815 0 14.587 3.586 18.114 9.593.242.413.463.845.673 1.286l-88.871 52.166-14.94 2.17c2.107-6.021 2.081-12.815-.173-19.396zm-76.706 70.305 22.069-3.203c.512-.075 1.004-.248 1.449-.51l91.981-53.992c.06-.035.106-.082.163-.119.084-.04.172-.062.253-.107 4.077-2.302 8.618-3.52 13.132-3.52 7.805 0 14.568 3.581 18.09 9.578 2.994 5.108 3.322 11.385.964 17.425l-87.291 35.529h-61.796c.342-.345.661-.716.986-1.081zm177.767 7.567-107.15 43.62-152.091-.006-116.801-47.704.002-107.112h93.992l93.674 66.245c3.015 2.555 5.376 5.63 7.021 9.145.011.023.028.043.04.066 3.689 7.933 2.908 16.53-2.052 22.455-3.569 4.263-8.871 6.669-14.936 6.796-.016 0-.03-.005-.046-.005-.021 0-.042 0-.063 0-6.09.101-12.179-2.132-17.123-6.271-.13-.108-.268-.209-.41-.301l-62.679-40.14c-1.86-1.191-4.335-.649-5.525 1.211-1.191 1.86-.649 4.334 1.211 5.525l62.47 40.006c6.248 5.154 13.918 7.974 21.682 7.973.104 0 .208-.001.313-.002.043.002.082.013.125.013h82.174c.517 0 1.029-.101 1.508-.295l89.57-36.457c.025-.011.046-.026.071-.038l9.149-3.725c3.31-1.348 6.754-2.03 10.238-2.03 9.23 0 17.17 4.852 20.228 12.359 4.373 10.752-2.173 23.614-14.592 28.672z"/><path d="m56.012 432.84c-11.491 0-20.84 9.35-20.84 20.843 0 11.491 9.349 20.84 20.84 20.84 11.493 0 20.843-9.349 20.843-20.84-.001-11.494-9.35-20.843-20.843-20.843zm0 33.682c-7.08 0-12.84-5.76-12.84-12.84 0-7.081 5.76-12.843 12.84-12.843 7.081 0 12.843 5.762 12.843 12.843-.001 7.081-5.762 12.84-12.843 12.84z"/><path d="m307.917 208.291h5.908v-41.154l21.257-11.434h115.207c20.608 0 38.189-16.097 40.025-36.655.1-1.15.15-2.336.15-3.521v-75.35c.001-22.154-18.022-40.177-40.175-40.177h-169.804c-22.154 0-40.179 18.023-40.179 40.178v57.646h-64.006l-29.964-25.551c-.725-.617-1.645-.956-2.596-.956h-52.765c-13.323 0-24.163 10.84-24.163 24.163v35.061c-5.584 4.729-9.139 11.786-9.139 19.66v116.088c0 14.207 11.559 25.765 25.766 25.765h189.997v-8h-189.998c-9.796 0-17.766-7.969-17.766-17.765v-116.088c0-9.796 7.97-17.766 17.766-17.766h160.612c5.542 11.893 16.732 20.646 30.106 22.77l-18.013 34.661c-.81 1.558-.51 3.461.74 4.693.768.756 1.783 1.151 2.81 1.151.646 0 1.297-.156 1.894-.478l44.237-23.794v36.921c.694-.041 1.39-.068 2.093-.068zm-224.479-83.855c-3.025 0-5.928.528-8.627 1.49v-30.446c0-8.912 7.251-16.163 16.163-16.163h51.293l29.964 25.551c.725.617 1.645.956 2.596.956h65.479v9.703c0 3.061.348 6.041.999 8.908h-157.867zm164.869-84.258c0-17.743 14.435-32.178 32.178-32.178h169.804c17.742 0 32.176 14.435 32.176 32.178v67.168c-3.964-4.92-9.07-11.091-14.427-17.12-19.507-21.953-26.697-24.52-30.768-24.332-10.63.531-39.979 21.045-50.958 28.979-3.932-4.609-12.171-14.078-21.235-23.346-23.825-24.359-32.718-26.438-37.336-25.885-13.427 1.613-60.483 33.603-79.435 50.105v-55.569zm20.92 141.863 14.808-28.493c.645-1.24.596-2.727-.13-3.921s-2.021-1.924-3.419-1.924c-17.743 0-32.179-14.434-32.179-32.176v-8.808c9.576-11.488 68.376-51.691 80.389-53.134 1.144-.147 7.986.357 30.63 23.502 12.345 12.617 23.145 25.633 23.252 25.763 1.352 1.633 3.745 1.928 5.452.671 15.305-11.265 42.314-29.271 49.633-29.638h.012c4.42 0 22.188 17.163 44.498 45.978-2.169 15.73-15.887 27.842-31.883 27.842h-116.216c-.661 0-1.313.164-1.895.478z"/></g><g display="inline" fill="#081919"><path d="m444.393 208.291h-130.568-5.908c-.703 0-1.399.027-2.092.069-18.042 1.086-32.39 16.103-32.39 34.412v41.281 8 22.767c0 19.013 15.469 34.481 34.481 34.481h136.476c19.013 0 34.481-15.469 34.481-34.481v-72.048c.001-19.012-15.468-34.481-34.48-34.481zm26.481 106.529c0 14.602-11.88 26.481-26.481 26.481h-136.476c-14.602 0-26.481-11.88-26.481-26.481v-72.048c0-14.602 11.88-26.481 26.481-26.481h136.476c14.602 0 26.481 11.88 26.481 26.481z"/><path d="m406.453 265.758-46.852-27.05c-3.199-1.848-6.352-2.784-9.369-2.784-7.903 0-13.214 6.358-13.214 15.822v54.098c0 9.465 5.312 15.824 13.216 15.824 3.017 0 6.169-.937 9.367-2.783l46.852-27.05c5.619-3.244 8.842-7.996 8.842-13.038 0-5.043-3.223-9.795-8.842-13.039zm-4 19.149-46.852 27.05c-1.939 1.119-3.795 1.711-5.367 1.711-4.708 0-5.216-5.472-5.216-7.824v-54.098c0-2.352.508-7.822 5.214-7.822 1.573 0 3.43.592 5.369 1.712l46.852 27.05c3.077 1.776 4.842 4.004 4.842 6.111 0 2.106-1.765 4.334-4.842 6.11z"/><path d="m370.51 44.503c0 12.142 9.878 22.02 22.02 22.02 12.143 0 22.021-9.878 22.021-22.02 0-12.143-9.878-22.021-22.021-22.021-12.142 0-22.02 9.878-22.02 22.021zm36.04 0c0 7.73-6.29 14.02-14.021 14.02s-14.02-6.289-14.02-14.02 6.289-14.021 14.02-14.021 14.021 6.29 14.021 14.021z"/></g></g><g id="Hilight" display="none"><g display="inline"><g fill="#071c14"><path d="m442.69 423.602c2.435-6.234 2.096-12.714-.995-17.986-3.635-6.19-10.617-9.888-18.673-9.888-4.659 0-9.347 1.257-13.556 3.634-.084.047-.175.069-.261.11-.059.038-.107.087-.169.123l-94.948 55.733c-.46.271-.968.449-1.496.526l-22.781 3.307c-.336.377-.664.76-1.018 1.116h63.79z"/><path d="m295.184 450.038 15.422-2.239 91.738-53.85c-.217-.455-.444-.9-.694-1.327-3.642-6.201-10.631-9.902-18.699-9.902-4.819 0-9.646 1.338-13.958 3.869l-73.987 43.429c2.326 6.792 2.352 13.804.178 20.02z"/><path d="m467.495 424.618c-3.597 0-7.152.704-10.568 2.096l-9.445 3.845c-.025.012-.047.028-.073.039l-92.46 37.633c-.493.201-1.022.305-1.556.305h-84.825c-.044 0-.085-.011-.129-.013-.107.001-.215.002-.322.002-8.015.001-15.932-2.909-22.381-8.23l-64.485-41.296c-1.92-1.229-2.479-3.783-1.25-5.704 1.229-1.92 3.783-2.479 5.704-1.25l64.7 41.435c.147.095.289.199.423.311 5.104 4.273 11.39 6.578 17.676 6.474h.065c.017 0 .031.006.048.006 6.26-.132 11.732-2.615 15.417-7.016 5.12-6.116 5.927-14.991 2.118-23.18-.013-.023-.03-.044-.042-.068-1.697-3.628-4.135-6.803-7.246-9.439l-96.696-68.382h-97.024l-.002 110.567 120.568 49.243 156.997.004 110.606-45.027c12.819-5.221 19.576-18.498 15.062-29.597-3.156-7.75-11.352-12.758-20.88-12.758z"/></g><path d="m66.71 323.542-34.313-.003c-5.611 0-10.174 4.563-10.174 10.172l.003 148.383c0 5.608 4.564 10.175 10.176 10.177h34.307.006.001c2.699 0 5.248-1.062 7.177-2.991 1.928-1.929 2.989-4.478 2.989-7.18l.003-148.381c0-5.61-4.565-10.175-10.175-10.177zm-17.155 158.029c-11.862 0-21.513-9.65-21.513-21.512 0-11.864 9.65-21.516 21.513-21.516s21.515 9.651 21.515 21.516c-.001 11.862-9.652 21.512-21.515 21.512z" fill="#00ff97"/><path d="m49.555 446.803c-7.309 0-13.254 5.947-13.254 13.257 0 7.309 5.945 13.254 13.254 13.254 7.31 0 13.257-5.945 13.257-13.254 0-7.31-5.948-13.257-13.257-13.257z" fill="#071c14"/><path d="m239.794 100.979h-67.592c-.981 0-1.931-.35-2.679-.986l-30.931-26.375h-52.946c-9.2 0-16.685 7.484-16.685 16.685v31.427c2.786-.992 5.782-1.538 8.905-1.538h162.959c-.672-2.96-1.031-6.036-1.031-9.195z" fill="#071c14"/><path d="m259.808 193.767c-1.06 0-2.108-.409-2.9-1.189-1.29-1.271-1.6-3.236-.764-4.845l18.594-35.778c-13.806-2.193-25.357-11.229-31.078-23.505h-165.794c-10.112 0-18.339 8.228-18.339 18.339v119.833c0 10.111 8.227 18.338 18.339 18.338h196.126v-42.613c0-18.9 14.811-34.401 33.435-35.522v-38.111l-45.665 24.562c-.616.328-1.287.491-1.954.491z" fill="#071c14"/><path d="m282.25 242.346v74.372c0 15.072 12.263 27.336 27.336 27.336h140.878c15.072 0 27.336-12.264 27.336-27.336v-74.372c0-15.072-12.264-27.336-27.336-27.336h-140.878c-15.073 0-27.336 12.263-27.336 27.336zm57.376 9.262c0-9.769 5.481-16.332 13.64-16.332 3.115 0 6.369.967 9.672 2.874l48.363 27.922c5.8 3.349 9.127 8.254 9.127 13.46 0 5.205-3.327 10.11-9.127 13.459l-48.363 27.922c-3.302 1.906-6.556 2.873-9.669 2.873-8.16 0-13.643-6.564-13.643-16.335z" fill="#00ff97"/><path d="m353.269 315.528c1.622 0 3.538-.611 5.54-1.767l48.362-27.922c3.177-1.834 4.998-4.133 4.998-6.308 0-2.176-1.821-4.475-4.998-6.309l-48.362-27.922c-2.002-1.156-3.919-1.768-5.543-1.768-4.857 0-5.382 5.647-5.382 8.074v55.843c0 2.431.524 8.079 5.385 8.079z" fill="#071c14"/><path d="m396.928 52.152c7.979 0 14.473-6.492 14.473-14.472s-6.493-14.473-14.473-14.473-14.472 6.492-14.472 14.473c0 7.98 6.491 14.472 14.472 14.472z" fill="#071c14"/><path d="m368.59 65.576c9.356 9.567 17.861 19.341 21.92 24.1 11.334-8.19 41.629-29.366 52.603-29.915 4.201-.193 11.624 2.456 31.76 25.117 5.529 6.224 10.8 12.594 14.892 17.673v-69.335c-.001-18.316-14.9-33.216-33.214-33.216h-175.281c-18.315 0-33.217 14.9-33.217 33.216v57.363c19.563-17.036 68.137-50.057 81.997-51.723 4.766-.57 13.946 1.576 38.54 26.72zm28.338-50.627c12.534 0 22.73 10.197 22.73 22.731 0 12.533-10.196 22.729-22.73 22.729-12.533 0-22.73-10.196-22.73-22.729-.001-12.534 10.197-22.731 22.73-22.731z" fill="#00ff97"/><path d="m281.27 144.21c1.442 0 2.78.753 3.529 1.985.748 1.233.799 2.768.134 4.048l-15.285 29.412 64.983-34.953c.601-.323 1.273-.492 1.956-.492h119.964c16.512 0 30.672-12.502 32.911-28.74-23.03-29.744-41.371-47.461-45.934-47.461-.004 0-.008 0-.013 0-7.554.378-35.435 18.966-51.233 30.594-1.762 1.298-4.232.993-5.628-.692-.111-.134-11.259-13.569-24.002-26.594-23.374-23.891-30.438-24.412-31.618-24.26-12.4 1.488-73.097 42.988-82.981 54.848v9.092c0 18.314 14.901 33.213 33.217 33.213z" fill="#071c14"/></g></g><g id="Shadow"><g><g><path d="m484.824 430.201c-5.195-12.759-21.254-18.401-35.68-12.526l-9.241 3.762c3.388-7.32 3.482-15.636-.555-22.521-6.896-11.742-23.286-15.06-36.639-7.518-.503-1.748-1.207-3.453-2.157-5.071-6.976-11.88-23.678-15.154-37.111-7.269l-74.644 43.814c-1.834-3.921-4.575-7.585-8.196-10.618l-94.85-67.077h-111.11l-.005 108.96 131.866 53.856 153.659.007 107.875-43.915c14.426-5.875 21.982-21.118 16.788-33.884z" fill="#ffcebf"/><path d="m25.538 475.028c0 7.621 6.235 13.855 13.855 13.858h33.237c7.621.003 13.855-6.232 13.855-13.853l.003-143.744c0-7.62-6.235-13.855-13.855-13.858l-33.242-.003c-7.62-.002-13.855 6.232-13.855 13.854z" fill="#01d0fb"/><path d="m72.854 453.683c0 9.298-7.542 16.84-16.843 16.84s-16.84-7.542-16.84-16.84c0-9.304 7.539-16.843 16.84-16.843s16.843 7.539 16.843 16.843z" fill="#3a313a"/></g><g fill="#ffd15b"><path d="m300.689 229.526c0 11.089-9.074 20.163-20.164 20.163h-189.55c-11.09 0-20.163-9.074-20.163-20.163v-134.046c0-11.09 9.073-20.163 20.163-20.163h52.767l31.086 26.507h105.698c11.09 0 20.164 9.073 20.164 20.163v107.539z"/><path d="m309.825 266.289c0 11.972-9.794 21.765-21.766 21.765h-204.621c-11.97 0-21.766-9.793-21.766-21.765v-116.088c0-11.972 9.796-21.766 21.766-21.766h204.622c11.972 0 21.766 9.794 21.766 21.766v116.088z"/></g><g><path d="m474.874 314.82c0 16.765-13.717 30.481-30.481 30.481h-136.476c-16.765 0-30.481-13.717-30.481-30.481v-72.048c0-16.765 13.717-30.481 30.481-30.481h136.476c16.765 0 30.481 13.717 30.481 30.481z" fill="#fd4755"/><path d="m341.019 251.746c0-10.532 7.461-14.841 16.583-9.574l46.852 27.05c9.122 5.267 9.122 13.883 0 19.149l-46.852 27.05c-9.122 5.267-16.583.955-16.583-9.577z" fill="#dedbee"/></g><g id="XMLID_46_"><g><path d="m392.529 26.482c9.935 0 18.021 8.064 18.021 18.021 0 9.934-8.086 18.02-18.021 18.02-9.956 0-18.02-8.086-18.02-18.02.001-9.956 8.064-18.021 18.02-18.021z" fill="#ffd15b"/><path d="m486.465 40.178v75.35c0 1.083-.046 2.141-.136 3.175-2.479-3.221-37.98-49.354-48.859-48.813-11.263.563-51.812 30.411-51.812 30.411s-43.362-52.374-57.439-50.686c-14.08 1.691-76.589 45.055-83.912 55.755v-65.192c0-19.893 16.288-36.178 36.178-36.178h169.804c19.888 0 36.176 16.285 36.176 36.178zm-75.915 4.325c0-9.956-8.086-18.021-18.021-18.021-9.956 0-18.02 8.064-18.02 18.021 0 9.934 8.063 18.02 18.02 18.02 9.935-.001 18.021-8.086 18.021-18.02z" fill="#01d0fb"/><path d="m486.329 118.702c-1.646 18.429-17.232 33.001-36.04 33.001h-116.215l-74.381 40.008 20.792-40.008c-19.891 0-36.179-16.285-36.179-36.176v-10.158c7.323-10.7 69.832-54.063 83.912-55.755 14.077-1.688 57.439 50.686 57.439 50.686s40.549-29.849 51.812-30.411c10.88-.541 46.382 45.592 48.86 48.813z" fill="#6fd7a3"/></g></g></g></g><g id="Line" style="display:none;fill:none;stroke:#000;stroke-width:8;stroke-linecap:round;stroke-linejoin:round;stroke-miterlimit:10"><path d="m402.236 391.658-91.981 53.992-22.296 3.238" display="inline"/><path d="m439.925 421.437-89.57 36.457h-82.174v-.003c6.965-.111 13.56-2.871 18.05-8.234 6.164-7.363 6.803-17.769 2.578-26.785" display="inline"/><path d="m185.749 410.536 62.679 40.14c5.884 4.926 12.992 7.31 19.753 7.204" display="inline"/><g display="inline"><path d="m486.329 118.702c.09-1.034.136-2.092.136-3.175v-75.35c0-19.892-16.288-36.177-36.176-36.177h-169.804c-19.891 0-36.179 16.285-36.179 36.178v65.191 10.158c0 19.891 16.288 36.176 36.179 36.176l-20.792 40.008 74.381-40.008h116.215c18.808 0 34.395-14.572 36.04-33.001z"/><path d="m244.307 105.369c7.323-10.7 69.832-54.063 83.912-55.755 14.077-1.688 57.439 50.686 57.439 50.686s40.549-29.849 51.812-30.411c10.879-.541 46.381 45.593 48.859 48.813.09.113.136.181.136.181"/><path d="m410.55 44.503c0 9.934-8.086 18.02-18.021 18.02-9.956 0-18.02-8.086-18.02-18.02 0-9.956 8.063-18.021 18.02-18.021 9.935 0 18.021 8.065 18.021 18.021z"/></g></g><g id="Base"><g fill="#ffdfcf"><path d="m211.773 495.489-112.782-46.062.002-98.754h87.402l92.189 65.195c2.386 2.059 4.258 4.518 5.566 7.313.034.073.072.149.113.227 2.774 6.104 2.231 12.591-1.431 16.966-2.589 3.093-6.501 4.865-11.03 5.003-.039-.002-.575.001-.575.001-4.783 0-9.584-1.813-13.519-5.108-.292-.243-.597-.467-.914-.671l-62.688-40.146c-1.452-.93-3.129-1.421-4.851-1.421-3.086 0-5.921 1.551-7.583 4.147-1.295 2.023-1.726 4.431-1.211 6.779s1.913 4.355 3.938 5.652l62.225 39.849c7.084 5.754 15.814 8.919 24.619 8.919l.098-.001c.113.008.228.012.344.012h82.174c1.167 0 2.307-.223 3.39-.662l89.573-36.459c.082-.033.169-.071.256-.113l8.965-3.649c2.708-1.103 5.518-1.661 8.354-1.661 7.188 0 13.31 3.629 15.597 9.245 3.335 8.197-1.979 18.137-11.846 22.155l-106.243 43.251z"/><path d="m303.851 434.49c.348-3.633.113-7.372-.703-11.053l68.355-40.122c3.41-2.002 7.211-3.061 10.991-3.061 4.621 0 8.733 1.567 11.58 4.312l-83.352 48.926z"/><path d="m326.013 445.389s84.32-49.495 84.338-49.507c.094-.045.192-.097.295-.155 3.324-1.876 7.015-2.87 10.668-2.87 6.014 0 11.164 2.658 13.778 7.11 1.905 3.25 2.334 7.143 1.26 11.129l-84.254 34.293z"/></g><path d="m42.9 476.382c-2.678-.001-4.857-2.181-4.857-4.858v-6.987c4.642 6.919 12.534 11.481 21.474 11.481 8.938 0 16.831-4.562 21.474-11.478v6.989c0 1.3-.495 2.482-1.432 3.42-.938.938-2.119 1.433-3.417 1.433zm-4.86-148.605c0-2.676 2.178-4.854 4.855-4.854l33.24.003c2.678.001 4.857 2.181 4.857 4.858l-.002 108.029c-4.643-6.918-12.535-11.479-21.475-11.479s-16.833 4.564-21.475 11.483z" fill="#62dbfb"/><path d="m59.517 458.018c-4.323 0-7.84-3.517-7.84-7.84 0-4.324 3.517-7.843 7.84-7.843 4.324 0 7.843 3.519 7.843 7.843-.001 4.323-3.519 7.84-7.843 7.84z" fill="#685e68"/><path d="m83.316 91.976c0-6.155 5.008-11.163 11.163-11.163h49.45l28.563 24.355c1.63 1.388 3.703 2.151 5.84 2.151h60.479v4.703c0 1.304.057 2.608.17 3.908h-152.038c-1.217 0-2.428.071-3.627.214z" fill="#fee45a"/><path d="m86.943 275.549c-7.039 0-12.766-5.727-12.766-12.765v-116.088c0-7.039 5.727-12.766 12.766-12.766h157.553c5.629 10.136 14.861 17.668 25.778 21.143l-15.062 28.982c-1.833 3.526-1.163 7.77 1.666 10.56 1.697 1.672 3.941 2.591 6.32 2.591 1.483 0 2.958-.372 4.264-1.075l36.867-19.829v24.128c-18.502 3.361-32.39 19.593-32.39 38.838v36.281z" fill="#fee45a"/><path d="m311.422 332.797c-11.845 0-21.481-9.637-21.481-21.481v-72.048c0-11.845 9.637-21.481 21.481-21.481h136.476c11.845 0 21.481 9.637 21.481 21.481v72.048c0 11.845-9.637 21.481-21.481 21.481zm42.315-105.378c-10.724 0-18.214 8.563-18.214 20.822v54.098c0 12.261 7.49 20.824 18.216 20.824 3.906 0 7.899-1.162 11.867-3.453l46.852-27.05c7.208-4.161 11.342-10.492 11.342-17.368 0-6.877-4.134-13.208-11.342-17.369l-46.852-27.05c-3.968-2.292-7.961-3.454-11.869-3.454z" fill="#fe646f"/><path d="m353.953 305.15c-.191-.45-.43-1.404-.43-2.812v-54.098c0-1.399.236-2.35.426-2.803.605.07 1.52.365 2.656 1.022l46.853 27.05c1.27.732 1.932 1.402 2.214 1.781-.283.379-.945 1.048-2.214 1.78l-46.852 27.05c-1.166.675-2.095.968-2.653 1.03z" fill="#f9f7f8"/><path d="m396.034 50.018c-4.974 0-9.02-4.046-9.02-9.02s4.046-9.021 9.02-9.021 9.021 4.047 9.021 9.021-4.047 9.02-9.021 9.02z" fill="#fee45a"/><path d="m480.97 89.949c-1.945-2.287-3.845-4.474-5.688-6.55-20.32-22.867-28.405-26.02-34.116-26.02-.212 0-.419.005-.62.014-10.163.508-32.03 14.521-49.924 27.246-4.509-5.189-11.22-12.707-18.465-20.113-23.806-24.34-33.723-27.461-39.703-27.461-.599 0-1.205.036-1.801.107-13.358 1.605-52.013 27.329-73.841 44.492v-44.991c0-14.986 12.192-27.178 27.179-27.178h169.804c14.984 0 27.176 12.191 27.176 27.178v53.276zm-84.936-75.971c-14.898 0-27.02 12.121-27.02 27.021 0 14.898 12.121 27.02 27.02 27.02s27.021-12.121 27.021-27.02c0-14.9-12.121-27.021-27.021-27.021z" fill="#62dbfb"/><path d="m291.976 152.349c1.441-2.772 1.328-6.153-.293-8.822-1.622-2.67-4.569-4.328-7.692-4.328-14.986 0-27.179-12.191-27.179-27.176v-6.894c12.383-12.923 65.425-48.131 75.64-50.03 1.211.321 8.112 2.875 26.805 21.981 12.198 12.467 22.868 25.325 22.974 25.453 1.717 2.073 4.244 3.262 6.937 3.262 1.933 0 3.776-.605 5.333-1.752 19.673-14.479 40.777-27.462 46.371-28.595 3.603 1.736 17.435 13.954 39.5 42.229-2.669 12.402-13.755 21.521-26.576 21.521h-116.217c-1.484 0-2.959.372-4.266 1.075l-48.666 26.176z" fill="#9be69d"/></g><g id="Blue" display="none"><g display="inline"><g fill="#f9f7f8"><path d="m481.119 431.708c-3.058-7.508-10.997-12.359-20.228-12.359-3.484 0-6.929.683-10.238 2.03l-9.149 3.725c-.025.012-.046.027-.071.038l-89.57 36.457c-.479.194-.991.295-1.508.295h-82.174c-.043 0-.082-.011-.125-.013-.104.001-.208.002-.313.002-7.764.001-15.434-2.818-21.682-7.973l-62.47-40.006c-1.86-1.191-2.402-3.665-1.211-5.525 1.19-1.86 3.665-2.402 5.525-1.211l62.679 40.14c.143.092.28.192.41.301 4.944 4.14 11.033 6.372 17.123 6.271h.063c.016 0 .03.005.046.005 6.064-.127 11.366-2.533 14.936-6.796 4.96-5.925 5.741-14.522 2.052-22.455-.012-.023-.029-.043-.04-.066-1.645-3.515-4.006-6.59-7.021-9.145l-93.674-66.245h-93.991l-.002 107.112 116.801 47.704 152.091.006 107.15-43.62c12.419-5.058 18.965-17.92 14.591-28.672z"/><path d="m293.965 443.975 14.94-2.17 88.871-52.166c-.21-.441-.431-.873-.673-1.286-3.527-6.007-10.299-9.593-18.114-9.593-4.669 0-9.345 1.296-13.522 3.748l-71.675 42.071c2.254 6.58 2.28 13.374.173 19.396z"/><path d="m417.809 391.361c-4.514 0-9.055 1.218-13.132 3.52-.081.046-.169.067-.253.107-.057.037-.104.084-.163.119l-91.982 53.993c-.445.262-.938.435-1.449.51l-22.069 3.203c-.325.365-.644.736-.985 1.081h61.796l87.291-35.529c2.358-6.04 2.03-12.316-.964-17.425-3.522-5.998-10.286-9.579-18.09-9.579z"/></g><path d="m82.488 331.29c0-5.434-4.422-9.856-9.857-9.858l-33.24-.003c-5.436 0-9.855 4.42-9.855 9.854l.003 143.746c0 5.434 4.422 9.856 9.857 9.858h33.234.006.001c2.615 0 5.084-1.028 6.952-2.897 1.868-1.868 2.896-4.338 2.896-6.955zm-26.476 143.232c-11.491 0-20.84-9.349-20.84-20.84 0-11.493 9.349-20.843 20.84-20.843 11.493 0 20.843 9.35 20.843 20.843-.001 11.492-9.35 20.84-20.843 20.84z" fill="#9bc9ff"/><path d="m56.012 440.84c-7.08 0-12.84 5.762-12.84 12.843 0 7.08 5.76 12.84 12.84 12.84 7.081 0 12.843-5.76 12.843-12.84-.001-7.081-5.762-12.843-12.843-12.843z" fill="#f9f7f8"/><path d="m240.307 105.824h-65.479c-.951 0-1.871-.339-2.596-.956l-29.964-25.551h-51.293c-8.912 0-16.163 7.251-16.163 16.163v30.445c2.699-.962 5.602-1.49 8.627-1.49h157.867c-.651-2.867-.999-5.848-.999-8.908z" fill="#9bc9ff"/><path d="m261.588 195.233c-.597.321-1.247.478-1.894.478-1.026 0-2.042-.396-2.81-1.151-1.25-1.232-1.55-3.136-.74-4.693l18.013-34.661c-13.374-2.124-24.564-10.877-30.106-22.77h-160.613c-9.796 0-17.766 7.97-17.766 17.766v116.088c0 9.796 7.97 17.765 17.766 17.765h189.997v-41.281c0-18.31 14.348-33.326 32.39-34.412v-36.921z" fill="#9bc9ff"/><path d="m444.393 216.291h-136.476c-14.602 0-26.481 11.88-26.481 26.481v72.048c0 14.602 11.88 26.481 26.481 26.481h136.476c14.602 0 26.481-11.88 26.481-26.481v-72.048c0-14.601-11.88-26.481-26.481-26.481zm-37.94 75.544-46.852 27.05c-3.198 1.847-6.351 2.783-9.367 2.783-7.904 0-13.216-6.359-13.216-15.824v-54.098c0-9.464 5.311-15.822 13.214-15.822 3.018 0 6.17.937 9.369 2.784l46.852 27.05c5.619 3.244 8.842 7.996 8.842 13.039 0 5.042-3.223 9.794-8.842 13.038z" fill="#f9f7f8"/><path d="m402.453 272.686-46.852-27.05c-1.939-1.12-3.796-1.712-5.369-1.712-4.706 0-5.214 5.471-5.214 7.822v54.098c0 2.353.508 7.824 5.216 7.824 1.572 0 3.428-.592 5.367-1.711l46.852-27.05c3.077-1.776 4.842-4.004 4.842-6.11 0-2.108-1.765-4.335-4.842-6.111z" fill="#9bc9ff"/><path d="m392.529 58.522c7.73 0 14.021-6.289 14.021-14.02s-6.29-14.021-14.021-14.021-14.02 6.29-14.02 14.021 6.29 14.02 14.02 14.02z" fill="#9bc9ff"/><path d="m248.307 95.748c18.951-16.503 66.008-48.492 79.435-50.105 4.618-.553 13.511 1.525 37.336 25.885 9.064 9.268 17.304 18.736 21.235 23.346 10.979-7.935 40.328-28.448 50.958-28.979 4.07-.188 11.261 2.379 30.768 24.332 5.356 6.029 10.463 12.2 14.427 17.12v-67.169c-.001-17.743-14.435-32.178-32.177-32.178h-169.804c-17.743 0-32.179 14.435-32.179 32.178v55.57zm144.222-73.266c12.143 0 22.021 9.878 22.021 22.021 0 12.142-9.878 22.02-22.021 22.02-12.142 0-22.02-9.878-22.02-22.02.001-12.143 9.879-22.021 22.02-22.021z" fill="#f9f7f8"/><path d="m437.674 73.884c-.004 0-.008 0-.012 0-7.318.366-34.328 18.373-49.633 29.638-1.707 1.257-4.101.962-5.452-.671-.107-.13-10.907-13.146-23.252-25.763-22.644-23.145-29.486-23.649-30.63-23.502-12.013 1.442-70.813 41.646-80.389 53.134v8.808c0 17.742 14.436 32.176 32.179 32.176 1.397 0 2.693.729 3.419 1.924s.774 2.681.13 3.921l-14.808 28.493 62.953-33.86c.582-.313 1.233-.478 1.895-.478h116.215c15.996 0 29.714-12.111 31.883-27.842-22.311-28.815-40.078-45.978-44.498-45.978z" fill="#f9f7f8"/></g></g><g id="Glyph" display="none"><path d="m473.313 466.973-110.606 45.027-156.997-.006-120.568-49.243.002-110.567h97.023l96.696 68.382c3.111 2.637 5.549 5.812 7.246 9.439.012.024.029.045.042.068 3.809 8.188 3.002 17.063-2.118 23.18-3.685 4.4-9.157 6.884-15.417 7.016-.017 0-.031-.006-.048-.006-.021 0-.043 0-.065 0-6.286.104-12.571-2.2-17.676-6.474-.134-.111-.275-.216-.423-.311l-64.7-41.435c-1.921-1.229-4.476-.67-5.704 1.25-1.229 1.921-.67 4.475 1.25 5.704l64.485 41.296c6.449 5.321 14.366 8.231 22.381 8.23.107 0 .215-.001.322-.002.044.002.085.013.129.013h84.825c.533 0 1.063-.104 1.556-.305l92.46-37.633c.026-.011.048-.027.073-.039l9.445-3.845c3.416-1.392 6.972-2.096 10.568-2.096 9.528 0 17.724 5.008 20.88 12.758 4.516 11.101-2.241 24.378-15.061 29.599zm-178.129-16.935 15.422-2.239 91.738-53.85c-.217-.455-.444-.9-.694-1.327-3.642-6.201-10.631-9.902-18.699-9.902-4.819 0-9.646 1.338-13.958 3.869l-73.987 43.429c2.326 6.792 2.352 13.804.178 20.02zm127.838-54.31c-4.659 0-9.347 1.257-13.556 3.634-.084.047-.175.069-.261.11-.059.038-.107.087-.169.123l-94.948 55.733c-.46.271-.968.449-1.496.526l-22.781 3.307c-.336.377-.664.76-1.018 1.116h63.79l90.106-36.676c2.435-6.234 2.096-12.714-.995-17.986-3.633-6.19-10.616-9.887-18.672-9.887zm-346.14 86.372c0 2.702-1.062 5.251-2.989 7.18-1.929 1.93-4.478 2.991-7.177 2.991-.001 0-.001 0-.001 0h-.006-34.307c-5.611-.002-10.176-4.568-10.176-10.177l-.003-148.383c0-5.609 4.563-10.172 10.174-10.172l34.313.003c5.61.002 10.175 4.567 10.175 10.177zm-5.813-22.04c0-11.864-9.651-21.516-21.515-21.516-11.862 0-21.513 9.651-21.513 21.516 0 11.861 9.65 21.512 21.513 21.512 11.864-.001 21.515-9.651 21.515-21.512zm168.725-359.081h-67.592c-.981 0-1.931-.35-2.679-.986l-30.931-26.375h-52.946c-9.2 0-16.685 7.484-16.685 16.685v31.427c2.786-.992 5.782-1.538 8.905-1.538h162.959c-.672-2.96-1.031-6.036-1.031-9.195zm21.968 92.294c-.615.331-1.287.493-1.954.493-1.06 0-2.108-.409-2.9-1.189-1.29-1.271-1.6-3.236-.764-4.845l18.594-35.778c-13.806-2.193-25.357-11.229-31.078-23.505h-165.794c-10.112 0-18.339 8.228-18.339 18.339v119.833c0 10.111 8.227 18.338 18.339 18.338h196.126v-42.613c0-18.9 14.811-34.401 33.435-35.522v-38.111zm216.038 49.073v74.372c0 15.072-12.264 27.336-27.336 27.336h-140.878c-15.073 0-27.336-12.264-27.336-27.336v-74.372c0-15.072 12.263-27.336 27.336-27.336h140.878c15.072 0 27.336 12.263 27.336 27.336zm-57.372 37.186c0-5.206-3.327-10.111-9.127-13.46l-48.363-27.922c-3.303-1.907-6.557-2.874-9.672-2.874-8.158 0-13.64 6.563-13.64 16.332v55.843c0 9.771 5.482 16.335 13.643 16.335 3.113 0 6.367-.967 9.669-2.873l48.363-27.922c5.8-3.348 9.127-8.254 9.127-13.459zm-172.375-246.316c0-18.316 14.901-33.216 33.217-33.216h175.281c18.314 0 33.213 14.9 33.213 33.216v69.335c-4.092-5.079-9.362-11.449-14.892-17.673-20.136-22.661-27.559-25.311-31.76-25.117-10.974.549-41.269 21.725-52.603 29.915-4.059-4.759-12.563-14.532-21.92-24.1-24.594-25.145-33.773-27.29-38.54-26.72-13.86 1.666-62.435 34.687-81.997 51.723v-57.363zm126.144 4.465c0 12.533 10.197 22.729 22.73 22.729 12.534 0 22.73-10.196 22.73-22.729 0-12.534-10.196-22.731-22.73-22.731-12.532-.001-22.73 10.196-22.73 22.731zm69.331 30.328c-.004 0-.008 0-.013 0-7.554.378-35.435 18.966-51.233 30.594-1.762 1.298-4.232.993-5.628-.692-.111-.134-11.259-13.569-24.002-26.594-23.374-23.891-30.438-24.412-31.618-24.26-12.4 1.488-73.097 42.988-82.981 54.848v9.092c0 18.314 14.901 33.214 33.217 33.214 1.442 0 2.78.753 3.529 1.985.748 1.233.799 2.768.134 4.048l-15.285 29.412 64.983-34.953c.601-.323 1.273-.492 1.956-.492h119.964c16.512 0 30.672-12.502 32.911-28.74-23.03-29.745-41.371-47.462-45.934-47.462z" display="inline"/></g><g id="Outline"><path d="m460.892 411.349c-4.524 0-8.983.882-13.255 2.621l-1.521.619c.925-6.2-.188-12.361-3.317-17.698-4.975-8.472-14.316-13.529-24.989-13.529-4.395 0-8.794.877-12.936 2.559-.272-.553-.563-1.093-.871-1.618-4.979-8.479-14.329-13.542-25.013-13.542-6.092 0-12.168 1.677-17.572 4.85l-71.101 41.734c-1.936-3.048-4.358-5.82-7.146-8.155-.083-.07-.17-.137-.259-.199l-94.85-67.077c-.676-.478-1.482-.734-2.31-.734h-95.264v-9.888c0-9.844-8.009-17.854-17.855-17.858l-33.246-.003c-9.843 0-17.852 8.009-17.852 17.854l.003 143.746c0 9.844 8.009 17.854 17.855 17.858h33.234.007.002c4.753 0 9.23-1.861 12.609-5.241 3.379-3.379 5.239-7.858 5.239-12.611v-10.103l114.504 46.766c.48.196.994.297 1.513.297l153.66.003c.517 0 1.029-.101 1.508-.295l107.876-43.915c16.504-6.722 25.021-24.26 18.984-39.098-4.291-10.536-15.139-17.343-27.637-17.343zm-253.605 92.645-116.801-47.704.002-107.112h93.992l93.674 66.245c3.015 2.555 5.376 5.63 7.021 9.145.011.023.028.043.04.066 3.689 7.933 2.908 16.53-2.052 22.455-3.569 4.263-8.871 6.669-14.936 6.796-.016 0-.03-.005-.046-.005-.021 0-.042 0-.063 0-6.09.101-12.179-2.132-17.123-6.271-.13-.108-.268-.209-.41-.301l-62.679-40.14c-1.86-1.191-4.335-.649-5.525 1.211-1.191 1.86-.649 4.334 1.211 5.525l62.47 40.006c6.248 5.154 13.918 7.974 21.682 7.973.104 0 .208-.001.313-.002.043.002.082.013.125.013h82.174c.517 0 1.029-.101 1.508-.295l89.57-36.457c.025-.011.046-.026.071-.038l9.149-3.725c3.31-1.348 6.754-2.03 10.238-2.03 9.23 0 17.17 4.852 20.228 12.359 4.374 10.752-2.172 23.614-14.591 28.672l-107.151 43.62zm-134.65-19.107c-.001 0-.001 0 0 0h-.007-33.234c-5.436-.002-9.857-4.425-9.857-9.858l-.003-143.746c0-5.434 4.42-9.854 9.855-9.854l33.24.003c5.436.002 9.857 4.425 9.857 9.858l-.003 143.744c0 2.617-1.028 5.087-2.896 6.955-1.868 1.869-4.337 2.898-6.952 2.898zm306.352-106.127c7.815 0 14.587 3.586 18.114 9.593.242.413.463.845.673 1.286l-88.871 52.166-14.94 2.17c2.107-6.021 2.081-12.815-.173-19.396l71.675-42.071c4.178-2.452 8.853-3.748 13.522-3.748zm57.873 39.604-87.291 35.529h-61.796c.342-.345.66-.716.985-1.081l22.069-3.203c.512-.075 1.004-.248 1.449-.51l91.981-53.992c.06-.035.106-.082.163-.119.084-.04.172-.062.253-.107 4.077-2.302 8.618-3.52 13.132-3.52 7.805 0 14.568 3.581 18.09 9.578 2.996 5.109 3.324 11.385.965 17.425z"/><path d="m76.854 453.683c0-11.493-9.35-20.843-20.843-20.843-11.491 0-20.84 9.35-20.84 20.843 0 11.491 9.349 20.84 20.84 20.84 11.494-.001 20.843-9.349 20.843-20.84zm-20.842 12.839c-7.08 0-12.84-5.76-12.84-12.84 0-7.081 5.76-12.843 12.84-12.843 7.081 0 12.843 5.762 12.843 12.843-.001 7.081-5.762 12.84-12.843 12.84z"/><path d="m305.825 171.439v36.921c.692-.042 1.389-.069 2.092-.069h5.908v-41.154z"/><path d="m273.436 284.054h-189.998c-9.796 0-17.766-7.969-17.766-17.765v-116.088c0-9.796 7.97-17.766 17.766-17.766h160.612c-1.183-2.536-2.111-5.212-2.745-8h-157.867c-3.025 0-5.928.528-8.627 1.49v-30.445c0-8.912 7.251-16.163 16.163-16.163h51.293l29.964 25.551c.725.617 1.645.956 2.596.956h65.479v-.479c0-.002 0-.004 0-.007v-7.514h-64.006l-29.964-25.551c-.725-.617-1.645-.956-2.596-.956h-52.765c-13.323 0-24.163 10.84-24.163 24.163v35.061c-5.584 4.729-9.139 11.786-9.139 19.66v116.088c0 14.207 11.559 25.765 25.766 25.765h189.997z"/><path d="m307.917 208.291c-.703 0-1.399.027-2.092.069-18.042 1.086-32.39 16.103-32.39 34.412v41.281 8 22.767c0 19.013 15.469 34.481 34.481 34.481h136.476c19.013 0 34.481-15.469 34.481-34.481v-72.048c0-19.013-15.469-34.481-34.481-34.481h-130.567zm162.957 106.529c0 14.602-11.88 26.481-26.481 26.481h-136.476c-14.602 0-26.481-11.88-26.481-26.481v-72.048c0-14.602 11.88-26.481 26.481-26.481h136.476c14.602 0 26.481 11.88 26.481 26.481z"/><path d="m406.453 265.758-46.852-27.05c-3.199-1.848-6.352-2.784-9.369-2.784-7.903 0-13.214 6.358-13.214 15.822v54.098c0 9.465 5.312 15.824 13.216 15.824 3.017 0 6.169-.937 9.367-2.783l46.852-27.05c5.619-3.244 8.842-7.996 8.842-13.038 0-5.043-3.223-9.795-8.842-13.039zm-4 19.149-46.852 27.05c-1.939 1.119-3.795 1.711-5.367 1.711-4.708 0-5.216-5.472-5.216-7.824v-54.098c0-2.352.508-7.822 5.214-7.822 1.573 0 3.43.592 5.369 1.712l46.852 27.05c3.077 1.776 4.842 4.004 4.842 6.111 0 2.106-1.765 4.334-4.842 6.11z"/><path d="m240.307 105.338v.007.479 9.703c0 3.061.348 6.041.999 8.908.634 2.788 1.563 5.464 2.745 8 5.542 11.893 16.732 20.646 30.106 22.77l-18.013 34.661c-.81 1.558-.51 3.461.74 4.693.768.756 1.783 1.151 2.81 1.151.646 0 1.297-.156 1.894-.478l44.237-23.794 8-4.303 21.257-11.434h115.207c20.608 0 38.189-16.097 40.025-36.655.1-1.15.15-2.336.15-3.521v-75.35c.001-22.152-18.022-40.175-40.175-40.175h-169.804c-22.154 0-40.179 18.023-40.179 40.178v57.646 7.514zm40.178-97.338h169.804c17.742 0 32.176 14.435 32.176 32.178v67.168c-3.964-4.92-9.07-11.091-14.427-17.12-19.507-21.953-26.697-24.52-30.768-24.332-10.63.531-39.979 21.045-50.958 28.979-3.932-4.609-12.171-14.078-21.235-23.346-23.825-24.359-32.718-26.438-37.336-25.885-13.427 1.613-60.483 33.603-79.435 50.105v-55.57c.001-17.742 14.436-32.177 32.179-32.177zm169.804 139.703h-116.215c-.661 0-1.313.164-1.895.478l-62.953 33.86 14.808-28.493c.645-1.24.596-2.727-.13-3.921s-2.021-1.924-3.419-1.924c-17.743 0-32.179-14.434-32.179-32.176v-8.808c9.576-11.488 68.376-51.691 80.389-53.134 1.144-.147 7.986.357 30.63 23.502 12.345 12.617 23.145 25.633 23.252 25.763 1.352 1.633 3.745 1.928 5.452.671 15.305-11.265 42.314-29.271 49.633-29.638h.012c4.42 0 22.188 17.163 44.498 45.978-2.169 15.731-15.887 27.842-31.883 27.842z"/><path d="m392.529 66.522c12.143 0 22.021-9.878 22.021-22.02 0-12.143-9.878-22.021-22.021-22.021-12.142 0-22.02 9.878-22.02 22.021.001 12.143 9.879 22.02 22.02 22.02zm0-36.04c7.73 0 14.021 6.29 14.021 14.021s-6.29 14.02-14.021 14.02-14.02-6.289-14.02-14.02 6.29-14.021 14.02-14.021z"/></g><g id="Outline_Blue" display="none" fill="#57a4ff"><path d="m460.892 411.349c-4.524 0-8.983.882-13.255 2.621l-1.521.619c.925-6.2-.188-12.361-3.317-17.698-4.975-8.472-14.316-13.529-24.989-13.529-4.395 0-8.794.877-12.936 2.559-.272-.553-.563-1.093-.871-1.618-4.979-8.479-14.329-13.542-25.013-13.542-6.092 0-12.168 1.677-17.572 4.85l-71.101 41.734c-1.936-3.048-4.358-5.82-7.146-8.155-.083-.07-.17-.137-.259-.199l-94.85-67.077c-.676-.478-1.482-.734-2.31-.734h-95.264v-9.888c0-9.844-8.009-17.854-17.855-17.858l-33.246-.003c-9.843 0-17.852 8.009-17.852 17.854l.003 143.746c0 9.844 8.009 17.854 17.855 17.858h33.234.007.002c4.753 0 9.23-1.861 12.609-5.241 3.379-3.379 5.239-7.858 5.239-12.611v-10.103l114.504 46.766c.48.196.994.297 1.513.297l153.66.003c.517 0 1.029-.101 1.508-.295l107.876-43.915c16.504-6.722 25.021-24.26 18.984-39.098-4.291-10.536-15.139-17.343-27.637-17.343zm-253.605 92.645-116.801-47.704.002-107.112h93.992l93.674 66.245c3.015 2.555 5.376 5.63 7.021 9.145.011.023.028.043.04.066 3.689 7.933 2.908 16.53-2.052 22.455-3.569 4.263-8.871 6.669-14.936 6.796-.016 0-.03-.005-.046-.005-.021 0-.042 0-.063 0-6.09.101-12.179-2.132-17.123-6.271-.13-.108-.268-.209-.41-.301l-62.679-40.14c-1.86-1.191-4.335-.649-5.525 1.211-1.191 1.86-.649 4.334 1.211 5.525l62.47 40.006c6.248 5.154 13.918 7.974 21.682 7.973.104 0 .208-.001.313-.002.043.002.082.013.125.013h82.174c.517 0 1.029-.101 1.508-.295l89.57-36.457c.025-.011.046-.026.071-.038l9.149-3.725c3.31-1.348 6.754-2.03 10.238-2.03 9.23 0 17.17 4.852 20.228 12.359 4.374 10.752-2.172 23.614-14.591 28.672l-107.151 43.62zm-134.65-19.107c-.001 0-.001 0 0 0h-.007-33.234c-5.436-.002-9.857-4.425-9.857-9.858l-.003-143.746c0-5.434 4.42-9.854 9.855-9.854l33.24.003c5.436.002 9.857 4.425 9.857 9.858l-.003 143.744c0 2.617-1.028 5.087-2.896 6.955-1.868 1.869-4.337 2.898-6.952 2.898zm306.352-106.127c7.815 0 14.587 3.586 18.114 9.593.242.413.463.845.673 1.286l-88.871 52.166-14.94 2.17c2.107-6.021 2.081-12.815-.173-19.396l71.675-42.071c4.178-2.452 8.853-3.748 13.522-3.748zm57.873 39.604-87.291 35.529h-61.796c.342-.345.66-.716.985-1.081l22.069-3.203c.512-.075 1.004-.248 1.449-.51l91.981-53.992c.06-.035.106-.082.163-.119.084-.04.172-.062.253-.107 4.077-2.302 8.618-3.52 13.132-3.52 7.805 0 14.568 3.581 18.09 9.578 2.996 5.109 3.324 11.385.965 17.425z" display="inline"/><path d="m76.854 453.683c0-11.493-9.35-20.843-20.843-20.843-11.491 0-20.84 9.35-20.84 20.843 0 11.491 9.349 20.84 20.84 20.84 11.494-.001 20.843-9.349 20.843-20.84zm-20.842 12.839c-7.08 0-12.84-5.76-12.84-12.84 0-7.081 5.76-12.843 12.84-12.843 7.081 0 12.843 5.762 12.843 12.843-.001 7.081-5.762 12.84-12.843 12.84z" display="inline"/><path d="m305.825 171.439v36.921c.692-.042 1.389-.069 2.092-.069h5.908v-41.154z" display="inline"/><path d="m273.436 284.054h-189.998c-9.796 0-17.766-7.969-17.766-17.765v-116.088c0-9.796 7.97-17.766 17.766-17.766h160.612c-1.183-2.536-2.111-5.212-2.745-8h-157.867c-3.025 0-5.928.528-8.627 1.49v-30.445c0-8.912 7.251-16.163 16.163-16.163h51.293l29.964 25.551c.725.617 1.645.956 2.596.956h65.479v-.479c0-.002 0-.004 0-.007v-7.514h-64.006l-29.964-25.551c-.725-.617-1.645-.956-2.596-.956h-52.765c-13.323 0-24.163 10.84-24.163 24.163v35.061c-5.584 4.729-9.139 11.786-9.139 19.66v116.088c0 14.207 11.559 25.765 25.766 25.765h189.997z" display="inline"/><path d="m307.917 208.291c-.703 0-1.399.027-2.092.069-18.042 1.086-32.39 16.103-32.39 34.412v41.281 8 22.767c0 19.013 15.469 34.481 34.481 34.481h136.476c19.013 0 34.481-15.469 34.481-34.481v-72.048c0-19.013-15.469-34.481-34.481-34.481h-130.567zm162.957 106.529c0 14.602-11.88 26.481-26.481 26.481h-136.476c-14.602 0-26.481-11.88-26.481-26.481v-72.048c0-14.602 11.88-26.481 26.481-26.481h136.476c14.602 0 26.481 11.88 26.481 26.481z" display="inline"/><path d="m406.453 265.758-46.852-27.05c-3.199-1.848-6.352-2.784-9.369-2.784-7.903 0-13.214 6.358-13.214 15.822v54.098c0 9.465 5.312 15.824 13.216 15.824 3.017 0 6.169-.937 9.367-2.783l46.852-27.05c5.619-3.244 8.842-7.996 8.842-13.038 0-5.043-3.223-9.795-8.842-13.039zm-4 19.149-46.852 27.05c-1.939 1.119-3.795 1.711-5.367 1.711-4.708 0-5.216-5.472-5.216-7.824v-54.098c0-2.352.508-7.822 5.214-7.822 1.573 0 3.43.592 5.369 1.712l46.852 27.05c3.077 1.776 4.842 4.004 4.842 6.111 0 2.106-1.765 4.334-4.842 6.11z" display="inline"/><path d="m240.307 105.338v.007.479 9.703c0 3.061.348 6.041.999 8.908.634 2.788 1.563 5.464 2.745 8 5.542 11.893 16.732 20.646 30.106 22.77l-18.013 34.661c-.81 1.558-.51 3.461.74 4.693.768.756 1.783 1.151 2.81 1.151.646 0 1.297-.156 1.894-.478l44.237-23.794 8-4.303 21.257-11.434h115.207c20.608 0 38.189-16.097 40.025-36.655.1-1.15.15-2.336.15-3.521v-75.35c.001-22.152-18.022-40.175-40.175-40.175h-169.804c-22.154 0-40.179 18.023-40.179 40.178v57.646 7.514zm40.178-97.338h169.804c17.742 0 32.176 14.435 32.176 32.178v67.168c-3.964-4.92-9.07-11.091-14.427-17.12-19.507-21.953-26.697-24.52-30.768-24.332-10.63.531-39.979 21.045-50.958 28.979-3.932-4.609-12.171-14.078-21.235-23.346-23.825-24.359-32.718-26.438-37.336-25.885-13.427 1.613-60.483 33.603-79.435 50.105v-55.57c.001-17.742 14.436-32.177 32.179-32.177zm169.804 139.703h-116.215c-.661 0-1.313.164-1.895.478l-62.953 33.86 14.808-28.493c.645-1.24.596-2.727-.13-3.921s-2.021-1.924-3.419-1.924c-17.743 0-32.179-14.434-32.179-32.176v-8.808c9.576-11.488 68.376-51.691 80.389-53.134 1.144-.147 7.986.357 30.63 23.502 12.345 12.617 23.145 25.633 23.252 25.763 1.352 1.633 3.745 1.928 5.452.671 15.305-11.265 42.314-29.271 49.633-29.638h.012c4.42 0 22.188 17.163 44.498 45.978-2.169 15.731-15.887 27.842-31.883 27.842z" display="inline"/><path d="m392.529 66.522c12.143 0 22.021-9.878 22.021-22.02 0-12.143-9.878-22.021-22.021-22.021-12.142 0-22.02 9.878-22.02 22.021.001 12.143 9.879 22.02 22.02 22.02zm0-36.04c7.73 0 14.021 6.29 14.021 14.021s-6.29 14.02-14.021 14.02-14.02-6.289-14.02-14.02 6.29-14.021 14.02-14.021z" display="inline"/></g><g id="Gradient" display="none"><path d="m460.892 411.349c-4.524 0-8.983.882-13.255 2.621l-1.521.619c.925-6.2-.188-12.361-3.317-17.698-4.975-8.472-14.316-13.529-24.989-13.529-4.395 0-8.794.877-12.936 2.559-.272-.553-.563-1.093-.871-1.618-4.979-8.479-14.329-13.542-25.013-13.542-6.092 0-12.168 1.677-17.572 4.85l-71.101 41.734c-1.936-3.048-4.358-5.82-7.146-8.155-.083-.07-.17-.137-.259-.199l-94.85-67.077c-.676-.478-1.482-.734-2.31-.734h-95.264v-9.888c0-9.844-8.009-17.854-17.855-17.858l-33.246-.003c-9.843 0-17.852 8.009-17.852 17.854l.003 143.746c0 9.844 8.009 17.854 17.855 17.858h33.234.007.002c4.753 0 9.23-1.861 12.609-5.241 3.379-3.379 5.239-7.858 5.239-12.611v-10.103l114.504 46.766c.48.196.994.297 1.513.297l153.66.003c.517 0 1.029-.101 1.508-.295l107.876-43.915c16.504-6.722 25.021-24.26 18.984-39.098-4.291-10.536-15.139-17.343-27.637-17.343zm-253.605 92.645-116.801-47.704.002-107.112h93.992l93.674 66.245c3.015 2.555 5.376 5.63 7.021 9.145.011.023.028.043.04.066 3.689 7.933 2.908 16.53-2.052 22.455-3.569 4.263-8.871 6.669-14.936 6.796-.016 0-.03-.005-.046-.005-.021 0-.042 0-.063 0-6.09.101-12.179-2.132-17.123-6.271-.13-.108-.268-.209-.41-.301l-62.679-40.14c-1.86-1.191-4.335-.649-5.525 1.211-1.191 1.86-.649 4.334 1.211 5.525l62.47 40.006c6.248 5.154 13.918 7.974 21.682 7.973.104 0 .208-.001.313-.002.043.002.082.013.125.013h82.174c.517 0 1.029-.101 1.508-.295l89.57-36.457c.025-.011.046-.026.071-.038l9.149-3.725c3.31-1.348 6.754-2.03 10.238-2.03 9.23 0 17.17 4.852 20.228 12.359 4.374 10.752-2.172 23.614-14.591 28.672l-107.151 43.62zm-134.65-19.107c-.001 0-.001 0 0 0h-.007-33.234c-5.436-.002-9.857-4.425-9.857-9.858l-.003-143.746c0-5.434 4.42-9.854 9.855-9.854l33.24.003c5.436.002 9.857 4.425 9.857 9.858l-.003 143.744c0 2.617-1.028 5.087-2.896 6.955-1.868 1.869-4.337 2.898-6.952 2.898zm306.352-106.127c7.815 0 14.587 3.586 18.114 9.593.242.413.463.845.673 1.286l-88.871 52.166-14.94 2.17c2.107-6.021 2.081-12.815-.173-19.396l71.675-42.071c4.178-2.452 8.853-3.748 13.522-3.748zm57.873 39.604-87.291 35.529h-61.796c.342-.345.66-.716.985-1.081l22.069-3.203c.512-.075 1.004-.248 1.449-.51l91.981-53.992c.06-.035.106-.082.163-.119.084-.04.172-.062.253-.107 4.077-2.302 8.618-3.52 13.132-3.52 7.805 0 14.568 3.581 18.09 9.578 2.996 5.109 3.324 11.385.965 17.425zm-360.008 35.319c0-11.493-9.35-20.843-20.843-20.843-11.491 0-20.84 9.35-20.84 20.843 0 11.491 9.349 20.84 20.84 20.84 11.494-.001 20.843-9.349 20.843-20.84zm-20.842 12.839c-7.08 0-12.84-5.76-12.84-12.84 0-7.081 5.76-12.843 12.84-12.843 7.081 0 12.843 5.762 12.843 12.843-.001 7.081-5.762 12.84-12.843 12.84zm257.813-299.385v41.154h-5.908c-.703 0-1.399.027-2.092.069v-36.921zm-40.389 124.917h-189.998c-14.207 0-25.766-11.558-25.766-25.765v-116.088c0-7.874 3.555-14.931 9.139-19.66v-35.061c0-13.323 10.84-24.163 24.163-24.163h52.767c.951 0 1.871.339 2.596.956l29.964 25.551h64.006v7.514.007.479h-65.479c-.951 0-1.871-.339-2.596-.956l-29.964-25.551h-51.293c-8.912 0-16.163 7.251-16.163 16.163v30.445c2.699-.962 5.602-1.49 8.627-1.49h157.867c.634 2.788 1.563 5.464 2.745 8h-160.613c-9.796 0-17.766 7.97-17.766 17.766v116.088c0 9.796 7.97 17.765 17.766 17.765h189.997v8zm34.481-83.763c-.703 0-1.399.027-2.092.069-18.042 1.086-32.39 16.103-32.39 34.412v41.281 8 22.767c0 19.013 15.469 34.481 34.481 34.481h136.476c19.013 0 34.481-15.469 34.481-34.481v-72.048c0-19.013-15.469-34.481-34.481-34.481h-130.567zm162.957 106.529c0 14.602-11.88 26.481-26.481 26.481h-136.476c-14.602 0-26.481-11.88-26.481-26.481v-72.048c0-14.602 11.88-26.481 26.481-26.481h136.476c14.602 0 26.481 11.88 26.481 26.481zm-64.421-49.062-46.852-27.05c-3.199-1.848-6.352-2.784-9.369-2.784-7.903 0-13.214 6.358-13.214 15.822v54.098c0 9.465 5.312 15.824 13.216 15.824 3.017 0 6.169-.937 9.367-2.783l46.852-27.05c5.619-3.244 8.842-7.996 8.842-13.038 0-5.043-3.223-9.795-8.842-13.039zm-4 19.149-46.852 27.05c-1.939 1.119-3.795 1.711-5.367 1.711-4.708 0-5.216-5.472-5.216-7.824v-54.098c0-2.352.508-7.822 5.214-7.822 1.573 0 3.43.592 5.369 1.712l46.852 27.05c3.077 1.776 4.842 4.004 4.842 6.111 0 2.106-1.765 4.334-4.842 6.11zm-162.146-179.569v.007.479 9.703c0 3.061.348 6.041.999 8.908.634 2.788 1.563 5.464 2.745 8 5.542 11.893 16.732 20.646 30.106 22.77l-18.013 34.661c-.81 1.558-.51 3.461.74 4.693.768.756 1.783 1.151 2.81 1.151.646 0 1.297-.156 1.894-.478l44.237-23.794 8-4.303 21.257-11.434h115.207c20.608 0 38.189-16.097 40.025-36.655.1-1.15.15-2.336.15-3.521v-75.35c.001-22.152-18.022-40.175-40.175-40.175h-169.804c-22.154 0-40.179 18.023-40.179 40.178v57.646 7.514zm40.178-97.338h169.804c17.742 0 32.176 14.435 32.176 32.178v67.168c-3.964-4.92-9.07-11.091-14.427-17.12-19.507-21.953-26.697-24.52-30.768-24.332-10.63.531-39.979 21.045-50.958 28.979-3.932-4.609-12.171-14.078-21.235-23.346-23.825-24.359-32.718-26.438-37.336-25.885-13.427 1.613-60.483 33.603-79.435 50.105v-55.57c.001-17.742 14.436-32.177 32.179-32.177zm169.804 139.703h-116.215c-.661 0-1.313.164-1.895.478l-62.953 33.86 14.808-28.493c.645-1.24.596-2.727-.13-3.921s-2.021-1.924-3.419-1.924c-17.743 0-32.179-14.434-32.179-32.176v-8.808c9.576-11.488 68.376-51.691 80.389-53.134 1.144-.147 7.986.357 30.63 23.502 12.345 12.617 23.145 25.633 23.252 25.763 1.352 1.633 3.745 1.928 5.452.671 15.305-11.265 42.314-29.271 49.633-29.638h.012c4.42 0 22.188 17.163 44.498 45.978-2.169 15.731-15.887 27.842-31.883 27.842zm-57.76-81.181c12.143 0 22.021-9.878 22.021-22.02 0-12.143-9.878-22.021-22.021-22.021-12.142 0-22.02 9.878-22.02 22.021.001 12.143 9.879 22.02 22.02 22.02zm0-36.04c7.73 0 14.021 6.29 14.021 14.021s-6.29 14.02-14.021 14.02-14.02-6.289-14.02-14.02 6.29-14.021 14.02-14.021z" display="inline" fill="url(#SVGID_1_)"/></g></svg>