<svg id="Layer_1" enable-background="new 0 0 512 512" height="20" viewBox="0 0 512 512" width="20" xmlns="http://www.w3.org/2000/svg"><g id="XMLID_1_"><g id="XMLID_3664_"><circle id="XMLID_1550_" cx="256" cy="256" fill="#9cd3fc" r="251"/><path id="XMLID_1824_" d="m256 457c-130.2 0-237.2-99.1-249.8-226-.8 8.2-1.2 16.6-1.2 25 0 138.6 112.4 251 251 251s251-112.4 251-251c0-8.4-.4-16.8-1.2-25-12.6 126.9-119.6 226-249.8 226z" fill="#69bdfb"/><path id="XMLID_1531_" d="m98.6 257c-5.6-25.1 7.5-50.6 31.2-60.6l26.2-11.1 43.7-40.9 6.7-87.7-50.4-10.8-8.3-16.4c-42.6 20.4-78.6 52.5-103.8 92.2l.1.3v75.2c0 11 2.9 21.8 8.4 31.2l30.3 51.9c3.5 6 8.1 11.5 13.4 16 12.1 10.3 19.7 24.7 21.5 40.5l3.3 30c2.3 21.4 15.6 40.1 35.1 49.3l8.6 4.1c21.7 10.3 35.5 32.1 35.5 56v24.5c10.3 2.3 20.8 4 31.5 5.1l42.8-72.8c5.9-10 14.6-18.1 25.1-23.2l9.3-4.6c20.3-9.9 33.2-30.6 33.2-53.2l-202.2-52.2-14-7.4c-13.9-7.2-23.8-20.2-27.2-35.4z" fill="#399349"/><path id="XMLID_1954_" d="m487 256c0 65.7-156.7 119-350 119 0-193.3 53.3-350 119-350 127.6 0 231 103.4 231 231z" fill="#db3529"/><path id="XMLID_1770_" d="m137 375c0-193.3 53.3-350 119-350v231z" fill="#b4271e"/><path id="XMLID_1541_" d="m168.3 343.7c0-143.6 39.3-260 87.7-260v172.3z" fill="#b24e10"/><path id="XMLID_1540_" d="m199.7 312.3c0-93.9 25.2-170 56.3-170v113.7z" fill="#ffb234"/><path id="XMLID_1535_" d="m168.3 343.7c143.6 0 260-39.7 260-87.7h-172.3z" fill="#e36415"/><path id="XMLID_1534_" d="m199.7 312.3c93.9 0 170-25.3 170-56.3h-113.7z" fill="#ffc970"/><path id="XMLID_1680_" d="m487 256c0-127.6-103.4-231-231-231v231z" fill="#e25d56"/><path id="XMLID_1547_" d="m428.3 256c0-95.2-77.2-172.3-172.3-172.3v172.3z" fill="#ef8039"/><path id="XMLID_1546_" d="m369.7 256c0-62.8-50.9-113.7-113.7-113.7v113.7z" fill="#ffc970"/><path id="XMLID_1549_" d="m256 457c-21.5 0-42.3-2.7-62.2-7.8 4 8.3 6.2 17.5 6.2 27v24.5c10.3 2.3 20.8 4 31.5 5.1l28.7-48.9c-1.4.1-2.8.1-4.2.1z" fill="#2b6e38"/><path id="XMLID_2012_" d="m311 256c0 14-35.8 25-80 25 0-44.2 11.2-80 25-80 30.4 0 55 24.6 55 55z" fill="#ffdca4"/></g><g id="XMLID_3250_"><g id="XMLID_73_"><path id="XMLID_3063_" d="m256 512c-68.4 0-132.7-26.6-181-75-48.4-48.3-75-112.6-75-181s26.6-132.7 75-181 112.6-75 181-75 132.7 26.6 181 75 75 112.6 75 181-26.6 132.7-75 181c-48.3 48.4-112.6 75-181 75zm0-502c-135.6 0-246 110.4-246 246s110.4 246 246 246 246-110.4 246-246-110.4-246-246-246z" fill="#272526"/></g><g id="XMLID_228_"><path id="XMLID_3060_" d="m137 380c-2.8 0-5-2.2-5-5 0-94 12.5-182.5 35.1-249.1 23.2-68.3 54.8-105.9 88.9-105.9 63 0 122.3 24.5 166.9 69.1s69.1 103.9 69.1 166.9c0 34.1-37.6 65.7-105.9 88.9-66.6 22.6-155.1 35.1-249.1 35.1zm119-350c-29 0-58 36.1-79.4 99.1-21.9 64.4-34.2 149.8-34.6 240.9 91.1-.4 176.4-12.7 240.9-34.6 63-21.4 99.1-50.4 99.1-79.4 0-124.6-101.4-226-226-226z" fill="#272526"/></g><g id="XMLID_78_"><path id="XMLID_3059_" d="m422.2 236.4c-9.8-84.2-81.3-147.7-166.2-147.7v-10c90 0 165.7 67.3 176.1 156.6z" fill="#272526"/></g><g id="XMLID_124_"><path id="XMLID_3058_" d="m374.7 256h-10c0-59.9-48.7-108.7-108.7-108.7v-10c65.4 0 118.7 53.3 118.7 118.7z" fill="#272526"/></g><g id="XMLID_123_"><path id="XMLID_3057_" d="m316 256h-10c0-27.6-22.4-50-50-50v-10c33.1 0 60 26.9 60 60z" fill="#272526"/></g><g id="XMLID_117_"><path id="XMLID_3056_" d="m179 261.5h10v132.9h-10z" fill="#272526" transform="matrix(.707 .707 -.707 .707 285.799 -34.045)"/></g><g id="XMLID_286_"><path id="XMLID_3055_" d="m173.3 344h-10c0-70 9.2-136 25.9-185.6 17.3-51.3 41-79.7 66.7-79.7v10c-20.8 0-41.7 26.7-57.3 72.9-16.2 48.6-25.3 113.4-25.3 182.4z" fill="#272526"/></g><g id="XMLID_285_"><path id="XMLID_3054_" d="m204.7 312h-10c0-46 5.9-89 16.8-121.6 11.4-34.3 27.2-53.1 44.6-53.1v10c-12.5 0-25.3 16.7-35.1 46.2-10.6 31.6-16.3 73.5-16.3 118.5z" fill="#272526"/></g><g id="XMLID_284_"><path id="XMLID_3053_" d="m236 281h-10c0-42.2 10.3-85 30-85v10c-3.3 0-8.6 6.2-12.9 19.9-4.6 14.7-7.1 34.2-7.1 55.1z" fill="#272526"/></g><g id="XMLID_278_"><path id="XMLID_3052_" d="m168 348.7v-10c69 0 133.8-9 182.4-25.4 46.2-15.6 72.9-36.5 72.9-57.3h10c0 25.7-28.4 49.4-79.7 66.7-49.6 16.8-115.6 26-185.6 26z" fill="#272526"/></g><g id="XMLID_277_"><path id="XMLID_3051_" d="m200 317.3v-10c45 0 86.9-5.8 118.5-16.2 29.5-9.8 46.2-22.6 46.2-35.1h10c0 17.4-18.7 33.2-53.1 44.6-32.6 10.8-75.6 16.7-121.6 16.7z" fill="#272526"/></g><g id="XMLID_276_"><path id="XMLID_3050_" d="m231 286v-10c20.9 0 40.4-2.5 55.1-7.1 13.8-4.3 19.9-9.6 19.9-12.9h10c0 19.7-42.8 30-85 30z" fill="#272526"/></g><g id="XMLID_280_"><path id="XMLID_3049_" d="m205 501h-10v-24.8c0-21.9-12.8-42.1-32.6-51.5l-8.6-4.1c-20.9-9.9-35.4-30.3-37.9-53.3l-3.3-30c-1.6-14.5-8.6-27.7-19.7-37.2-5.8-4.9-10.6-10.7-14.5-17.3l-30.3-51.8c-6-10.2-9.1-21.9-9.1-33.8v-75.2h10v75.2c0 10.1 2.7 20 7.8 28.7l30.2 52c3.2 5.6 7.4 10.5 12.3 14.7 13.1 11.1 21.3 26.7 23.2 43.7l3.3 30c2.1 19.5 14.5 36.9 32.3 45.3l8.6 4.1c23.3 11 38.3 34.8 38.3 60.6z" fill="#272526"/></g><g id="XMLID_282_"><path id="XMLID_3048_" d="m235.2 509.3-8.6-5.1 43.4-73.8c6.4-10.9 15.8-19.6 27.2-25.2l9.3-4.6c18.5-9 30.4-28.1 30.4-48.7h10c0 24.4-14.2 47-36.1 57.7l-9.3 4.6c-9.6 4.7-17.5 12-23 21.2z" fill="#272526"/></g><g id="XMLID_283_"><path id="XMLID_3047_" d="m137.4 304.3-14-7.4c-15.2-8-26-22.1-29.7-38.8-6.1-27.5 8.2-55.3 34.1-66.3l7.2-3.1 3.9 9.2-7.2 3.1c-21.5 9.1-33.3 32.1-28.3 54.9 3.1 13.8 12.1 25.5 24.6 32.1l14 7.4z" fill="#272526"/></g><g id="XMLID_281_"><path id="XMLID_3046_" d="m205.3 61.6-50.4-10.9c-1.5-.3-2.7-1.3-3.4-2.6l-8.3-16.4 8.9-4.5 7.2 14.2 48.1 10.4z" fill="#272526"/></g><g id="XMLID_120_"><path id="XMLID_2062_" d="m251 25h10v176h-10z" fill="#272526"/></g><g id="XMLID_493_"><path id="XMLID_2061_" d="m311 251h176v10h-176z" fill="#272526"/></g></g></g></svg>