<svg width="20px" height="20px" id="Layer_1" enable-background="new 0 0 24 24" viewBox="0 0 24 24" xmlns="http://www.w3.org/2000/svg" xmlns:xlink="http://www.w3.org/1999/xlink"><linearGradient id="SVGID_1_" gradientUnits="userSpaceOnUse" x1="9.5" x2="23.354" y1="7.5" y2="21.354"><stop offset="0" stop-opacity=".1"/><stop offset="1" stop-opacity="0"/></linearGradient><linearGradient id="SVGID_2_" gradientUnits="userSpaceOnUse" x1="-.132536" x2="13.891944" y1="12.184096" y2="12.184096"><stop offset="0" stop-color="#fff"/><stop offset="1"/></linearGradient><linearGradient id="SVGID_3_" gradientUnits="userSpaceOnUse" x1="-1.563" x2="25.045" y1="5.962" y2="18.369"><stop offset="0" stop-color="#fff" stop-opacity=".2"/><stop offset="1" stop-color="#fff" stop-opacity="0"/></linearGradient><g><path d="m12 3.5h11.5v17h-11.5z" fill="#fff"/><path d="m23.5 21h-10c-.2763672 0-.5-.2236328-.5-.5s.2236328-.5.5-.5h9.5v-16h-9.5c-.2763672 0-.5-.2236328-.5-.5s.2236328-.5.5-.5h10c.2763672 0 .5.2236328.5.5v17c0 .2763672-.2236328.5-.5.5z" fill="#177848"/><path d="m14 0-14 2.6086957v18.7826083l14 2.608696z" fill="#177848"/><path d="m0 2.6087036v.25l14-2.6087036v-.25z" fill="#fff" opacity=".2"/><g fill="#177848"><path d="m13 5h4v2h-4z"/><path d="m18 5h4v2h-4z"/><path d="m13 8h4v2h-4z"/><path d="m18 8h4v2h-4z"/><path d="m13 11h4v2h-4z"/><path d="m18 11h4v2h-4z"/><path d="m13 14h4v2h-4z"/><path d="m18 14h4v2h-4z"/><path d="m13 17h4v2h-4z"/><path d="m18 17h4v2h-4z"/></g><path d="m0 21.3912964 14 2.6087036v-.25l-14-2.6087036z" opacity=".1"/><path d="m23.5 21c.2763672 0 .5-.2236328.5-.5v-7.5l-10-10v18z" fill="url(#SVGID_1_)"/><path d="m7.357666 12.5 2.2976074-4.1357422-.0289917-.0161133-1.746643.1247559-1.3796387 2.4833374-1.274353-2.2937622-1.6497803.1177978 2.0664673 3.7197266-2.0664673 3.7197266 1.6497803.1177978 1.274353-2.2937622 1.3796387 2.4833374 1.746643.1247559.0289917-.0161133z" fill="#fff"/><path d="m14 0-14 2.6086957v18.782608l14 2.6086963z" fill="url(#SVGID_2_)" opacity=".05"/><path d="m23.5 3h-9.5v-3l-14 2.6087036v18.7825928l14 2.6087036v-3h9.5c.2763672 0 .5-.2236328.5-.5v-17c0-.2763672-.2236328-.5-.5-.5z" fill="url(#SVGID_3_)"/></g><g/><g/><g/><g/><g/><g/><g/><g/><g/><g/><g/><g/><g/><g/><g/></svg>