<svg id="Layer_1" height="20" width="20" viewBox="0 0 32 32" xmlns="http://www.w3.org/2000/svg" data-name="Layer 1"><path d="m28.4257812 24.8901367-10.572998-10.572998 2.8654785-.892334c.1821289-.0566406.315918-.2114258.3452148-.3994141.0297852-.1879883-.0498047-.3764648-.2050781-.4863281l-4.7563477-3.362793.0742188-5.8251953c.0024414-.1904297-.1035156-.3657227-.2734375-.4521484-.168457-.0844727-.3735352-.0678711-.5258789.0454102l-4.6679688 3.4907227-5.5131836-1.8740234c-.1801758-.0600586-.3803711-.0141602-.5146484.1201172-.1347656.1347656-.1811523.3339844-.1201172.5146484l1.8740234 5.5131836-3.4907227 4.6679688c-.1142578.1523438-.1313477.3564453-.0454102.5258789s.2451172.2744141.4521484.2734375l5.8251953-.0742188 3.362793 4.7563477c.0947266.1337891.2475586.2114258.4082031.2114258.0258789 0 .0517578-.0019531.078125-.0063477.1879883-.0292969.3427734-.1630859.3994141-.3452148l.892334-2.8654785 10.572998 10.572998c.4873047.4873047 1.1274414.730957 1.7680664.730957.6401367 0 1.2802734-.2436523 1.7675781-.730957.9746094-.9746094.9746094-2.5610352 0-3.5356445zm-15.6547852-5.4360352-2.9301758-4.144043c-.09375-.1328125-.2460938-.2114258-.4082031-.2114258h-.0063477l-5.0737305.0649414 3.0410156-4.0668945c.0986328-.1318359.1259766-.3041992.0732422-.4604492l-1.6323242-4.8017578 4.8017578 1.6323242c.15625.0527344.3286133.0253906.4604492-.0732422l4.0668945-3.0410156-.0649414 5.0737305c-.0019531.1645508.0771484.3198242.2114258.4145508l4.144043 2.9301758-2.6877441.836853c-.0004272.0001221-.0007935-.000061-.0012207.000061l-2.1567383.671875c-.1567383.0488281-.2797852.171875-.3286133.3286133l-.671875 2.1567383c-.0001221.0004272.000061.0007935-.000061.0012207zm14.9477539 8.2646484c-.5849609.5844727-1.5366211.5854492-2.121582 0l-10.9442139-10.9442139.5037842-1.6177979 1.6177979-.5037842 10.9442139 10.9442139c.5849609.5849609.5849609 1.5366211 0 2.121582z"/></svg>