<svg id="Capa_1" enable-background="new 0 0 512 512" height="512" viewBox="0 0 512 512" width="512" xmlns="http://www.w3.org/2000/svg"><g><g><path d="m436.308 389.124h-82.327c-12.703 0-23-10.297-23-23v-34.636c0-12.703 10.297-23 23-23h82.327c12.703 0 23 10.297 23 23v34.636c0 12.703-10.298 23-23 23z" fill="#fcb143"/></g><g><path d="m158.02 389.124h-82.327c-12.703 0-23-10.297-23-23v-34.636c0-12.703 10.297-23 23-23h82.327c12.703 0 23 10.297 23 23v34.636c0 12.703-10.298 23-23 23z" fill="#fcb143"/></g><g><path d="m436.413 308.489h-2.342v32.504c0 12.645-10.25 22.895-22.895 22.895h-80.195v2.342c0 12.645 10.25 22.895 22.895 22.895h82.537c12.645 0 22.895-10.25 22.895-22.895v-34.846c0-12.645-10.251-22.895-22.895-22.895z" fill="#fa9801"/></g><g><path d="m158.125 308.489h-2.342v32.504c0 12.645-10.25 22.895-22.895 22.895h-80.195v2.342c0 12.645 10.25 22.895 22.895 22.895h82.537c12.645 0 22.895-10.25 22.895-22.895v-34.846c0-12.645-10.251-22.895-22.895-22.895z" fill="#fa9801"/></g><g><circle cx="253.013" cy="457.624" fill="#ffe07d" r="46.91"/></g><g><path d="m273.12 415.236c2.896 6.095 4.522 12.91 4.522 20.107 0 25.908-21.002 46.91-46.91 46.91-7.197 0-14.012-1.626-20.107-4.522 7.53 15.845 23.677 26.803 42.388 26.803 25.908 0 46.91-21.002 46.91-46.91-.001-18.71-10.958-34.858-26.803-42.388z" fill="#ffd064"/></g><g><path d="m245.942 277.903-48.487-48.487c-3.905-3.905-3.905-10.237 0-14.142l48.487-48.487c3.905-3.905 10.237-3.905 14.142 0l48.487 48.487c3.905 3.905 3.905 10.237 0 14.142l-48.487 48.487c-3.905 3.905-10.237 3.905-14.142 0z" fill="#fb74c4"/></g><g><path d="m308.603 215.306-12.852-12.852-62.629 62.629 12.852 12.852c3.887 3.887 10.19 3.887 14.077 0l48.551-48.551c3.888-3.888 3.888-10.19.001-14.078z" fill="#dd5ca2"/></g><path d="m346.646 97.513h-187.267c-2.164 0-3.919-1.754-3.919-3.919v-82.209c0-2.164 1.754-3.919 3.919-3.919h187.267c2.164 0 3.919 1.754 3.919 3.919v82.209c0 2.164-1.755 3.919-3.919 3.919z" fill="#698ed5"/><g><path d="m346.664 7.466h-19.82v62.425c0 2.154-1.746 3.901-3.901 3.901h-167.482v19.82c0 2.154 1.747 3.901 3.901 3.901h187.302c2.154 0 3.901-1.746 3.901-3.901v-82.245c0-2.155-1.747-3.901-3.901-3.901z" fill="#4073c8"/></g><g><path d="m387.678 229.811v29.085l-4.525-5.226c-2.701-3.118-7.415-3.456-10.532-.756-3.117 2.699-3.455 7.414-.756 10.531l17.635 20.364c1.418 1.638 3.478 2.579 5.644 2.579s4.226-.941 5.643-2.578l17.636-20.364c2.7-3.117 2.361-7.832-.755-10.531-3.117-2.699-7.832-2.361-10.531.756l-4.527 5.227v-36.552c0-4.123-3.342-7.466-7.466-7.466h-77.862c-.831-1.754-1.951-3.403-3.4-4.852l-48.551-48.551c-1.449-1.449-3.099-2.569-4.853-3.4v-10.184l15.813-18.26c2.699-3.117 2.36-7.832-.756-10.531-3.118-2.699-7.832-2.361-10.532.756l-4.525 5.226v-20.105h86.186c6.268 0 11.367-5.099 11.367-11.366v-82.246c0-6.268-5.099-11.367-11.367-11.367h-114.538c-4.124 0-7.466 3.343-7.466 7.466s3.342 7.466 7.466 7.466h110.973v75.115h-180.173v-75.116h30.585c4.124 0 7.466-3.343 7.466-7.466s-3.342-7.465-7.466-7.465h-34.15c-6.268 0-11.367 5.099-11.367 11.367v82.245c0 6.268 5.099 11.366 11.367 11.366h86.186v20.105l-4.525-5.226c-2.701-3.118-7.415-3.456-10.532-.756-3.117 2.699-3.455 7.414-.756 10.531l15.813 18.26v10.184c-1.754.831-3.404 1.951-4.853 3.4l-48.551 48.551c-6.792 6.792-6.792 17.844 0 24.636l48.551 48.551c1.449 1.449 3.099 2.569 4.853 3.4v75.309l-4.525-5.226c-2.701-3.118-7.415-3.456-10.532-.756-3.117 2.699-3.455 7.414-.756 10.531l17.635 20.364c1.418 1.637 3.478 2.578 5.644 2.578s4.226-.941 5.644-2.578l17.635-20.364c2.699-3.117 2.36-7.832-.756-10.531-3.118-2.699-7.832-2.361-10.532.756l-4.525 5.226v-75.309c1.754-.831 3.404-1.951 4.853-3.4l48.551-48.551c1.449-1.449 2.569-3.098 3.4-4.852zm-84.355-5.706-48.551 48.551c-.97.97-2.549.97-3.519 0l-48.551-48.551c-.635-.634-.729-1.375-.729-1.76s.094-1.126.729-1.76l48.551-48.551c.97-.97 2.549-.97 3.519 0l48.551 48.551c.635.634.729 1.375.729 1.76s-.094 1.126-.729 1.76z"/><path d="m436.412 301.023h-82.536c-16.741 0-30.361 13.62-30.361 30.361v34.845c0 16.741 13.62 30.361 30.361 30.361h82.536c16.741 0 30.361-13.62 30.361-30.361v-34.845c0-16.741-13.62-30.361-30.361-30.361zm15.43 65.206c0 8.508-6.921 15.429-15.429 15.429h-82.536c-8.508 0-15.429-6.921-15.429-15.429v-34.845c0-8.508 6.921-15.429 15.429-15.429h82.536c8.508 0 15.429 6.921 15.429 15.429z"/><path d="m158.125 301.023h-82.537c-16.741 0-30.361 13.62-30.361 30.361v34.845c0 16.741 13.62 30.361 30.361 30.361h82.537c16.741 0 30.361-13.62 30.361-30.361v-34.845c0-16.741-13.621-30.361-30.361-30.361zm15.429 65.206c0 8.508-6.921 15.429-15.429 15.429h-82.537c-8.508 0-15.429-6.921-15.429-15.429v-34.845c0-8.508 6.921-15.429 15.429-15.429h82.537c8.508 0 15.429 6.921 15.429 15.429z"/><path d="m253.013 403.249c-29.983 0-54.376 24.393-54.376 54.376s24.393 54.375 54.376 54.375c8.232 0 16.144-1.795 23.516-5.336 3.716-1.785 5.282-6.245 3.498-9.962-1.786-3.717-6.248-5.283-9.962-3.498-5.339 2.564-11.075 3.864-17.052 3.864-21.75 0-39.444-17.695-39.444-39.444s17.694-39.444 39.444-39.444 39.444 17.695 39.444 39.444c0 4.502-.75 8.916-2.231 13.118-1.371 3.889.671 8.153 4.56 9.523 3.886 1.37 8.152-.671 9.522-4.56 2.044-5.801 3.081-11.884 3.081-18.081-.001-29.982-24.394-54.375-54.376-54.375z"/><path d="m110.598 283.808c1.418 1.638 3.478 2.579 5.644 2.579s4.226-.941 5.643-2.578l17.636-20.364c2.7-3.117 2.361-7.832-.755-10.531-3.117-2.699-7.832-2.361-10.531.756l-4.527 5.227v-29.086h31.708c4.124 0 7.466-3.343 7.466-7.466s-3.342-7.466-7.466-7.466h-39.174c-4.124 0-7.466 3.343-7.466 7.466v36.551l-4.525-5.226c-2.701-3.118-7.415-3.456-10.532-.756-3.117 2.699-3.455 7.414-.756 10.531z"/></g></g></svg>