<svg width="20" height="20" clip-rule="evenodd" fill-rule="evenodd" stroke-linejoin="round" stroke-miterlimit="2" viewBox="0 0 510 510" xmlns="http://www.w3.org/2000/svg"><g><g fill="#a4d4ff"><circle cx="114.6" cy="41.331" r="26.331"/><circle cx="114.6" cy="468.669" r="26.331"/><circle cx="395.4" cy="41.331" r="26.331"/><circle cx="395.4" cy="468.669" r="26.331"/><path d="m442.338 133.222c0-14.533 11.798-26.331 26.331-26.331 14.532 0 26.331 11.798 26.331 26.331 0 14.532-11.799 26.331-26.331 26.331-14.533 0-26.331-11.799-26.331-26.331z"/><path d="m15 133.222c0-14.533 11.799-26.331 26.331-26.331 14.533 0 26.331 11.798 26.331 26.331 0 14.532-11.798 26.331-26.331 26.331-14.532 0-26.331-11.799-26.331-26.331z"/><path d="m442.338 376.778c0-14.532 11.798-26.331 26.331-26.331 14.532 0 26.331 11.799 26.331 26.331 0 14.533-11.799 26.331-26.331 26.331-14.533 0-26.331-11.798-26.331-26.331z"/><path d="m15 376.778c0-14.532 11.799-26.331 26.331-26.331 14.533 0 26.331 11.799 26.331 26.331 0 14.533-11.798 26.331-26.331 26.331-14.532 0-26.331-11.798-26.331-26.331z"/><path d="m412.41 282.908c-33.171 0-49.827 40.196-26.366 63.657 4.318 4.318 4.318 11.342 0 15.66l-23.819 23.819c-4.318 4.318-11.342 4.318-15.66 0-23.461-23.461-63.657-6.805-63.657 26.366 0 6.129-4.955 11.064-11.064 11.064h-33.688c-6.109 0-11.064-4.935-11.064-11.064 0-33.211-40.176-49.847-63.657-26.366-4.318 4.318-11.322 4.318-15.64 0l-23.839-23.819c-4.318-4.318-4.318-11.342 0-15.66 23.461-23.461 6.825-63.657-26.366-63.657-6.109 0-11.064-4.955-11.064-11.064v-33.688c0-6.109 4.955-11.064 11.064-11.064 33.191 0 49.827-40.196 26.366-63.657-4.318-4.318-4.318-11.322 0-15.64l23.839-23.839c4.318-4.318 11.322-4.318 15.64 0 23.461 23.461 63.657 6.825 63.657-26.366 0-6.109 4.955-11.064 11.064-11.064h33.688c6.109 0 11.064 4.955 11.064 11.064 0 33.191 40.196 49.827 63.657 26.366 4.318-4.318 11.342-4.318 15.66 0l23.819 23.839c4.318 4.318 4.318 11.322 0 15.64-23.461 23.461-6.805 63.657 26.366 63.657 6.129 0 11.064 4.955 11.064 11.064v33.688c0 6.109-4.935 11.064-11.064 11.064zm-157.4 53.051c44.573 0 80.949-36.376 80.949-80.949 0-44.593-36.376-80.949-80.949-80.949-44.593 0-80.949 36.356-80.949 80.949 0 44.573 36.356 80.949 80.949 80.949z"/></g><path d="m34.331 165.815c-15.04-3.219-26.331-16.598-26.331-32.593 0-18.396 14.935-33.331 33.331-33.331s33.331 14.935 33.331 33.331c0 15.995-11.291 29.374-26.331 32.593v29.675h79.009c1.817-9.196-.521-19.293-8.334-27.105-7.051-7.051-7.051-18.489 0-25.54l23.839-23.839c7.051-7.051 18.489-7.051 25.54 0 5.58 5.58 12.324 8.367 19.074 8.843v-79.518h-40.266c-3.219 15.04-16.598 26.331-32.593 26.331-18.396 0-33.332-14.935-33.332-33.331s14.936-33.331 33.332-33.331c15.995 0 29.374 11.291 32.593 26.331h47.266c3.866 0 7 3.134 7 7v84.193c10.508-4.383 18.633-14.485 18.633-27.934 0-9.974 8.09-18.064 18.064-18.064h33.688c9.974 0 18.064 8.09 18.064 18.064 0 13.449 8.125 23.551 18.633 27.934v-84.193c0-3.866 3.134-7 7-7h47.266c3.219-15.04 16.598-26.331 32.593-26.331 18.396 0 33.332 14.935 33.332 33.331s-14.936 33.331-33.332 33.331c-15.995 0-29.374-11.291-32.593-26.331h-40.266v79.518c6.75-.476 13.494-3.263 19.074-8.843 7.048-7.047 18.512-7.047 25.56 0l23.819 23.839c7.051 7.051 7.051 18.489 0 25.54-7.812 7.812-10.148 17.908-8.329 27.104h79.004v-29.674c-15.04-3.219-26.331-16.598-26.331-32.593 0-18.396 14.935-33.331 33.331-33.331s33.331 14.935 33.331 33.331c0 15.995-11.291 29.374-26.331 32.593v36.674c0 3.866-3.134 7-7 7h-79.304c5.328 6.342 13.311 10.603 23.045 10.603 10.007 0 18.064 8.09 18.064 18.064v33.688c0 9.974-8.057 18.064-18.064 18.064-9.734 0-17.717 4.261-23.045 10.603h79.304c3.866 0 7 3.134 7 7v36.674c15.04 3.219 26.331 16.598 26.331 32.593 0 18.396-14.935 33.331-33.331 33.331s-33.331-14.935-33.331-33.331c0-15.995 11.291-29.374 26.331-32.593 0-10.297 0-29.674 0-29.674h-79.004c-1.819 9.196.517 19.292 8.329 27.104 7.047 7.048 7.047 18.512 0 25.56l-23.819 23.819c-7.048 7.047-18.512 7.047-25.56 0-5.58-5.58-12.324-8.366-19.074-8.84v79.515h40.266c3.219-15.04 16.598-26.331 32.593-26.331 18.396 0 33.332 14.935 33.332 33.331s-14.936 33.331-33.332 33.331c-15.995 0-29.374-11.291-32.593-26.331h-47.266c-3.866 0-7-3.134-7-7v-84.187c-10.508 4.385-18.633 14.487-18.633 27.928 0 10.007-8.09 18.064-18.064 18.064h-33.688c-9.974 0-18.064-8.057-18.064-18.064 0-13.459-8.124-23.567-18.633-27.948v84.207c0 3.866-3.134 7-7 7h-47.266c-3.219 15.04-16.598 26.331-32.593 26.331-18.396 0-33.332-14.935-33.332-33.331s14.936-33.331 33.332-33.331c15.995 0 29.374 11.291 32.593 26.331h40.266v-79.527c-6.748.479-13.492 3.27-19.074 8.852-7.051 7.051-18.489 7.051-25.538.002l-23.841-23.821c-7.047-7.048-7.047-18.512 0-25.56 7.813-7.812 10.151-17.909 8.334-27.105h-79.009v29.675c15.04 3.219 26.331 16.598 26.331 32.593 0 18.396-14.935 33.331-33.331 33.331s-33.331-14.935-33.331-33.331c0-15.995 11.291-29.374 26.331-32.593v-36.675c0-3.866 3.134-7 7-7h79.31c-5.328-6.341-13.312-10.602-23.051-10.602-9.974 0-18.064-8.09-18.064-18.064v-33.688c0-9.974 8.09-18.064 18.064-18.064 9.739 0 17.723-4.261 23.051-10.602h-79.31c-3.866 0-7-3.134-7-7zm341.738 302.854c0 10.669 8.662 19.331 19.331 19.331 10.67 0 19.332-8.662 19.332-19.331s-8.662-19.331-19.332-19.331c-10.669 0-19.331 8.662-19.331 19.331zm-242.138 0c0-10.669-8.662-19.331-19.331-19.331-10.67 0-19.332 8.662-19.332 19.331s8.662 19.331 19.332 19.331c10.669 0 19.331-8.662 19.331-19.331zm-92.6-111.222c-10.669 0-19.331 8.662-19.331 19.331s8.662 19.331 19.331 19.331 19.331-8.662 19.331-19.331-8.662-19.331-19.331-19.331zm408.007-224.225c0 10.669 8.662 19.331 19.331 19.331s19.331-8.662 19.331-19.331-8.662-19.331-19.331-19.331-19.331 8.662-19.331 19.331zm-427.338 0c0 10.669 8.662 19.331 19.331 19.331s19.331-8.662 19.331-19.331-8.662-19.331-19.331-19.331-19.331 8.662-19.331 19.331zm427.338 243.556c0 10.669 8.662 19.331 19.331 19.331s19.331-8.662 19.331-19.331-8.662-19.331-19.331-19.331-19.331 8.662-19.331 19.331zm-36.928-100.87c2.251 0 4.064-1.82 4.064-4.064v-33.688c0-2.244-1.813-4.064-4.064-4.064-39.398 0-59.181-47.742-31.316-75.606 1.585-1.585 1.585-4.156 0-5.741l-23.819-23.839c-1.588-1.589-4.172-1.589-5.761 0-27.864 27.865-75.606 8.106-75.606-31.316 0-2.244-1.82-4.064-4.064-4.064h-33.688c-2.244 0-4.064 1.82-4.064 4.064 0 39.422-47.742 59.181-75.606 31.316-1.585-1.585-4.156-1.585-5.741 0l-23.839 23.839c-1.585 1.585-1.585 4.156 0 5.741 27.865 27.864 8.106 75.606-31.316 75.606-2.244 0-4.064 1.82-4.064 4.064v33.688c0 2.244 1.82 4.064 4.064 4.064 39.422 0 59.181 47.742 31.316 75.606-1.589 1.589-1.589 4.173 0 5.761l23.839 23.819c1.585 1.585 4.156 1.585 5.741 0 27.888-27.888 75.606-8.13 75.606 31.316 0 2.251 1.82 4.064 4.064 4.064h33.688c2.244 0 4.064-1.813 4.064-4.064 0-39.398 47.742-59.181 75.606-31.316 1.589 1.589 4.173 1.589 5.761 0l23.819-23.819c1.589-1.588 1.589-4.172 0-5.761-27.865-27.864-8.082-75.606 31.316-75.606zm-157.4 67.051c-48.45 0-87.949-39.521-87.949-87.949 0-48.45 39.499-87.949 87.949-87.949 48.428 0 87.949 39.499 87.949 87.949 0 48.428-39.521 87.949-87.949 87.949zm0-14c40.719 0 73.949-33.23 73.949-73.949 0-40.737-33.23-73.949-73.949-73.949-40.737 0-73.949 33.212-73.949 73.949 0 40.719 33.212 73.949 73.949 73.949zm29.904-99.678c2.787-2.675 7.221-2.585 9.897.201 2.676 2.787 2.586 7.222-.201 9.898l-43.052 41.339c-2.691 2.584-6.936 2.603-9.65.044l-26.472-24.957c-2.811-2.65-2.942-7.084-.291-9.895 2.65-2.811 7.084-2.942 9.895-.292l21.625 20.388zm-170.314-207.281c-10.67 0-19.332 8.662-19.332 19.331s8.662 19.331 19.332 19.331c10.669 0 19.331-8.662 19.331-19.331s-8.662-19.331-19.331-19.331zm280.8 0c-10.669 0-19.331 8.662-19.331 19.331s8.662 19.331 19.331 19.331c10.67 0 19.332-8.662 19.332-19.331s-8.662-19.331-19.332-19.331z" fill="#1f4571"/></g></svg>