<svg width="20" height="20" id="Layer_1" enable-background="new 0 0 512 512" viewBox="0 0 512 512" xmlns="http://www.w3.org/2000/svg"><g clip-rule="evenodd" fill-rule="evenodd"><path d="m237.39 320.73v-48.76c-12.44 0-22.54-10.09-22.54-22.54 0-12.44 10.09-22.51 22.54-22.51v-48.78h48.76c0 12.44 10.09 22.54 22.54 22.54 12.42 0 22.51-10.09 22.51-22.54h48.78c0 78.76-63.84 142.59-142.59 142.59z" fill="#7ca629"/><path d="m379.98 178.15h-48.78c0 12.44-10.09 22.54-22.51 22.54-12.44 0-22.54-10.09-22.54-22.54h-48.76v-48.76c12.42 0 22.51-10.09 22.51-22.54s-10.09-22.51-22.51-22.51v-48.77c78.75 0 142.59 63.83 142.59 142.58z" fill="#fbb13c"/><path d="m94.78 178.15h48.78c0-12.44 10.09-22.51 22.51-22.51 12.44 0 22.54 10.06 22.54 22.51h48.78v-48.76c12.42 0 22.51-10.09 22.51-22.54s-10.09-22.51-22.51-22.51v-48.77c-78.77 0-142.61 63.83-142.61 142.58z" fill="#7ca629"/><path d="m110.77 203.77c12.84 0 23.27 10.4 23.27 23.24h50.34v50.37c-12.84 0-23.27 10.4-23.27 23.24s10.43 23.24 23.27 23.24v50.37c-93.28 13.57-157.26-54.49-147.23-147.21h50.37c0-12.84 10.41-23.25 23.25-23.25z" fill="#fbb13c"/><path d="m38.91 280.14c5.95 21.8 15.79 40.73 29.56 56.78 5.87 7.51 13.86 12.87 19.53 17.12 16.16-36.79 36.6-48.95 46.03-41.84 8.42 5.92 4.96 18.31-9.3 45.55-2.81 5.39-4.59 10.86-1.87 16.3 15.93 31.66-3.34 39.6-6.58 67.58l-62.79 1.02c1.9-22.05 0-35.69-5.02-52.02-4.62-15.11-26.02-62.02-15.08-97.91 1.55-5.04 3.45-9.21 5.52-12.58z" fill="#ffb7b2"/><path d="m45.97 442.79h75.37c3.94 0 7.2 3.23 7.2 7.2v14.26c0 3.97-3.26 7.2-7.2 7.2h-75.37c-3.94 0-7.2-3.23-7.2-7.2v-14.26c0-3.97 3.26-7.2 7.2-7.2z" fill="#0cf"/><path d="m322.03 226.37c45.24-26.14 103.07-10.63 129.17 34.61 26.11 45.21 10.63 103.04-34.61 129.15-45.21 26.14-103.07 10.63-129.17-34.61-26.1-45.22-10.6-103.05 34.61-129.15z" fill="#0cf"/><path d="m413.59 418.5 30.61-17.69 33.62 58.28c4.88 8.42 1.96 19.28-6.46 24.12-8.42 4.88-19.28 1.96-24.12-6.46z" fill="#0cf"/><path d="m444.55 401.43 33.28 57.66c3.26 5.61 3.03 12.3.03 17.6-5.61-.45-10.94-3.54-13.95-8.76l-33.65-58.28z" fill="#46daff"/><path d="m333.94 246.95c33.85-19.53 77.13-7.94 96.66 25.91 19.56 33.85 7.97 77.13-25.88 96.69-33.87 19.53-77.16 7.94-96.69-25.91-19.56-33.85-7.94-77.13 25.91-96.69z" fill="#cfcfa6"/><path d="m420.71 259.56c3.74 3.94 7.06 8.39 9.89 13.29 19.56 33.85 7.97 77.13-25.88 96.69-20.13 11.59-43.57 12.22-63.38 3.71-3.71-3.94-7.06-8.39-9.89-13.29-19.56-33.85-7.94-77.13 25.91-96.69 20.09-11.59 43.53-12.21 63.35-3.71z" fill="#ffc"/></g><path d="m147.17 122.42c-2.07 3.26-6.38 4.22-9.67 2.15-3.26-2.07-4.22-6.41-2.15-9.67 16.21-25.5 39.48-42.48 69.76-50.9 3.71-1.05 7.57 1.13 8.59 4.85s-1.16 7.57-4.88 8.59c-26.79 7.45-47.34 22.44-61.65 44.98z" fill="#b3cb80"/><path clip-rule="evenodd" d="m304.49 76.22c7.29 0 13.15 5.9 13.15 13.15 0 7.26-5.87 13.15-13.15 13.15-7.26 0-13.15-5.9-13.15-13.15 0-7.26 5.89-13.15 13.15-13.15z" fill="#fbd18d" fill-rule="evenodd"/><path clip-rule="evenodd" d="m320.82 104.45c3.85 0 6.97 3.09 6.97 6.95 0 3.85-3.12 6.97-6.97 6.97-3.83 0-6.94-3.12-6.94-6.97-.01-3.86 3.11-6.95 6.94-6.95z" fill="#fbd18d" fill-rule="evenodd"/><path clip-rule="evenodd" d="m441.94 368.84 9.69 16.78c2.61 4.51 1.05 10.32-3.46 12.9l-40.11 23.16c-4.48 2.61-10.29 1.05-12.9-3.46l-9.69-16.78c9.64-1.67 19.16-4.88 28.2-9.69l.17-.09c.28-.14.57-.31.85-.45.65-.34 1.28-.71 1.9-1.08.62-.34 1.25-.74 1.87-1.11.28-.17.57-.34.85-.51l.14-.08c8.71-5.45 16.23-12.08 22.49-19.59z" fill="#058df3" fill-rule="evenodd"/><path d="m175.29 130.78c-2.75 2.72-7.17 2.72-9.92 0-2.72-2.75-2.72-7.17 0-9.92l9.41-9.38-9.41-9.38c-2.72-2.72-2.72-7.17 0-9.89 2.75-2.75 7.17-2.75 9.92 0l9.38 9.38 9.38-9.38c2.72-2.75 7.17-2.75 9.89 0 2.75 2.72 2.75 7.17 0 9.89l-9.38 9.38 9.38 9.38c2.75 2.75 2.75 7.17 0 9.92-2.72 2.72-7.17 2.72-9.89 0l-9.38-9.41zm105.19-4.45c-1.93-3.32-.79-7.6 2.55-9.52 3.34-1.96 7.6-.79 9.55 2.52l5.13 8.93 22.25-22.25c2.72-2.72 7.14-2.72 9.89 0 2.72 2.72 2.72 7.17 0 9.89l-28.69 28.69v-.03c-3.23 3.23-8.67 2.55-11-1.42zm169.88 243.13 7.31 12.67c4.11 7.11 2.3 16.04-4.05 21.06l30.27 52.41c10.89 18.88-6.52 41.78-27.75 36.11-6.09-1.64-11.57-5.61-14.97-11.48l-30.16-52.23c-7.91 4.2-17.83 1.25-22.11-6.69l-7.09-12.27c-53.92 6.69-104.09-30.47-112.79-84.7-10.32 2.24-21.12 3.4-31.66 3.4-3.85 0-7-3.15-7-7v-42.6c-22.17-5.39-30.22-33.22-13.86-49.58 3.74-3.74 8.53-6.49 13.86-7.8v-35.6h-41.75c-3.88 0-7-3.15-7-7 0-13.8-16.75-20.75-26.5-11-2.81 2.83-4.56 6.72-4.56 11 0 3.85-3.12 7-6.97 7h-48.8c-3.85 0-7-3.15-7-7 0-82.63 66.98-149.58 149.58-149.58 94.56 0 165.23 86.6 146.64 179.18 60.07 8.82 99.16 68.03 83.4 126.77-3.35 12.51-9.1 24.41-17.04 34.93zm-66.05 25.09c9.27-1.62 17.75-4.62 26.14-8.99h-.03l.14-.08c43.03-22.9 59.7-77.56 34.61-121.01-24.18-41.9-77.78-56.27-119.65-32.09-41.9 24.21-56.21 77.78-32.06 119.62 18.65 32.31 55.22 48.7 90.85 42.55zm61.26-5.47-4.93-8.53c-6.92 6.77-14.97 12.73-23.53 17.29v-.03l-.17.11v-.03c-6.63 3.54-13.49 6.29-20.69 8.28l4.96 8.53c.68 1.16 2.24 1.56 3.37.91v.03l40.11-23.16c1.13-.65 1.56-2.27.88-3.4zm-85.69-96.18c-.06 3.86-3.26 6.92-7.09 6.83-3.85-.06-6.92-3.26-6.86-7.11.68-32.26 52.24-32.57 51.93.68-.2 17.77-8.25 22.54-15.96 27.07-4.02 2.38-7.91 4.65-7.46 12.98.2 3.86-2.75 7.11-6.6 7.31s-7.14-2.75-7.34-6.6c-.88-16.75 6.55-21.12 14.34-25.71 4.39-2.58 8.96-5.27 9.07-15.17.15-14.83-23.72-14.17-24.03-.28zm.99 56.49c0-3.86 3.12-6.97 7-6.97 3.85 0 7 3.12 7 6.97v3.26c0 3.86-3.15 7-7 7-3.88 0-7-3.15-7-7zm-30.02-108.74c37.22-21.17 84.59-8.25 105.79 28.69 21.49 37.39 8.73 84.73-28.46 106.21h.03c-18.62 10.74-39.8 12.95-59.02 7.8-41.44-11.11-66.1-53.77-54.99-95.24 5.16-19.22 17.63-36.48 36.23-47.2.14-.09.28-.17.42-.26zm54.96 5.98c-34.07-9.16-69 11.06-78.12 45.07-9.13 34.07 11.03 69 45.1 78.12 15.79 4.25 33.17 2.47 48.42-6.35v.03c15.36-9.1 25.4-22.68 29.71-38.75 9.12-34.04-11.06-69.02-45.11-78.12zm55.82 163.71-18.51 10.69 29.91 51.79c7.65 12.73 25.71 2.32 18.51-10.69zm-122.66-190.27c16.1-9.21 33.68-13.52 51-13.41 1.53-7.09 2.47-14.2 2.81-21.51h-35.43c-5.39 22.17-33.22 30.22-49.55 13.86-3.77-3.74-6.52-8.53-7.82-13.86h-35.6v41.75c0 3.88-3.12 7-7 7-13.78 0-20.72 16.75-10.97 26.5 2.81 2.81 6.69 4.56 10.97 4.56 3.88 0 7 3.12 7 6.97v41.61c7.97-.4 15.73-1.47 23.41-3.23-.74-36.31 18-71.09 50.74-90.03.13-.06.3-.15.44-.21zm-273 215.72h1.02c.91-16.3-.54-28.03-5.16-43.17-.62-2.01-1.76-5.19-3.15-8.96-7.6-21.03-21.85-60.52-11.96-92.98.85-2.81 1.79-5.3 2.78-7.54.82-1.93 1.76-3.74 2.69-5.39-3.17-16.02-3.94-33.31-1.98-51.48.37-3.6 3.43-6.26 6.94-6.26h44.16c5.41-22.85 34.04-31.21 50.85-14.4 3.88 3.91 6.72 8.84 8.02 14.4h44.16c3.88 0 7 3.12 7 7v50.34c0 3.85-3.12 7-7 7-14.43 0-21.69 17.55-11.48 27.75 2.95 2.95 7 4.76 11.48 4.76 3.88 0 7 3.15 7 7v50.34c0 3.69-2.81 6.69-6.41 6.97-11.59 1.67-22.76 2.13-33.45 1.45-6.29-.4-12.42-1.16-18.31-2.3 8.96 25.17-4.28 35.89-8.87 55.76 6.46 1.39 11.2 7.14 11.2 13.89v14.23c0 7.82-6.35 14.2-14.17 14.2h-75.36c-7.8 0-14.2-6.41-14.2-14.2v-14.23c0-3.86 1.62-7.51 4.17-10.03 2.57-2.56 6.12-4.15 10.03-4.15zm75.37 14-75.51.06v-.03 14.57l75.63-.03v-14.51c-.03-.03-.09-.06-.12-.06zm-27.13-92.58c-2.55 6.55-4.2 14.17-5.27 21.77-.51 3.8-4.05 6.46-7.85 5.95-3.83-.54-6.49-4.05-5.98-7.88 1.02-7.28 2.49-14.17 4.54-20.52-10.01-7.4-14.37-12.02-21.94-21.86-7.88-10.26-14.26-21.71-19.16-33.76-5.13 27.04 6.75 59.9 13.27 77.98 7.34 20.24 10.29 34.75 9.21 56.64l49.29-.79c4.82-23.61 19.36-31.66 6.32-57.6-3.85-7.68-1.98-15.17 1.93-22.62 5.56-10.6 17.09-32.66 11.45-36.62-1.76-1.28-4.31-.68-7.63 1.13-11.51 6.32-21.71 23.5-27.98 37.79h-.03c-.05.11-.11.25-.17.39zm-37.47-50.17c7.4 14.23 16.24 26.02 28.6 36.23 7.31-14.54 17.89-29.65 30.33-36.48 8.08-4.45 16.21-4.82 22.37-.31h.03c6.8 4.79 8.96 11.59 6.66 22-1.73 7.85-6.38 18.28-13.8 32.51-.74 1.39-1.39 2.78-1.81 4.14 15.59 3.91 31.83 4.73 48.27 2.95v-38.01c-22.88-5.41-31.21-34.02-14.4-50.83 3.88-3.91 8.84-6.75 14.4-8.05v-37.16h-43.37c-3.85 0-7-3.15-7-7 0-14.46-17.55-21.71-27.75-11.51-2.95 2.95-4.76 7-4.76 11.51 0 3.86-3.12 7-7 7h-43.98c-1.9 26.58 2.52 51.61 13.21 73.01zm45.21-135.89h35.43c5.39-22.2 33.22-30.22 49.58-13.89 3.74 3.77 6.52 8.53 7.8 13.89h35.6v-41.78c0-3.85 3.15-6.97 7-6.97 13.8 0 20.75-16.78 11-26.53-2.83-2.81-6.72-4.54-11-4.54-3.85 0-7-3.12-7-7v-41.59c-69.3 3.51-124.86 59.1-128.41 128.41zm270.83 0c-3.51-69.31-59.1-124.89-128.41-128.41v35.43c22.2 5.39 30.22 33.22 13.89 49.55-3.77 3.77-8.53 6.52-13.89 7.82v35.6h41.78c3.85 0 7 3.12 7 7 0 13.78 16.75 20.72 26.5 10.97 2.81-2.81 4.54-6.69 4.54-10.97 0-3.88 3.15-7 7-7h41.59z"/></svg>