<?xml version="1.0" encoding="UTF-8" standalone="no"?>
<!-- Created with Inkscape (http://www.inkscape.org/) -->

<svg
   version="1.1"
   id="svg171"
   xml:space="preserve"
   width="20"
   height="20"
   viewBox="0 0 682.66669 682.66669"
   xmlns="http://www.w3.org/2000/svg"
   xmlns:svg="http://www.w3.org/2000/svg"><defs
     id="defs175"><clipPath
       clipPathUnits="userSpaceOnUse"
       id="clipPath185"><path
         d="M 0,512 H 512 V 0 H 0 Z"
         id="path183" /></clipPath></defs><g
     id="g177"
     transform="matrix(1.3333333,0,0,-1.3333333,0,682.66667)"><g
       id="g179"><g
         id="g181"
         clip-path="url(#clipPath185)"><g
           id="g187"
           transform="translate(70.0088,420.7788)"><path
             d="m 0,0 c -38.885,-43.858 -62.509,-101.555 -62.509,-164.779 0,-137.242 111.258,-248.5 248.5,-248.5 137.243,0 248.5,111.258 248.5,248.5 0,137.243 -111.257,248.5 -248.5,248.5 -63.223,0 -120.92,-23.623 -164.778,-62.508"
             style="fill:none;stroke:#58c4fe;stroke-width:15;stroke-linecap:round;stroke-linejoin:round;stroke-miterlimit:10;stroke-dasharray:none;stroke-opacity:1"
             id="path189" /></g><g
           id="g191"
           transform="translate(256,474.5)"><path
             d="M 0,0 -60,-218.5 0,-437 c 120.674,0 218.5,97.826 218.5,218.5 C 218.5,-97.826 120.674,0 0,0"
             style="fill:#ff5233;fill-opacity:1;fill-rule:nonzero;stroke:none"
             id="path193" /></g><g
           id="g195"
           transform="translate(256,444.5)"><path
             d="M 0,0 -60,-188.5 0,-377 c 104.105,0 188.5,84.395 188.5,188.5 C 188.5,-84.395 104.105,0 0,0"
             style="fill:#a33d2c;fill-opacity:1;fill-rule:nonzero;stroke:none"
             id="path197" /></g><g
           id="g199"
           transform="translate(256,414.5)"><path
             d="M 0,0 -60,-158.5 0,-317 c 87.537,0 158.5,70.963 158.5,158.5 C 158.5,-70.963 87.537,0 0,0"
             style="fill:#763229;fill-opacity:1;fill-rule:nonzero;stroke:none"
             id="path201" /></g><g
           id="g203"
           transform="translate(256,346)"><path
             d="m 0,0 v -180 c 49.706,0 90,40.294 90,90 C 90,-40.294 49.706,0 0,0"
             style="fill:#ff6e2e;fill-opacity:1;fill-rule:nonzero;stroke:none"
             id="path205" /></g><g
           id="g207"
           transform="translate(316,256)"><path
             d="m 0,0 c 0,49.706 -26.863,90 -60,90 l -60,-90 60,-90 c 33.137,0 60,40.294 60,90"
             style="fill:#ff8b2a;fill-opacity:1;fill-rule:nonzero;stroke:none"
             id="path209" /></g><g
           id="g211"
           transform="translate(256,429.5)"><path
             d="M 0,0 -44.768,40.401 C -77.375,33.612 -107.316,19.554 -132.821,0 l -81.028,-128.5 c -3.041,-14.523 -4.651,-29.573 -4.651,-45 0,-11.122 0.84,-22.047 2.444,-32.722 l 59.445,-119.637 c 29.779,-30.602 68.451,-52.507 111.843,-61.542 L 0,-347 v 112.5 l -15,30 15,30 z"
             style="fill:#26abff;fill-opacity:1;fill-rule:nonzero;stroke:none"
             id="path213" /></g><g
           id="g215"
           transform="translate(113.5,278.5)"><path
             d="M 0,0 C 12.426,0 22.5,10.074 22.5,22.5 V 91 c 16.568,0 30,13.432 30,30 0,16.569 -13.432,30 -30,30 H 9.679 C -31.046,119.779 -60.451,74.542 -71.349,22.5 H -22.5 C -22.5,10.074 -12.426,0 0,0"
             style="fill:#a6cf57;fill-opacity:1;fill-rule:nonzero;stroke:none"
             id="path217" /></g><g
           id="g219"
           transform="translate(158.5,188.5)"><path
             d="m 0,0 c 0,24.853 -20.147,45 -45,45 h -45 c -10.842,0 -20.787,-3.836 -28.556,-10.222 6.939,-46.2 28.334,-87.666 59.445,-119.637 L -45,-45 c 24.853,0 45,20.147 45,45"
             style="fill:#a6cf57;fill-opacity:1;fill-rule:nonzero;stroke:none"
             id="path221" /></g><g
           id="g223"
           transform="translate(42.1514,301)"><path
             d="m 0,0 h 48.849 c 0,-12.426 10.073,-22.5 22.5,-22.5 12.426,0 22.5,10.074 22.5,22.5 v 68.5 c 16.568,0 30,13.432 30,30 0,16.569 -13.432,30 -30,30 H 81.027"
             style="fill:none;stroke:#000000;stroke-width:15;stroke-linecap:round;stroke-linejoin:round;stroke-miterlimit:10;stroke-dasharray:none;stroke-opacity:1"
             id="path225" /></g><g
           id="g227"
           transform="translate(99.3887,103.6411)"><path
             d="m 0,0 14.111,39.859 c 24.853,0 45,20.147 45,45 0,24.853 -20.147,45 -45,45 h -45 c -10.842,0 -20.787,-3.836 -28.556,-10.222"
             style="fill:none;stroke:#000000;stroke-width:15;stroke-linecap:round;stroke-linejoin:round;stroke-miterlimit:10;stroke-dasharray:none;stroke-opacity:1"
             id="path229" /></g><g
           id="g231"
           transform="translate(226,225)"><path
             d="M 0,0 C 0,-16.568 13.432,-30 30,-30 V 30 C 13.432,30 0,16.569 0,0"
             style="fill:#a6cf57;fill-opacity:1;fill-rule:nonzero;stroke:none"
             id="path233" /></g><g
           id="g235"
           transform="translate(211.2319,42.0986)"><path
             d="m 0,0 c 14.452,-3.009 29.424,-4.599 44.768,-4.599 v 45 C 21.468,40.401 2.304,22.693 0,0"
             style="fill:#bcf7fc;fill-opacity:1;fill-rule:nonzero;stroke:none"
             id="path237" /></g><g
           id="g239"
           transform="translate(256,429.5)"><path
             d="M 0,0 V 45 C -15.344,45 -30.316,43.411 -44.768,40.401 -42.464,17.709 -23.3,0 0,0"
             style="fill:#bcf7fc;fill-opacity:1;fill-rule:nonzero;stroke:none"
             id="path241" /></g><g
           id="g243"
           transform="translate(256,82.5)"><path
             d="M 0,0 C -23.3,0 -42.464,-17.708 -44.768,-40.401"
             style="fill:none;stroke:#000000;stroke-width:15;stroke-linecap:round;stroke-linejoin:round;stroke-miterlimit:10;stroke-dasharray:none;stroke-opacity:1"
             id="path245" /></g><g
           id="g247"
           transform="translate(211.2319,469.9014)"><path
             d="M 0,0 C 2.304,-22.692 21.468,-40.401 44.768,-40.401"
             style="fill:none;stroke:#000000;stroke-width:15;stroke-linecap:round;stroke-linejoin:round;stroke-miterlimit:10;stroke-dasharray:none;stroke-opacity:1"
             id="path249" /></g><g
           id="g251"
           transform="translate(256,474.5)"><path
             d="M 0,0 V -437"
             style="fill:none;stroke:#000000;stroke-width:15;stroke-linecap:round;stroke-linejoin:round;stroke-miterlimit:10;stroke-dasharray:none;stroke-opacity:1"
             id="path253" /></g><g
           id="g255"
           transform="translate(474.5,256)"><path
             d="m 0,0 c 0,-120.674 -97.826,-218.5 -218.5,-218.5 -120.674,0 -218.5,97.826 -218.5,218.5 0,120.674 97.826,218.5 218.5,218.5 C -97.826,218.5 0,120.674 0,0 Z"
             style="fill:none;stroke:#000000;stroke-width:15;stroke-linecap:round;stroke-linejoin:round;stroke-miterlimit:10;stroke-dasharray:none;stroke-opacity:1"
             id="path257" /></g><g
           id="g259"
           transform="translate(256,444.5)"><path
             d="M 0,0 C 104.105,0 188.5,-84.395 188.5,-188.5 188.5,-292.605 104.105,-377 0,-377"
             style="fill:none;stroke:#000000;stroke-width:15;stroke-linecap:round;stroke-linejoin:round;stroke-miterlimit:10;stroke-dasharray:none;stroke-opacity:1"
             id="path261" /></g><g
           id="g263"
           transform="translate(256,414.5)"><path
             d="M 0,0 C 87.537,0 158.5,-70.963 158.5,-158.5 158.5,-246.037 87.537,-317 0,-317"
             style="fill:none;stroke:#000000;stroke-width:15;stroke-linecap:round;stroke-linejoin:round;stroke-miterlimit:10;stroke-dasharray:none;stroke-opacity:1"
             id="path265" /></g><g
           id="g267"
           transform="translate(256,346)"><path
             d="m 0,0 c 49.706,0 90,-40.294 90,-90 0,-49.706 -40.294,-90 -90,-90"
             style="fill:none;stroke:#000000;stroke-width:15;stroke-linecap:round;stroke-linejoin:round;stroke-miterlimit:10;stroke-dasharray:none;stroke-opacity:1"
             id="path269" /></g><g
           id="g271"
           transform="translate(256,195)"><path
             d="m 0,0 c -16.568,0 -30,13.432 -30,30 0,16.568 13.432,30 30,30"
             style="fill:none;stroke:#000000;stroke-width:15;stroke-linecap:round;stroke-linejoin:round;stroke-miterlimit:10;stroke-dasharray:none;stroke-opacity:1"
             id="path273" /></g></g></g></g></svg>
