<svg id="svg5" height="20" viewBox="0 0 32 32" width="20" xmlns="http://www.w3.org/2000/svg" xmlns:svg="http://www.w3.org/2000/svg"><g id="layer1"><g stroke-linecap="round"><path id="path2189" d="m13.307931 5.0102923a.250025.250025 0 0 0 -.25.25v.9179688c0 .1775258-.13568.3125001-.314454.3125h-2.677734a.250025.250025 0 0 0 -.2500005.25v2.6757814c0 .1775254-.1367226.3144531-.3144531.3144531h-.7832031a.250025.250025 0 0 0 -.2500001.2500001v15.9218753a.250025.250025 0 0 0 .2500001.25h4.6093757a.25.25 0 0 0 .25-.25.25.25 0 0 0 -.25-.25h-4.3593757v-15.421875h.5332031c.4469915 0 .8144536-.3677141.8144536-.8144535v-2.4257814h2.427734c.44595.0000003.814453-.3657603.814454-.8125v-.6679688l7.248045.021484 4.214844 4.1992188v15.9218759h-2.328125a.25.25 0 0 0 -.25.25.25.25 0 0 0 .25.25h2.578125a.250025.250025 0 0 0 .25-.25v-16.275391a.250025.250025 0 0 0 -.074219-.1777344l-4.361328-4.3457033a.250025.250025 0 0 0 -.175781-.072266zm1.519531 20.6425787a.25.25 0 0 0 -.25.25.25.25 0 0 0 .25.25h6.521483a.25.25 0 0 0 .25-.25.25.25 0 0 0 -.25-.25z" stroke-linejoin="round"/><path id="path2191" d="m20.934883 5.066933a.25.25 0 0 0 -.25.25v4.2753907a.250025.250025 0 0 0 .25.25h4.335937a.25.25 0 0 0 .25-.25.25.25 0 0 0 -.25-.25h-4.085937v-4.0253907a.25.25 0 0 0 -.25-.25z" stroke-linejoin="round"/><path id="path8041" d="m13.410398 18.8045v9.268027c.200488-.08533.41597-.129855.633857-.130963.21763-.000094.433102.04314.633858.127168v-9.264232a1.6399967 1.6402054 0 0 1 -.633858.130962 1.6399967 1.6402054 0 0 1 -.633857-.130962z" fill="#9ad0ec" stroke-linejoin="round" stroke-width=".5"/><path id="path8043" d="m13.509102 18.574746a.250025.250025 0 0 0 -.349609.230469v9.267578a.250025.250025 0 0 0 .349609.230468c.169339-.07207.351146-.110136.535157-.111328.184447-.000079.366951.0362.537108.107422a.250025.250025 0 0 0 .347657-.230469v-9.263671a.250025.250025 0 0 0 -.349609-.230469c-.168743.07182-.349849.109886-.533203.111328-.184671-.000939-.367182-.039-.53711-.111328zm.150391.53125c.128001.02773.251203.07941.382813.08008a.250025.250025 0 0 0 .0039 0c.13161-.000669.254811-.05235.382812-.08008v8.664062c-.128675-.02725-.25259-.07818-.384765-.07813a.250025.250025 0 0 0 -.002 0c-.131549.000669-.254873.05043-.382813.07813z" stroke-linejoin="round"/><path id="path8047" d="m15.684661 29.581696a1.6399968 1.6402054 0 0 1 -1.639997 1.640206 1.6399968 1.6402054 0 0 1 -1.639997-1.640206 1.6399968 1.6402054 0 0 1 1.639997-1.640205 1.6399968 1.6402054 0 0 1 1.639997 1.640205z" fill="#9ad0ec" stroke-linejoin="round" stroke-width=".5"/><path id="path8049" d="m14.044259 27.691933c-1.040872 0-1.888672.849673-1.888672 1.890625 0 1.040953.8478 1.888672 1.888672 1.888672 1.040871 0 1.890625-.847719 1.890625-1.888672 0-1.040952-.849754-1.890625-1.890625-1.890625zm0 .5c.770617 0 1.390625.619859 1.390625 1.390625 0 .770767-.620008 1.388672-1.390625 1.388672-.770618 0-1.388672-.617905-1.388672-1.388672 0-.770766.618054-1.390625 1.388672-1.390625z" stroke-linejoin="round"/><path id="ellipse2197" d="m14.044259 28.598183c-.540514 0-.984375.443845-.984375.984375 0 .540531.443861.982422.984375.982422.540513 0 .984375-.441891.984375-.982422 0-.54053-.443862-.984375-.984375-.984375zm0 .5c.270259 0 .484375.21403.484375.484375 0 .270346-.214116.482422-.484375.482422-.27026 0-.484375-.212076-.484375-.482422 0-.270345.214115-.484375.484375-.484375z" stroke-linejoin="round"/><path id="path8057" d="m15.684661 17.295062a1.6399968 1.6402054 0 0 1 -1.639997 1.640205 1.6399968 1.6402054 0 0 1 -1.639997-1.640205 1.6399968 1.6402054 0 0 1 1.639997-1.640206 1.6399968 1.6402054 0 0 1 1.639997 1.640206z" fill="#9ad0ec" stroke-linejoin="round" stroke-width=".5"/><path id="path8059" d="m14.044259 15.404824c-1.040872 0-1.888672.849673-1.888672 1.890625s.8478 1.890625 1.888672 1.890625c1.040871 0 1.890625-.849673 1.890625-1.890625s-.849754-1.890625-1.890625-1.890625zm0 .5c.770617 0 1.390625.619858 1.390625 1.390625s-.620008 1.390625-1.390625 1.390625c-.770618 0-1.388672-.619858-1.388672-1.390625s.618054-1.390625 1.388672-1.390625z" stroke-linejoin="round"/><path id="ellipse2201" d="m14.044259 16.311074c-.540514 0-.984375.443844-.984375.984375s.443861.984375.984375.984375c.540513 0 .984375-.443844.984375-.984375s-.443862-.984375-.984375-.984375zm0 .5c.270259 0 .484375.21403.484375.484375s-.214116.484375-.484375.484375c-.27026 0-.484375-.21403-.484375-.484375s.214115-.484375.484375-.484375z" stroke-linejoin="round"/><path id="ellipse2203" d="m22.220039 3.5571675c-.232697-.0000001-.425781.1931063-.425781.4257812 0 .2326748.193084.4277343.425781.4277343s.425781-.1950595.425781-.4277343c0-.232675-.193084-.4257814-.425781-.4257812zm0 .3535156c.03756 0 .07422.034755.07422.072266 0 .03751-.03666.074219-.07422.074219s-.07422-.036708-.07422-.074219c0-.03751.03666-.072266.07422-.072266z" stroke-linejoin="round"/><path id="path2205" d="m27.901679 23.455605a.25.25 0 0 0 -.177734.07227l-.855469.855469a.25.25 0 0 0 0 .353515.25.25 0 0 0 .353516 0l.855469-.855469a.25.25 0 0 0 0-.353515.25.25 0 0 0 -.175782-.07227z"/><path id="path2207" d="m27.046211 23.455605a.25.25 0 0 0 -.177735.07227.25.25 0 0 0 0 .353515l.855469.855469a.25.25 0 0 0 .353516 0 .25.25 0 0 0 0-.353515l-.855469-.855473a.25.25 0 0 0 -.175781-.07227z"/><path id="path2209" d="m6.667305 12.670981a.25.25 0 0 0 -.1777344.07422l-.8535156.855467a.25.25 0 0 0 0 .353516.25.25 0 0 0 .3535156 0l.8535156-.855469a.25.25 0 0 0 0-.353516.25.25 0 0 0 -.1757812-.07422z"/><path id="path2211" d="m5.8118362 12.670981a.25.25 0 0 0 -.1757812.07422.25.25 0 0 0 0 .353516l.8535156.855469a.25.25 0 0 0 .3535156 0 .25.25 0 0 0 0-.353516l-.8535156-.855471a.25.25 0 0 0 -.1777344-.07422z"/><path id="path2215" d="m10.294258 27.148965a.25.25 0 0 0 -.175781.07227l-.8554689.855469a.25.25 0 0 0 0 .353516.25.25 0 0 0 .3535157 0l.8554692-.855474a.25.25 0 0 0 0-.353516.25.25 0 0 0 -.177735-.07227z"/><path id="path2217" d="m9.4407425 27.148965a.25.25 0 0 0 -.1777344.07227.25.25 0 0 0 0 .353516l.8554689.855469a.25.25 0 0 0 .353516 0 .25.25 0 0 0 0-.353516l-.8554692-.855474a.25.25 0 0 0 -.1757813-.07226z"/><path id="ellipse2219" d="m19.261054 27.049355c-.232696 0-.425781.193107-.425781.425781 0 .232675.193085.427735.425781.427735.232698 0 .427735-.19506.427735-.427735 0-.232674-.195038-.425781-.427735-.425781zm0 .353516c.03756 0 .07422.03476.07422.07227s-.03666.07422-.07422.07422-.07227-.03671-.07227-.07422.03471-.07227.07227-.07227z" stroke-linejoin="round"/><path id="path8099" d="m23.670508 29.581696a1.6399968 1.6402054 0 0 1 -1.639997 1.640206 1.6399968 1.6402054 0 0 1 -1.639996-1.640206 1.6399968 1.6402054 0 0 1 1.639996-1.640205 1.6399968 1.6402054 0 0 1 1.639997 1.640205z" fill="#9ad0ec" stroke-linejoin="round" stroke-width=".5"/><path id="path8101" d="m22.030586 27.691933c-1.040872 0-1.890625.849673-1.890625 1.890625 0 1.040953.849753 1.888672 1.890625 1.888672 1.040871 0 1.890625-.847719 1.890625-1.888672 0-1.040952-.849754-1.890625-1.890625-1.890625zm0 .5c.770617 0 1.390625.619859 1.390625 1.390625 0 .770767-.620008 1.388672-1.390625 1.388672s-1.390625-.617905-1.390625-1.388672c0-.770766.620008-1.390625 1.390625-1.390625z" stroke-linejoin="round"/><path id="ellipse2223" d="m22.030586 28.598183c-.540514 0-.984375.443845-.984375.984375 0 .540531.443861.982422.984375.982422.540513 0 .984375-.441891.984375-.982422 0-.54053-.443862-.984375-.984375-.984375zm0 .5c.270259 0 .484375.21403.484375.484375 0 .270346-.214116.482422-.484375.482422-.27026 0-.484375-.212076-.484375-.482422 0-.270345.214115-.484375.484375-.484375z" stroke-linejoin="round"/></g><path id="path8109" d="m19.564727 14.2061-.371963.375808-1.812379 1.831589-.373862.377705-.371965.375808.371965.375808.373862.377706 1.812379 1.82969.371963.375808.745827-.751616-.373862-.375807-1.113995-1.125525h1.10071c.804918 0 1.432823.627984 1.432823 1.433004v8.782135a1.6399967 1.6402054 0 0 1 .673711-.146147 1.6399967 1.6402054 0 0 1 .590209.110085v-8.746073c0-1.483047-1.213884-2.697086-2.696743-2.697086h-1.24684l1.260125-1.273571.373862-.375807z" fill="#1572a1" stroke-linecap="square" stroke-linejoin="round" stroke-width=".5"/><path id="path8111" d="m19.563789 13.955605a.250025.250025 0 0 0 -.175781.07422l-.373047.376953-1.8125 1.830078-.373047.378906-.373047.375a.250025.250025 0 0 0 0 .351563l.373047.376953.373047.376953 1.8125 1.830078.373047.375a.250025.250025 0 0 0 .353515 0l.746094-.75a.250025.250025 0 0 0 0-.353515l-.373047-.375-.691406-.699219h.5c.674887 0 1.183594.506619 1.183594 1.181641v8.783203a.250025.250025 0 0 0 .353515.226562c.179415-.08129.373351-.122685.570313-.123047.171064.000051.340415.03213.5.09375a.250025.250025 0 0 0 .339843-.234375v-8.746093c0-1.619464-1.327955-2.945313-2.947265-2.945313h-.646485l.837891-.847656.373047-.376953a.250025.250025 0 0 0 0-.351563l-.746094-.753907a.250025.250025 0 0 0 -.177734-.07422zm.002.605469.392578.398438-.199219.199218-1.259765 1.275391a.250025.250025 0 0 0 .177734.425781h1.246094c1.346405 0 2.447265 1.098685 2.447265 2.445313v8.451171c-.113905-.02126-.223482-.06442-.339843-.06445a.250025.250025 0 0 0 -.002 0c-.145741.000268-.280831.05843-.421875.0918v-8.478515c0-.935017-.748646-1.681641-1.683594-1.681641h-1.09961a.250025.250025 0 0 0 -.177734.425781l1.113281 1.125.199219.201172-.392578.396484-.195313-.197265-1.8125-1.830078-.373046-.376959-.199219-.201172.199219-.199219.373046-.378906 1.8125-1.830078z" stroke-linecap="square" stroke-linejoin="round"/><path id="path2227" d="m7.9055862.52787052c-.4462464 0-.8164062.36497223-.8164062.81249998v2.4257813h-2.4277344c-.4475581 0-.8125.3701931-.8125.8164062v1.5957031c0 .4462131.3662537.8125.8125.8125h2.4277344v2.4257814c0 .4475277.3688483.8144535.8164062.8144535h1.5957032c.4475574 0 .8144536-.3682395.8144536-.8144535v-2.4257814h2.427734c.446247.0000003.814454-.3649731.814454-.8125v-1.5957031c0-.4475268-.366896-.8164062-.814454-.8164062h-2.427734v-2.4257813c0-.44621405-.3682077-.81249998-.8144536-.81249998zm0 .49999998h1.5957032c.1784761 0 .3144531.1344488.3144531.3125v2.6757812a.250025.250025 0 0 0 .2500005.25h2.677734c.177166 0 .314454.1396675.314454.3164063v1.5957031c0 .1767386-.135977.3125001-.314454.3125h-2.677734a.250025.250025 0 0 0 -.2500005.25v2.6757814c0 .178051-.1372885.314453-.3144531.314453h-1.5957032c-.1771658 0-.3164062-.1377156-.3164062-.314453v-2.6757814a.250025.250025 0 0 0 -.25-.25h-2.6777344c-.1784775 0-.3125-.1344477-.3125-.3125v-1.5957031c0-.1780524.1353344-.3164062.3125-.3164062h2.6777344a.250025.250025 0 0 0 .25-.25v-2.6757813c0-.1767376.1379289-.3125.3164062-.3125z" stroke-linecap="round" stroke-linejoin="round"/><path id="path8119" d="m7.9053064.77809871c-.3123622 0-.5659301.25092299-.5659301.56305599v2.6751301h-2.6770908c-.3123622 0-.563468.2533815-.563468.5655146v1.5957348c0 .312133.2511058.5630558.563468.5630558h2.6770908v2.6751308c0 .3121329.2535679.5655139.5659301.5655139h1.5969046c.3123613 0 .563469-.253381.563469-.5655139v-2.6751308h2.677092c.312362.0000001.565928-.2509228.565928-.5630558v-1.5957348c0-.312133-.253566-.5655146-.565928-.5655146h-2.677092v-2.6751301c0-.312133-.2511077-.56305599-.563469-.56305599z" fill="#1572a1" stroke-linecap="round" stroke-linejoin="round" stroke-width=".5"/><path id="path8121" d="m7.9055862.52787052c-.4462464 0-.8164062.36497223-.8164062.81249998v2.4257813h-2.4277344c-.4475581 0-.8125.3701931-.8125.8164062v1.5957031c0 .4462131.3662537.8125.8125.8125h2.4277344v2.4257814c0 .4475277.3688483.8144535.8164062.8144535h1.5957032c.4475574 0 .8144536-.3682395.8144536-.8144535v-2.4257814h2.427734c.446247.0000003.814454-.3649731.814454-.8125v-1.5957031c0-.4475268-.366896-.8164062-.814454-.8164062h-2.427734v-2.4257813c0-.44621405-.3682077-.81249998-.8144536-.81249998zm0 .49999998h1.5957032c.1784761 0 .3144531.1344488.3144531.3125v2.6757812a.250025.250025 0 0 0 .2500005.25h2.677734c.177166 0 .314454.1396675.314454.3164063v1.5957031c0 .1767386-.135977.3125001-.314454.3125h-2.677734a.250025.250025 0 0 0 -.2500005.25v2.6757814c0 .178051-.1372885.314453-.3144531.314453h-1.5957032c-.1771658 0-.3164062-.1377156-.3164062-.314453v-2.6757814a.250025.250025 0 0 0 -.25-.25h-2.6777344c-.1784775 0-.3125-.1344477-.3125-.3125v-1.5957031c0-.1780524.1353344-.3164062.3125-.3164062h2.6777344a.250025.250025 0 0 0 .25-.25v-2.6757813c0-.1767376.1379289-.3125.3164062-.3125z" stroke-linecap="round" stroke-linejoin="round"/></g></svg>