<svg version="1.1" id="Capa_1" xmlns="http://www.w3.org/2000/svg" xmlns:xlink="http://www.w3.org/1999/xlink" x="0px" y="0px" viewBox="0 0 512 512" style="enable-background:new 0 0 512 512;" xml:space="preserve" height="20px" width="20px">
<g>
	<g>
		<g>
			<g>
				<g>
					<polygon style="fill:#F9F7F8;" points="501.597,116.46 10.399,116.46 10.399,378.501 27.202,389.349 483.312,389.349 &#10;&#9;&#9;&#9;&#9;&#9;&#9;501.597,378.501 &#9;&#9;&#9;&#9;&#9;"/>
					<path style="fill:#EFEDEF;" d="M471.088,383.21c0,8.587-5.679,24.57-10.59,30.29h46.503V116.46l-35.842-2.231l-21.103,114.275&#10;&#9;&#9;&#9;&#9;&#9;&#9;l21.174,103.637C471.23,332.141,471.088,381.107,471.088,383.21z"/>
					<polygon style="fill:#EFEDEF;" points="10.399,378.501 10.399,414.46 501.597,414.46 501.597,385.913 471.099,378.501 &#9;&#9;&#9;&#9;&#9;"/>
				</g>
				<path style="fill:#E5E1E5;" d="M471.099,378.501c0,7.209,0.06,10.354,0.06,11.919c0,11.809-3.866,15.567-10.661,18.91H497&#10;&#9;&#9;&#9;&#9;&#9;v-30.829H471.099z"/>
				<path style="fill:#7A6D79;" d="M355.329,468.735L326,472.46l0,0c-37.926-40.393-102.074-40.393-140,0l0,0l-29.626-3.169&#10;&#9;&#9;&#9;&#9;&#9;l29.888-55.791h139.477L355.329,468.735z"/>
				<path style="fill:#918291;" d="M389.002,502.5l-20.872,2h-1l0,0l-246.132-0.004c-2.761,0-5-2.433-5-5.435v-26.126&#10;&#9;&#9;&#9;&#9;&#9;c0-3.002,2.239-5.435,5-5.435h252.408l15.596,2c2.761,0,5,2.433,5,5.435v22.13C394.002,500.067,391.763,502.5,389.002,502.5z"/>
				<path style="fill:#7A6D79;" d="M396.002,472.935v26.13c0,3-2.24,5.435-5,5.435H367.13c5.807,0,6.275-5.61,6.275-8.197V467.5&#10;&#9;&#9;&#9;&#9;&#9;h17.596C393.762,467.5,396.002,469.935,396.002,472.935z"/>
			</g>
			<g>
				<g>
					<path style="fill:#918291;" d="M55.841,347.141c-8.284,0-15-6.716-15-15V72.189l10-46.141c0-8.284,6.716-15,15-15&#10;&#9;&#9;&#9;&#9;&#9;&#9;l373.371,3.088c8.284,0,21.947,6.716,21.947,11.041v286.145c0,12.243-14.849,32.861-23.133,32.861l-9.073,2.957h-75.297&#10;&#9;&#9;&#9;&#9;&#9;&#9;l-98.29-17.572l-97.02,17.572H55.841z"/>
				</g>
				<path style="fill:#8ABBD5;" d="M467.219,26.464v42.437l-26.633,3.189L40.841,72.189V22.845c0-8.29,6.72-15,15-15h370.44&#10;&#9;&#9;&#9;&#9;&#9;l23.357,1.038C457.918,8.883,467.219,18.174,467.219,26.464z"/>
				<g>
					<path style="fill:#7A6D79;" d="M458.914,63.43l12.245,8.66v260.051c0,8.284-6.716,15-15,15h-27.206l3.162-1.872&#10;&#9;&#9;&#9;&#9;&#9;&#9;c5.25-3.109,8.471-8.757,8.471-14.859V72.09L458.914,63.43z"/>
					<path style="fill:#6CABCA;" d="M471.159,22.845V72.09h-30.574V27.287c0-7.218-3.959-13.855-10.31-17.285l-3.994-2.157h29.878&#10;&#9;&#9;&#9;&#9;&#9;&#9;C464.439,7.845,471.159,14.555,471.159,22.845z"/>
				</g>
			</g>
			<g>
				<path style="fill:#BBEC6C;" d="M349.587,317.125v27.05l-41.307,2.966l-10.32-1.53l-42.59-6.3l-51.65,7.83h-45.38V316.2&#10;&#9;&#9;&#9;&#9;&#9;c0-1.89,1.41-3.49,3.29-3.74l11-1.41c1.45-0.18,2.68-1.18,3.11-2.58c1.57-5.13,3.62-10.05,6.1-14.7&#10;&#9;&#9;&#9;&#9;&#9;c0.68-1.3,0.52-2.88-0.37-4.03l-6.79-8.78c-1.15-1.5-1.02-3.63,0.32-4.97l23.89-23.89c1.34-1.34,3.47-1.48,4.97-0.32l8.78,6.78&#10;&#9;&#9;&#9;&#9;&#9;c1.16,0.9,2.74,1.06,4.03,0.37c4.66-2.47,9.58-4.52,14.7-6.09c1.4-0.43,2.4-1.66,2.59-3.11l1.41-11&#10;&#9;&#9;&#9;&#9;&#9;c0.24-1.88,1.84-3.29,3.74-3.29h33.78c1.9,0,3.5,1.41,3.74,3.29l1.41,11c0.19,1.45,1.19,2.68,2.59,3.11&#10;&#9;&#9;&#9;&#9;&#9;c5.12,1.57,11.019,5.785,15.679,8.255c1.29,0.69,2.87,0.53,4.03-0.37l8.457-4.492c1.5-1.16,3.63-1.02,4.97,0.32l18.5,19.942&#10;&#9;&#9;&#9;&#9;&#9;c1.34,1.34,1.47,3.47,0.32,4.97l-5.825,7.621c-0.89,1.15-1.341,2.046-0.661,3.346c0.07,0.12,0.431,0.934,0.491,1.064&#10;&#9;&#9;&#9;&#9;&#9;c2.39,4.55,5.879,13.065,7.409,18.055c0.43,1.4,1.66,2.4,3.11,2.58l9.187-0.745&#10;&#9;&#9;&#9;&#9;&#9;C348.177,313.635,349.587,315.235,349.587,317.125z"/>
				<path style="fill:#A2E62E;" d="M353.66,316.2v30.94h-45.38l-10.32-1.53l11.382-21.689c0-39.92-28.712-71.081-28.712-71.081&#10;&#9;&#9;&#9;&#9;&#9;c5.12,1.57,10.04,3.62,14.7,6.09c1.29,0.69,2.87,0.53,4.03-0.37l8.78-6.78c1.5-1.16,3.63-1.02,4.97,0.32L337,275.99&#10;&#9;&#9;&#9;&#9;&#9;c1.34,1.34,1.47,3.47,0.32,4.97l-6.79,8.78c-0.89,1.15-1.05,2.73-0.37,4.03c0.07,0.12,0.14,0.25,0.2,0.38&#10;&#9;&#9;&#9;&#9;&#9;c2.39,4.55,4.37,9.33,5.9,14.32c0.43,1.4,1.66,2.4,3.11,2.58l11,1.41C352.25,312.71,353.66,314.31,353.66,316.2z"/>
				<path style="fill:#918291;" d="M203.725,347.142c-1.201-4.479-1.841-9.188-1.841-14.047c0-29.888,24.229-54.116,54.116-54.116&#10;&#9;&#9;&#9;&#9;&#9;c29.888,0,54.116,24.229,54.116,54.116c0,4.858-0.64,9.567-1.841,14.047H203.725z"/>
			</g>
		</g>
	</g>
	<g>
		<path style="fill:none;stroke:#000000;stroke-width:15;stroke-linecap:round;stroke-linejoin:round;stroke-miterlimit:10;" d="&#10;&#9;&#9;&#9;M319.07,504.5h69.61c2.76,0,5-2.24,5-5v-24.04c0-2.76-2.24-5-5-5H121.01c-2.77,0-5,2.24-5,5v24.04c0,2.76,2.23,5,5,5h163.06"/>
		<path style="fill:none;stroke:#000000;stroke-width:15;stroke-linecap:round;stroke-linejoin:round;stroke-miterlimit:10;" d="&#10;&#9;&#9;&#9;M473.88,114.46h20.62c5.52,0,10,4.48,10,10v280c0,5.52-4.48,10-10,10h-384"/>
		<path style="fill:none;stroke:#000000;stroke-width:15;stroke-linecap:round;stroke-linejoin:round;stroke-miterlimit:10;" d="&#10;&#9;&#9;&#9;M75.5,414.46h-58c-5.52,0-10-4.48-10-10v-280c0-5.52,4.48-10,10-10h20.75"/>
		
			<line style="fill:none;stroke:#000000;stroke-width:15;stroke-linecap:round;stroke-linejoin:round;stroke-miterlimit:10;" x1="355.329" y1="469.207" x2="326.813" y2="415.977"/>
		<path style="fill:none;stroke:#000000;stroke-width:15;stroke-linecap:round;stroke-linejoin:round;stroke-miterlimit:10;" d="&#10;&#9;&#9;&#9;M186.378,470.059c18.92-19.933,44.271-29.889,69.622-29.889c25.268,0,50.536,9.892,69.436,29.694"/>
		
			<line style="fill:none;stroke:#000000;stroke-width:15;stroke-linecap:round;stroke-linejoin:round;stroke-miterlimit:10;" x1="185.187" y1="415.977" x2="156.374" y2="469.763"/>
		
			<line style="fill:none;stroke:#000000;stroke-width:15;stroke-linecap:round;stroke-linejoin:round;stroke-miterlimit:10;" x1="8.5" y1="378.501" x2="503.5" y2="378.501"/>
		<path style="fill:none;stroke:#000000;stroke-width:15;stroke-linecap:round;stroke-linejoin:round;stroke-miterlimit:10;" d="&#10;&#9;&#9;&#9;M471.16,210.8v120.03c0,9.01-7.3,16.31-16.31,16.31H57.15c-9.01,0-16.31-7.3-16.31-16.31V23.81c0-9.01,7.3-16.31,16.31-16.31&#10;&#9;&#9;&#9;h110.54 M202.69,7.5h252.16c9.01,0,16.31,7.3,16.31,16.31V175.8"/>
		<g>
			<g>
				<g>
					<path style="fill:none;stroke:#000000;stroke-width:15;stroke-linecap:round;stroke-linejoin:round;stroke-miterlimit:10;" d="&#10;&#9;&#9;&#9;&#9;&#9;&#9;M256.238,193.299l11.737-64.872c0.162-0.896,0.942-1.547,1.852-1.547l0,0c0.835,0,1.57,0.55,1.806,1.351l18.739,63.669&#10;&#9;&#9;&#9;&#9;&#9;&#9;c0.244,0.83,1.006,1.4,1.872,1.4l0,0c0.872,0,1.638-0.579,1.877-1.417l18.09-63.635c0.23-0.809,0.969-1.368,1.811-1.368h0.004&#10;&#9;&#9;&#9;&#9;&#9;&#9;c0.903,0,1.679,0.641,1.849,1.528l12.435,64.892"/>
				</g>
				<g>
					
						<polyline style="fill:none;stroke:#000000;stroke-width:15;stroke-linecap:round;stroke-linejoin:round;stroke-miterlimit:10;" points="&#10;&#9;&#9;&#9;&#9;&#9;&#9;353.639,126.879 353.639,193.299 376.916,193.299 &#9;&#9;&#9;&#9;&#9;"/>
				</g>
				<g>
					
						<line style="fill:none;stroke:#000000;stroke-width:15;stroke-linecap:round;stroke-linejoin:round;stroke-miterlimit:10;" x1="135.084" y1="126.879" x2="135.084" y2="193.299"/>
					
						<line style="fill:none;stroke:#000000;stroke-width:15;stroke-linecap:round;stroke-linejoin:round;stroke-miterlimit:10;" x1="181.047" y1="126.879" x2="181.047" y2="193.299"/>
					
						<line style="fill:none;stroke:#000000;stroke-width:15;stroke-linecap:round;stroke-linejoin:round;stroke-miterlimit:10;" x1="135.084" y1="158.95" x2="181.047" y2="158.95"/>
				</g>
				<g>
					
						<line style="fill:none;stroke:#000000;stroke-width:15;stroke-linecap:round;stroke-linejoin:round;stroke-miterlimit:10;" x1="205.786" y1="126.881" x2="242.464" y2="126.881"/>
					
						<line style="fill:none;stroke:#000000;stroke-width:15;stroke-linecap:round;stroke-linejoin:round;stroke-miterlimit:10;" x1="224.051" y1="129.002" x2="224.051" y2="193.297"/>
				</g>
			</g>
		</g>
		<g>
			
				<polyline style="fill:none;stroke:#000000;stroke-width:15;stroke-linecap:round;stroke-linejoin:round;stroke-miterlimit:10;" points="&#10;&#9;&#9;&#9;&#9;108.176,188.48 80.845,161.15 108.176,133.819 &#9;&#9;&#9;"/>
			
				<polyline style="fill:none;stroke:#000000;stroke-width:15;stroke-linecap:round;stroke-linejoin:round;stroke-miterlimit:10;" points="&#10;&#9;&#9;&#9;&#9;403.824,188.48 431.155,161.15 403.824,133.819 &#9;&#9;&#9;"/>
		</g>
		
			<line style="fill:none;stroke:#000000;stroke-width:15;stroke-linecap:round;stroke-linejoin:round;stroke-miterlimit:10;" x1="468.447" y1="71.145" x2="43.553" y2="71.145"/>
		
			<line style="fill:none;stroke:#000000;stroke-width:15;stroke-linecap:round;stroke-linejoin:round;stroke-miterlimit:10;" x1="143.651" y1="39.322" x2="143.651" y2="39.322"/>
		
			<line style="fill:none;stroke:#000000;stroke-width:15;stroke-linecap:round;stroke-linejoin:round;stroke-miterlimit:10;" x1="109.531" y1="39.322" x2="109.531" y2="39.322"/>
		
			<line style="fill:none;stroke:#000000;stroke-width:15;stroke-linecap:round;stroke-linejoin:round;stroke-miterlimit:10;" x1="75.411" y1="39.322" x2="75.411" y2="39.322"/>
		<g>
			<path style="fill:none;stroke:#000000;stroke-width:15;stroke-linecap:round;stroke-linejoin:round;stroke-miterlimit:10;" d="&#10;&#9;&#9;&#9;&#9;M353.655,343.515v-28.331c0-1.592-1.183-2.936-2.762-3.138l-11.917-1.528c-1.249-0.16-2.268-1.051-2.633-2.256&#10;&#9;&#9;&#9;&#9;c-1.611-5.324-3.736-10.424-6.318-15.242c-0.595-1.111-0.504-2.462,0.266-3.459l7.348-9.511c0.973-1.26,0.859-3.046-0.266-4.172&#10;&#9;&#9;&#9;&#9;l-24.642-24.642c-1.126-1.126-2.912-1.24-4.172-0.266l-9.511,7.348c-0.997,0.77-2.348,0.861-3.459,0.266&#10;&#9;&#9;&#9;&#9;c-4.819-2.582-9.919-4.707-15.242-6.318c-1.205-0.365-2.096-1.384-2.256-2.633l-1.528-11.917&#10;&#9;&#9;&#9;&#9;c-0.202-1.579-1.547-2.762-3.138-2.762h-34.849c-1.592,0-2.936,1.183-3.138,2.762l-1.528,11.917&#10;&#9;&#9;&#9;&#9;c-0.16,1.249-1.051,2.268-2.256,2.633c-5.324,1.611-10.424,3.736-15.242,6.318c-1.111,0.595-2.462,0.504-3.459-0.266&#10;&#9;&#9;&#9;&#9;l-9.511-7.348c-1.26-0.973-3.046-0.859-4.172,0.266l-24.642,24.642c-1.126,1.126-1.24,2.912-0.266,4.172l7.348,9.511&#10;&#9;&#9;&#9;&#9;c0.77,0.997,0.861,2.348,0.266,3.459c-2.582,4.819-4.707,9.919-6.318,15.242c-0.365,1.205-1.384,2.096-2.633,2.256l-11.917,1.528&#10;&#9;&#9;&#9;&#9;c-1.579,0.203-2.762,1.547-2.762,3.138v28.99"/>
			<path style="fill:none;stroke:#000000;stroke-width:15;stroke-linecap:round;stroke-linejoin:round;stroke-miterlimit:10;" d="&#10;&#9;&#9;&#9;&#9;M203.123,344.175c-0.811-3.727-1.239-7.596-1.239-11.566c0-29.888,24.229-54.116,54.116-54.116&#10;&#9;&#9;&#9;&#9;c29.888,0,54.116,24.229,54.116,54.116c0,3.736-0.379,7.383-1.099,10.906"/>
		</g>
	</g>
</g>
<g>
</g>
<g>
</g>
<g>
</g>
<g>
</g>
<g>
</g>
<g>
</g>
<g>
</g>
<g>
</g>
<g>
</g>
<g>
</g>
<g>
</g>
<g>
</g>
<g>
</g>
<g>
</g>
<g>
</g>
</svg>