<?xml version="1.0" encoding="UTF-8"?>
<svg xmlns="http://www.w3.org/2000/svg" xmlns:xlink="http://www.w3.org/1999/xlink" version="1.1" id="Capa_1" x="0px" y="0px" viewBox="0 0 512 512" style="enable-background:new 0 0 512 512;" xml:space="preserve" width="20" height="20">
<g>
	<g>
		<path style="fill:#60B7FF;" d="M504.5,112.557H7.5V68.11c0-11.158,9.045-20.203,20.203-20.203h456.594&#10;&#9;&#9;&#9;c11.158,0,20.203,9.045,20.203,20.203V112.557z"/>
		<path style="fill:#26A6FE;" d="M484.297,47.907h-32.325c11.158,0,20.203,9.045,20.203,20.203v44.447H504.5V68.11&#10;&#9;&#9;&#9;C504.5,56.952,495.455,47.907,484.297,47.907z"/>
		<path style="fill:#E8EDF2;" d="M484.297,464.094H27.703c-11.158,0-20.203-9.045-20.203-20.203V112.557h497V443.89&#10;&#9;&#9;&#9;C504.5,455.048,495.455,464.094,484.297,464.094z"/>
		<path style="fill:#D9E7EC;" d="M472.175,112.557V443.89c0,11.158-9.045,20.203-20.203,20.203h32.325&#10;&#9;&#9;&#9;c11.158,0,20.203-9.045,20.203-20.203V112.557H472.175z"/>
	</g>
	<g>
		<path style="fill:#FFD15B;" d="M392.372,298.427H119.628c-11.158,0-20.203-9.045-20.203-20.203V173.167&#10;&#9;&#9;&#9;c0-11.158,9.045-20.203,20.203-20.203h272.744c11.158,0,20.203,9.045,20.203,20.203v105.057&#10;&#9;&#9;&#9;C412.575,289.382,403.53,298.427,392.372,298.427z"/>
		<path style="fill:#FFC344;" d="M392.372,152.963h-30.305c11.158,0,20.203,9.045,20.203,20.203v105.057&#10;&#9;&#9;&#9;c0,11.158-9.045,20.203-20.203,20.203h30.305c11.158,0,20.203-9.045,20.203-20.203V173.167&#10;&#9;&#9;&#9;C412.575,162.009,403.53,152.963,392.372,152.963z"/>
	</g>
	<path style="fill:none;stroke:#000000;stroke-width:15;stroke-linecap:round;stroke-linejoin:round;stroke-miterlimit:10;" d="&#10;&#9;&#9;M96.79,47.91H484.3c11.15,0,20.2,9.04,20.2,20.2v44.45H7.5V68.11c0-11.16,9.05-20.2,20.2-20.2h34.09"/>
	<path style="fill:none;stroke:#000000;stroke-width:15;stroke-linecap:round;stroke-linejoin:round;stroke-miterlimit:10;" d="&#10;&#9;&#9;M187.64,464.09H484.3c11.15,0,20.2-9.04,20.2-20.2V112.56H7.5v331.33c0,11.16,9.05,20.2,20.2,20.2h124.94"/>
	<g>
		
			<line style="fill:none;stroke:#000000;stroke-width:15;stroke-linecap:round;stroke-linejoin:round;stroke-miterlimit:10;" x1="464.094" y1="80.232" x2="464.094" y2="80.232"/>
		
			<line style="fill:none;stroke:#000000;stroke-width:15;stroke-linecap:round;stroke-linejoin:round;stroke-miterlimit:10;" x1="433.789" y1="80.232" x2="433.789" y2="80.232"/>
		
			<line style="fill:none;stroke:#000000;stroke-width:15;stroke-linecap:round;stroke-linejoin:round;stroke-miterlimit:10;" x1="403.484" y1="80.232" x2="403.484" y2="80.232"/>
	</g>
	
		<polyline style="fill:none;stroke:#000000;stroke-width:15;stroke-linecap:round;stroke-linejoin:round;stroke-miterlimit:10;" points="&#10;&#9;&#9;119.628,332.772 99.425,352.976 119.628,373.179 &#9;"/>
	
		<polyline style="fill:none;stroke:#000000;stroke-width:15;stroke-linecap:round;stroke-linejoin:round;stroke-miterlimit:10;" points="&#10;&#9;&#9;392.372,423.687 412.575,403.484 392.372,383.28 &#9;"/>
	
		<line style="fill:none;stroke:#000000;stroke-width:15;stroke-linecap:round;stroke-linejoin:round;stroke-miterlimit:10;" x1="353.43" y1="332.772" x2="232.766" y2="332.772"/>
	
		<line style="fill:none;stroke:#000000;stroke-width:15;stroke-linecap:round;stroke-linejoin:round;stroke-miterlimit:10;" x1="200.441" y1="332.772" x2="158.57" y2="332.772"/>
	
		<line style="fill:none;stroke:#000000;stroke-width:15;stroke-linecap:round;stroke-linejoin:round;stroke-miterlimit:10;" x1="279.234" y1="378.23" x2="158.57" y2="378.23"/>
	
		<line style="fill:none;stroke:#000000;stroke-width:15;stroke-linecap:round;stroke-linejoin:round;stroke-miterlimit:10;" x1="353.43" y1="378.23" x2="311.559" y2="378.23"/>
	
		<line style="fill:none;stroke:#000000;stroke-width:15;stroke-linecap:round;stroke-linejoin:round;stroke-miterlimit:10;" x1="200.441" y1="423.687" x2="158.57" y2="423.687"/>
	
		<line style="fill:none;stroke:#000000;stroke-width:15;stroke-linecap:round;stroke-linejoin:round;stroke-miterlimit:10;" x1="353.43" y1="423.687" x2="311.559" y2="423.687"/>
	
		<line style="fill:none;stroke:#000000;stroke-width:15;stroke-linecap:round;stroke-linejoin:round;stroke-miterlimit:10;" x1="279.234" y1="423.687" x2="232.766" y2="423.687"/>
	<g>
		<g>
			<path style="fill:none;stroke:#000000;stroke-width:15;stroke-linecap:round;stroke-linejoin:round;stroke-miterlimit:10;" d="&#10;&#9;&#9;&#9;&#9;M261.027,257.516l11.363-62.957c0.284-1.474,2.34-1.612,2.818-0.189l18.485,62.656c0.448,1.334,2.339,1.325,2.773-0.014&#10;&#9;&#9;&#9;&#9;l17.854-62.631c0.463-1.428,2.52-1.312,2.82,0.159l12.036,62.977"/>
		</g>
		<g>
			
				<polyline style="fill:none;stroke:#000000;stroke-width:15;stroke-linecap:round;stroke-linejoin:round;stroke-miterlimit:10;" points="&#10;&#9;&#9;&#9;&#9;359.482,193.37 359.482,258.02 382.14,258.02 &#9;&#9;&#9;"/>
		</g>
		<g>
			
				<line style="fill:none;stroke:#000000;stroke-width:15;stroke-linecap:round;stroke-linejoin:round;stroke-miterlimit:10;" x1="129.86" y1="193.37" x2="129.86" y2="258.02"/>
			
				<line style="fill:none;stroke:#000000;stroke-width:15;stroke-linecap:round;stroke-linejoin:round;stroke-miterlimit:10;" x1="174.599" y1="193.37" x2="174.599" y2="258.02"/>
			
				<line style="fill:none;stroke:#000000;stroke-width:15;stroke-linecap:round;stroke-linejoin:round;stroke-miterlimit:10;" x1="129.86" y1="224.586" x2="174.599" y2="224.586"/>
		</g>
		<g>
			
				<line style="fill:none;stroke:#000000;stroke-width:15;stroke-linecap:round;stroke-linejoin:round;stroke-miterlimit:10;" x1="205.424" y1="193.37" x2="241.127" y2="193.37"/>
			
				<line style="fill:none;stroke:#000000;stroke-width:15;stroke-linecap:round;stroke-linejoin:round;stroke-miterlimit:10;" x1="223.203" y1="195.434" x2="223.203" y2="258.02"/>
		</g>
	</g>
	<path style="fill:none;stroke:#000000;stroke-width:15;stroke-linecap:round;stroke-linejoin:round;stroke-miterlimit:10;" d="&#10;&#9;&#9;M359.36,152.96h33.01c11.16,0,20.21,9.05,20.21,20.21v105.05c0,11.16-9.05,20.21-20.21,20.21H119.63&#10;&#9;&#9;c-11.16,0-20.21-9.05-20.21-20.21V173.17c0-11.16,9.05-20.21,20.21-20.21h204.73"/>
</g>















</svg>
