<svg id="Layer_1" enable-background="new 0 0 512 512" height="20" viewBox="0 0 512 512" width="20" xmlns="http://www.w3.org/2000/svg"><g clip-rule="evenodd" fill-rule="evenodd"><g><g><path d="m389.695 382.08h96.679c6.941 0 12.621 5.679 12.621 12.62v96.679c0 6.941-5.679 12.62-12.621 12.62h-96.679c-6.941 0-12.621-5.679-12.621-12.62v-96.679c0-6.941 5.679-12.62 12.621-12.62z" fill="#8ac9fe"/><path d="m466.373 382.08h20.001c6.941 0 12.621 5.679 12.621 12.62v96.679c0 6.941-5.679 12.62-12.621 12.62h-20.001c6.941 0 12.62-5.679 12.62-12.62v-96.679c0-6.941-5.679-12.62-12.62-12.62z" fill="#60b7ff"/></g><g><path d="m96.595 396.57h196.819c9.423 0 17.132 7.71 17.132 17.132v58.676c0 9.423-7.71 17.132-17.132 17.132h-196.819c-9.423 0-17.132-7.709-17.132-17.132v-58.676c0-9.422 7.71-17.132 17.132-17.132z" fill="#fe646f"/><path d="m299.443 397.673c6.471 2.453 11.103 8.726 11.103 16.029v58.676c0 9.423-7.71 17.132-17.132 17.132h-196.819c-7.303 0-13.576-4.632-16.029-11.103 1.878.712 3.91 1.103 6.029 1.103h196.819c9.423 0 17.132-7.709 17.132-17.132v-58.676c0-2.119-.391-4.151-1.103-6.029z" fill="#fd4755"/></g><g><path d="m158.133 234.399h210.661c2.538 0 4.723 1.062 6.291 3.058s2.083 4.37 1.482 6.836l-18.747 76.94c-.884 3.63-4.037 6.106-7.773 6.106h-210.661c-2.538 0-4.723-1.062-6.291-3.058s-2.083-4.37-1.482-6.836l18.747-76.94c.884-3.629 4.037-6.106 7.773-6.106z" fill="#ffe177"/><path d="m366.539 234.399h2.254c2.538 0 4.723 1.062 6.291 3.058s2.083 4.37 1.482 6.836l-18.747 76.94c-.884 3.63-4.037 6.106-7.773 6.106h-210.66c-2.538 0-4.723-1.062-6.291-3.058s-2.083-4.37-1.482-6.836l.026-.107h208.407c3.736 0 6.888-2.476 7.773-6.106z" fill="#ffd064"/></g><g><path d="m261.912 54.825h171.261c9.423 0 17.132 7.709 17.132 17.132v58.676c0 9.423-7.709 17.132-17.132 17.132h-171.261c-9.423 0-17.132-7.709-17.132-17.132v-58.676c0-9.422 7.709-17.132 17.132-17.132z" fill="#6cf5c2"/><path d="m439.202 55.928c6.471 2.453 11.103 8.726 11.103 16.029v58.676c0 9.423-7.709 17.132-17.132 17.132h-171.261c-7.304 0-13.576-4.632-16.029-11.103 1.878.712 3.91 1.103 6.029 1.103h171.261c9.423 0 17.132-7.709 17.132-17.132v-58.676c-.001-2.119-.392-4.151-1.103-6.029z" fill="#00e499"/></g><g><path d="m123.256 35.162c6.337 1.62 12.319 4.13 17.806 7.384l22.288-16.137 17.834 17.834-16.137 22.288c3.254 5.487 5.761 11.469 7.383 17.805l27.163 4.348v25.221l-27.162 4.348c-1.62 6.337-4.13 12.319-7.384 17.806l16.137 22.288-17.834 17.834-22.288-16.137c-5.487 3.254-11.469 5.761-17.806 7.383l-4.348 27.163h-25.221l-4.348-27.162c-6.337-1.62-12.319-4.13-17.806-7.384l-22.288 16.137-17.834-17.834 16.137-22.288c-3.254-5.487-5.761-11.469-7.383-17.805l-27.163-4.348v-25.221l27.163-4.348c1.62-6.337 4.128-12.318 7.382-17.805l-16.136-22.289 17.834-17.834 22.287 16.136c5.487-3.254 11.469-5.763 17.807-7.383l4.348-27.162h25.221z" fill="#ffe177"/><path d="m164.267 118.254c-1.62 6.337-4.129 12.319-7.384 17.806l16.137 22.288-14.405 14.405 4.736 3.429 17.834-17.834-16.137-22.288c3.254-5.487 5.763-11.469 7.384-17.806l27.162-4.348v-25.221l-27.163-4.348c-1.621-6.336-4.129-12.318-7.383-17.805l16.137-22.288-17.835-17.835-4.736 3.429 14.405 14.405-16.137 22.288c3.254 5.487 5.761 11.469 7.383 17.805l27.163 4.348v25.221z" fill="#ffd064"/><ellipse cx="106.298" cy="101.295" fill="#eceff1" rx="37.266" ry="37.266" transform="matrix(.447 -.894 .894 .447 -31.841 151.07)"/><path d="m77.195 101.295c0 19.202 14.523 35.012 33.184 37.045-1.341.146-2.703.221-4.082.221-20.581 0-37.266-16.685-37.266-37.266 0-5.861 1.353-11.405 3.763-16.339 6.055-12.392 18.782-20.927 33.503-20.927 1.38 0 2.741.075 4.082.221-14.711 1.603-26.85 11.767-31.33 25.405-1.203 3.662-1.854 7.575-1.854 11.64z" fill="#d1d1d6"/></g></g><path d="m106.279 130.565c-16.132 0-29.246-13.128-29.246-29.27 0-16.137 13.114-29.265 29.246-29.265 16.18 0 29.293 13.128 29.293 29.265 0 16.142-13.113 29.27-29.293 29.27zm0-74.535c-24.954 0-45.237 20.307-45.237 45.265 0 24.963 20.284 45.27 45.237 45.27 25.001 0 45.284-20.307 45.284-45.27 0-24.958-20.283-45.265-45.284-45.265zm318.782 45.265c0 4.42-3.632 8.005-8.019 8.005h-44.718c-4.434 0-7.972-3.585-7.972-8.005 0-4.415 3.538-8 7.972-8h44.718c4.387 0 8.019 3.585 8.019 8zm-71.936 0c0 4.42-3.585 8.005-8.019 8.005h-67.077c-4.387 0-7.972-3.585-7.972-8.005 0-4.415 3.585-8 7.972-8h67.077c4.434 0 8.019 3.585 8.019 8zm-152.834 341.745c0 4.42-3.585 8-8.019 8h-75.379c-4.434 0-8.019-3.58-8.019-8s3.585-8 8.019-8h75.379c4.434 0 8.019 3.581 8.019 8zm80.851 0c0 4.42-3.585 8-8.019 8h-50.237c-4.434 0-8.019-3.58-8.019-8s3.585-8 8.019-8h50.237c4.434 0 8.019 3.581 8.019 8zm-113.163-162.169c0-4.42 3.538-8 7.972-8h50.284c4.387 0 7.972 3.58 7.972 8s-3.585 8-7.972 8h-50.284c-4.434 0-7.972-3.58-7.972-8zm80.851 0c0-4.42 3.585-8 7.972-8h75.427c4.387 0 8.019 3.58 8.019 8s-3.632 8-8.019 8h-75.427c-4.387 0-7.972-3.58-7.972-8zm221.138 148.509-30.237 37.383c-1.415 1.764-3.538 2.84-5.802 2.958-.142.01-.283.014-.425.014-2.123 0-4.151-.84-5.66-2.344l-21.18-21.194c-3.113-3.123-3.113-8.189 0-11.312s8.208-3.123 11.321 0l14.906 14.906 24.623-30.472c2.783-3.434 7.83-3.967 11.274-1.189 3.445 2.778 3.963 7.816 1.18 11.25zm21.039 62.001v-96.682c0-2.5-2.123-4.618-4.623-4.618h-96.701c-2.5 0-4.623 2.118-4.623 4.618v96.682c0 2.505 2.123 4.618 4.623 4.618h96.701c2.5.001 4.623-2.113 4.623-4.618zm-188.449-19v-58.676c0-5.038-4.104-9.132-9.151-9.132h-196.798c-5.047 0-9.151 4.094-9.151 9.132v58.676c0 5.033 4.104 9.132 9.151 9.132h196.798c5.047 0 9.151-4.099 9.151-9.132zm-144.438-229.978-18.727 76.941h210.666l18.727-76.941zm284.206-111.767v-58.677c0-5.038-4.104-9.132-9.151-9.132h-171.279c-5 0-9.104 4.094-9.104 9.132v58.676c0 5.033 4.104 9.132 9.104 9.132h171.278c5.048.001 9.152-4.098 9.152-9.131zm-250.714-23.548v-11.58l-20.425-3.269c-3.161-.505-5.708-2.83-6.51-5.92-1.415-5.509-3.585-10.798-6.51-15.703-1.651-2.745-1.462-6.189.424-8.774l12.123-16.765-8.208-8.184-16.745 12.137c-2.594 1.868-6.038 2.024-8.774.396-4.906-2.911-10.189-5.104-15.708-6.51-3.113-.792-5.425-3.34-5.944-6.486l-3.255-20.43h-11.557l-3.302 20.43c-.472 3.146-2.83 5.694-5.896 6.486-5.519 1.406-10.802 3.599-15.708 6.51-2.736 1.627-6.179 1.472-8.774-.401l-16.745-12.132-8.208 8.184 12.123 16.765c1.887 2.58 2.028 6.028.425 8.769-2.924 4.915-5.094 10.199-6.509 15.708-.802 3.09-3.349 5.415-6.51 5.92l-20.425 3.269v11.58l20.425 3.269c3.161.505 5.708 2.826 6.51 5.915 1.415 5.514 3.585 10.802 6.509 15.708 1.604 2.741 1.462 6.189-.425 8.774l-12.123 16.76 8.208 8.189 16.746-12.137c2.594-1.868 6.038-2.024 8.774-.401 4.906 2.915 10.189 5.104 15.708 6.514 3.066.793 5.425 3.34 5.896 6.486l3.302 20.43h11.557l3.255-20.43c.519-3.146 2.83-5.693 5.944-6.486 5.519-1.411 10.802-3.604 15.708-6.514 2.736-1.627 6.18-1.467 8.774.401l16.746 12.137 8.208-8.189-12.123-16.76c-1.887-2.585-2.076-6.033-.424-8.774 2.924-4.91 5.094-10.198 6.51-15.708.802-3.085 3.349-5.41 6.51-5.915zm294.772 266.993h-96.701c-11.368 0-20.614 9.25-20.614 20.618v40.341h-50.52v-21.336c0-13.859-11.274-25.132-25.142-25.132h-196.798c-13.868 0-25.142 11.274-25.142 25.132v21.336h-27.878c-12.453 0-22.595-10.132-22.595-22.59v-80.597c0-23.703 19.293-42.982 42.973-42.982h66.369l-8.915 36.577c-.566 2.387 0 4.906 1.509 6.835 1.51 1.929 3.821 3.057 6.274 3.057h227.129c3.679 0 6.887-2.519 7.783-6.104l9.812-40.365h70.285c32.501 0 58.964-26.458 58.964-58.983v-98.003c0-21.279-17.312-38.591-38.586-38.591h-6.274v-21.335c0-13.859-11.274-25.133-25.142-25.133h-171.279c-13.821 0-25.095 11.274-25.095 25.133v21.336h-29.199v-4.609c0-3.929-2.878-7.279-6.746-7.901l-22.17-3.547c-1.179-3.463-2.547-6.84-4.198-10.104l13.161-18.199c2.312-3.184 1.981-7.571-.802-10.349l-17.831-17.835c-2.783-2.779-7.17-3.123-10.378-.821l-18.161 13.175c-3.302-1.637-6.651-3.038-10.142-4.189l-3.538-22.18c-.612-3.882-3.961-6.736-7.876-6.736h-25.237c-3.915 0-7.264 2.859-7.877 6.736l-3.585 22.18c-3.444 1.151-6.84 2.552-10.095 4.189l-18.208-13.175c-3.161-2.302-7.548-1.953-10.331.821l-17.83 17.835c-2.783 2.778-3.113 7.165-.849 10.349l13.208 18.199c-1.651 3.264-3.066 6.641-4.198 10.104l-22.17 3.547c-3.868.622-6.746 3.972-6.746 7.901v25.222c0 3.929 2.877 7.279 6.746 7.901l22.17 3.547c1.132 3.462 2.547 6.835 4.198 10.104l-13.208 18.2c-2.264 3.179-1.934 7.566.849 10.345l17.831 17.835c2.783 2.783 7.17 3.127 10.331.825l18.208-13.175c3.255 1.637 6.651 3.038 10.095 4.189l3.585 22.18c.613 3.878 3.962 6.731 7.877 6.731h25.237c3.915 0 7.264-2.854 7.878-6.731l3.538-22.185c3.491-1.151 6.84-2.547 10.142-4.189l18.161 13.18c3.208 2.302 7.595 1.958 10.378-.825l17.831-17.835c2.783-2.779 3.113-7.165.802-10.345l-13.161-18.199c1.651-3.269 3.019-6.642 4.198-10.104l22.17-3.547c3.868-.623 6.746-3.972 6.746-7.901v-4.609h29.199v21.336c0 13.859 11.274 25.133 25.095 25.133h171.278c13.868 0 25.142-11.274 25.142-25.133v-21.336h6.274c12.453 0 22.595 10.132 22.595 22.586v98.003c0 23.704-19.293 42.982-42.973 42.982h-66.37l8.916-36.576c.566-2.382.047-4.906-1.51-6.835-1.509-1.929-3.821-3.057-6.274-3.057h-227.131c-3.679 0-6.887 2.524-7.783 6.104l-9.812 40.364h-70.284c-32.501 0-58.964 26.458-58.964 58.983v80.597c0 21.279 17.312 38.591 38.586 38.591h27.878v21.34c0 13.859 11.274 25.133 25.142 25.133h196.798c13.868 0 25.142-11.274 25.142-25.133v-21.34h50.52v40.341c0 11.368 9.245 20.619 20.614 20.619h96.701c11.368 0 20.613-9.25 20.613-20.619v-96.682c0-11.37-9.245-20.62-20.613-20.62z"/></g></svg>