<svg height="20" viewBox="0 0 46 60" width="20" xmlns="http://www.w3.org/2000/svg"><g id="010---Java-Script-File" fill="none"><path id="Path" d="m45 40v17c-.0032948 1.1032019-.8967981 1.9967052-2 2h-40c-1.10320187-.0032948-1.9967052-.8967981-2-2v-17l1-1h42z" fill="#fccd3a"/><path id="Path" d="m45 11.83v28.17h-44v-37c.0032948-1.10320187.89679813-1.9967052 2-2h31.17c.5329123.00024132 1.0438267.21252266 1.42.59l8.82 8.82c.3774773.3761733.5897587.8870877.59 1.42z" fill="#cfd2da"/><path id="Path" d="m44.82 11h-7.82c-1.1032019-.0032948-1.9967052-.8967981-2-2v-7.82c.2196188.10025599.4194552.23912533.59.41l8.82 8.82c.1708747.1705448.309744.3703812.41.59z" fill="#bdc2cc"/><g fill="#373737"><path id="Shape" d="m3 60h40c1.6568542 0 3-1.3431458 3-3v-45.171c.0025349-.7964142-.3140402-1.5606602-.879-2.122l-8.828-8.828c-.5610959-.56471277-1.3249322-.8812673-2.121-.879h-31.172c-1.65685425 0-3 1.34314575-3 3v32.72c0 .5522847.44771525 1 1 1s1-.4477153 1-1v-32.72c0-.55228475.44771525-1 1-1h31v7c0 1.6568542 1.3431458 3 3 3h7v27h-43c-.55228475 0-1 .4477153-1 1v17c0 1.6568542 1.34314575 3 3 3zm33-51v-5.586l6.586 6.586h-5.586c-.5522847 0-1-.44771525-1-1zm8 48c0 .5522847-.4477153 1-1 1h-40c-.55228475 0-1-.4477153-1-1v-16h42z"/><path id="Path" d="m8.5 53c-.27614237 0-.5-.2238576-.5-.5 0-.5522847-.44771525-1-1-1s-1 .4477153-1 1c0 1.3807119 1.11928813 2.5 2.5 2.5s2.5-1.1192881 2.5-2.5v-6.5h2c.5522847 0 1-.4477153 1-1s-.4477153-1-1-1h-6c-.55228475 0-1 .4477153-1 1s.44771525 1 1 1h2v6.5c0 .2761424-.22385763.5-.5.5z"/><path id="Shape" d="m13.594 54.914c.242404.1077098.5176707.1146977.7652275.0194258s.4471189-.2849968.5547725-.5274258l1.069-2.406h4.034l1.069 2.406c.1604876.3612446.5187103.5940502.914.594.1378766-.0004134.274137-.0297094.4-.086.242429-.1076536.4321539-.3072157.5274258-.5547725s.088284-.5228235-.0194258-.7652275l-4-9c-.160402-.3613564-.5186429-.5942858-.914-.5942858s-.753598.2329294-.914.5942858l-4 9c-.1073375.24315-.1134612.5190279-.0170187.7667012.0964425.2476734.2875161.4467638.5310187.5532988zm4.406-7.452 1.128 2.538h-2.256z"/><path id="Path" d="m26.086 54.406c.160402.3613564.5186429.5942858.914.5942858s.753598-.2329294.914-.5942858l4-9c.1450498-.3265408.104874-.70566-.1053937-.9945472-.2102676-.2888873-.5586825-.4436536-.914-.4060001-.3553175.0376536-.6635565.2620065-.8086063.5885473l-3.086 6.944-3.086-6.944c-.1450498-.3265407-.4532888-.5508937-.8086063-.5885472-.3553175-.0376536-.7037323.1171128-.914.406s-.2504435.6680065-.1053937.9945472z"/><path id="Shape" d="m31.594 54.914c.242404.1077098.5176707.1146977.7652275.0194258s.4471189-.2849968.5547725-.5274258l1.069-2.406h4.034l1.069 2.406c.1604876.3612446.5187103.5940502.914.594.1395619.0002893.2775985-.0290222.405-.086.242429-.1076536.4321539-.3072157.5274258-.5547725s.088284-.5228235-.0194258-.7652275l-4-9c-.160402-.3613564-.5186429-.5942858-.914-.5942858s-.753598.2329294-.914.5942858l-4 9c-.1076473.2425282-.114491.5178964-.0190241.7654726.0954668.2475761.2854163.4470597.5280241.5545274zm4.406-7.452 1.128 2.538h-2.256z"/><path id="Path" d="m6 8h1c.55228475 0 1-.44771525 1-1s-.44771525-1-1-1h-1c-.55228475 0-1 .44771525-1 1s.44771525 1 1 1z"/><path id="Path" d="m6 12h1c.55228475 0 1-.4477153 1-1s-.44771525-1-1-1h-1c-.55228475 0-1 .4477153-1 1s.44771525 1 1 1z"/><path id="Path" d="m6 16h1c.55228475 0 1-.4477153 1-1s-.44771525-1-1-1h-1c-.55228475 0-1 .4477153-1 1s.44771525 1 1 1z"/><path id="Path" d="m6 20h1c.55228475 0 1-.4477153 1-1s-.44771525-1-1-1h-1c-.55228475 0-1 .4477153-1 1s.44771525 1 1 1z"/><path id="Path" d="m6 24h1c.55228475 0 1-.4477153 1-1s-.44771525-1-1-1h-1c-.55228475 0-1 .4477153-1 1s.44771525 1 1 1z"/><path id="Path" d="m6 28h1c.55228475 0 1-.4477153 1-1s-.44771525-1-1-1h-1c-.55228475 0-1 .4477153-1 1s.44771525 1 1 1z"/><path id="Path" d="m6 32h1c.55228475 0 1-.4477153 1-1s-.44771525-1-1-1h-1c-.55228475 0-1 .4477153-1 1s.44771525 1 1 1z"/><path id="Path" d="m6 36h1c.55228475 0 1-.4477153 1-1s-.44771525-1-1-1h-1c-.55228475 0-1 .4477153-1 1s.44771525 1 1 1z"/><path id="Path" d="m26 6h-15c-.5522847 0-1 .44771525-1 1s.4477153 1 1 1h15c.5522847 0 1-.44771525 1-1s-.4477153-1-1-1z"/><path id="Path" d="m11 20h15c.5522847 0 1-.4477153 1-1s-.4477153-1-1-1h-15c-.5522847 0-1 .4477153-1 1s.4477153 1 1 1z"/><path id="Path" d="m41 19c0-.5522847-.4477153-1-1-1h-10c-.5522847 0-1 .4477153-1 1s.4477153 1 1 1h10c.5522847 0 1-.4477153 1-1z"/><path id="Path" d="m11 12h9c.5522847 0 1-.4477153 1-1s-.4477153-1-1-1h-9c-.5522847 0-1 .4477153-1 1s.4477153 1 1 1z"/><path id="Path" d="m11 16h3c.5522847 0 1-.4477153 1-1s-.4477153-1-1-1h-3c-.5522847 0-1 .4477153-1 1s.4477153 1 1 1z"/><path id="Path" d="m18 14c-.5522847 0-1 .4477153-1 1s.4477153 1 1 1h3c.5522847 0 1-.4477153 1-1s-.4477153-1-1-1z"/><path id="Path" d="m33 22c-.5522847 0-1 .4477153-1 1s.4477153 1 1 1h3c.5522847 0 1-.4477153 1-1s-.4477153-1-1-1z"/><path id="Path" d="m29 10h-5c-.5522847 0-1 .4477153-1 1s.4477153 1 1 1h5c.5522847 0 1-.4477153 1-1s-.4477153-1-1-1z"/><path id="Path" d="m11 24h9c.5522847 0 1-.4477153 1-1s-.4477153-1-1-1h-9c-.5522847 0-1 .4477153-1 1s.4477153 1 1 1z"/><path id="Path" d="m29 22h-5c-.5522847 0-1 .4477153-1 1s.4477153 1 1 1h5c.5522847 0 1-.4477153 1-1s-.4477153-1-1-1z"/><path id="Path" d="m11 28h15c.5522847 0 1-.4477153 1-1s-.4477153-1-1-1h-15c-.5522847 0-1 .4477153-1 1s.4477153 1 1 1z"/><path id="Path" d="m11 32h9c.5522847 0 1-.4477153 1-1s-.4477153-1-1-1h-9c-.5522847 0-1 .4477153-1 1s.4477153 1 1 1z"/><path id="Path" d="m11 36h3c.5522847 0 1-.4477153 1-1s-.4477153-1-1-1h-3c-.5522847 0-1 .4477153-1 1s.4477153 1 1 1z"/><path id="Path" d="m18 34c-.5522847 0-1 .4477153-1 1s.4477153 1 1 1h3c.5522847 0 1-.4477153 1-1s-.4477153-1-1-1z"/><path id="Path" d="m23 31c0 .5522847.4477153 1 1 1h7c.5522847 0 1-.4477153 1-1s-.4477153-1-1-1h-7c-.5522847 0-1 .4477153-1 1z"/></g></g></svg>