<svg id="Capa_1" enable-background="new 0 0 512 512" height="20" viewBox="0 0 512 512" width="20" xmlns="http://www.w3.org/2000/svg"><g><path d="m118.736 304.549c0-14.173 53.774-22.125 78.815-24.057l2.395 1.383c-9.619 1.752-48.217 8.558-48.217 17.439 0 9.666 59.199 16 93.556 16 58.356 0 98.025-8.833 108.694-11.739l14.93 8.682c-10.225 5.008-54.106 18.12-123.624 18.12-77.253-.001-126.549-15.111-126.549-25.828m117.744 199.003c-30.579.265-67.909-2.263-99.312-7.536l-2.916 1.666c31.289 9.174 74.848 14.712 122.706 14.296 93.991-.814 170.194-24.123 171.699-52.174l-1.079-.634c-6.305 7.687-46.958 43.123-191.098 44.382m8-18.063c76.931-.672 162.999-15.725 162.781-41.031-.047-4.592-3.03-7.735-5.624-9.628l-1.269.729c-7.11 19.597-67.208 34.082-156.012 34.849-57.296.502-136.67-13.226-136.812-29.084-.133-15.905 37.604-24.643 37.604-24.643l-2.67-1.524c-25.287 3.484-71.885 15.593-71.734 33.079.22 25.276 107.314 37.83 173.736 37.253m173.309-174.17c-1.552 29.68-28.97 48.16-56.378 63.772l2.481 1.439c29.245-8.236 81.428-32.189 77.111-69.017-2.149-18.357-18.935-31.479-40.814-31.479-6.816 0-12.875 1.202-17.789 2.698l-.019.047-1.042 2.613c19.579-3.834 37.463 10.462 36.45 29.927m-225.975 88.187c-8.928 1.78-28.383 6.249-28.383 15.706 0 13.103 41.618 23.148 81.807 23.148 55.299 0 77.954-14.229 78.976-14.968l-22.996-13.302c-9.78 2.329-26.253 5.983-55.923 5.983-33.107 0-54.683-5.661-54.683-11.872 0-1.316.824-2.887 2.357-4.023zm135.846-44.174c-12.715 3.598-41.363 9.467-82.328 9.467-40.198 0-73.04-6.873-73.145-14.977-.076-5.397 6.447-7.744 6.447-7.744l-1.155-.672c-19.256 3.399-37.131 8.663-37.036 16.539.18 14.286 54.825 25.013 104.813 25.013 42.499 0 83.312-7.129 101.726-16.473z" fill="#427595"/><path d="m316.697 36.62c0 78.778-107.956 108.921-107.956 164.93 0 39.318 26.073 63.971 40.501 79.563l-1.174.682c-18.215-11.399-66.129-40.028-66.129-87.317 0-66.394 124.003-98.119 124.003-173.526 0-9.278-1.373-16.397-2.338-20.232l1.25-.72c3.928 4.933 11.843 17.278 11.843 36.62m35.503 69.764-1.297-.738c-23.488 7.867-95.819 36.42-95.819 89.646 0 30.096 29.396 46.778 29.396 75 0 10.073-5.69 19.512-10.31 25.154l2.319 1.344c12.241-7.952 33.902-25.173 33.902-47.402 0-18.83-26.054-41.457-26.054-65.656.001-38.134 50.272-68.051 67.863-77.348" fill="#de8e2f"/></g></svg>