<svg id="Layer_1" enable-background="new 0 0 256 256" height="20" viewBox="0 0 256 256" width="20" xmlns="http://www.w3.org/2000/svg"><g id="Layer_18"><g><path d="m6.3 28h82.4c2.1 0 3.8 1.7 3.8 3.8v119.4c0 2.1-1.7 3.8-3.8 3.8h-82.4c-2.1 0-3.8-1.7-3.8-3.8v-119.4c0-2.1 1.7-3.8 3.8-3.8z" fill="#edf4fc"/><path d="m167.3 101h82.4c2.1 0 3.8 1.7 3.8 3.8v119.4c0 2.1-1.7 3.8-3.8 3.8h-82.4c-2.1 0-3.8-1.7-3.8-3.8v-119.4c0-2.1 1.7-3.8 3.8-3.8z" fill="#edf4fc"/><path d="m249.7 101h-82.4c-2.1 0-3.8 1.7-3.8 3.8v22.2h90v-22.2c0-2.1-1.7-3.8-3.8-3.8z" fill="#ef4460"/><path d="m88.7 28h-82.4c-2.1 0-3.8 1.7-3.8 3.8v22.2h90v-22.2c0-2.1-1.7-3.8-3.8-3.8z" fill="#3caadc"/><path d="m79.7 175.2h-2.1v-2.1c0-1.5-1.3-2.8-2.8-2.8s-2.8 1.3-2.8 2.8v2.1h-2.1c-1.5 0-2.8 1.3-2.8 2.8s1.3 2.8 2.8 2.8h2.1v2.1c0 1.5 1.3 2.8 2.8 2.8s2.8-1.3 2.8-2.8v-2.1h2.1c1.5 0 2.8-1.3 2.8-2.8s-1.3-2.8-2.8-2.8z" fill="#70d6f9"/><path d="m144.3 36.2c-4-.7-7.1-3.8-7.9-7.7 0-.1-.1-.2-.2-.1-.1 0-.1.1-.1.1-.8 4-3.9 7-7.9 7.7-.1 0-.2.1-.1.2 0 .1.1.1.1.1 4 .7 7.1 3.8 7.9 7.7 0 .1.1.2.2.1.1 0 .1-.1.1-.1.8-4 3.9-7 7.9-7.7.1 0 .2-.1.1-.2 0 0 0 0-.1-.1z" fill="#f5c84c"/><circle cx="93" cy="205" fill="#5290db" r="3"/><circle cx="212" cy="87" fill="#ef4460" r="3"/><circle cx="19" cy="170" fill="#f5c84c" r="3"/><circle cx="116" cy="54" fill="#b2e26d" r="3"/><path d="m19.5 71.5h20c1.4 0 2.5-1.1 2.5-2.5s-1.1-2.5-2.5-2.5h-20c-1.4 0-2.5 1.1-2.5 2.5s1.1 2.5 2.5 2.5z"/><path d="m19.5 80.5h55c1.4 0 2.5-1.1 2.5-2.5s-1.1-2.5-2.5-2.5h-55c-1.4 0-2.5 1.1-2.5 2.5s1.1 2.5 2.5 2.5z"/><path d="m19.5 89.5h20c1.4 0 2.5-1.1 2.5-2.5s-1.1-2.5-2.5-2.5h-20c-1.4 0-2.5 1.1-2.5 2.5s1.1 2.5 2.5 2.5z"/><path d="m19.5 98.5h55c1.4 0 2.5-1.1 2.5-2.5s-1.1-2.5-2.5-2.5h-55c-1.4 0-2.5 1.1-2.5 2.5s1.1 2.5 2.5 2.5z"/><path d="m19.5 107.5h20c1.4 0 2.5-1.1 2.5-2.5s-1.1-2.5-2.5-2.5h-20c-1.4 0-2.5 1.1-2.5 2.5s1.1 2.5 2.5 2.5z"/><path d="m19.5 116.5h55c1.4 0 2.5-1.1 2.5-2.5s-1.1-2.5-2.5-2.5h-55c-1.4 0-2.5 1.1-2.5 2.5s1.1 2.5 2.5 2.5z"/><path d="m19.5 125.5h20c1.4 0 2.5-1.1 2.5-2.5s-1.1-2.5-2.5-2.5h-20c-1.4 0-2.5 1.1-2.5 2.5s1.1 2.5 2.5 2.5z"/><path d="m19.5 134.5h55c1.4 0 2.5-1.1 2.5-2.5s-1.1-2.5-2.5-2.5h-55c-1.4 0-2.5 1.1-2.5 2.5s1.1 2.5 2.5 2.5z"/><path d="m180.5 144.5h20c1.4 0 2.5-1.1 2.5-2.5s-1.1-2.5-2.5-2.5h-20c-1.4 0-2.5 1.1-2.5 2.5s1.1 2.5 2.5 2.5z"/><path d="m39.5 38.5h-20c-1.4 0-2.5 1.1-2.5 2.5s1.1 2.5 2.5 2.5h20c1.4 0 2.5-1.1 2.5-2.5s-1.1-2.5-2.5-2.5z"/><path d="m200.5 111.5h-20c-1.4 0-2.5 1.1-2.5 2.5s1.1 2.5 2.5 2.5h20c1.4 0 2.5-1.1 2.5-2.5s-1.1-2.5-2.5-2.5z"/><path d="m180.5 153.5h55c1.4 0 2.5-1.1 2.5-2.5s-1.1-2.5-2.5-2.5h-55c-1.4 0-2.5 1.1-2.5 2.5s1.1 2.5 2.5 2.5z"/><path d="m180.5 162.5h20c1.4 0 2.5-1.1 2.5-2.5s-1.1-2.5-2.5-2.5h-20c-1.4 0-2.5 1.1-2.5 2.5s1.1 2.5 2.5 2.5z"/><path d="m180.5 171.5h55c1.4 0 2.5-1.1 2.5-2.5s-1.1-2.5-2.5-2.5h-55c-1.4 0-2.5 1.1-2.5 2.5s1.1 2.5 2.5 2.5z"/><path d="m180.5 180.5h20c1.4 0 2.5-1.1 2.5-2.5s-1.1-2.5-2.5-2.5h-20c-1.4 0-2.5 1.1-2.5 2.5s1.1 2.5 2.5 2.5z"/><path d="m180.5 189.5h55c1.4 0 2.5-1.1 2.5-2.5s-1.1-2.5-2.5-2.5h-55c-1.4 0-2.5 1.1-2.5 2.5s1.1 2.5 2.5 2.5z"/><path d="m180.5 198.5h20c1.4 0 2.5-1.1 2.5-2.5s-1.1-2.5-2.5-2.5h-20c-1.4 0-2.5 1.1-2.5 2.5s1.1 2.5 2.5 2.5z"/><path d="m180.5 207.5h55c1.4 0 2.5-1.1 2.5-2.5s-1.1-2.5-2.5-2.5h-55c-1.4 0-2.5 1.1-2.5 2.5s1.1 2.5 2.5 2.5z"/><path d="m249.7 98.5h-82.4c-3.5 0-6.3 2.8-6.3 6.3v33.9h-6.4l-11.6-70.4c-.2-1.2-1.2-2.1-2.5-2.1h-45.5v-34.4c0-3.5-2.8-6.3-6.3-6.3h-82.4c-3.5 0-6.3 2.8-6.3 6.3v119.4c0 3.5 2.8 6.3 6.3 6.3h82.4c3.5 0 6.3-2.8 6.3-6.3v-25.6h6.4l11.6 70.4c.2 1.2 1.2 2.1 2.5 2.1h45.5v26.1c0 3.5 2.8 6.3 6.3 6.3h82.4c3.5 0 6.3-2.8 6.3-6.3v-119.4c0-3.5-2.8-6.3-6.3-6.3zm-159.7 52.7c0 .7-.6 1.3-1.3 1.3h-82.4c-.7 0-1.3-.6-1.3-1.3v-94.7h85zm0-99.7h-85v-19.7c0-.7.6-1.3 1.3-1.3h82.4c.7 0 1.3.6 1.3 1.3zm71 141.6h-43.4l-11.6-70.4c-.2-1.2-1.2-2.1-2.5-2.1h-8.5v-13.1h18.7l11.7 70.4c.2 1.2 1.2 2.1 2.5 2.1h33.1zm0-18.1h-31l-11.7-70.4c-.2-1.2-1.2-2.1-2.5-2.1h-20.8v-13.2h31l11.7 70.4c.2 1.2 1.2 2.1 2.5 2.1h20.8zm0-18.2h-18.7l-11.7-70.4c-.2-1.2-1.2-2.1-2.5-2.1h-33.1v-13.1h43.4l11.7 70.4c.2 1.2 1.2 2.1 2.5 2.1h8.5v13.1zm90 67.4c0 .7-.6 1.3-1.3 1.3h-82.4c-.7 0-1.3-.6-1.3-1.3v-94.7h85zm0-99.7h-85v-19.7c0-.7.6-1.3 1.3-1.3h82.4c.7 0 1.3.6 1.3 1.3z"/></g></g></svg>