<?xml version="1.0" encoding="UTF-8" standalone="no"?>
<!-- Created with Inkscape (http://www.inkscape.org/) -->

<svg
   version="1.1"
   id="svg2565"
   xml:space="preserve"
   width="20"
   height="20"
   viewBox="0 0 682.66669 682.66669"
   xmlns="http://www.w3.org/2000/svg"
   xmlns:svg="http://www.w3.org/2000/svg"><defs
     id="defs2569"><clipPath
       clipPathUnits="userSpaceOnUse"
       id="clipPath2579"><path
         d="M 0,512 H 512 V 0 H 0 Z"
         id="path2577" /></clipPath></defs><g
     id="g2571"
     transform="matrix(1.3333333,0,0,-1.3333333,0,682.66667)"><g
       id="g2573"><g
         id="g2575"
         clip-path="url(#clipPath2579)"><g
           id="g2581"
           transform="translate(430.7622,504.4165)"><path
             d="m 0,0 h -275.827 c -4.762,0 -8.617,-3.855 -8.617,-8.617 v -26.305 -389.87 L 42.66,-452.883 h 22.449 c 4.734,0 8.617,3.883 8.617,8.617 V -77.413 L 23.3,-48.981 Z"
             style="fill:#f9f7f8;fill-opacity:1;fill-rule:evenodd;stroke:none"
             id="path2583" /></g><g
           id="g2585"
           transform="translate(413.2734,79.7075)"><path
             d="m 0,0 h -38.266 l -21.882,-33.708 21.882,-38.489 H 0 l 16.727,36.103 z"
             style="fill:#a1d4ff;fill-opacity:1;fill-rule:evenodd;stroke:none"
             id="path2587" /></g><g
           id="g2589"
           transform="translate(146.3184,79.7075)"><path
             d="m 0,0 v 389.87 h -41.469 c -4.734,0 -8.617,-3.883 -8.617,-8.617 V 157.15 -3.798 l 1.36,0.453 c 5.046,1.928 6.831,2.749 8.816,3.09 1.842,0.34 3.883,0.255 8.957,0.255 z"
             style="fill:#a1d4ff;fill-opacity:1;fill-rule:evenodd;stroke:none"
             id="path2591" /></g><g
           id="g2593"
           transform="translate(375.0073,79.7075)"><path
             d="m 0,0 h -228.689 -30.953 c -5.074,0 -7.115,0.085 -8.957,-0.255 l -16.408,-35.844 16.408,-35.843 c 0.85,-0.17 1.786,-0.227 3.033,-0.255 h 5.215 0.709 H 0 Z"
             style="fill:#ffe07d;fill-opacity:1;fill-rule:evenodd;stroke:none"
             id="path2595" /></g><g
           id="g2597"
           transform="translate(504.4883,427.0869)"><path
             d="M 0,0 -73.726,77.413 V 8.617 C -73.726,3.884 -69.843,0 -65.109,0 Z"
             style="fill:#a1d4ff;fill-opacity:1;fill-rule:evenodd;stroke:none"
             id="path2599" /></g><path
           d="m 146.318,79.107 h -25.043 v 390.471 h 25.043 z"
           style="fill:#80b4fb;fill-opacity:1;fill-rule:nonzero;stroke:none"
           id="path2601" /><g
           id="g2603"
           transform="translate(106.3799,43.5947)"><path
             d="m 0,0 0.028,35.857 c -1.984,-0.34 -3.77,-1.162 -8.815,-3.089 L -10.147,32.314 -49.576,19.02 -60.38,0.019 -49.576,-18.992 -8.787,-32.74 c 5.045,-1.927 6.831,-2.749 8.815,-3.09 z"
             style="fill:#ffe5c1;fill-opacity:1;fill-rule:evenodd;stroke:none"
             id="path2605" /></g><g
           id="g2607"
           transform="translate(56.8042,62.6147)"><path
             d="m 0,0 -44.956,-15.193 c -2.862,-1.078 -4.336,-2.438 -4.336,-3.799 v -0.056 c 0,-1.333 1.474,-2.693 4.336,-3.77 L 0,-38.012 Z"
             style="fill:#375e7d;fill-opacity:1;fill-rule:evenodd;stroke:none"
             id="path2609" /></g><g
           id="g2611"
           transform="translate(473.4219,22.1934)"><path
             d="m 0,0 v 21.401 8.022 13.408 c 0,8.078 -6.604,14.683 -14.683,14.683 h -45.465 v -72.197 h 45.465 C -6.604,-14.683 0,-8.079 0,0"
             style="fill:#eb5468;fill-opacity:1;fill-rule:evenodd;stroke:none"
             id="path2613" /></g><g
           id="g2615"
           transform="translate(504.4883,427.0039)"><path
             d="m 0,0 h -65.109 c -4.734,0 -8.617,3.883 -8.617,8.617 v 68.796 h -66.384 c 112.729,-154.004 82.711,-373.969 63.38,-424.793 h 30.981 c 8.078,0 14.683,-6.604 14.683,-14.683 v -13.408 h 22.449 c 4.734,0 8.617,3.884 8.617,8.617 z"
             style="fill:#dddaec;fill-opacity:1;fill-rule:evenodd;stroke:none"
             id="path2617" /></g><g
           id="g2619"
           transform="translate(341.8047,350.3545)"><path
             d="m 0,0 h -44.587 c 0,0 23.611,42.774 27.495,47.564 3.94,4.819 7.681,1.815 8.022,-2.437 0.368,-4.28 -0.171,-66.075 -0.171,-66.075"
             style="fill:none;stroke:#000000;stroke-width:15;stroke-linecap:round;stroke-linejoin:round;stroke-miterlimit:10;stroke-dasharray:none;stroke-opacity:1"
             id="path2621" /></g><g
           id="g2623"
           transform="translate(194.438,397.4092)"><path
             d="m 0,0 h 27.466 l 27.24,-56.947 43.356,87.163 h 83.886"
             style="fill:none;stroke:#000000;stroke-width:15;stroke-linecap:round;stroke-linejoin:round;stroke-miterlimit:10;stroke-dasharray:none;stroke-opacity:1"
             id="path2625" /></g><g
           id="g2627"
           transform="translate(356.5156,284.4219)"><path
             d="M 0,0 19.218,-54.197"
             style="fill:none;stroke:#000000;stroke-width:15;stroke-linecap:round;stroke-linejoin:round;stroke-miterlimit:10;stroke-dasharray:none;stroke-opacity:1"
             id="path2629" /></g><g
           id="g2631"
           transform="translate(394.8667,284.4219)"><path
             d="M 0,0 -26.502,-76.676"
             style="fill:none;stroke:#000000;stroke-width:15;stroke-linecap:round;stroke-linejoin:round;stroke-miterlimit:10;stroke-dasharray:none;stroke-opacity:1"
             id="path2633" /></g><g
           id="g2635"
           transform="translate(274.9668,284.4219)"><path
             d="M 0,0 -38.635,-51.221"
             style="fill:none;stroke:#000000;stroke-width:15;stroke-linecap:round;stroke-linejoin:round;stroke-miterlimit:10;stroke-dasharray:none;stroke-opacity:1"
             id="path2637" /></g><g
           id="g2639"
           transform="translate(238.2881,284.4219)"><path
             d="M 0,0 39.542,-52.128"
             style="fill:none;stroke:#000000;stroke-width:15;stroke-linecap:round;stroke-linejoin:round;stroke-miterlimit:10;stroke-dasharray:none;stroke-opacity:1"
             id="path2641" /></g><g
           id="g2643"
           transform="translate(315.8403,279.7729)"><path
             d="M 0,0 V -40.591"
             style="fill:none;stroke:#000000;stroke-width:15;stroke-linecap:round;stroke-linejoin:round;stroke-miterlimit:10;stroke-dasharray:none;stroke-opacity:1"
             id="path2645" /></g><g
           id="g2647"
           transform="translate(335.9087,259.7324)"><path
             d="M 0,0 H -40.59"
             style="fill:none;stroke:#000000;stroke-width:15;stroke-linecap:round;stroke-linejoin:round;stroke-miterlimit:10;stroke-dasharray:none;stroke-opacity:1"
             id="path2649" /></g><g
           id="g2651"
           transform="translate(212.6924,214.3223)"><path
             d="M 0,0 C -24.32,24.321 -24.32,63.75 0,88.042"
             style="fill:none;stroke:#000000;stroke-width:15;stroke-linecap:round;stroke-linejoin:round;stroke-miterlimit:10;stroke-dasharray:none;stroke-opacity:1"
             id="path2653" /></g><g
           id="g2655"
           transform="translate(415.1338,214.3223)"><path
             d="M 0,0 C 24.32,24.321 24.32,63.75 0,88.042"
             style="fill:none;stroke:#000000;stroke-width:15;stroke-linecap:round;stroke-linejoin:round;stroke-miterlimit:10;stroke-dasharray:none;stroke-opacity:1"
             id="path2657" /></g><g
           id="g2659"
           transform="translate(259.1499,172.4268)"><path
             d="M 0,0 H -52.042"
             style="fill:none;stroke:#000000;stroke-width:15;stroke-linecap:round;stroke-linejoin:round;stroke-miterlimit:10;stroke-dasharray:none;stroke-opacity:1"
             id="path2661" /></g><g
           id="g2663"
           transform="translate(259.1499,140.1694)"><path
             d="M 0,0 H -52.042"
             style="fill:none;stroke:#000000;stroke-width:15;stroke-linecap:round;stroke-linejoin:round;stroke-miterlimit:10;stroke-dasharray:none;stroke-opacity:1"
             id="path2665" /></g><g
           id="g2667"
           transform="translate(504.4883,427.0869)"><path
             d="m 0,0 h -65.109 c -4.734,0 -8.617,3.884 -8.617,8.617 v 68.796"
             style="fill:none;stroke:#000000;stroke-width:15;stroke-linecap:round;stroke-linejoin:round;stroke-miterlimit:10;stroke-dasharray:none;stroke-opacity:1"
             id="path2669" /></g><g
           id="g2671"
           transform="translate(504.4883,427.0869)"><path
             d="m 0,0 h -65.109 c -4.734,0 -8.617,3.884 -8.617,8.617 v 68.796"
             style="fill:none;stroke:#000000;stroke-width:15;stroke-linecap:round;stroke-linejoin:round;stroke-miterlimit:10;stroke-dasharray:none;stroke-opacity:1"
             id="path2673" /></g><g
           id="g2675"
           transform="translate(146.3184,79.7075)"><path
             d="m 0,0 v 416.175 c 0,4.762 3.855,8.617 8.617,8.617 H 284.444 L 358.17,347.379 V -19.474 c 0,-4.734 -3.883,-8.617 -8.617,-8.617 h -22.449"
             style="fill:none;stroke:#000000;stroke-width:15;stroke-linecap:round;stroke-linejoin:round;stroke-miterlimit:10;stroke-dasharray:none;stroke-opacity:1"
             id="path2677" /></g><g
           id="g2679"
           transform="translate(96.2324,271.4678)"><path
             d="m 0,0 v 189.493 c 0,4.734 3.883,8.617 8.617,8.617 H 50.086 M 0,-195.559 V -34.61"
             style="fill:none;stroke:#000000;stroke-width:15;stroke-linecap:round;stroke-linejoin:round;stroke-miterlimit:10;stroke-dasharray:none;stroke-opacity:1"
             id="path2681" /></g><g
           id="g2683"
           transform="translate(375.0073,34.6372)"><path
             d="m 0,0 h -259.642 -0.709 -5.215 c -1.247,0.028 -2.183,0.085 -3.033,0.255 v -27.127 c 0.85,-0.17 1.786,-0.227 3.033,-0.255 h 5.215 0.709 H 0 Z"
             style="fill:#ffd064;fill-opacity:1;fill-rule:evenodd;stroke:none"
             id="path2685" /></g><path
           d="M 413.273,34.637 H 375.007 V 7.51 h 38.266 z"
           style="fill:#80b4fb;fill-opacity:1;fill-rule:evenodd;stroke:none"
           id="path2687" /><g
           id="g2689"
           transform="translate(473.4219,22.1934)"><path
             d="m 0,0 v 21.401 5.726 C 0,19.048 -6.604,12.444 -14.683,12.444 h -45.465 v -27.127 h 45.465 C -6.604,-14.683 0,-8.079 0,0"
             style="fill:#e5384f;fill-opacity:1;fill-rule:evenodd;stroke:none"
             id="path2691" /></g><g
           id="g2693"
           transform="translate(106.4082,7.7651)"><path
             d="m 0,0 v 27.127 c -1.984,0.34 -3.77,1.163 -8.815,3.09 L -49.604,43.965 V 16.837 L -8.815,3.09 C -3.77,1.162 -1.984,0.34 0,0"
             style="fill:#fed1a3;fill-opacity:1;fill-rule:evenodd;stroke:none"
             id="path2695" /></g><g
           id="g2697"
           transform="translate(56.8042,24.6025)"><path
             d="m 0,0 v 27.127 l -16.1,5.443 -28.856,-9.751 c -2.862,-1.077 -4.336,-2.438 -4.336,-3.798 v -0.057 c 0,-1.333 1.474,-2.693 4.336,-3.77 z"
             style="fill:#2b4d66;fill-opacity:1;fill-rule:evenodd;stroke:none"
             id="path2699" /></g><g
           id="g2701"
           transform="translate(324.7515,79.7075)"><path
             d="m 0,0 h 133.988 c 8.078,0 14.682,-6.605 14.682,-14.684 v -21.429 -21.401 c 0,-8.079 -6.604,-14.683 -14.682,-14.683 h -343.374 c -10.46,0 -7.993,-0.369 -17.773,3.344 l -85.744,28.942 c -5.782,2.182 -5.782,5.442 0,7.625 l 85.744,28.941 c 9.78,3.713 7.313,3.345 17.773,3.345 h 176.392"
             style="fill:none;stroke:#000000;stroke-width:15;stroke-linecap:round;stroke-linejoin:round;stroke-miterlimit:10;stroke-dasharray:none;stroke-opacity:1"
             id="path2703" /></g><g
           id="g2705"
           transform="translate(413.2734,79.7075)"><path
             d="M 0,0 V -72.197"
             style="fill:none;stroke:#000000;stroke-width:15;stroke-linecap:round;stroke-linejoin:round;stroke-miterlimit:10;stroke-dasharray:none;stroke-opacity:1"
             id="path2707" /></g><g
           id="g2709"
           transform="translate(106.4082,79.4521)"><path
             d="M 0,0 V -71.687"
             style="fill:none;stroke:#000000;stroke-width:15;stroke-linecap:round;stroke-linejoin:round;stroke-miterlimit:10;stroke-dasharray:none;stroke-opacity:1"
             id="path2711" /></g><g
           id="g2713"
           transform="translate(56.8042,24.6025)"><path
             d="M 0,0 V 38.012"
             style="fill:none;stroke:#000000;stroke-width:15;stroke-linecap:round;stroke-linejoin:round;stroke-miterlimit:10;stroke-dasharray:none;stroke-opacity:1"
             id="path2715" /></g><g
           id="g2717"
           transform="translate(375.0073,79.7075)"><path
             d="M 0,0 V -72.197"
             style="fill:none;stroke:#000000;stroke-width:15;stroke-linecap:round;stroke-linejoin:round;stroke-miterlimit:10;stroke-dasharray:none;stroke-opacity:1"
             id="path2719" /></g></g></g></g></svg>
