<svg width="20" height="20" id="Layer_1" enable-background="new 0 0 512 512" viewBox="0 0 512 512" xmlns="http://www.w3.org/2000/svg"><g><g clip-rule="evenodd" fill-rule="evenodd"><path d="m323.83 464.83c-45.89-111.06 22.25-127.36 46.97-197.18 12.95-36.54 9.38-74.44-7.03-109.33-65.2-138.39-310.4-96.12-324.12 55.64-2.52 27.89 7.91 41.98-32.54 93.88-19.9 32.17 10.09 32.37 24.15 32.77-14.49 12.5-1.02 23.44 7.11 25.8-16.07 6.55-11.37 21.26 2.95 26.16-23.56 55.3 18.08 57.32 76.82 45.35l8.9 36.77c1.79 7.26 8.08 12.22 15.56 12.22h166.45c5.5 0 10.23-2.52 13.29-7.09 3.07-4.59 3.58-9.92 1.49-14.99z" fill="#fbbd80"/><path d="m186.83 316.15c-7.82-2.04-15.19-5.16-22-9.13-1.64-.96-3.52-.99-5.19-.14l-12.81 6.52c-2.13 1.08-4.62.71-6.29-.99l-13.01-12.98c-1.67-1.7-2.07-4.17-.99-6.29l6.52-12.81c.88-1.7.82-3.57-.14-5.22-3.97-6.8-7.06-14.17-9.13-21.97-.48-1.84-1.76-3.2-3.54-3.8l-13.66-4.42c-2.27-.74-3.74-2.78-3.74-5.16v-18.37c0-2.41 1.47-4.42 3.74-5.16l13.66-4.45c1.79-.6 3.06-1.93 3.57-3.77 2.04-7.8 5.13-15.19 9.1-22 .96-1.64 1.02-3.49.14-5.19l-6.52-12.81c-1.08-2.13-.68-4.59.99-6.29l13.01-12.98c1.67-1.7 4.17-2.1 6.29-1.02l12.81 6.55c1.67.85 3.54.79 5.19-.17 6.8-3.97 14.17-7.06 22-9.1 1.84-.48 3.17-1.76 3.77-3.57l4.45-13.66c.74-2.27 2.75-3.74 5.13-3.74h18.4c2.38 0 4.42 1.47 5.16 3.74l4.42 13.66c.6 1.81 1.96 3.09 3.77 3.57 7.82 2.04 15.19 5.13 22 9.1 1.64.96 3.51 1.02 5.22.17l12.78-6.55c2.13-1.08 4.62-.68 6.29 1.02l13.01 12.98c1.67 1.7 2.07 4.17.99 6.29l-6.52 12.81c-.88 1.7-.82 3.54.14 5.19 3.97 6.8 7.06 14.2 9.13 22 .48 1.84 1.76 3.17 3.57 3.77l13.66 4.45c2.27.74 3.74 2.75 3.74 5.16v18.37c0 2.38-1.47 4.42-3.74 5.16l-13.66 4.42c-1.81.6-3.09 1.96-3.57 3.8-2.07 7.8-5.16 15.17-9.13 21.97-.96 1.64-1.02 3.52-.14 5.22l6.52 12.81c1.08 2.13.68 4.59-.99 6.29l-13.01 12.98c-1.67 1.7-4.17 2.07-6.29.99l-12.78-6.52c-1.7-.85-3.57-.82-5.22.14-6.8 3.97-14.17 7.09-22 9.13-1.81.48-3.17 1.76-3.77 3.57l-4.42 13.66c-.74 2.27-2.78 3.74-5.16 3.74h-18.4c-2.38 0-4.39-1.47-5.13-3.74l-4.45-13.66c-.6-1.81-1.93-3.09-3.77-3.57z" fill="#2f5274"/><path d="m209.39 286.61c30.87 0 56.04-25.17 56.04-56.04s-25.17-56.04-56.04-56.04-56.04 25.17-56.04 56.04 25.17 56.04 56.04 56.04z" fill="#ebf5fc"/><path d="m389.45 220.03c40.14 0 72.85-32.74 72.85-72.88s-32.71-72.88-72.85-72.88-72.88 32.74-72.88 72.88 32.74 72.88 72.88 72.88z" fill="#0593fc"/><path d="m389.45 196.56c27.18 0 49.38-22.2 49.38-49.41s-22.2-49.41-49.38-49.41c-27.21 0-49.41 22.2-49.41 49.41s22.19 49.41 49.41 49.41z" fill="#ebf5fc"/></g><path d="m381.31 121.33c0-4.48 3.66-8.11 8.14-8.11s8.11 3.63 8.11 8.11v25.82c0 4.48-3.63 8.11-8.11 8.11h-25.82c-4.48 0-8.11-3.63-8.11-8.11s3.63-8.11 8.11-8.11h17.69v-17.71z" fill="#0593fc"/><path d="m448.46 258.49c4.2 1.53 6.32 6.21 4.76 10.37-1.56 4.2-6.21 6.32-10.4 4.76l-24.86-9.33c-4.17-1.56-6.29-6.21-4.73-10.4l9.33-24.83c1.56-4.2 6.21-6.32 10.37-4.76 4.2 1.56 6.32 6.21 4.76 10.4l-3.09 8.22c16.67-7.88 30.98-20.01 41.5-35.01 12.08-17.18 19.16-38.13 19.16-60.77 0-23.41-7.11-43.99-18.85-60.63-9.95-14.12-23.27-25.43-38.38-33.19s-32.03-12.02-49.29-12.02c-20.52 0-41.47 6.04-60.29 19.3-3.66 2.58-8.7 1.7-11.28-1.96-2.55-3.66-1.67-8.7 1.98-11.28 21.69-15.31 45.89-22.28 69.59-22.28 19.81 0 39.29 4.88 56.69 13.83 17.4 8.96 32.74 22 44.22 38.27 13.61 19.28 21.85 43.03 21.85 69.96 0 26.08-8.19 50.26-22.17 70.1-11.68 16.64-27.47 30.25-45.89 39.34z" fill="#70da40"/><path clip-rule="evenodd" d="m224.19 74.38c-85.63-2.61-176.34 48.95-184.54 139.58-2.52 27.89 7.91 41.98-32.54 93.88-19.9 32.17 10.09 32.37 24.15 32.77-14.49 12.5-1.02 23.44 7.11 25.8-16.07 6.55-11.37 21.26 2.95 26.16-17.57 41.24 1.13 52.84 36.11 51.11-26.9-1.59-39.37-14.94-23.95-51.11-14.31-4.9-19.02-19.62-2.95-26.16-8.16-2.35-21.63-13.29-7.14-25.8-14.03-.4-44.02-.6-24.12-32.77 40.45-51.9 30.02-65.99 32.54-93.88 7.8-86.34 90.51-137.19 172.38-139.58zm-105.51 365.76 8.36 34.55c1.79 7.26 8.08 12.22 15.56 12.22h12.13c-7.46 0-13.78-4.96-15.53-12.22l-8.9-36.77c-3.96.83-7.85 1.57-11.62 2.22z" fill="#e2aa73" fill-rule="evenodd"/><path clip-rule="evenodd" d="m209.39 174.53c-30.95 0-56.04 25.09-56.04 56.04s25.09 56.04 56.04 56.04c2.04 0 4.08-.11 6.07-.34-28.09-3.03-49.95-26.82-49.95-55.7 0-28.91 21.86-52.7 49.95-55.73-1.99-.19-4.03-.31-6.07-.31z" fill="#d4dde3" fill-rule="evenodd"/><path clip-rule="evenodd" d="m340.04 147.15c0 22.59 15.17 41.64 35.86 47.51 4.28 1.25 8.84 1.9 13.55 1.9 2.04 0 4.08-.14 6.07-.37-7.68-.96-14.83-3.66-21-7.71-13.44-8.84-22.31-24.04-22.31-41.33 0-2.72.23-5.39.65-7.99 3.49-21.51 20.89-38.35 42.66-41.05-1.98-.23-4.03-.37-6.07-.37-20.35 0-37.81 12.3-45.38 29.85-2.58 6.01-4.03 12.61-4.03 19.56z" fill="#d4dde3" fill-rule="evenodd"/></g></svg>