<svg width="20" height="20" id="Layer_1" enable-background="new 0 0 512 512" viewBox="0 0 512 512" xmlns="http://www.w3.org/2000/svg"><g clip-rule="evenodd" fill-rule="evenodd"><path d="m359.03 256c0-17.64-8.8-32.52-20.86-37.12 2.01-4.37 3.14-9.24 3.14-14.39 0-19.04-15.44-34.48-34.48-34.48-4.57 0-8.91.88-12.88 2.48.88-2.78 1.38-5.75 1.38-8.83 0-15.88-12.88-28.72-28.72-28.72-15.88 0-28.75 12.85-28.75 28.72v184.65c0 15.88 12.88 28.75 28.75 28.75 15.85 0 28.72-12.88 28.72-28.75 0-3.08-.5-6.05-1.38-8.83 3.96 1.62 8.31 2.5 12.88 2.5 19.04 0 34.48-15.46 34.48-34.5 0-5.12-1.13-9.99-3.14-14.39 12.06-4.6 20.86-19.45 20.86-37.09z" fill="#ff4646"/><path d="m116.69 256c0-17.64 8.8-32.52 20.86-37.12-2.01-4.37-3.14-9.24-3.14-14.39 0-19.04 15.44-34.48 34.48-34.48 4.57 0 8.91.88 12.88 2.48-.88-2.78-1.38-5.75-1.38-8.83 0-15.88 12.88-28.72 28.75-28.72 15.85 0 28.72 12.85 28.72 28.72v184.65c0 15.88-12.88 28.75-28.72 28.75-15.88 0-28.75-12.88-28.75-28.75 0-3.08.5-6.05 1.38-8.83-3.96 1.62-8.31 2.5-12.88 2.5-19.04 0-34.48-15.46-34.48-34.5 0-5.12 1.13-9.99 3.14-14.39-12.06-4.6-20.86-19.45-20.86-37.09z" fill="#ff4646"/><path d="m90.71 264.01-37.34 37.34c-1.84 1.84-4.82 1.84-6.66 0l-37.33-37.34c-1.35-1.38-1.76-3.33-1.02-5.12s2.42-2.89 4.35-2.89h16.26c2.56 0 4.65-2.04 4.7-4.59 1.18-54.59 23.8-103.87 59.76-139.83 36.95-36.95 88.02-59.82 144.42-59.82s107.47 22.86 144.42 59.82 59.83 88.02 59.83 144.42-22.86 107.44-59.82 144.42c-36.95 36.95-88.02 59.82-144.42 59.82s-107.47-22.86-144.42-59.82c-11.39-11.42-21.46-24.16-29.91-37.97-1.16-1.87-.88-4.24.66-5.78l17.17-17.14c1.07-1.07 2.45-1.54 3.93-1.35 1.51.22 2.7 1.02 3.47 2.34 7.65 13.45 17.06 25.78 27.93 36.65 31.01 31.01 73.85 50.19 121.17 50.19s90.16-19.18 121.17-50.19c31.04-31.01 50.21-73.85 50.21-121.17s-19.18-90.16-50.21-121.2c-31.01-31.01-73.85-50.19-121.17-50.19s-90.16 19.18-121.17 50.19c-29.96 29.96-48.89 70.96-50.13 116.36-.05 1.32.41 2.48 1.32 3.41.91.94 2.06 1.43 3.36 1.43h16.15c1.95 0 3.6 1.1 4.35 2.89.73 1.79.35 3.74-1.03 5.12z" fill="#70da40"/><path d="m416.87 343.14c47.98 0 87.14-39.15 87.14-87.14 0-47.98-39.15-87.14-87.14-87.14-47.98 0-87.14 39.15-87.14 87.14 0 47.98 39.15 87.14 87.14 87.14z" fill="#0593fc"/><path d="m416.87 315.05c32.52 0 59.07-26.52 59.07-59.05 0-32.55-26.55-59.07-59.07-59.07s-59.07 26.52-59.07 59.07c-.01 32.52 26.54 59.05 59.07 59.05z" fill="#ebf5fc"/></g><g><path d="m424.87 225.14v30.84c0 4.42-3.58 8.01-8.01 8.01h-30.87c-4.42 0-8.01-3.58-8.01-8.01s3.58-8.01 8.01-8.01h22.86v-22.83c0-4.42 3.58-8.01 8.01-8.01s8.01 3.59 8.01 8.01zm-237.61 12.98c4.13-1.58 6.2-6.21 4.62-10.34s-6.21-6.2-10.34-4.62c-11.61 4.44-19.4 17.63-19.4 32.82 0 15.21 7.8 28.41 19.4 32.85.94.36 1.91.53 2.86.53 3.22 0 6.26-1.96 7.48-5.15 1.58-4.13-.49-8.76-4.62-10.34-4.53-1.73-9.11-8.44-9.11-17.89-.01-9.43 4.58-16.12 9.11-17.86zm240.71 112.36c-10.23 20.57-23.68 39.25-40.03 55.59-40.1 40.1-93.4 62.19-150.09 62.19s-109.99-22.08-150.09-62.19c-11.92-11.92-22.37-25.19-31.08-39.44-3.09-4.98-2.34-11.42 1.85-15.62l17.15-17.15c2.81-2.82 6.7-4.13 10.65-3.61 3.94.52 7.35 2.82 9.35 6.3 7.23 12.74 16.19 24.5 26.65 34.99 30.84 30.83 71.86 47.82 115.51 47.82s84.68-16.99 115.52-47.83c8.88-8.89 16.67-18.74 23.26-29.34-11.15-5.23-21.13-12.55-29.43-21.47-5.56 16.98-21.55 29.28-40.37 29.28-1.17 0-2.34-.05-3.5-.14-.81 19.55-16.97 35.21-36.72 35.21-11.63 0-22-5.43-28.74-13.89-6.74 8.46-17.12 13.89-28.74 13.89-19.75 0-35.91-15.66-36.72-35.21-1.16.1-2.33.14-3.5.14-23.44 0-42.51-19.07-42.51-42.51 0-3.6.45-7.15 1.33-10.59-11.64-7.99-19.05-23.46-19.05-40.92 0-17.44 7.41-32.9 19.05-40.9-.88-3.43-1.33-6.97-1.33-10.57 0-23.44 19.07-42.51 42.51-42.51 1.17 0 2.34.05 3.5.14.8-19.55 16.96-35.21 36.72-35.21 11.63 0 22 5.43 28.74 13.88 6.74-8.45 17.12-13.88 28.74-13.88 19.76 0 35.92 15.66 36.72 35.21 1.16-.1 2.33-.14 3.5-.14 18.82 0 34.8 12.29 40.38 29.27 8.29-8.92 18.28-16.24 29.43-21.46-6.59-10.61-14.38-20.46-23.26-29.34-30.84-30.84-71.87-47.83-115.52-47.83s-84.68 16.99-115.52 47.83c-28.85 28.85-45.69 66.91-47.64 107.51h12.7c5.19 0 9.8 3.11 11.76 7.91 1.95 4.72.86 10.14-2.78 13.78l-37.33 37.33c-2.48 2.48-5.74 3.72-8.99 3.72-3.26 0-6.51-1.24-8.99-3.72l-37.34-37.33c-3.64-3.64-4.72-9.07-2.76-13.82 1.94-4.77 6.55-7.87 11.74-7.87h13.07c1.98-53.63 23.92-103.97 62-142.05 40.1-40.1 93.4-62.18 150.09-62.18 56.68 0 109.99 22.08 150.09 62.18 16.34 16.34 29.8 35.03 40.04 55.6 47.24 5.52 84.03 45.78 84.03 94.46-.01 48.7-36.8 88.97-84.05 94.49zm-198.12-186.82c0-11.42-9.3-20.71-20.74-20.71s-20.74 9.29-20.74 20.71c0 2.15.32 4.24.95 6.21 2.02 6.48 7.08 11.55 13.57 13.59 4.22 1.33 6.56 5.82 5.24 10.04-1.08 3.42-4.23 5.61-7.64 5.61-.8 0-1.6-.12-2.4-.37-10.03-3.15-18.13-10.4-22.42-19.82-2.22-.59-4.49-.9-6.79-.9-14.61 0-26.49 11.88-26.49 26.49 0 3.84.81 7.55 2.41 11.02.93 2.01.98 4.32.15 6.37s-2.48 3.67-4.55 4.46c-9.11 3.49-15.72 15.96-15.72 29.63 0 13.69 6.61 26.15 15.71 29.62 2.07.79 3.72 2.4 4.56 4.45s.79 4.36-.13 6.37c-1.61 3.5-2.42 7.23-2.42 11.06 0 14.61 11.88 26.49 26.49 26.49 2.29 0 4.57-.31 6.79-.9 4.29-9.42 12.39-16.67 22.42-19.82 4.23-1.33 8.71 1.02 10.04 5.24s-1.02 8.71-5.24 10.04c-6.49 2.04-11.55 7.12-13.57 13.59-.63 1.97-.95 4.05-.95 6.18 0 11.43 9.3 20.74 20.74 20.74s20.74-9.3 20.74-20.74v-184.65zm91.87 92.33c0-15.22 3.6-29.61 9.98-42.38 1.07-2.92 1.61-5.98 1.61-9.1 0-14.61-11.88-26.49-26.49-26.49-2.3 0-4.57.31-6.79.9-4.29 9.42-12.39 16.67-22.42 19.82-.8.25-1.61.37-2.4.37-3.41 0-6.56-2.19-7.64-5.61-1.33-4.22 1.02-8.71 5.24-10.04 6.48-2.04 11.54-7.11 13.57-13.58.63-1.98.95-4.07.95-6.22 0-11.42-9.3-20.71-20.74-20.71s-20.74 9.29-20.74 20.71v184.65c0 11.43 9.3 20.74 20.74 20.74s20.74-9.3 20.74-20.74c0-2.13-.32-4.21-.95-6.19-2.02-6.47-7.08-11.54-13.57-13.58-4.22-1.33-6.56-5.82-5.24-10.04 1.33-4.22 5.82-6.56 10.04-5.24 10.03 3.15 18.13 10.4 22.42 19.82 2.22.59 4.49.9 6.79.9 14.61 0 26.49-11.88 26.49-26.49 0-3.14-.55-6.21-1.63-9.15-6.37-12.76-9.96-27.14-9.96-42.35zm70.26-91.82c5.71-1.55 11.64-2.57 17.72-3.03-8.89-16.07-19.98-30.79-33.08-43.89-37.08-37.08-86.36-57.49-138.76-57.49s-101.69 20.42-138.77 57.49c-35.92 35.92-56.3 83.62-57.41 134.32-.15 6.85-5.85 12.43-12.71 12.43h-8.28l29.35 29.35 29.35-29.35h-8.16c-3.47 0-6.71-1.37-9.12-3.85-2.43-2.5-3.69-5.78-3.56-9.24 1.27-45.96 19.9-89.2 52.46-121.76 33.87-33.87 78.92-52.52 126.84-52.52s92.98 18.65 126.84 52.52c10.55 10.53 19.7 22.29 27.29 35.02zm17.71 186.69c-6.08-.46-12-1.48-17.71-3.03-7.59 12.73-16.74 24.49-27.28 35.03-33.87 33.87-78.91 52.52-126.84 52.52s-92.98-18.65-126.84-52.52c-10.44-10.47-19.53-22.1-27.04-34.62l-12.25 12.25c7.79 12.37 16.98 23.88 27.37 34.27 37.08 37.08 86.36 57.49 138.76 57.49 52.41 0 101.69-20.42 138.76-57.49 13.09-13.11 24.18-27.83 33.07-43.9zm86.3-94.87c0-43.62-35.5-79.1-79.13-79.1s-79.13 35.48-79.13 79.1c0 43.63 35.5 79.13 79.13 79.13s79.13-35.5 79.13-79.13zm-12.05 0c0 36.99-30.09 67.08-67.08 67.08s-67.08-30.09-67.08-67.08c0-36.97 30.09-67.05 67.08-67.05s67.08 30.07 67.08 67.05zm-16.01 0c0-28.14-22.91-51.04-51.07-51.04s-51.07 22.9-51.07 51.04c0 28.16 22.91 51.07 51.07 51.07s51.07-22.92 51.07-51.07zm-173.75-32.83c-4.13-1.58-8.76.49-10.34 4.62s.49 8.76 4.62 10.34c4.53 1.73 9.11 8.43 9.11 17.86 0 9.46-4.58 16.16-9.11 17.89-4.13 1.58-6.2 6.21-4.62 10.34 1.22 3.19 4.26 5.15 7.48 5.15.95 0 1.92-.17 2.86-.53 11.61-4.44 19.4-17.64 19.4-32.85 0-15.18-7.8-28.37-19.4-32.82z"/></g></svg>