<svg clip-rule="evenodd" fill-rule="evenodd" height="7.111in" image-rendering="optimizeQuality" shape-rendering="geometricPrecision" text-rendering="geometricPrecision" viewBox="0 0 7111 7111" width="7.111in" xmlns="http://www.w3.org/2000/svg"><g id="Layer_x0020_1"><path d="m4201 4604h-562v1535h192c116 0 211 94 211 211v550c0 116-95 211-211 211h-550c-117 0-212-95-212-211v-550c0-117 95-211 212-211h191v-1535h-562c-207 0-378-157-401-358h-801v1042h163c187 0 339 152 339 339v493c0 187-152 339-339 339h-493c-187 0-339-152-339-339v-493c0-187 152-339 339-339h163v-1125c0-46 38-83 84-83h882v-441h-1535v191c0 117-94 212-211 212h-550c-116 0-211-95-211-212v-549c0-117 95-212 211-212h550c117 0 211 95 211 212v191h1535v-441h-882c-46 0-84-37-84-83v-1125h-163c-187 0-339-152-339-339v-493c0-186 152-339 339-339h493c187 0 339 152 339 339v493c0 187-152 339-339 339h-163v1042h801c23-201 194-358 401-358h562v-1535h-191c-117 0-212-94-212-211v-550c0-116 95-211 212-211h550c116 0 211 95 211 211v550c0 117-95 211-211 211h-192v1535h562c207 0 378 157 401 358h801v-1042h-163c-186 0-339-152-339-339v-493c0-186 152-339 339-339h493c187 0 339 152 339 339v493c0 187-152 339-339 339h-163v1125c0 46-37 83-83 83h-883v441h1535v-191c0-117 94-212 211-212h550c116 0 211 95 211 212v549c0 117-95 212-211 212h-550c-117 0-211-95-211-212v-191h-1535v441h883c46 0 83 37 83 83v1125h163c187 0 339 152 339 339v493c0 187-152 339-339 339h-493c-186 0-339-152-339-339v-493c0-187 152-339 339-339h163v-1042h-801c-23 201-194 358-401 358zm-54-493h-1183c-45 0-83-38-83-84s37-83 83-83h1183c46 0 83 37 83 83s-37 84-83 84zm0-472h-1183c-45 0-83-37-83-83s37-84 83-84h1183c46 0 83 38 83 84s-37 83-83 83zm0-472h-1183c-45 0-83-37-83-83s37-83 83-83h1183c46 0 83 37 83 83s-37 83-83 83zm-3341 389v-275c0-25-21-45-45-45h-550c-24 0-44 20-44 45v549c0 25 20 45 44 45h550c24 0 45-20 45-45zm5499-1v275c0 25 21 45 45 45h550c24 0 44-20 44-45v-549c0-25-20-45-44-45h-550c-24 0-45 20-45 45zm-3024 2750c-25 0-45 21-45 45v550c0 24 20 44 45 44h550c24 0 44-20 44-44v-550c0-24-20-45-44-45zm274-5499h276c24 0 44-21 44-45v-550c0-24-20-44-44-44h-550c-25 0-45 20-45 44v550c0 24 20 45 45 45zm1932 4649c-78 2-167 0-247 0-95 0-172 77-172 172v493c0 95 77 172 172 172h493c95 0 172-77 172-172v-493c0-95-77-172-172-172zm-3862 0c-78 2-168 0-247 0-95 0-172 77-172 172v493c0 95 77 172 172 172h493c95 0 172-77 172-172v-493c0-95-77-172-172-172zm3857-3799h9 242c95 0 172-77 172-172v-493c0-95-77-172-172-172h-493c-95 0-172 77-172 172v493c0 95 77 172 172 172zm-3862 0h9 242c95 0 172-77 172-172v-493c0-95-77-172-172-172h-493c-95 0-172 77-172 172v493c0 95 77 172 172 172zm1290 1017c-131 0-237 106-237 237v1291c0 131 106 237 237 237h1291c131 0 237-106 237-237v-1291c0-131-106-237-237-237z"/><path d="m3281 806h274 276c24 0 44-21 44-45v-550c0-24-20-44-44-44h-550c-25 0-45 20-45 44v550c0 24 20 45 45 45z" fill="#fa3c48"/><path d="m5068 991v493c0 95 77 172 172 172h242 9 242c95 0 172-77 172-172v-493c0-95-77-172-172-172h-493c-95 0-172 77-172 172z" fill="#00abe0"/><path d="m6900 3236h-550c-24 0-45 20-45 45v274 275c0 25 21 45 45 45h550c24 0 44-20 44-45v-549c0-25-20-45-44-45z" fill="#587aa1"/><path d="m5733 5455h-246c-78 2-167 0-247 0-95 0-172 77-172 172v493c0 95 77 172 172 172h493c95 0 172-77 172-172v-493c0-95-77-172-172-172z" fill="#ffdc65"/><path d="m4201 4438c131 0 237-106 237-237v-1291c0-131-106-237-237-237h-1291c-131 0-237 106-237 237v1291c0 131 106 237 237 237zm-54-327h-1183c-45 0-83-38-83-84s37-83 83-83h1183c46 0 83 37 83 83s-37 84-83 84zm0-472h-1183c-45 0-83-37-83-83s37-84 83-84h1183c46 0 83 38 83 84s-37 83-83 83zm0-472h-1183c-45 0-83-37-83-83s37-83 83-83h1183c46 0 83 37 83 83s-37 83-83 83z" fill="#ff7a1b"/><path d="m3831 6305h-550c-25 0-45 21-45 45v550c0 24 20 44 45 44h550c24 0 44-20 44-44v-550c0-24-20-45-44-45z" fill="#fa3c48"/><path d="m2043 6120v-493c0-95-77-172-172-172h-246c-78 2-168 0-247 0-95 0-172 77-172 172v493c0 95 77 172 172 172h493c95 0 172-77 172-172z" fill="#00abe0"/><path d="m211 3875h550c24 0 45-20 45-45v-274-275c0-25-21-45-45-45h-550c-24 0-44 20-44 45v549c0 25 20 45 44 45z" fill="#587aa1"/><path d="m1378 1656h242 9 242c95 0 172-77 172-172v-493c0-95-77-172-172-172h-493c-95 0-172 77-172 172v493c0 95 77 172 172 172z" fill="#ffdc65"/></g></svg>