<svg height="20" width="20" enable-background="new 0 0 32 32" viewBox="0 0 32 32" xmlns="http://www.w3.org/2000/svg"><g id="Guides"/><g id="_x32_0"/><g id="_x31_9"/><g id="_x31_8"/><g id="_x31_7"/><g id="_x31_6"/><g id="_x31_5"/><g id="_x31_4"/><g id="_x31_3"/><g id="_x31_2"/><g id="_x31_1"/><g id="_x31_0"/><g id="_x30_9"/><g id="_x30_8"><path d="m19 21h-6c-.5522 0-1-.4478-1-1v-8c0-.5522.4478-1 1-1h6c.5527 0 1 .4478 1 1v8c0 .5522-.4473 1-1 1zm-5-2h4v-6h-4z"/><path d="m18.1426 16h-4.2856c-.5522 0-1-.4478-1-1s.4478-1 1-1h4.2856c.5527 0 1 .4478 1 1s-.4473 1-1 1z"/><path d="m9 12h-6c-.5522 0-1-.4478-1-1v-8c0-.5522.4478-1 1-1h6c.5522 0 1 .4478 1 1v8c0 .5522-.4478 1-1 1zm-5-2h4v-6h-4z"/><path d="m8.1431 7h-4.2862c-.5522 0-1-.4478-1-1s.4478-1 1-1h4.2861c.5522 0 1 .4478 1 1s-.4477 1-.9999 1z"/><path d="m9 30h-6c-.5522 0-1-.4478-1-1v-8c0-.5522.4478-1 1-1h6c.5522 0 1 .4478 1 1v8c0 .5522-.4478 1-1 1zm-5-2h4v-6h-4z"/><path d="m8.1431 25h-4.2862c-.5522 0-1-.4478-1-1s.4478-1 1-1h4.2861c.5522 0 1 .4478 1 1s-.4477 1-.9999 1z"/><path d="m29 30h-6c-.5527 0-1-.4478-1-1v-8c0-.5522.4473-1 1-1h6c.5527 0 1 .4478 1 1v8c0 .5522-.4473 1-1 1zm-5-2h4v-6h-4z"/><path d="m28.1426 25h-4.2852c-.5527 0-1-.4478-1-1s.4473-1 1-1h4.2852c.5527 0 1 .4478 1 1s-.4473 1-1 1z"/><path d="m29 12h-6c-.5527 0-1-.4478-1-1v-8c0-.5522.4473-1 1-1h6c.5527 0 1 .4478 1 1v8c0 .5522-.4473 1-1 1zm-5-2h4v-6h-4z"/><path d="m28.1426 7h-4.2852c-.5527 0-1-.4478-1-1s.4473-1 1-1h4.2852c.5527 0 1 .4478 1 1s-.4473 1-1 1z"/><path d="m12 17h-6c-.5522 0-1-.4478-1-1v-4c0-.5522.4478-1 1-1s1 .4478 1 1v3h5c.5522 0 1 .4478 1 1s-.4478 1-1 1z"/><path d="m22 26h-12c-.5522 0-1-.4478-1-1s.4478-1 1-1h12c.5527 0 1 .4478 1 1s-.4473 1-1 1z"/><path d="m22 8h-12c-.5522 0-1-.4478-1-1s.4478-1 1-1h12c.5527 0 1 .4478 1 1s-.4473 1-1 1z"/><path d="m26 21c-.5527 0-1-.4478-1-1v-3h-5c-.5527 0-1-.4478-1-1s.4473-1 1-1h6c.5527 0 1 .4478 1 1v4c0 .5522-.4473 1-1 1z"/></g><g id="_x30_7"/><g id="_x30_6"/><g id="_x30_5"/><g id="_x30_4"/><g id="_x30_3"/><g id="_x30_2"/><g id="_x30_1"/></svg>