<?xml version="1.0" encoding="UTF-8"?>
<svg xmlns="http://www.w3.org/2000/svg" xmlns:xlink="http://www.w3.org/1999/xlink" version="1.1" id="Layer_5" x="0px" y="0px" viewBox="0 0 62.001 62" style="enable-background:new 0 0 62.001 62" xml:space="preserve" width="20" height="20">
  <g>
    <g>
      <g>
        <path style="fill:#E6E9ED" d="M59.001,7h-18c1.19-3.58,4.55-6,8.32-6h1.36C54.451,1,57.811,3.42,59.001,7z"/>
      </g>
      <g>
        <path style="fill:#E6E9ED" d="M21.001,7h-18c1.19-3.58,4.55-6,8.32-6h1.36C16.451,1,19.811,3.42,21.001,7z"/>
      </g>
      <g>
        <polygon style="fill:#CCD1D9" points="61.001,7 58.001,11 57.001,11 43.001,11 42.001,11 39.001,7 41.001,7 59.001,7    "/>
      </g>
      <g>
        <polygon style="fill:#CCD1D9" points="23.001,7 20.001,11 19.001,11 5.001,11 4.001,11 1.001,7 3.001,7 21.001,7    "/>
      </g>
      <g>
        <path style="fill:#E6E9ED" d="M61.001,43h-25.29c1.43-1.12,2.29-2.85,2.29-4.71V37h2c0.55,0,1.05-0.22,1.41-0.59     c0.37-0.36,0.59-0.86,0.59-1.41c0-0.92-0.63-1.7-1.49-1.93l3.49-4.07l-1.84-1.84c0.96-0.83,2.1-1.47,3.36-1.85l0.14,0.34     c0.87,2.18,2.39,4.05,4.34,5.35l-6,6c0.64,1.28,1.76,2.25,3.12,2.71l0.88,0.29l2-9l2,9l1.09-0.37c1.28-0.45,2.34-1.39,2.91-2.63     l-6-6c1.95-1.3,3.47-3.17,4.34-5.35l0.14-0.34c3.81,1.14,6.52,4.66,6.52,8.75V43z"/>
      </g>
      <g>
        <path style="fill:#E6E9ED" d="M14.001,40l1.09-0.37c1.28-0.45,2.34-1.39,2.91-2.63l-6-6c1.95-1.3,3.47-3.17,4.34-5.35l0.14-0.34     c1.26,0.38,2.4,1.02,3.36,1.85L18.001,29l3.49,4.07c-0.35,0.08-0.66,0.27-0.91,0.52c-0.36,0.36-0.58,0.86-0.58,1.41     c0,1.1,0.89,2,2,2h2v1.29c0,1.85,0.85,3.58,2.28,4.71H1.001v-8.94c0-2.3,0.86-4.42,2.29-6.04c1.11-1.26,2.57-2.22,4.23-2.71     l0.14,0.34c0.87,2.18,2.39,4.05,4.34,5.35l-6,6c0.64,1.28,1.76,2.25,3.12,2.71l0.88,0.29l2-9L14.001,40z"/>
      </g>
      <g>
        <path style="fill:#CCD1D9" d="M54.481,25.31l-0.14,0.34c-0.87,2.18-2.39,4.05-4.34,5.35c-1.95-1.3-3.47-3.17-4.34-5.35     l-0.14-0.34c0.48-0.14,0.97-0.25,1.48-0.31h6C53.511,25.06,54.001,25.17,54.481,25.31z"/>
      </g>
      <g>
        <path style="fill:#CCD1D9" d="M16.481,25.31l-0.14,0.34c-0.87,2.18-2.39,4.05-4.34,5.35c-1.95-1.3-3.47-3.17-4.34-5.35     l-0.14-0.34c0.48-0.14,0.97-0.25,1.48-0.31h6C15.511,25.06,16.001,25.17,16.481,25.31z"/>
      </g>
      <g>
        <path style="fill:#4FC1E9" d="M50.001,31l6,6c-0.57,1.24-1.63,2.18-2.91,2.63L52.001,40L50.001,31z"/>
      </g>
      <g>
        <path style="fill:#4FC1E9" d="M50.001,31l-2,9l-0.88-0.29c-1.36-0.46-2.48-1.43-3.12-2.71L50.001,31z"/>
      </g>
      <g>
        <path style="fill:#4FC1E9" d="M12.001,31l6,6c-0.57,1.24-1.63,2.18-2.91,2.63L14.001,40L12.001,31z"/>
      </g>
      <g>
        <path style="fill:#4FC1E9" d="M12.001,31l-2,9l-0.88-0.29c-1.36-0.46-2.48-1.43-3.12-2.71L12.001,31z"/>
      </g>
      <g>
        <path style="fill:#E6E9ED" d="M24.001,61h-6v-5.44c0-1.68,0.52-3.26,1.43-4.56h7.57l1,2l3-3l3,3l1-2h7.57     c0.91,1.3,1.43,2.88,1.43,4.56V61h-6H24.001z"/>
      </g>
      <g>
        <path style="fill:#CCD1D9" d="M37.001,47l-2,4l-1,2l-3-3l3-3C34.001,47,35.321,47,37.001,47z"/>
      </g>
      <g>
        <path style="fill:#CCD1D9" d="M28.001,47l3,3l-3,3l-1-2l-2-4C26.681,47,28.001,47,28.001,47z"/>
      </g>
      <g>
        <path style="fill:#FCD770" d="M44.001,48v2c0,0.55-0.45,1-1,1h-0.43h-7.57l2-4c2.04,0,4.62,0,6.01,0     C43.561,47,44.001,47.45,44.001,48z"/>
      </g>
      <g>
        <path style="fill:#FCD770" d="M25.001,47l2,4h-7.57h-0.43c-0.55,0-1-0.45-1-1v-2c0-0.55,0.44-1,0.99-1     C20.381,47,22.961,47,25.001,47z"/>
      </g>
      <g>
        <path style="fill:#AAB2BD" d="M31.001,29h-1.53c-2.74,0-5.24,1.55-6.47,4h-1c-0.18,0-0.35,0.02-0.51,0.07L18.001,29l1.84-1.84     l2.62-2.62c1.14-1.14,2.47-2.02,3.92-2.62c1.45-0.6,3.02-0.92,4.62-0.92c3.2,0,6.27,1.27,8.54,3.54l2.62,2.62l1.84,1.84     l-3.49,4.07c-0.16-0.05-0.33-0.07-0.51-0.07h-1c-1.23-2.45-3.73-4-6.47-4H31.001z"/>
      </g>
      <g>
        <path style="fill:#CCD1D9" d="M32.531,29c2.74,0,5.24,1.55,6.47,4h-1h-14h-1c1.23-2.45,3.73-4,6.47-4h1.53H32.531z"/>
      </g>
      <g>
        <path style="fill:#F0D0B4" d="M21.001,11c1.1,0,2,0.9,2,2c0,0.55-0.22,1.05-0.59,1.41c-0.36,0.37-0.86,0.59-1.41,0.59h-2v-4h1     H21.001z"/>
      </g>
      <g>
        <path style="fill:#F0D0B4" d="M19.001,15v1.29c0,2.27-1.28,4.35-3.32,5.37l-0.13,0.06c-0.34,0.17-0.55,0.52-0.55,0.9V25h-6     v-2.38c0-0.38-0.21-0.73-0.55-0.9l-0.13-0.06c-2.04-1.02-3.32-3.09-3.32-5.37V15v-4h14V15z"/>
      </g>
      <g>
        <path style="fill:#F0D0B4" d="M5.001,11v4h-2c-1.11,0-2-0.9-2-2c0-0.55,0.22-1.05,0.58-1.41c0.36-0.37,0.86-0.59,1.42-0.59h1     H5.001z"/>
      </g>
      <g>
        <path style="fill:#F0D0B4" d="M59.001,11c1.1,0,2,0.9,2,2c0,0.55-0.22,1.05-0.59,1.41c-0.36,0.37-0.86,0.59-1.41,0.59h-2v-4h1     H59.001z"/>
      </g>
      <g>
        <path style="fill:#F0D0B4" d="M57.001,15v1.29c0,2.27-1.28,4.35-3.32,5.37l-0.13,0.06c-0.34,0.17-0.55,0.52-0.55,0.9V25h-6     v-2.38c0-0.38-0.21-0.73-0.55-0.9l-0.13-0.06c-2.04-1.02-3.32-3.09-3.32-5.37V15v-4h14V15z"/>
      </g>
      <g>
        <path style="fill:#F0D0B4" d="M43.001,11v4h-2c-1.11,0-2-0.9-2-2c0-0.55,0.22-1.05,0.58-1.41c0.36-0.37,0.86-0.59,1.42-0.59h1     H43.001z"/>
      </g>
      <g>
        <path style="fill:#F0D0B4" d="M38.001,37v-4h1h1c0.18,0,0.35,0.02,0.51,0.07c0.86,0.23,1.49,1.01,1.49,1.93     c0,0.55-0.22,1.05-0.59,1.41c-0.36,0.37-0.86,0.59-1.41,0.59H38.001z"/>
      </g>
      <g>
        <path style="fill:#F0D0B4" d="M38.001,37v1.29c0,1.86-0.86,3.59-2.29,4.71c-0.31,0.25-0.66,0.47-1.03,0.66l-0.13,0.06     c-0.34,0.17-0.55,0.52-0.55,0.9V47l-3,3l-3-3v-2.38c0-0.38-0.21-0.73-0.55-0.9l-0.13-0.06c-0.37-0.19-0.72-0.41-1.04-0.66     c-1.43-1.13-2.28-2.86-2.28-4.71V37v-4h14V37z"/>
      </g>
      <g>
        <path style="fill:#F0D0B4" d="M24.001,33v4h-2c-1.11,0-2-0.9-2-2c0-0.55,0.22-1.05,0.58-1.41c0.25-0.25,0.56-0.44,0.91-0.52     c0.16-0.05,0.33-0.07,0.51-0.07h1H24.001z"/>
      </g>
    </g>
    <g>
      <path d="M33.981,39.667l-1.49-1.333c-0.758,0.847-2.224,0.847-2.981,0l-1.49,1.333C28.777,40.514,29.863,41,31.001,41    C32.138,41,33.224,40.514,33.981,39.667z"/>
      <path d="M35.132,44.553c0.323-0.162,0.626-0.349,0.915-0.553h25.954v-9.938c0-4.801-3.383-8.913-8.002-9.906l-0.002-1.537    l0.135-0.066c2.387-1.194,3.869-3.593,3.869-6.262l0-0.291H59c1.654,0,3-1.346,3-3c0-1.343-0.893-2.469-2.111-2.85L61.801,7.6    c0.228-0.303,0.264-0.708,0.095-1.047C61.726,6.214,61.38,6,61.001,6h-1.31c-1.511-3.617-5.046-6-9.014-6h-1.352    c-3.969,0-7.503,2.383-9.014,6h-1.31c-0.379,0-0.725,0.214-0.895,0.553c-0.169,0.339-0.133,0.744,0.095,1.047l1.912,2.549    C38.893,10.53,38,11.657,38,13c0,1.654,1.346,3,3,3h1.001l0,0.293c0,2.668,1.482,5.067,3.869,6.26L46,22.619l0.001,1.537    c-1.359,0.292-2.627,0.869-3.754,1.677l-2.004-2.004C37.774,21.36,34.492,20,31.001,20s-6.773,1.36-9.242,3.829l-2.004,2.004    c-1.127-0.807-2.396-1.385-3.756-1.677l-0.002-1.537l0.135-0.066c2.387-1.194,3.869-3.593,3.869-6.262l0-0.291H21    c1.654,0,3-1.346,3-3c0-1.343-0.893-2.469-2.111-2.85L23.801,7.6c0.228-0.303,0.264-0.708,0.095-1.047    C23.726,6.214,23.38,6,23.001,6h-1.31c-1.511-3.617-5.046-6-9.014-6h-1.352C7.357,0,3.822,2.383,2.311,6h-1.31    C0.622,6,0.276,6.214,0.106,6.553C-0.063,6.892-0.026,7.297,0.201,7.6l1.912,2.549C0.893,10.53,0,11.657,0,13c0,1.654,1.346,3,3,3    h1.001l0,0.293c0,2.668,1.482,5.067,3.869,6.26L8,22.619l0.001,1.538c-4.618,0.993-8,5.105-8,9.906V44h25.954    c0.289,0.204,0.592,0.391,0.915,0.553L27,44.619L27.001,46h-8.005c-1.1,0-1.994,0.897-1.994,2v2c0,0.692,0.354,1.303,0.889,1.662    c-0.583,1.21-0.89,2.534-0.89,3.897V62h28.001v-6.441c0-1.363-0.307-2.686-0.89-3.896c0.536-0.359,0.89-0.97,0.89-1.662v-2    c0-1.103-0.895-2-1.994-2h-8.008l-0.002-1.381L35.132,44.553z M23.001,36H22c-0.552,0-1-0.449-1-1s0.448-1,1-1h1L23.001,36z     M32.529,30c1.777,0,3.419,0.739,4.58,2H24.893c1.16-1.261,2.803-2,4.58-2H32.529z M39,34h1c0.552,0,1,0.449,1,1s-0.448,1-1,1    h-0.999L39,34z M50.001,29.735c-1.292-0.991-2.326-2.25-3.045-3.709C47,26.02,47.042,26.006,47.086,26h5.836    c0.043,0.006,0.084,0.016,0.126,0.022C52.328,27.483,51.295,28.743,50.001,29.735z M59,14h-0.999l0-2h1c0.552,0,1,0.449,1,1    S59.552,14,59,14z M49.325,2h1.352c2.862,0,5.43,1.565,6.783,4H42.543C43.896,3.565,46.464,2,49.325,2z M41,14    c-0.552,0-1-0.449-1-1s0.448-1,1-1h1l0,2H41z M42.501,10l-1.5-2h18l-1.5,2H57H43H42.501z M44.001,16.293L44,12h12l0.001,4.291    c0,1.906-1.059,3.621-2.761,4.472l-0.135,0.067C52.424,21.17,52,21.855,52,22.619L52,24h-4l0-1.382    c0-0.763-0.424-1.448-1.105-1.789l-0.13-0.065C45.06,19.912,44.001,18.199,44.001,16.293z M44.977,26.576    c0.809,1.774,2.004,3.322,3.511,4.546l-5.704,5.681l0.322,0.645c0.765,1.529,2.079,2.668,3.699,3.208l1.931,0.644l1.265-5.691    l1.267,5.701l2.145-0.736c1.537-0.528,2.812-1.677,3.496-3.152l0.294-0.634l-5.675-5.675c1.503-1.223,2.694-2.771,3.501-4.543    c2.945,1.245,4.974,4.162,4.974,7.493V42H37.943c0.679-1.088,1.058-2.364,1.058-3.709l0-0.291H40c1.654,0,3-1.346,3-3    c0-0.862-0.371-1.635-0.955-2.182l2.714-3.167c0.341-0.397,0.317-0.989-0.052-1.358l-1.028-1.028    C44.091,26.995,44.525,26.766,44.977,26.576z M48.28,34.135l-1.014,4.562c-0.814-0.309-1.507-0.842-2.008-1.541L48.28,34.135z     M51.722,34.135l3.034,3.034c-0.483,0.698-1.184,1.234-1.994,1.512l-0.027,0.01L51.722,34.135z M23.173,25.243    C25.264,23.152,28.044,22,31.001,22s5.737,1.152,7.828,3.243l3.81,3.81l-2.535,2.958C40.069,32.009,40.036,32,40,32h-0.431    c-1.485-2.475-4.117-4-7.04-4h-0.528v-4h-2v4h-0.528c-2.923,0-5.555,1.525-7.04,4H22c-0.035,0-0.067,0.009-0.102,0.01    l-2.535-2.958L23.173,25.243z M12.001,29.735c-1.294-0.992-2.328-2.252-3.047-3.713C8.996,26.016,9.037,26.006,9.08,26h5.836    c0.044,0.006,0.086,0.02,0.13,0.026C14.326,27.485,13.293,28.744,12.001,29.735z M21,14h-0.999l0-2h1c0.552,0,1,0.449,1,1    S21.552,14,21,14z M11.325,2h1.352c2.862,0,5.43,1.565,6.783,4H4.543C5.896,3.565,8.464,2,11.325,2z M3,14c-0.552,0-1-0.449-1-1    s0.448-1,1-1h1l0,2H3z M4.501,10l-1.5-2h18l-1.5,2H19H5H4.501z M6.001,16.293L6,12h12l0.001,4.291    c0,1.906-1.059,3.621-2.761,4.472l-0.135,0.067C14.424,21.17,14,21.855,14,22.619L14,24h-4l0-1.382    c0-0.763-0.424-1.448-1.105-1.789l-0.13-0.065C7.06,19.912,6.001,18.199,6.001,16.293z M2.001,34.062    c0-3.331,2.029-6.248,4.973-7.493c0.809,1.777,2.005,3.328,3.514,4.553l-5.704,5.681l0.322,0.645    c0.765,1.529,2.079,2.668,3.699,3.208l1.931,0.644l1.265-5.691l1.267,5.701l2.145-0.736c1.537-0.528,2.812-1.677,3.496-3.152    l0.294-0.634l-5.675-5.675c1.501-1.222,2.69-2.766,3.497-4.535c0.452,0.19,0.886,0.419,1.298,0.689l-1.028,1.028    c-0.369,0.369-0.393,0.961-0.053,1.358l2.714,3.167C19.371,33.365,19,34.138,19,35c0,1.654,1.346,3,3,3h1.001l0,0.292    c0,1.345,0.378,2.62,1.057,3.708H2.001V34.062z M10.28,34.135l-1.014,4.562c-0.814-0.309-1.507-0.842-2.008-1.541L10.28,34.135z     M13.722,34.135l3.034,3.034c-0.483,0.698-1.184,1.234-1.994,1.512l-0.027,0.01L13.722,34.135z M25.001,38.292L25,34h12    l0.001,4.291c0,1.906-1.059,3.621-2.761,4.472l-0.135,0.067C33.424,43.17,33,43.855,33,44.618v1.969l-1.999,1.999l-2-2L29,44.618    c0-0.763-0.424-1.448-1.105-1.789l-0.13-0.065C26.06,41.912,25.001,40.198,25.001,38.292z M27.587,48l2,2l-1.312,1.312L26.619,48    H27.587z M25.383,50h-2.382v-2h1.382L25.383,50z M21.001,48v2h-2l-0.006-2H21.001z M43.001,50h-2v-2h2V50z M37.619,48h1.382v2    h-2.382L37.619,48z M42.006,52c0.64,1.079,0.995,2.294,0.995,3.559V60h-4v-4h-2v4h-12v-4h-2v4H19v-4.441    c0-1.265,0.355-2.479,0.994-3.559h6.388l1.344,2.688l2.274-2.274V58h2v-5.586l2.274,2.274L35.619,52H42.006z M33.727,51.312    L32.415,50l2-2h0.968L33.727,51.312z"/>
      <path d="M14.981,17.667l-1.49-1.333c-0.758,0.847-2.224,0.847-2.981,0l-1.49,1.333C9.777,18.514,10.863,19,12.001,19    C13.138,19,14.224,18.514,14.981,17.667z"/>
      <path d="M52.981,17.667l-1.49-1.333c-0.758,0.847-2.224,0.847-2.981,0l-1.49,1.333C47.777,18.514,48.863,19,50.001,19    C51.138,19,52.224,18.514,52.981,17.667z"/>
    </g>
  </g>
</svg>
