<svg id="Capa_1" enable-background="new 0 0 510.189 510.189" height="20" viewBox="0 0 510.189 510.189" width="20" xmlns="http://www.w3.org/2000/svg"><g><g><path d="m468.31 125.689h-426.6c-18.561 5.14-34.295 22.216-34.295 42.355v256.073c0 24.169 19.775 43.945 43.945 43.945h162.4c5.487 0 10.239 3.543 12.117 8.699 4.324 11.873 15.708 20.351 29.075 20.351 13.368 0 24.752-8.479 29.075-20.351 1.878-5.156 6.63-8.699 12.117-8.699h162.516c24.17 0 43.945-19.775 43.945-43.945v-256.072c0-20.139-15.734-37.216-34.295-42.356z" fill="#ff656f"/><path d="m45.559 424.118v-256.073c0-20.139 15.734-37.216 34.295-42.355h-38.144c-18.561 5.14-34.295 22.216-34.295 42.355v256.073c0 24.169 19.775 43.945 43.945 43.945h38.143c-24.169 0-43.944-19.775-43.944-43.945z" fill="#ff4756"/><path d="m264.02 476.762c-1.878-5.156-6.63-8.699-12.117-8.699h-38.143c5.487 0 10.239 3.543 12.117 8.699 4.324 11.873 15.708 20.351 29.075 20.351 7.202 0 13.815-2.477 19.072-6.604-4.5-3.532-8.009-8.271-10.004-13.747z" fill="#ff4756"/><path d="m451.343 94.877h-144.734c5.086 9.328 7.99 20.018 7.99 31.39 0 20.657-9.539 39.083-24.449 51.122-6.137 4.955-9.675 12.439-9.675 20.326v13.703h3.189c3.43 0 6.211 2.781 6.211 6.21v14.771c0 3.43-2.781 6.211-6.211 6.211h-5.578v10.987c0 8.615-6.984 15.599-15.599 15.599h-8.534v151.067c0 10.476 9.492 18.967 19.967 18.967h177.423c10.475 0 18.967-8.492 18.967-18.967v-302.418c0-10.476-8.492-18.968-18.967-18.968z" fill="#dfebfa"/><g><path d="m292.096 416.264v-240.535c-.642.561-1.283 1.125-1.947 1.661-6.137 4.955-9.675 12.439-9.675 20.326v13.703h3.189c3.43 0 6.211 2.781 6.211 6.21v14.771c0 3.43-2.781 6.211-6.211 6.211h-5.578v10.987c0 8.615-6.984 15.599-15.599 15.599h-8.534v151.067c0 10.476 9.492 18.967 19.967 18.967h37.143c-10.474 0-18.966-8.492-18.966-18.967z" fill="#b4dbff"/></g><path d="m247.349 265.197c-8.615 0-15.599-6.984-15.599-15.599v-10.987h-5.578c-3.43 0-6.211-2.781-6.211-6.211v-14.77c0-3.43 2.781-6.21 6.211-6.21h3.189v-13.695c0-8.011-3.738-15.489-9.945-20.553-15.484-12.637-25.097-32.196-24.11-53.959.463-10.21 3.31-19.831 7.975-28.334h-144.603c-10.475 0-18.967 8.492-18.967 18.968v302.419c0 10.475 8.492 18.967 18.967 18.967h177.307c10.475 0 18.968-8.492 18.968-18.967v-151.069z" fill="#dfebfa"/><path d="m77.854 416.264v-302.419c0-10.476 8.492-18.968 18.967-18.968h-38.143c-10.475 0-18.967 8.492-18.967 18.968v302.419c0 10.476 8.492 18.967 18.967 18.967h38.143c-10.476 0-18.967-8.492-18.967-18.967z" fill="#b4dbff"/><path d="m251.814 60.659c-33.665 1.55-60.981 28.887-62.507 62.553-.987 21.764 8.626 41.322 24.11 53.959 6.206 5.065 9.944 12.543 9.944 20.553v17.695h63.113v-17.703c0-7.887 3.538-15.372 9.675-20.326 14.911-12.039 24.449-30.465 24.449-51.122 0-37.304-31.098-67.344-68.784-65.609z" fill="#fee55a"/><path d="m249.93 177.171c-15.485-12.637-25.097-32.196-24.11-53.959 1.289-28.436 20.98-52.356 47.353-60.035-6.739-1.947-13.917-2.86-21.358-2.518-33.665 1.55-60.981 28.887-62.507 62.553-.987 21.764 8.626 41.322 24.11 53.959 6.206 5.065 9.944 12.543 9.944 20.553v17.695h36.513v-17.695c-.001-8.011-3.739-15.488-9.945-20.553z" fill="#ffd301"/><path d="m225.75 235.611v16.987c0 8.615 6.984 15.599 15.599 15.599h27.137c8.615 0 15.599-6.984 15.599-15.599v-16.987z" fill="#23a8fe"/><path d="m259.206 252.598v-16.987h-33.456v16.987c0 8.615 6.984 15.599 15.599 15.599h27.137c1.083 0 2.139-.111 3.159-.321-7.1-1.46-12.439-7.745-12.439-15.278z" fill="#0193fa"/><path d="m289.663 211.419h-69.491c-3.43 0-6.211 2.781-6.211 6.211v14.771c0 3.43 2.781 6.211 6.211 6.211h69.491c3.43 0 6.211-2.781 6.211-6.211v-14.771c0-3.43-2.781-6.211-6.211-6.211z" fill="#60b8fe"/><path d="m247.418 232.401v-14.771c0-3.43 2.781-6.211 6.211-6.211h-33.456c-3.43 0-6.211 2.781-6.211 6.211v14.771c0 3.43 2.781 6.211 6.211 6.211h33.456c-3.43-.001-6.211-2.781-6.211-6.211z" fill="#23a8fe"/></g><g><path d="m425.878 366.237h-125.14c-4.143 0-7.5 3.357-7.5 7.5s3.357 7.5 7.5 7.5h125.14c4.143 0 7.5-3.357 7.5-7.5s-3.357-7.5-7.5-7.5z"/><path d="m84.311 160.523h63.105c4.143 0 7.5-3.357 7.5-7.5s-3.357-7.5-7.5-7.5h-63.105c-4.143 0-7.5 3.357-7.5 7.5s3.357 7.5 7.5 7.5z"/><path d="m84.311 192.053h63.105c4.143 0 7.5-3.357 7.5-7.5s-3.357-7.5-7.5-7.5h-63.105c-4.143 0-7.5 3.357-7.5 7.5s3.357 7.5 7.5 7.5z"/><path d="m84.311 223.585h63.105c4.143 0 7.5-3.357 7.5-7.5s-3.357-7.5-7.5-7.5h-63.105c-4.143 0-7.5 3.357-7.5 7.5s3.357 7.5 7.5 7.5z"/><path d="m84.311 255.115h92.875c4.143 0 7.5-3.357 7.5-7.5s-3.357-7.5-7.5-7.5h-92.875c-4.143 0-7.5 3.357-7.5 7.5s3.357 7.5 7.5 7.5z"/><path d="m84.311 286.645h107.523c4.143 0 7.5-3.357 7.5-7.5s-3.357-7.5-7.5-7.5h-107.523c-4.143 0-7.5 3.357-7.5 7.5s3.357 7.5 7.5 7.5z"/><path d="m84.311 318.176h125.141c4.143 0 7.5-3.357 7.5-7.5s-3.357-7.5-7.5-7.5h-125.141c-4.143 0-7.5 3.357-7.5 7.5s3.357 7.5 7.5 7.5z"/><path d="m84.311 349.707h125.141c4.143 0 7.5-3.357 7.5-7.5s-3.357-7.5-7.5-7.5h-125.141c-4.143 0-7.5 3.357-7.5 7.5s3.357 7.5 7.5 7.5z"/><path d="m84.311 381.237h125.141c4.143 0 7.5-3.357 7.5-7.5s-3.357-7.5-7.5-7.5h-125.141c-4.143 0-7.5 3.357-7.5 7.5s3.357 7.5 7.5 7.5z"/><path d="m425.878 145.523h-63.105c-4.143 0-7.5 3.357-7.5 7.5s3.357 7.5 7.5 7.5h63.105c4.143 0 7.5-3.357 7.5-7.5s-3.357-7.5-7.5-7.5z"/><path d="m425.878 177.053h-63.105c-4.143 0-7.5 3.357-7.5 7.5s3.357 7.5 7.5 7.5h63.105c4.143 0 7.5-3.357 7.5-7.5s-3.357-7.5-7.5-7.5z"/><path d="m425.878 208.585h-63.105c-4.143 0-7.5 3.357-7.5 7.5s3.357 7.5 7.5 7.5h63.105c4.143 0 7.5-3.357 7.5-7.5s-3.357-7.5-7.5-7.5z"/><path d="m425.879 240.115h-92.99c-4.143 0-7.5 3.357-7.5 7.5s3.357 7.5 7.5 7.5h92.99c4.143 0 7.5-3.357 7.5-7.5s-3.358-7.5-7.5-7.5z"/><path d="m425.878 271.645h-107.638c-4.143 0-7.5 3.357-7.5 7.5s3.357 7.5 7.5 7.5h107.638c4.143 0 7.5-3.357 7.5-7.5s-3.357-7.5-7.5-7.5z"/><path d="m425.878 303.176h-125.14c-4.143 0-7.5 3.357-7.5 7.5s3.357 7.5 7.5 7.5h125.14c4.143 0 7.5-3.357 7.5-7.5s-3.357-7.5-7.5-7.5z"/><path d="m425.878 334.707h-125.14c-4.143 0-7.5 3.357-7.5 7.5s3.357 7.5 7.5 7.5h125.14c4.143 0 7.5-3.357 7.5-7.5s-3.357-7.5-7.5-7.5z"/><path d="m144.939 130.738h20.715c4.143 0 7.5-3.357 7.5-7.5s-3.357-7.5-7.5-7.5h-20.715c-4.143 0-7.5 3.357-7.5 7.5s3.358 7.5 7.5 7.5z"/><path d="m372.635 123.238c0-4.143-3.357-7.5-7.5-7.5h-20.715c-4.143 0-7.5 3.357-7.5 7.5s3.357 7.5 7.5 7.5h20.715c4.142 0 7.5-3.358 7.5-7.5z"/><path d="m171.882 206.393c2.931 2.929 7.678 2.928 10.607 0l14.648-14.648c2.929-2.93 2.929-7.678 0-10.607-2.93-2.928-7.678-2.928-10.607 0l-14.648 14.648c-2.929 2.929-2.929 7.677 0 10.607z"/><path d="m323.544 65.338 14.647-14.647c2.929-2.93 2.929-7.678 0-10.607-2.93-2.928-7.678-2.928-10.607 0l-14.647 14.647c-2.929 2.93-2.929 7.678 0 10.607 2.93 2.929 7.677 2.928 10.607 0z"/><path d="m255.037 41.355c4.143 0 7.5-3.357 7.5-7.5v-20.715c0-4.143-3.357-7.5-7.5-7.5s-7.5 3.357-7.5 7.5v20.715c0 4.143 3.358 7.5 7.5 7.5z"/><path d="m312.938 181.137c-2.93 2.929-2.93 7.678-.001 10.606l14.647 14.648c2.931 2.931 7.68 2.928 10.606.001 2.93-2.929 2.93-7.678.001-10.606l-14.647-14.648c-2.929-2.928-7.678-2.929-10.606-.001z"/><path d="m186.531 65.338c2.928 2.928 7.676 2.929 10.606-.001 2.929-2.929 2.929-7.678-.001-10.606l-14.648-14.647c-2.928-2.928-7.677-2.929-10.606.001-2.929 2.929-2.929 7.678.001 10.606z"/><path d="m477.895 120.361v-6.489c0-14.595-11.873-26.468-26.468-26.468h-32.61c-4.143 0-7.5 3.357-7.5 7.5s3.357 7.5 7.5 7.5h32.61c6.323 0 11.468 5.145 11.468 11.468v302.419c0 6.323-5.145 11.467-11.468 11.467h-177.423c-6.323 0-11.467-5.144-11.467-11.467v-140.567h6.033c12.737 0 23.1-10.362 23.1-23.1v-6.62c6.656-.935 11.788-6.728 11.788-13.577v-14.771c0-5.928-3.875-11.182-9.399-13.017 0-7.499-.068-8.084.26-10.04.746-4.453 3.07-8.478 6.626-11.349 16.818-13.578 27.237-34.098 27.237-56.957 0-7.822-1.32-16.159-3.978-23.891h59.612c4.143 0 7.5-3.357 7.5-7.5s-3.357-7.5-7.5-7.5h-66.786c-13.469-21.362-37.625-35.495-65.476-34.211-24.415 1.124-45.934 14.59-58.395 34.211h-134.397c-14.594 0-26.467 11.873-26.467 26.468v6.489c-19.27 7.771-32.295 26.631-32.295 47.713v256.073c0 28.366 23.078 51.444 51.444 51.444h162.4c2.246 0 4.236 1.478 5.069 3.766 12.216 33.544 59.994 33.64 72.245.001.834-2.288 2.823-3.767 5.069-3.767h162.516c28.367 0 51.445-23.078 51.445-51.444v-112.717c0-4.143-3.357-7.5-7.5-7.5s-7.5 3.357-7.5 7.5v112.717c0 20.096-16.35 36.444-36.445 36.444h-162.514c-8.492 0-16.193 5.479-19.163 13.633-7.451 20.453-36.586 20.513-44.057.001-2.97-8.155-10.671-13.634-19.164-13.634h-162.4c-20.096 0-36.445-16.348-36.445-36.444v-256.073c0-12.787 6.771-24.426 17.295-30.965v279.184c0 14.595 11.873 26.468 26.467 26.468h177.308c7.272 0 14.053-2.985 18.968-8.026 4.867 5.01 11.71 8.025 18.967 8.025h177.423c14.595 0 26.468-11.873 26.468-26.467v-279.184c10.524 6.539 17.295 18.178 17.295 30.965v108.356c0 4.143 3.357 7.5 7.5 7.5s7.5-3.357 7.5-7.5v-108.356c-.002-21.082-13.027-39.942-32.296-47.711zm-201.225 132.264c0 4.466-3.634 8.1-8.1 8.1h-13.533-13.604c-.279 0-.555-.014-.827-.042-4.079-.416-7.272-3.871-7.272-8.058v-6.486h43.335v6.486zm-21.668-90.307c-3.639 0-6.6-2.961-6.6-6.6s2.961-6.6 6.6-6.6 6.6 2.961 6.6 6.6-2.961 6.6-6.6 6.6zm33.456 56.628v12.192c-7.296 0-60.343 0-66.912 0v-12.192zm-36.215-150.769c33.847-1.539 60.939 25.464 60.939 58.117 0 17.666-7.895 34.173-21.661 45.287-7.92 6.396-12.463 15.931-12.463 26.161v6.203h-16.557v-27.973c8.224-3.055 14.1-10.981 14.1-20.255 0-11.91-9.689-21.6-21.6-21.6s-21.6 9.689-21.6 21.6c0 9.274 5.876 17.2 14.1 20.255v27.973h-16.556v-6.195c0-10.166-4.63-19.775-12.703-26.363-14.418-11.768-22.204-29.193-21.36-47.81 1.351-29.691 25.666-54.033 55.361-55.4zm-204.948 45.695c0-6.323 5.144-11.468 11.467-11.468h127.073c-2.371 6.791-3.634 13.831-3.937 20.494-1.061 23.403 8.729 45.313 26.86 60.11 4.567 3.728 7.187 9.101 7.187 14.742v6.89c-5.543 1.841-9.399 7.096-9.399 13.017v14.771c0 6.923 5.218 12.654 11.788 13.576v6.622c0 12.736 10.362 23.099 23.1 23.099h6.104v140.566c0 6.323-5.144 11.467-11.468 11.467h-177.308c-5.928 0-10.819-4.521-11.407-10.296-.039-.385-.059-.776-.059-1.171-.001-36.571-.001-292.742-.001-302.419z"/></g></g></svg>