<svg width="20px" height="20px" id="Layer_1" enable-background="new 0 0 512 512" viewBox="0 0 512 512" xmlns="http://www.w3.org/2000/svg"><g><g><path d="m256 501c-47.11 0-92.87-13.41-132.31-38.77-35.39-22.75-64.23-54.05-83.94-90.98l-8.23 27.51c-.79 2.65-3.58 4.15-6.22 3.36-2.65-.79-4.15-3.58-3.36-6.22l11.85-39.59c.79-2.65 3.58-4.15 6.22-3.36l39.59 11.85c2.65.79 4.15 3.58 3.36 6.22s-3.58 4.15-6.22 3.36l-28.52-8.54c40.46 76.34 120.99 125.16 207.78 125.16 129.58 0 235-105.42 235-235 0-22.22-3.1-44.22-9.21-65.37-.77-2.65.76-5.42 3.42-6.19 2.65-.77 5.42.76 6.19 3.42 6.37 22.05 9.6 44.98 9.6 68.14 0 65.44-25.48 126.97-71.76 173.24s-107.8 71.76-173.24 71.76zm-230.66-173.46c-2.17 0-4.17-1.43-4.8-3.62-6.33-21.98-9.54-44.83-9.54-67.92 0-65.44 25.48-126.97 71.76-173.24s107.8-71.76 173.24-71.76c46.58 0 91.9 13.13 131.05 37.96 35.92 22.78 65.25 54.41 85.2 91.79l8.23-27.51c.79-2.64 3.58-4.14 6.22-3.36 2.65.79 4.15 3.58 3.36 6.22l-11.85 39.59c-.79 2.64-3.58 4.14-6.22 3.36l-39.59-11.85c-2.65-.79-4.15-3.58-3.36-6.22s3.57-4.15 6.22-3.36l28.53 8.54c-40.88-77.38-119.9-125.16-207.79-125.16-129.58 0-235 105.42-235 235 0 22.15 3.08 44.07 9.15 65.15.76 2.65-.77 5.42-3.42 6.19-.47.13-.93.2-1.39.2z" fill="#f88125"/></g><g><path d="m256.01 437.48c-6.31 0-12.62-.33-18.88-.98-11.62-1.21-20.49-10.17-21.57-21.8l-2.37-25.51c-.43-4.64-3.25-8.47-7.55-10.23-4.29-1.76-8.99-1.01-12.55 1.99l-19.57 16.51c-8.93 7.53-21.54 7.7-30.66.41-10.22-8.16-19.58-17.44-27.82-27.59-7.36-9.07-7.29-21.68.17-30.67l16.35-19.71c2.98-3.59 3.69-8.29 1.89-12.57-1.79-4.28-5.64-7.07-10.29-7.46l-25.53-2.17c-11.65-.99-20.68-9.79-21.98-21.41-1.45-13-1.5-26.18-.15-39.17 1.21-11.62 10.17-20.49 21.8-21.57l25.51-2.37c4.64-.43 8.47-3.25 10.23-7.55 1.76-4.29 1.01-8.99-1.99-12.55l-16.51-19.57c-7.53-8.93-7.7-21.54-.41-30.66 8.16-10.22 17.44-19.58 27.6-27.82 9.07-7.36 21.68-7.29 30.67.17l19.71 16.36c3.59 2.98 8.29 3.69 12.57 1.89 4.28-1.79 7.07-5.64 7.47-10.29l2.17-25.53c.99-11.65 9.79-20.68 21.41-21.98 13-1.45 26.17-1.5 39.17-.15 11.62 1.21 20.49 10.17 21.57 21.8l2.37 25.51c.43 4.64 3.25 8.47 7.55 10.23s8.99 1.01 12.55-1.99l19.57-16.51c8.93-7.53 21.54-7.7 30.67-.41 10.22 8.16 19.58 17.44 27.82 27.59 7.36 9.07 7.29 21.68-.17 30.67l-16.36 19.71c-2.98 3.59-3.69 8.29-1.89 12.57s5.64 7.07 10.29 7.46l25.53 2.17c11.65.99 20.68 9.79 21.98 21.41 1.45 13 1.5 26.18.15 39.17-1.21 11.62-10.17 20.49-21.8 21.57l-25.51 2.37c-4.65.43-8.47 3.25-10.23 7.55-1.76 4.29-1.01 8.99 1.99 12.55l16.51 19.57c7.53 8.93 7.7 21.54.41 30.66-8.16 10.22-17.44 19.58-27.59 27.82-9.07 7.36-21.68 7.3-30.67-.17l-19.71-16.35c-3.59-2.98-8.29-3.69-12.57-1.89-4.28 1.79-7.07 5.64-7.47 10.29l-2.17 25.53c-.99 11.65-9.79 20.68-21.41 21.98-6.74.74-13.52 1.12-20.3 1.12zm-55.01-69.44c2.84 0 5.7.55 8.43 1.67 7.69 3.15 12.94 10.26 13.72 18.55l2.37 25.51c.63 6.82 5.83 12.07 12.65 12.78 12.28 1.28 24.74 1.23 37.03-.14 6.81-.76 11.97-6.06 12.55-12.88l2.17-25.53c.71-8.3 5.9-15.45 13.57-18.66 7.66-3.21 16.41-1.9 22.82 3.42l19.69 16.35c5.27 4.37 12.66 4.41 17.98.1 9.6-7.79 18.37-16.64 26.08-26.3 4.27-5.35 4.17-12.74-.24-17.98l-16.51-19.57c-5.37-6.37-6.75-15.1-3.6-22.79s10.26-12.94 18.56-13.71l25.51-2.37c6.82-.63 12.07-5.83 12.78-12.65 1.28-12.28 1.23-24.74-.14-37.03-.76-6.81-6.06-11.97-12.88-12.55l-25.54-2.17c-8.3-.71-15.45-5.9-18.66-13.57-3.21-7.66-1.9-16.41 3.42-22.82l16.35-19.7c4.37-5.27 4.41-12.66.1-17.98-7.79-9.59-16.64-18.37-26.3-26.08-5.35-4.27-12.75-4.17-17.98.24l-19.57 16.51c-6.37 5.37-15.1 6.75-22.79 3.6s-12.94-10.26-13.71-18.56l-2.37-25.51c-.63-6.82-5.83-12.07-12.65-12.78-12.28-1.28-24.74-1.23-37.03.14-6.81.76-11.97 6.06-12.55 12.88l-2.17 25.54c-.71 8.3-5.9 15.45-13.57 18.66-7.66 3.21-16.41 1.9-22.82-3.42l-19.7-16.35c-5.27-4.37-12.67-4.41-17.98-.1-9.6 7.79-18.37 16.64-26.08 26.3-4.27 5.35-4.17 12.74.24 17.98l16.51 19.57c5.37 6.37 6.75 15.1 3.6 22.79s-10.26 12.94-18.56 13.71l-25.51 2.37c-6.82.63-12.07 5.83-12.78 12.65-1.28 12.28-1.23 24.74.14 37.03.76 6.81 6.06 11.97 12.88 12.55l25.53 2.17c8.3.71 15.45 5.9 18.66 13.57 3.21 7.66 1.9 16.41-3.42 22.82l-16.34 19.7c-4.37 5.27-4.41 12.66-.1 17.98 7.79 9.6 16.64 18.37 26.3 26.08 5.35 4.27 12.74 4.17 17.98-.24l19.57-16.51c4.11-3.46 9.2-5.27 14.36-5.27z" fill="#1a3b70"/></g><g><path d="m256 340.22c-46.44 0-84.22-37.78-84.22-84.22s37.78-84.22 84.22-84.22 84.22 37.78 84.22 84.22-37.78 84.22-84.22 84.22zm0-158.44c-40.93 0-74.22 33.3-74.22 74.22s33.3 74.22 74.22 74.22 74.22-33.3 74.22-74.22-33.29-74.22-74.22-74.22z" fill="#1a3b70"/></g><g><path d="m236.89 293.68c-1.09 0-2.19-.11-3.28-.33-4.58-.92-8.44-3.63-10.88-7.63l-19.49-31.76s0-.01-.01-.01c-4.78-7.83-2.29-18.09 5.54-22.87 3.79-2.31 8.26-3.01 12.58-1.97 4.32 1.05 7.97 3.71 10.29 7.5l10.04 16.36 43.05-31.46c7.39-5.42 17.83-3.81 23.25 3.59s3.82 17.83-3.58 23.26l-57.64 42.12c-2.9 2.1-6.37 3.2-9.87 3.2zm-25.12-44.94 19.49 31.76c.98 1.6 2.51 2.68 4.33 3.05 1.86.38 3.74-.04 5.3-1.16l57.61-42.1c2.95-2.16 3.59-6.32 1.42-9.28-2.16-2.95-6.33-3.59-9.28-1.43l-47.44 34.67c-1.13.82-2.55 1.14-3.92.87s-2.56-1.1-3.29-2.29l-12.88-20.99c-1.91-3.13-6-4.12-9.13-2.22-3.12 1.91-4.12 5.99-2.21 9.12z" fill="#f88125"/></g></g></svg>