<svg width="20px" height="20px" id="Layer_1" viewBox="0 0 512 512" xmlns="http://www.w3.org/2000/svg" xmlns:xlink="http://www.w3.org/1999/xlink" data-name="Layer 1"><linearGradient id="GradientFill_1" gradientUnits="userSpaceOnUse" x1="256.014" x2="256.014" y1="502.628" y2="6.629" data-name="GradientFill 1"><stop offset="0" stop-color="#7454a3"/><stop offset="1" stop-color="#0098d6"/></linearGradient><path d="m492.722 194.536h-97.548c-6.241 0-11.319 5.078-11.319 11.319v40.774h-29.637c-.266-7.023-5.477-12.68-13.452-14.493l-11.734-2.669c-1.019-2.954-2.217-5.845-3.589-8.655l6.413-10.187c4.472-7.105 4.035-15.024-1.114-20.174l-10.523-10.523c-5.149-5.149-13.069-5.585-20.174-1.113l-10.192 6.415c-2.81-1.371-5.7-2.57-8.649-3.587l-2.67-11.737c-1.862-8.188-7.77-13.478-15.053-13.478h-14.881c-7.282 0-13.19 5.29-15.053 13.478l-2.669 11.737c-2.951 1.018-5.841 2.216-8.65 3.587l-10.191-6.415c-7.105-4.472-15.024-4.035-20.175 1.114l-10.522 10.522c-5.15 5.15-5.587 13.069-1.114 20.174l6.414 10.19c-1.371 2.809-2.57 5.7-3.588 8.651l-11.734 2.669c-7.976 1.813-13.188 7.47-13.454 14.493h-29.69v-40.774c0-6.241-5.078-11.319-11.319-11.319h-40.774v-119.814h120.363c3.926 29.365 29.123 52.093 59.544 52.093 33.135 0 60.092-26.958 60.092-60.093s-26.957-60.092-60.092-60.092c-30.422 0-55.618 22.728-59.544 52.092h-128.363c-4.418 0-8 3.582-8 8v127.814h-40.774c-6.241 0-11.319 5.078-11.319 11.319v97.548c0 6.241 5.078 11.319 11.319 11.319h97.547c6.241 0 11.319-5.078 11.319-11.319v-40.774h29.69c.266 7.023 5.478 12.68 13.453 14.493l11.734 2.669c1.018 2.954 2.217 5.845 3.588 8.655l-6.412 10.186c-4.474 7.106-4.037 15.025 1.113 20.175l10.522 10.522c5.148 5.148 13.066 5.586 20.175 1.114l10.191-6.415c2.81 1.371 5.7 2.57 8.649 3.587l2.669 11.738c1.862 8.188 7.771 13.478 15.053 13.478h14.881c7.283 0 13.191-5.291 15.053-13.479l2.668-11.733c2.954-1.018 5.845-2.217 8.656-3.588l10.187 6.412c7.106 4.474 15.025 4.036 20.174-1.114l10.523-10.523c5.148-5.149 5.585-13.068 1.113-20.174l-6.415-10.192c1.371-2.81 2.569-5.699 3.587-8.649l11.737-2.67c7.976-1.813 13.187-7.47 13.453-14.493h29.637v40.774c0 6.241 5.078 11.319 11.319 11.319h40.774v119.814h-120.363c-3.926-29.364-29.123-52.092-59.544-52.092-33.135 0-60.093 26.958-60.093 60.092s26.958 60.093 60.093 60.093c30.422 0 55.618-22.728 59.544-52.093h128.363c4.418 0 8-3.582 8-8v-127.814h40.774c6.241 0 11.319-5.078 11.319-11.319v-97.548c0-6.241-5.078-11.319-11.319-11.319zm-236.734-171.907c24.312 0 44.092 19.78 44.092 44.092s-19.78 44.093-44.092 44.093-44.093-19.78-44.093-44.093 19.78-44.092 44.093-44.092zm-143.815 276.092h-88.185v-88.186h88.185zm226.07-37.53c-.244.107-.584.228-1.026.329l-16.236 3.693c-2.875.654-5.158 2.837-5.939 5.68-1.335 4.856-3.281 9.548-5.783 13.947-1.458 2.563-1.389 5.721.183 8.217l8.874 14.098c.242.384.397.71.493.959l-9.281 9.281c-.249-.096-.575-.251-.958-.493l-14.093-8.871c-2.497-1.571-5.655-1.641-8.219-.182-4.394 2.501-9.088 4.448-13.952 5.785-2.843.782-5.026 3.064-5.68 5.94l-3.691 16.232c-.101.442-.221.782-.329 1.026h-13.125c-.108-.244-.229-.584-.329-1.026l-3.692-16.235c-.654-2.875-2.836-5.158-5.68-5.94-4.855-1.334-9.547-3.281-13.947-5.784-2.564-1.458-5.721-1.389-8.218.183l-14.097 8.873c-.384.242-.71.397-.959.494l-9.281-9.281c.096-.249.251-.575.493-.958l8.871-14.093c1.571-2.497 1.641-5.655.182-8.219-2.501-4.395-4.447-9.089-5.784-13.953-.782-2.843-3.064-5.026-5.939-5.68l-16.232-3.692c-.442-.101-.782-.221-1.026-.329v-13.125c.244-.108.584-.229 1.027-.329l16.233-3.692c2.875-.654 5.157-2.836 5.939-5.68 1.337-4.86 3.283-9.553 5.785-13.947 1.459-2.564 1.39-5.723-.182-8.219l-8.873-14.098c-.242-.384-.396-.709-.493-.958l9.281-9.281c.249.096.575.251.958.493l14.097 8.874c2.497 1.572 5.656 1.641 8.218.183 4.397-2.502 9.089-4.448 13.947-5.784 2.844-.782 5.026-3.064 5.68-5.94l3.692-16.235c.101-.442.221-.782.329-1.026h13.125c.108.244.229.584.329 1.026l3.693 16.235c.654 2.875 2.837 5.158 5.68 5.939 4.856 1.335 9.549 3.281 13.946 5.784 2.562 1.458 5.722 1.389 8.218-.183l14.099-8.874c.384-.242.709-.396.958-.493l9.281 9.281c-.096.249-.251.575-.493.958l-8.871 14.093c-1.571 2.497-1.642 5.655-.182 8.219 2.5 4.393 4.447 9.087 5.785 13.953.782 2.843 3.064 5.025 5.939 5.679l16.232 3.692c.442.101.782.221 1.025.329v13.126zm-82.203 225.437c-24.313 0-44.093-19.78-44.093-44.093s19.78-44.092 44.093-44.092 44.093 19.78 44.093 44.092-19.78 44.093-44.093 44.093zm232-187.907h-88.186v-88.186h88.186zm-232-82.967c-21.436 0-38.875 17.438-38.875 38.874s17.439 38.875 38.875 38.875 38.874-17.439 38.874-38.875-17.439-38.874-38.874-38.874zm0 61.748c-12.613 0-22.875-10.261-22.875-22.875s10.261-22.874 22.875-22.874 22.874 10.261 22.874 22.874-10.261 22.875-22.874 22.875z" fill="url(#GradientFill_1)"/></svg>