<?xml version="1.0" encoding="UTF-8" standalone="no"?>
<!-- Created with Inkscape (http://www.inkscape.org/) -->

<svg
   version="1.1"
   id="svg5031"
   xml:space="preserve"
   width="20"
   height="20"
   viewBox="0 0 682.66669 682.66669"
   xmlns="http://www.w3.org/2000/svg"
   xmlns:svg="http://www.w3.org/2000/svg"><defs
     id="defs5035"><clipPath
       clipPathUnits="userSpaceOnUse"
       id="clipPath5045"><path
         d="M 0,512 H 512 V 0 H 0 Z"
         id="path5043" /></clipPath></defs><g
     id="g5037"
     transform="matrix(1.3333333,0,0,-1.3333333,0,682.66667)"><g
       id="g5039"><g
         id="g5041"
         clip-path="url(#clipPath5045)"><g
           id="g5047"
           transform="translate(301,402.418)"><path
             d="m 0,0 h 97.92 c 8.284,0 15,-6.716 15,-15 v -136.04"
             style="fill:none;stroke:#000000;stroke-width:15;stroke-linecap:round;stroke-linejoin:round;stroke-miterlimit:10;stroke-dasharray:12, 25;stroke-dashoffset:0;stroke-opacity:1"
             id="path5049" /></g><g
           id="g5051"
           transform="translate(413.9199,65.3657)"><path
             d="M 0,0 V 175.615"
             style="fill:none;stroke:#000000;stroke-width:15;stroke-linecap:round;stroke-linejoin:round;stroke-miterlimit:10;stroke-dasharray:none;stroke-opacity:1"
             id="path5053" /></g><g
           id="g5055"
           transform="translate(366,41.103)"><path
             d="m 0,0 h -215.96 c -8.284,0 -15,6.716 -15,15 v 93.604"
             style="fill:none;stroke:#000000;stroke-width:15;stroke-linecap:round;stroke-linejoin:round;stroke-miterlimit:10;stroke-dasharray:12, 25;stroke-dashoffset:0;stroke-opacity:1"
             id="path5057" /></g><g
           id="g5059"
           transform="translate(49.106,399.4888)"><path
             d="m 0,0 -38.677,-38.677 c -1.875,-1.875 -2.929,-4.419 -2.929,-7.071 v -216.137 c 0,-5.523 4.477,-10 10,-10 h 199.417 c 5.522,0 10,4.477 10,10 V -7.071 c 0,5.523 -4.478,10 -10,10 H 7.071 C 4.419,2.929 1.875,1.875 0,0"
             style="fill:#fef1db;fill-opacity:1;fill-rule:nonzero;stroke:none"
             id="path5061" /></g><g
           id="g5063"
           transform="translate(49,137.604)"><path
             d="m 0,0 v 216.137 c 0,2.652 1.054,5.196 2.929,7.071 l 38.677,38.677 c 1.875,1.875 4.419,2.929 7.071,2.929 h -41.5 c -2.652,0 -5.196,-1.054 -7.071,-2.929 l -38.677,-38.677 c -1.875,-1.875 -2.929,-4.419 -2.929,-7.071 V 0 c 0,-5.523 4.477,-10 10,-10 H 10 C 4.477,-10 0,-5.523 0,0"
             style="fill:#fae2c0;fill-opacity:1;fill-rule:nonzero;stroke:none"
             id="path5065" /></g><g
           id="g5067"
           transform="translate(226.9165,273)"><path
             d="m 0,0 v 119.418 c 0,5.522 -4.477,10 -10,10 h -160.739 c -2.653,0 -5.196,-1.054 -7.072,-2.929 l -38.677,-38.677 c -1.875,-1.875 -2.929,-4.419 -2.929,-7.071 v -216.137 c 0,-5.523 4.478,-10 10,-10 H -10 c 5.523,0 10,4.477 10,10 V -35"
             style="fill:none;stroke:#000000;stroke-width:15;stroke-linecap:round;stroke-linejoin:round;stroke-miterlimit:10;stroke-dasharray:none;stroke-opacity:1"
             id="path5069" /></g><g
           id="g5071"
           transform="translate(65.1992,332.2539)"><path
             d="M 0,0 H 104.018"
             style="fill:none;stroke:#000000;stroke-width:15;stroke-linecap:round;stroke-linejoin:round;stroke-miterlimit:10;stroke-dasharray:none;stroke-opacity:1"
             id="path5073" /></g><g
           id="g5075"
           transform="translate(65.1992,295.9165)"><path
             d="M 0,0 H 104.018"
             style="fill:none;stroke:#000000;stroke-width:15;stroke-linecap:round;stroke-linejoin:round;stroke-miterlimit:10;stroke-dasharray:none;stroke-opacity:1"
             id="path5077" /></g><g
           id="g5079"
           transform="translate(65.1992,259.7427)"><path
             d="M 0,0 H 104.018"
             style="fill:none;stroke:#000000;stroke-width:15;stroke-linecap:round;stroke-linejoin:round;stroke-miterlimit:10;stroke-dasharray:none;stroke-opacity:1"
             id="path5081" /></g><g
           id="g5083"
           transform="translate(65.1992,223.2427)"><path
             d="M 0,0 H 104.018"
             style="fill:none;stroke:#000000;stroke-width:15;stroke-linecap:round;stroke-linejoin:round;stroke-miterlimit:10;stroke-dasharray:none;stroke-opacity:1"
             id="path5085" /></g><g
           id="g5087"
           transform="translate(65.1992,186.9058)"><path
             d="M 0,0 H 46.629"
             style="fill:none;stroke:#000000;stroke-width:15;stroke-linecap:round;stroke-linejoin:round;stroke-miterlimit:10;stroke-dasharray:none;stroke-opacity:1"
             id="path5089" /></g><g
           id="g5091"
           transform="translate(285.4541,138.1646)"><path
             d="m 0,0 c 0,-32.436 -26.294,-58.73 -58.73,-58.73 -32.437,0 -58.731,26.294 -58.731,58.73 0,32.436 26.294,58.73 58.731,58.73 C -26.294,58.73 0,32.436 0,0"
             style="fill:#05e39c;fill-opacity:1;fill-rule:nonzero;stroke:none"
             id="path5093" /></g><g
           id="g5095"
           transform="translate(201.5391,138.1646)"><path
             d="M 0,0 C 0,26.606 17.697,49.067 41.958,56.287 36.641,57.869 31.015,58.73 25.185,58.73 -7.251,58.73 -33.546,32.436 -33.546,0 c 0,-32.436 26.295,-58.73 58.731,-58.73 5.83,0 11.456,0.861 16.773,2.443 C 17.697,-49.067 0,-26.606 0,0"
             style="fill:#0ed290;fill-opacity:1;fill-rule:nonzero;stroke:none"
             id="path5097" /></g><g
           id="g5099"
           transform="translate(285.4541,138.1646)"><path
             d="m 0,0 c 0,-32.436 -26.294,-58.73 -58.73,-58.73 -32.437,0 -58.731,26.294 -58.731,58.73 0,32.436 26.294,58.73 58.731,58.73 C -26.294,58.73 0,32.436 0,0 Z"
             style="fill:none;stroke:#000000;stroke-width:15;stroke-linecap:round;stroke-linejoin:round;stroke-miterlimit:10;stroke-dasharray:none;stroke-opacity:1"
             id="path5101" /></g><g
           id="g5103"
           transform="translate(200.1792,144.3706)"><path
             d="M 0,0 22.813,-22.813 53.089,7.462"
             style="fill:none;stroke:#000000;stroke-width:15;stroke-linecap:round;stroke-linejoin:round;stroke-miterlimit:10;stroke-dasharray:none;stroke-opacity:1"
             id="path5105" /></g><g
           id="g5107"
           transform="translate(334.7588,442.127)"><path
             d="m 0,0 14.577,14.577 c 2.046,2.046 2.277,5.311 0.493,7.589 -5.087,6.499 -10.948,12.36 -17.446,17.446 -2.278,1.784 -5.543,1.554 -7.589,-0.493 L -24.542,24.542 c -1.796,-1.795 -4.542,-2.174 -6.791,-0.993 -3.822,2.007 -7.848,3.68 -12.036,4.982 -2.424,0.754 -4.096,2.965 -4.096,5.503 v 20.624 c 0,2.893 -2.142,5.364 -5.014,5.714 -4.044,0.493 -8.163,0.748 -12.34,0.748 -4.178,0 -8.295,-0.255 -12.34,-0.748 -2.872,-0.35 -5.014,-2.821 -5.014,-5.714 V 34.034 c 0,-2.538 -1.673,-4.749 -4.096,-5.503 -4.189,-1.302 -8.214,-2.975 -12.036,-4.982 -2.249,-1.181 -4.995,-0.802 -6.791,0.993 l -14.577,14.577 c -2.046,2.047 -5.311,2.277 -7.589,0.493 -6.499,-5.086 -12.36,-10.947 -17.446,-17.446 -1.784,-2.278 -1.554,-5.543 0.493,-7.589 L -129.639,0 c 1.796,-1.796 2.175,-4.542 0.994,-6.791 -2.007,-3.822 -3.68,-7.847 -4.982,-12.036 -0.754,-2.423 -2.965,-4.096 -5.503,-4.096 h -20.624 c -2.893,0 -5.365,-2.142 -5.714,-5.014 -0.493,-4.044 -0.748,-8.162 -0.748,-12.34 0,-4.178 0.255,-8.295 0.748,-12.34 0.349,-2.871 2.821,-5.014 5.714,-5.014 h 20.624 c 2.538,0 4.749,-1.672 5.503,-4.096 1.302,-4.189 2.975,-8.214 4.982,-12.036 1.181,-2.249 0.802,-4.995 -0.994,-6.791 l -14.576,-14.577 c -2.047,-2.046 -2.277,-5.31 -0.493,-7.589 5.086,-6.498 10.947,-12.36 17.446,-17.447 2.278,-1.783 5.543,-1.552 7.589,0.494 l 14.577,14.577 c 1.796,1.796 4.542,2.174 6.791,0.993 3.822,-2.007 7.847,-3.68 12.036,-4.982 2.423,-0.754 4.096,-2.964 4.096,-5.502 v -20.625 c 0,-2.893 2.142,-5.365 5.014,-5.714 4.045,-0.492 8.162,-0.748 12.34,-0.748 4.177,0 8.296,0.256 12.34,0.748 2.872,0.349 5.014,2.821 5.014,5.714 v 20.625 c 0,2.538 1.672,4.748 4.096,5.502 4.188,1.302 8.214,2.975 12.036,4.982 2.249,1.181 4.995,0.803 6.791,-0.993 l 14.577,-14.577 c 2.046,-2.046 5.311,-2.277 7.589,-0.494 6.498,5.087 12.359,10.949 17.446,17.447 1.784,2.279 1.553,5.543 -0.493,7.589 L 0,-80.554 c -1.796,1.796 -2.175,4.542 -0.993,6.791 2.007,3.822 3.68,7.847 4.982,12.036 0.753,2.424 2.964,4.096 5.502,4.096 h 20.625 c 2.893,0 5.364,2.143 5.714,5.014 0.492,4.045 0.748,8.162 0.748,12.34 0,4.178 -0.256,8.296 -0.748,12.34 -0.35,2.872 -2.821,5.014 -5.714,5.014 H 9.491 c -2.538,0 -4.749,1.673 -5.502,4.096 -1.302,4.189 -2.975,8.214 -4.982,12.036 C -2.175,-4.542 -1.796,-1.796 0,0"
             style="fill:#7ca1b1;fill-opacity:1;fill-rule:nonzero;stroke:none"
             id="path5109" /></g><g
           id="g5111"
           transform="translate(235,401.8501)"><path
             d="m 0,0 c 0,33.964 21.957,62.781 52.443,73.084 -0.088,0.398 -0.149,0.805 -0.149,1.227 v 20.624 c 0,2.893 -2.143,5.364 -5.015,5.714 -4.045,0.493 -8.162,0.748 -12.34,0.748 -4.177,0 -8.294,-0.255 -12.339,-0.748 -2.872,-0.35 -5.015,-2.821 -5.015,-5.714 V 74.311 c 0,-2.539 -1.672,-4.749 -4.095,-5.503 C 9.301,67.505 5.276,65.833 1.454,63.826 -0.795,62.645 -3.542,63.023 -5.337,64.819 l -14.578,14.577 c -2.045,2.046 -5.31,2.277 -7.588,0.493 -6.499,-5.086 -12.36,-10.948 -17.447,-17.446 -1.783,-2.278 -1.553,-5.543 0.493,-7.589 L -29.88,40.277 c 1.796,-1.796 2.175,-4.542 0.994,-6.791 -2.008,-3.822 -3.68,-7.847 -4.983,-12.036 -0.753,-2.424 -2.964,-4.096 -5.502,-4.096 h -20.625 c -2.892,0 -5.364,-2.143 -5.713,-5.014 -0.493,-4.045 -0.749,-8.163 -0.749,-12.34 0,-4.178 0.256,-8.295 0.749,-12.34 0.349,-2.871 2.821,-5.014 5.713,-5.014 h 20.625 c 2.538,0 4.749,-1.672 5.502,-4.096 1.303,-4.189 2.975,-8.214 4.983,-12.036 1.181,-2.249 0.802,-4.995 -0.994,-6.791 l -14.577,-14.577 c -2.046,-2.046 -2.276,-5.311 -0.493,-7.589 5.087,-6.498 10.948,-12.36 17.447,-17.447 2.278,-1.783 5.543,-1.552 7.588,0.494 l 14.578,14.577 c 1.795,1.796 4.542,2.174 6.791,0.993 3.822,-2.007 7.847,-3.68 12.036,-4.982 2.423,-0.754 4.095,-2.964 4.095,-5.503 v -20.624 c 0,-2.893 2.143,-5.365 5.015,-5.714 4.045,-0.493 8.162,-0.748 12.339,-0.748 4.178,0 8.295,0.255 12.34,0.748 2.872,0.349 5.015,2.821 5.015,5.714 v 20.624 c 0,0.422 0.061,0.829 0.149,1.227 C 21.957,-62.781 0,-33.964 0,0"
             style="fill:#678d98;fill-opacity:1;fill-rule:nonzero;stroke:none"
             id="path5113" /></g><g
           id="g5115"
           transform="translate(334.7588,442.127)"><path
             d="m 0,0 14.577,14.577 c 2.046,2.046 2.277,5.311 0.493,7.589 -5.087,6.499 -10.948,12.36 -17.446,17.446 -2.278,1.784 -5.543,1.554 -7.589,-0.493 L -24.542,24.542 c -1.796,-1.795 -4.542,-2.174 -6.791,-0.993 -3.822,2.007 -7.848,3.68 -12.036,4.982 -2.424,0.754 -4.096,2.965 -4.096,5.503 v 20.624 c 0,2.893 -2.142,5.364 -5.014,5.714 -4.044,0.493 -8.163,0.748 -12.34,0.748 -4.178,0 -8.295,-0.255 -12.34,-0.748 -2.872,-0.35 -5.014,-2.821 -5.014,-5.714 V 34.034 c 0,-2.538 -1.673,-4.749 -4.096,-5.503 -4.189,-1.302 -8.214,-2.975 -12.036,-4.982 -2.249,-1.181 -4.995,-0.802 -6.791,0.993 l -14.577,14.577 c -2.046,2.047 -5.311,2.277 -7.589,0.493 -6.499,-5.086 -12.36,-10.947 -17.446,-17.446 -1.784,-2.278 -1.554,-5.543 0.493,-7.589 L -129.639,0 c 1.796,-1.796 2.175,-4.542 0.994,-6.791 -2.007,-3.822 -3.68,-7.847 -4.982,-12.036 -0.754,-2.423 -2.965,-4.096 -5.503,-4.096 h -20.624 c -2.893,0 -5.365,-2.142 -5.714,-5.014 -0.493,-4.044 -0.748,-8.162 -0.748,-12.34 0,-4.178 0.255,-8.295 0.748,-12.34 0.349,-2.871 2.821,-5.014 5.714,-5.014 h 20.624 c 2.538,0 4.749,-1.672 5.503,-4.096 1.302,-4.189 2.975,-8.214 4.982,-12.036 1.181,-2.249 0.802,-4.995 -0.994,-6.791 l -14.576,-14.577 c -2.047,-2.046 -2.277,-5.31 -0.493,-7.589 5.086,-6.498 10.947,-12.36 17.446,-17.447 2.278,-1.783 5.543,-1.552 7.589,0.494 l 14.577,14.577 c 1.796,1.796 4.542,2.174 6.791,0.993 3.822,-2.007 7.847,-3.68 12.036,-4.982 2.423,-0.754 4.096,-2.964 4.096,-5.502 v -20.625 c 0,-2.893 2.142,-5.365 5.014,-5.714 4.045,-0.492 8.162,-0.748 12.34,-0.748 4.177,0 8.296,0.256 12.34,0.748 2.872,0.349 5.014,2.821 5.014,5.714 v 20.625 c 0,2.538 1.672,4.748 4.096,5.502 4.188,1.302 8.214,2.975 12.036,4.982 2.249,1.181 4.995,0.803 6.791,-0.993 l 14.577,-14.577 c 2.046,-2.046 5.311,-2.277 7.589,-0.494 6.498,5.087 12.359,10.949 17.446,17.447 1.784,2.279 1.553,5.543 -0.493,7.589 L 0,-80.554 c -1.796,1.796 -2.175,4.542 -0.993,6.791 2.007,3.822 3.68,7.847 4.982,12.036 0.753,2.424 2.964,4.096 5.502,4.096 h 20.625 c 2.893,0 5.364,2.143 5.714,5.014 0.492,4.045 0.748,8.162 0.748,12.34 0,4.178 -0.256,8.296 -0.748,12.34 -0.35,2.872 -2.821,5.014 -5.714,5.014 H 9.491 c -2.538,0 -4.749,1.673 -5.502,4.096 -1.302,4.189 -2.975,8.214 -4.982,12.036 C -2.175,-4.542 -1.796,-1.796 0,0 Z"
             style="fill:none;stroke:#000000;stroke-width:15;stroke-linecap:round;stroke-linejoin:round;stroke-miterlimit:10;stroke-dasharray:none;stroke-opacity:1"
             id="path5117" /></g><g
           id="g5119"
           transform="translate(315.4033,401.8501)"><path
             d="m 0,0 c 0,-25.109 -20.355,-45.463 -45.464,-45.463 -25.108,0 -45.463,20.354 -45.463,45.463 0,25.108 20.355,45.463 45.463,45.463 C -20.355,45.463 0,25.108 0,0"
             style="fill:#3e5959;fill-opacity:1;fill-rule:nonzero;stroke:none"
             id="path5121" /></g><g
           id="g5123"
           transform="translate(250,401.8501)"><path
             d="m 0,0 c 0,20.676 13.808,38.117 32.701,43.634 -4.05,1.183 -8.329,1.829 -12.762,1.829 -25.108,0 -45.463,-20.355 -45.463,-45.463 0,-25.109 20.355,-45.463 45.463,-45.463 4.433,0 8.712,0.646 12.762,1.828 C 13.808,-38.117 0,-20.676 0,0"
             style="fill:#384848;fill-opacity:1;fill-rule:nonzero;stroke:none"
             id="path5125" /></g><g
           id="g5127"
           transform="translate(286.0967,444.3477)"><path
             d="m 0,0 c -5.022,1.91 -10.465,2.966 -16.157,2.966 -25.109,0 -45.464,-20.355 -45.464,-45.464 0,-25.108 20.355,-45.463 45.464,-45.463 25.108,0 45.464,20.355 45.464,45.463 0,6.556 -1.399,12.781 -3.897,18.411"
             style="fill:none;stroke:#000000;stroke-width:15;stroke-linecap:round;stroke-linejoin:round;stroke-miterlimit:10;stroke-dasharray:none;stroke-opacity:1"
             id="path5129" /></g><g
           id="g5131"
           transform="translate(285.7236,401.8501)"><path
             d="m 0,0 c 0,-8.717 -7.066,-15.784 -15.784,-15.784 -8.717,0 -15.784,7.067 -15.784,15.784 0,8.717 7.067,15.784 15.784,15.784 C -7.066,15.784 0,8.717 0,0"
             style="fill:#ffffff;fill-opacity:1;fill-rule:nonzero;stroke:none"
             id="path5133" /></g><g
           id="g5135"
           transform="translate(285.7236,401.8501)"><path
             d="m 0,0 c 0,-8.717 -7.066,-15.784 -15.784,-15.784 -8.717,0 -15.784,7.067 -15.784,15.784 0,8.717 7.067,15.784 15.784,15.784 C -7.066,15.784 0,8.717 0,0 Z"
             style="fill:none;stroke:#000000;stroke-width:15;stroke-linecap:round;stroke-linejoin:round;stroke-miterlimit:10;stroke-dasharray:none;stroke-opacity:1"
             id="path5137" /></g><g
           id="g5139"
           transform="translate(499.5,198.2319)"><path
             d="m 0,0 h -171.16 c -2.762,0 -5,2.239 -5,5 v 54.7 c 0,2.761 2.238,5 5,5 H 0 c 2.762,0 5,-2.239 5,-5 V 5 C 5,2.239 2.762,0 0,0"
             style="fill:#01d0fb;fill-opacity:1;fill-rule:nonzero;stroke:none"
             id="path5141" /></g><g
           id="g5143"
           transform="translate(357,203.2319)"><path
             d="m 0,0 v 54.7 c 0,2.761 2.238,5 5,5 h -33.66 c -2.762,0 -5,-2.239 -5,-5 V 0 c 0,-2.761 2.238,-5 5,-5 H 5 C 2.238,-5 0,-2.761 0,0"
             style="fill:#01c1fa;fill-opacity:1;fill-rule:nonzero;stroke:none"
             id="path5145" /></g><g
           id="g5147"
           transform="translate(499.5,198.2319)"><path
             d="m 0,0 h -171.16 c -2.762,0 -5,2.239 -5,5 v 54.7 c 0,2.761 2.238,5 5,5 H 0 c 2.762,0 5,-2.239 5,-5 V 5 C 5,2.239 2.762,0 0,0 Z"
             style="fill:none;stroke:#000000;stroke-width:15;stroke-linecap:round;stroke-linejoin:round;stroke-miterlimit:10;stroke-dasharray:none;stroke-opacity:1"
             id="path5149" /></g><g
           id="g5151"
           transform="translate(358.9248,230.582)"><path
             d="M 0,0 H 109.99"
             style="fill:none;stroke:#000000;stroke-width:15;stroke-linecap:round;stroke-linejoin:round;stroke-miterlimit:10;stroke-dasharray:none;stroke-opacity:1"
             id="path5153" /></g><g
           id="g5155"
           transform="translate(499.5,103.4927)"><path
             d="m 0,0 h -171.16 c -2.762,0 -5,2.238 -5,5 v 54.7 c 0,2.761 2.238,5 5,5 H 0 c 2.762,0 5,-2.239 5,-5 V 5 C 5,2.238 2.762,0 0,0"
             style="fill:#fed402;fill-opacity:1;fill-rule:nonzero;stroke:none"
             id="path5157" /></g><g
           id="g5159"
           transform="translate(357,108.4927)"><path
             d="m 0,0 v 54.7 c 0,2.761 2.238,5 5,5 h -33.66 c -2.762,0 -5,-2.239 -5,-5 V 0 c 0,-2.762 2.238,-5 5,-5 H 5 C 2.238,-5 0,-2.762 0,0"
             style="fill:#fac600;fill-opacity:1;fill-rule:nonzero;stroke:none"
             id="path5161" /></g><g
           id="g5163"
           transform="translate(476,103.4927)"><path
             d="m 0,0 h 23.5 c 2.762,0 5,2.238 5,5 v 54.7 c 0,2.761 -2.238,5 -5,5 h -171.16 c -2.762,0 -5,-2.239 -5,-5 V 5 c 0,-2.762 2.238,-5 5,-5 H -35"
             style="fill:none;stroke:#000000;stroke-width:15;stroke-linecap:round;stroke-linejoin:round;stroke-miterlimit:10;stroke-dasharray:none;stroke-opacity:1"
             id="path5165" /></g><g
           id="g5167"
           transform="translate(358.9248,135.8428)"><path
             d="M 0,0 H 109.99"
             style="fill:none;stroke:#000000;stroke-width:15;stroke-linecap:round;stroke-linejoin:round;stroke-miterlimit:10;stroke-dasharray:none;stroke-opacity:1"
             id="path5169" /></g><g
           id="g5171"
           transform="translate(499.5,8.7529)"><path
             d="m 0,0 h -171.16 c -2.762,0 -5,2.239 -5,5 v 54.7 c 0,2.762 2.238,5 5,5 H 0 c 2.762,0 5,-2.238 5,-5 V 5 C 5,2.239 2.762,0 0,0"
             style="fill:#fd5426;fill-opacity:1;fill-rule:nonzero;stroke:none"
             id="path5173" /></g><g
           id="g5175"
           transform="translate(357,13.7529)"><path
             d="m 0,0 v 54.7 c 0,2.762 2.238,5 5,5 h -33.66 c -2.762,0 -5,-2.238 -5,-5 V 0 c 0,-2.761 2.238,-5 5,-5 H 5 C 2.238,-5 0,-2.761 0,0"
             style="fill:#ef4423;fill-opacity:1;fill-rule:nonzero;stroke:none"
             id="path5177" /></g><g
           id="g5179"
           transform="translate(499.5,8.7529)"><path
             d="m 0,0 h -171.16 c -2.762,0 -5,2.239 -5,5 v 54.7 c 0,2.762 2.238,5 5,5 H 0 c 2.762,0 5,-2.238 5,-5 V 5 C 5,2.239 2.762,0 0,0 Z"
             style="fill:none;stroke:#000000;stroke-width:15;stroke-linecap:round;stroke-linejoin:round;stroke-miterlimit:10;stroke-dasharray:none;stroke-opacity:1"
             id="path5181" /></g><g
           id="g5183"
           transform="translate(358.9248,41.103)"><path
             d="M 0,0 H 109.99"
             style="fill:none;stroke:#000000;stroke-width:15;stroke-linecap:round;stroke-linejoin:round;stroke-miterlimit:10;stroke-dasharray:none;stroke-opacity:1"
             id="path5185" /></g></g></g></g></svg>
