<svg width="20px" height="20px" id="icons" viewBox="0 0 60 60" xmlns="http://www.w3.org/2000/svg"><path d="m36 26.58v-9.75a2.006 2.006 0 0 0 -.59-1.42l-4.82-4.82a2.006 2.006 0 0 0 -1.42-.59h-12.17a1 1 0 0 0 -1 1v27a1 1 0 0 0 1 1h9.04z" fill="#d7dce3"/><path d="m51.34 48.2 6.36 4.851a3.317 3.317 0 1 1 -4.65 4.649l-4.85-6.359z" fill="#9e7c65"/><circle cx="40" cy="40" fill="#37a9da" r="14"/><path d="m35.82 16h-4.82a1 1 0 0 1 -1-1v-4.82a2.017 2.017 0 0 1 .59.41l4.82 4.82a2.017 2.017 0 0 1 .41.59z" fill="#bbc0cc"/><g fill="#373737"><path d="m58.307 52.256-5.622-4.287a14.924 14.924 0 0 0 -2.964-19.369 24.377 24.377 0 0 0 .279-3.6 24.99 24.99 0 0 0 -46.734-12.326l-1.045-2.619a1 1 0 0 0 -1.858.745l1.854 4.64a1 1 0 0 0 1.3.558l4.643-1.854a1 1 0 0 0 -.742-1.858l-2.118.845a23 23 0 0 1 42.7 11.869c0 .769-.048 1.521-.121 2.26-.362-.225-.733-.437-1.116-.631a.979.979 0 0 0 -.19-.092 14.777 14.777 0 0 0 -9.573-1.227v-8.48a2.985 2.985 0 0 0 -.883-2.127l-4.817-4.82a2.985 2.985 0 0 0 -2.13-.883h-12.17a2 2 0 0 0 -2 2v27a2 2 0 0 0 2 2h9.04v-.012a.992.992 0 0 0 .992-.918 13.038 13.038 0 0 1 12.968-12.07 12.889 12.889 0 0 1 4.306.749l-13.942 11.479a1 1 0 0 0 1.272 1.544l14.707-12.109a13.019 13.019 0 0 1 6.481 9.3l-8.46 6.971a1 1 0 0 0 1.272 1.543l7.342-6.051a12.965 12.965 0 0 1 -21.809 9.084l6.467-5.325a1 1 0 0 0 -1.272-1.543l-6.554 5.4a12.83 12.83 0 0 1 -2.51-5.255 1 1 0 1 0 -1.953.426 14.771 14.771 0 0 0 1.9 4.668c-.734.072-1.482.119-2.247.119a23.025 23.025 0 0 1 -23-23 1 1 0 0 0 -2 0 25.028 25.028 0 0 0 25 25 24.23 24.23 0 0 0 3.607-.281c.085.1.167.2.254.3.016.022.02.049.037.07a1.01 1.01 0 0 0 .123.095 15.049 15.049 0 0 0 10.979 4.816 14.9 14.9 0 0 0 7.968-2.314l4.291 5.628a4.34 4.34 0 0 0 3.147 1.677c.093.006.187.009.28.009a4.316 4.316 0 0 0 2.621-7.744zm-24.721-37.256h-2.586v-2.586zm-8.437 23h-8.149v-27h12v4a2 2 0 0 0 2 2h4v8.88a15.038 15.038 0 0 0 -9.851 12.12zm32.176 19.323a2.325 2.325 0 0 1 -3.48-.227l-4.252-5.577a15.155 15.155 0 0 0 1.925-1.925l5.573 4.25a2.3 2.3 0 0 1 .909 1.838 2.331 2.331 0 0 1 -.675 1.641z"/><path d="m46.771 35.364a1 1 0 0 0 -1.407-.135l-6 4.941a1 1 0 0 0 1.272 1.543l6-4.942a1 1 0 0 0 .135-1.407z"/><path d="m41.364 47.4-1 .825a1 1 0 1 0 1.272 1.542l1-.824a1 1 0 0 0 -1.272-1.543z"/><path d="m32 20h-12a1 1 0 0 0 0 2h12a1 1 0 0 0 0-2z"/><path d="m30 24h-10a1 1 0 0 0 0 2h10a1 1 0 0 0 0-2z"/><path d="m25 28h-5a1 1 0 0 0 0 2h5a1 1 0 0 0 0-2z"/><path d="m23 32h-3a1 1 0 0 0 0 2h3a1 1 0 0 0 0-2z"/></g></svg>