<svg id="Capa_1" enable-background="new 0 0 512 512" height="20" viewBox="0 0 512 512" width="20" xmlns="http://www.w3.org/2000/svg"><g><path d="m499.5 107h-22.815v297h-441.37v-297h-22.815c-2.761 0-5 2.239-5 5v318c0 2.761 2.239 5 5 5h487c2.761 0 5-2.239 5-5v-318c0-2.761-2.239-5-5-5z" fill="#3675bb"/><path d="m48 430v-26h-12.685v-297h-22.815c-2.761 0-5 2.239-5 5v318c0 2.761 2.239 5 5 5h40.5c-2.761 0-5-2.239-5-5z" fill="#2b68b6"/><g><g><g><path d="m34.316 77h221.684v328h-221.684z" fill="#dff6fd"/></g><g><path d="m34.316 77h25.684v328h-25.684z" fill="#c8effe"/></g><g><path d="m256 77h221.684v328h-221.684z" fill="#fff3de"/></g><g><path d="m256 77h34.316v328h-34.316z" fill="#ffe5c2"/></g><g><g><circle cx="140.105" cy="182.063" fill="#4fc123" r="62.063"/></g><g><path d="m112 182.063c0-28.386 19.065-52.304 45.084-59.692-5.398-1.533-11.089-2.371-16.979-2.371-34.276 0-62.063 27.786-62.063 62.063 0 34.276 27.786 62.063 62.063 62.063 5.89 0 11.58-.838 16.979-2.371-26.019-7.388-45.084-31.306-45.084-59.692z" fill="#47a920"/></g></g><g><g><g><circle cx="371.895" cy="178.063" fill="#fb2b3a" r="62.063"/></g></g><g><path d="m343 178.063c0-28.53 19.258-52.547 45.479-59.804-5.281-1.461-10.838-2.259-16.584-2.259-34.276 0-62.063 27.786-62.063 62.063 0 34.276 27.786 62.063 62.063 62.063 5.746 0 11.303-.797 16.584-2.259-26.221-7.257-45.479-31.274-45.479-59.804z" fill="#e41f2d"/></g></g></g><g><path d="m499.5 99.5h-14.315v-22.5c0-4.142-3.357-7.5-7.5-7.5h-362.685c-4.143 0-7.5 3.358-7.5 7.5s3.357 7.5 7.5 7.5h133.5v39h-12.5c-4.143 0-7.5 3.358-7.5 7.5s3.357 7.5 7.5 7.5h12.5v54.333h-12.5c-4.143 0-7.5 3.358-7.5 7.5s3.357 7.5 7.5 7.5h12.5v54.333h-12.5c-4.143 0-7.5 3.358-7.5 7.5s3.357 7.5 7.5 7.5h12.5v54.334h-12.5c-4.143 0-7.5 3.358-7.5 7.5s3.357 7.5 7.5 7.5h12.5v51h-206.685v-313h38.185c4.143 0 7.5-3.358 7.5-7.5s-3.357-7.5-7.5-7.5h-45.685c-4.143 0-7.5 3.358-7.5 7.5v22.5h-14.315c-6.893 0-12.5 5.607-12.5 12.5v318c0 6.893 5.607 12.5 12.5 12.5h487c6.893 0 12.5-5.607 12.5-12.5v-318c0-6.893-5.607-12.5-12.5-12.5zm-2.5 328h-482v-313h11.815v290.5c0 4.142 3.357 7.5 7.5 7.5h277.685c4.143 0 7.5-3.358 7.5-7.5s-3.357-7.5-7.5-7.5h-48.5v-51h12.5c4.143 0 7.5-3.358 7.5-7.5s-3.357-7.5-7.5-7.5h-12.5v-54.333h12.5c4.143 0 7.5-3.358 7.5-7.5s-3.357-7.5-7.5-7.5h-12.5v-54.333h12.5c4.143 0 7.5-3.358 7.5-7.5s-3.357-7.5-7.5-7.5h-12.5v-54.334h12.5c4.143 0 7.5-3.358 7.5-7.5s-3.357-7.5-7.5-7.5h-12.5v-39h206.685v313h-123.185c-4.143 0-7.5 3.358-7.5 7.5s3.357 7.5 7.5 7.5h130.685c4.143 0 7.5-3.358 7.5-7.5v-290.5h11.815z"/><path d="m140.105 112.5c-38.356 0-69.563 31.206-69.563 69.563s31.206 69.563 69.563 69.563 69.563-31.206 69.563-69.563-31.206-69.563-69.563-69.563zm0 124.125c-30.086 0-54.563-24.477-54.563-54.563s24.478-54.562 54.563-54.562 54.563 24.477 54.563 54.563-24.477 54.562-54.563 54.562z"/><path d="m163.22 162.948-26.323 26.324-15.101-15.101c-2.93-2.929-7.678-2.929-10.607 0s-2.929 7.678 0 10.606l20.404 20.404c1.465 1.464 3.385 2.197 5.304 2.197s3.839-.732 5.304-2.197l31.627-31.627c2.929-2.929 2.929-7.678 0-10.606-2.931-2.929-7.679-2.929-10.608 0z"/><path d="m371.895 247.625c30.371 0 56.996-19.426 66.252-48.338 1.264-3.945-.911-8.167-4.855-9.43-3.946-1.261-8.166.912-9.43 4.856-7.26 22.676-28.144 37.912-51.967 37.912-30.086 0-54.563-24.477-54.563-54.563s24.477-54.563 54.563-54.563c24.67 0 46.344 16.628 52.706 40.437 1.069 4.001 5.179 6.378 9.183 5.309 4.002-1.069 6.379-5.18 5.31-9.182-8.114-30.36-35.747-51.563-67.198-51.563-38.356 0-69.563 31.206-69.563 69.563s31.205 69.562 69.562 69.562z"/><path d="m397.814 153.269c-2.93-2.929-7.678-2.929-10.607 0l-12.75 12.75-12.75-12.75c-2.93-2.929-7.678-2.929-10.607 0s-2.929 7.678 0 10.606l12.75 12.75-12.75 12.75c-2.929 2.929-2.929 7.678 0 10.606 1.465 1.464 3.385 2.197 5.304 2.197s3.839-.732 5.304-2.197l12.75-12.75 12.75 12.75c1.465 1.464 3.385 2.197 5.304 2.197s3.839-.732 5.304-2.197c2.929-2.929 2.929-7.678 0-10.606l-12.75-12.75 12.75-12.75c2.927-2.929 2.927-7.678-.002-10.606z"/><path d="m186.605 271.5h-93c-4.143 0-7.5 3.358-7.5 7.5s3.357 7.5 7.5 7.5h93c4.143 0 7.5-3.358 7.5-7.5s-3.357-7.5-7.5-7.5z"/><path d="m186.605 298.5h-93c-4.143 0-7.5 3.358-7.5 7.5s3.357 7.5 7.5 7.5h93c4.143 0 7.5-3.358 7.5-7.5s-3.357-7.5-7.5-7.5z"/><path d="m186.605 325.5h-93c-4.143 0-7.5 3.358-7.5 7.5s3.357 7.5 7.5 7.5h93c4.143 0 7.5-3.358 7.5-7.5s-3.357-7.5-7.5-7.5z"/><path d="m186.605 352.5h-93c-4.143 0-7.5 3.358-7.5 7.5s3.357 7.5 7.5 7.5h93c4.143 0 7.5-3.358 7.5-7.5s-3.357-7.5-7.5-7.5z"/><path d="m418.395 271.5h-93c-4.143 0-7.5 3.358-7.5 7.5s3.357 7.5 7.5 7.5h93c4.143 0 7.5-3.358 7.5-7.5s-3.358-7.5-7.5-7.5z"/><path d="m418.395 298.5h-93c-4.143 0-7.5 3.358-7.5 7.5s3.357 7.5 7.5 7.5h93c4.143 0 7.5-3.358 7.5-7.5s-3.358-7.5-7.5-7.5z"/><path d="m418.395 325.5h-93c-4.143 0-7.5 3.358-7.5 7.5s3.357 7.5 7.5 7.5h93c4.143 0 7.5-3.358 7.5-7.5s-3.358-7.5-7.5-7.5z"/><path d="m425.895 360c0-4.142-3.357-7.5-7.5-7.5h-93c-4.143 0-7.5 3.358-7.5 7.5s3.357 7.5 7.5 7.5h93c4.142 0 7.5-3.358 7.5-7.5z"/></g></g></g></svg>