<svg xmlns="http://www.w3.org/2000/svg"  viewBox="0 0 32 32" width="20px" height="20px"><path d="M 11 4 C 9.3550302 4 8 5.3550302 8 7 L 8 22 L 4 22 L 4 25 C 4 26.64315 5.35685 28 7 28 L 21 28 C 22.64497 28 24 26.64497 24 25 L 24 11 L 28 11 L 28 7 C 28 5.35685 26.64315 4 25 4 L 11 4 z M 11 6 L 22.1875 6 C 22.073827 6.3147819 22 6.6485467 22 7 L 22 25 C 22 25.56503 21.56503 26 21 26 C 20.37715 26 20 25.62285 20 25 L 20 22 L 10 22 L 10 7 C 10 6.4349698 10.43497 6 11 6 z M 25 6 C 25.62285 6 26 6.37715 26 7 L 26 9 L 24 9 L 24 7 C 24 6.37715 24.37715 6 25 6 z M 12 9 L 12 11 L 20 11 L 20 9 L 12 9 z M 12 13 L 12 15 L 20 15 L 20 13 L 12 13 z M 12 17 L 12 19 L 17 19 L 17 17 L 12 17 z M 6 24 L 18 24 L 18 25 C 18 25.388365 18.280508 25.657757 18.417969 26 L 7 26 C 6.37715 26 6 25.62285 6 25 L 6 24 z"/></svg>