<?xml version="1.0" encoding="UTF-8" standalone="no"?>
<!-- Created with Inkscape (http://www.inkscape.org/) -->

<svg
   version="1.1"
   id="svg3711"
   width="20"
   height="20"
   viewBox="0 0 682.66669 682.66669"
   xmlns="http://www.w3.org/2000/svg"
   xmlns:svg="http://www.w3.org/2000/svg">
  <defs
     id="defs3715">
    <clipPath
       clipPathUnits="userSpaceOnUse"
       id="clipPath3725">
      <path
         d="M 0,512 H 512 V 0 H 0 Z"
         id="path3723" />
    </clipPath>
  </defs>
  <g
     id="g3717"
     transform="matrix(1.3333333,0,0,-1.3333333,0,682.66667)">
    <g
       id="g3719">
      <g
         id="g3721"
         clip-path="url(#clipPath3725)">
        <g
           id="g3727"
           transform="translate(464.4795,85.5)">
          <path
             d="m 0,0 -119.965,-69.262 c -22.242,-12.842 -50.682,-5.22 -63.523,17.021 L -346.48,230.07 c -4.205,7.282 -4.767,16.108 -1.521,23.864 l 46.675,111.522 c 4.669,11.155 16.212,17.819 28.206,16.285 l 119.919,-15.34 c 8.34,-1.066 15.703,-5.966 19.907,-13.248 L 22.379,83.52 C 39.263,54.276 29.243,16.884 0,0"
             style="fill:#ee4a77;fill-opacity:1;fill-rule:nonzero;stroke:none"
             id="path3729" />
        </g>
        <g
           id="g3731"
           transform="translate(464.4795,85.5)">
          <path
             d="m 0,0 -119.965,-69.262 c -22.242,-12.842 -50.682,-5.22 -63.523,17.021 L -346.48,230.07 c -4.205,7.282 -4.767,16.108 -1.521,23.864 l 46.675,111.522 c 4.669,11.155 16.212,17.819 28.206,16.285 l 119.919,-15.34 c 8.34,-1.066 15.703,-5.966 19.907,-13.248 L 22.379,83.52 C 39.263,54.276 29.243,16.884 0,0 Z"
             style="fill:none;stroke:#231f20;stroke-width:20;stroke-linecap:round;stroke-linejoin:round;stroke-miterlimit:10;stroke-dasharray:none;stroke-opacity:1"
             id="path3733" />
        </g>
        <g
           id="g3735"
           transform="translate(391.0371,114.1162)">
          <path
             d="m 0,0 -138.723,-80.092 c -22.7,-13.105 -51.728,-5.328 -64.834,17.373 l -163.884,283.855 c -7.755,13.432 -8.792,29.715 -2.804,44.022 l 44.206,105.623 c 4.838,11.56 16.8,18.466 29.23,16.876 l 113.575,-14.527 c 15.385,-1.969 28.968,-11.008 36.723,-24.441 L 17.373,64.835 C 30.479,42.134 22.701,13.106 0,0"
             style="fill:#ffca49;fill-opacity:1;fill-rule:nonzero;stroke:none"
             id="path3737" />
        </g>
        <g
           id="g3739"
           transform="translate(343.0059,292.2334)">
          <path
             d="m 0,0 65.404,-113.282 c 13.106,-22.701 5.328,-51.729 -17.373,-64.835 l -138.722,-80.092 c -22.701,-13.105 -51.728,-5.328 -64.835,17.373 L -319.41,43.019 c -7.755,13.432 -8.792,29.714 -2.804,44.022 l 44.206,105.623 c 4.839,11.56 16.8,18.466 29.23,16.876 l 113.575,-14.527 c 15.385,-1.969 28.968,-11.008 36.723,-24.441 l 57.01,-98.743"
             style="fill:none;stroke:#231f20;stroke-width:20;stroke-linecap:round;stroke-linejoin:round;stroke-miterlimit:10;stroke-dasharray:none;stroke-opacity:1"
             id="path3741" />
        </g>
        <g
           id="g3743"
           transform="translate(162.4458,418.3359)">
          <path
             d="m 0,0 c 8.51,-14.739 3.46,-33.587 -11.28,-42.097 -14.739,-8.509 -33.587,-3.46 -42.096,11.28 -8.51,14.74 -3.46,33.587 11.279,42.097 C -27.357,19.79 -8.51,14.739 0,0"
             style="fill:#eef8fd;fill-opacity:1;fill-rule:nonzero;stroke:none"
             id="path3745" />
        </g>
        <g
           id="g3747"
           transform="translate(162.4458,418.3359)">
          <path
             d="m 0,0 c 8.51,-14.739 3.46,-33.587 -11.28,-42.097 -14.739,-8.509 -33.587,-3.46 -42.096,11.28 -8.51,14.74 -3.46,33.587 11.279,42.097 C -27.357,19.79 -8.51,14.739 0,0 Z"
             style="fill:none;stroke:#231f20;stroke-width:20;stroke-linecap:round;stroke-linejoin:round;stroke-miterlimit:10;stroke-dasharray:none;stroke-opacity:1"
             id="path3749" />
        </g>
        <g
           id="g3751"
           transform="translate(323.1172,327.541)">
          <path
             d="M 0,0 H 0.024"
             style="fill:none;stroke:#231f20;stroke-width:20;stroke-linecap:round;stroke-linejoin:round;stroke-miterlimit:10;stroke-dasharray:none;stroke-opacity:1"
             id="path3753" />
        </g>
      </g>
    </g>
  </g>
</svg>
