<?xml version="1.0" encoding="UTF-8"?>
<svg xmlns="http://www.w3.org/2000/svg" xmlns:xlink="http://www.w3.org/1999/xlink" version="1.1" id="Capa_1" x="0px" y="0px" viewBox="0 0 512 512" style="enable-background:new 0 0 512 512;" xml:space="preserve" width="20" height="20">
<g>
	<g>
		<path style="fill:#E5EDFC;" d="M474.5,504.5h-437c-16.569,0-30-13.431-30-30v-377l11.745-53.308&#10;&#9;&#9;&#9;c0-16.569,9.126-26.812,25.695-26.812L474.5,23.525c16.569,0,22.886,9.734,22.886,26.302L504.5,97.5v377&#10;&#9;&#9;&#9;C504.5,491.069,491.069,504.5,474.5,504.5z"/>
		<path style="fill:#D1D9FC;" d="M474.5,13.9l-30,1.793c16.569,0,30,5.238,30,21.807v60v377c0,16.569-13.431,30-30,30h30&#10;&#9;&#9;&#9;c16.569,0,30-13.431,30-30v-377l-5.894-55.81C498.606,25.122,491.069,13.9,474.5,13.9z"/>
		<path style="fill:#695D69;" d="M474.5,7.5h-437c-16.569,0-30,13.431-30,30v60h497v-60C504.5,20.931,491.069,7.5,474.5,7.5z"/>
		<path style="fill:#564E57;" d="M474.5,7.5h-30c16.569,0,30,13.431,30,30v60h30v-60C504.5,20.931,491.069,7.5,474.5,7.5z"/>
		<circle style="fill:#FD4755;" cx="52.5" cy="52.5" r="15"/>
		<circle style="fill:#FFC344;" cx="112.5" cy="52.5" r="15"/>
		<circle style="fill:#A0E38B;" cx="172.5" cy="52.5" r="15"/>
		<g>
			<path style="fill:#D1D9FC;" d="M111.105,286.17H77.5c-5.523,0-10-4.477-10-10v-33.605c0-5.523,4.477-10,10-10h33.605&#10;&#9;&#9;&#9;&#9;c5.523,0,10,4.477,10,10v33.605C121.105,281.693,116.627,286.17,111.105,286.17z"/>
			<path style="fill:#B6C9FD;" d="M111.104,232.566h-30c5.523,0,10,4.477,10,10v33.605c0,5.523-4.477,10-10,10h30&#10;&#9;&#9;&#9;&#9;c5.523,0,10-4.477,10-10v-33.605C121.104,237.043,116.627,232.566,111.104,232.566z"/>
			<path style="fill:#D1D9FC;" d="M111.105,376.17H77.5c-5.523,0-10-4.477-10-10v-33.605c0-5.523,4.477-10,10-10h33.605&#10;&#9;&#9;&#9;&#9;c5.523,0,10,4.477,10,10v33.605C121.105,371.693,116.627,376.17,111.105,376.17z"/>
			<path style="fill:#B6C9FD;" d="M111.104,322.566h-30c5.523,0,10,4.477,10,10v33.605c0,5.523-4.477,10-10,10h30&#10;&#9;&#9;&#9;&#9;c5.523,0,10-4.477,10-10v-33.605C121.104,327.043,116.627,322.566,111.104,322.566z"/>
			<path style="fill:#D1D9FC;" d="M111.105,466.17H77.5c-5.523,0-10-4.477-10-10v-33.605c0-5.523,4.477-10,10-10h33.605&#10;&#9;&#9;&#9;&#9;c5.523,0,10,4.477,10,10v33.605C121.105,461.693,116.627,466.17,111.105,466.17z"/>
			<path style="fill:#B6C9FD;" d="M111.104,412.566h-30c5.523,0,10,4.477,10,10v33.605c0,5.523-4.477,10-10,10h30&#10;&#9;&#9;&#9;&#9;c5.523,0,10-4.477,10-10v-33.605C121.104,417.043,116.627,412.566,111.104,412.566z"/>
		</g>
	</g>
	<g>
		<path style="fill:none;stroke:#000000;stroke-width:15;stroke-linecap:round;stroke-linejoin:round;stroke-miterlimit:10;" d="&#10;&#9;&#9;&#9;M504.5,348.577V474.5c0,16.569-13.431,30-30,30h-437c-16.569,0-30-13.431-30-30v-437c0-16.569,13.431-30,30-30h437&#10;&#9;&#9;&#9;c16.569,0,30,13.431,30,30v276.077"/>
		
			<line style="fill:none;stroke:#000000;stroke-width:15;stroke-linecap:round;stroke-linejoin:round;stroke-miterlimit:10;" x1="131.104" y1="97.5" x2="504.5" y2="97.5"/>
		
			<line style="fill:none;stroke:#000000;stroke-width:15;stroke-linecap:round;stroke-linejoin:round;stroke-miterlimit:10;" x1="7.5" y1="97.5" x2="96.104" y2="97.5"/>
		
			<circle style="fill:none;stroke:#000000;stroke-width:15;stroke-linecap:round;stroke-linejoin:round;stroke-miterlimit:10;" cx="52.5" cy="52.5" r="15"/>
		
			<circle style="fill:none;stroke:#000000;stroke-width:15;stroke-linecap:round;stroke-linejoin:round;stroke-miterlimit:10;" cx="112.5" cy="52.5" r="15"/>
		
			<circle style="fill:none;stroke:#000000;stroke-width:15;stroke-linecap:round;stroke-linejoin:round;stroke-miterlimit:10;" cx="172.5" cy="52.5" r="15"/>
		<g>
			<g>
				<g>
					<path style="fill:none;stroke:#000000;stroke-width:15;stroke-linecap:round;stroke-linejoin:round;stroke-miterlimit:10;" d="&#10;&#9;&#9;&#9;&#9;&#9;&#9;M195.723,191.666l20.215-53.078c0.413-1.01,1.843-1.011,2.258-0.002l20.032,53.08"/>
					
						<line style="fill:none;stroke:#000000;stroke-width:15;stroke-linecap:round;stroke-linejoin:round;stroke-miterlimit:10;" x1="202.027" y1="178.447" x2="232.025" y2="178.447"/>
				</g>
				<g>
					
						<line style="fill:none;stroke:#000000;stroke-width:15;stroke-linecap:round;stroke-linejoin:round;stroke-miterlimit:10;" x1="330.272" y1="137.83" x2="330.272" y2="191.666"/>
					
						<polyline style="fill:none;stroke:#000000;stroke-width:15;stroke-linecap:round;stroke-linejoin:round;stroke-miterlimit:10;" points="&#10;&#9;&#9;&#9;&#9;&#9;&#9;359.232,138.509 331.995,163.545 361.143,191.666 &#9;&#9;&#9;&#9;&#9;"/>
				</g>
				<g>
					<path style="fill:none;stroke:#000000;stroke-width:15;stroke-linecap:round;stroke-linejoin:round;stroke-miterlimit:10;" d="&#10;&#9;&#9;&#9;&#9;&#9;&#9;M301.409,143.364c0,0-9.66-8.12-21.052-4.689c-10.46,3.151-11.923,15.212-4.356,20.146c0,0,7.426,3.313,15.662,6.351&#10;&#9;&#9;&#9;&#9;&#9;&#9;c19.826,7.313,11.286,26.494-4.675,26.494c-7.993,0-14.701-3.5-18.761-7.98"/>
				</g>
				<g>
					
						<line style="fill:none;stroke:#000000;stroke-width:15;stroke-linecap:round;stroke-linejoin:round;stroke-miterlimit:10;" x1="150.857" y1="137.83" x2="180.588" y2="137.83"/>
					
						<line style="fill:none;stroke:#000000;stroke-width:15;stroke-linecap:round;stroke-linejoin:round;stroke-miterlimit:10;" x1="165.662" y1="139.549" x2="165.662" y2="191.666"/>
				</g>
			</g>
			<g>
				
					<line style="fill:none;stroke:#000000;stroke-width:15;stroke-linecap:round;stroke-linejoin:round;stroke-miterlimit:10;" x1="170.741" y1="232.566" x2="444.5" y2="232.566"/>
				
					<line style="fill:none;stroke:#000000;stroke-width:15;stroke-linecap:round;stroke-linejoin:round;stroke-miterlimit:10;" x1="170.741" y1="262.566" x2="369.5" y2="262.566"/>
				<path style="fill:none;stroke:#000000;stroke-width:15;stroke-linecap:round;stroke-linejoin:round;stroke-miterlimit:10;" d="&#10;&#9;&#9;&#9;&#9;&#9;M111.105,286.17H77.5c-5.523,0-10-4.477-10-10v-33.605c0-5.523,4.477-10,10-10h33.605c5.523,0,10,4.477,10,10v33.605&#10;&#9;&#9;&#9;&#9;&#9;C121.105,281.693,116.627,286.17,111.105,286.17z"/>
			</g>
			<g>
				
					<line style="fill:none;stroke:#000000;stroke-width:15;stroke-linecap:round;stroke-linejoin:round;stroke-miterlimit:10;" x1="170.741" y1="322.566" x2="444.5" y2="322.566"/>
				
					<line style="fill:none;stroke:#000000;stroke-width:15;stroke-linecap:round;stroke-linejoin:round;stroke-miterlimit:10;" x1="170.741" y1="352.566" x2="369.5" y2="352.566"/>
				<path style="fill:none;stroke:#000000;stroke-width:15;stroke-linecap:round;stroke-linejoin:round;stroke-miterlimit:10;" d="&#10;&#9;&#9;&#9;&#9;&#9;M111.105,376.17H77.5c-5.523,0-10-4.477-10-10v-33.605c0-5.523,4.477-10,10-10h33.605c5.523,0,10,4.477,10,10v33.605&#10;&#9;&#9;&#9;&#9;&#9;C121.105,371.693,116.627,376.17,111.105,376.17z"/>
			</g>
			<g>
				
					<line style="fill:none;stroke:#000000;stroke-width:15;stroke-linecap:round;stroke-linejoin:round;stroke-miterlimit:10;" x1="170.741" y1="412.566" x2="444.5" y2="412.566"/>
				
					<line style="fill:none;stroke:#000000;stroke-width:15;stroke-linecap:round;stroke-linejoin:round;stroke-miterlimit:10;" x1="170.741" y1="442.566" x2="369.5" y2="442.566"/>
				<path style="fill:none;stroke:#000000;stroke-width:15;stroke-linecap:round;stroke-linejoin:round;stroke-miterlimit:10;" d="&#10;&#9;&#9;&#9;&#9;&#9;M111.105,466.17H77.5c-5.523,0-10-4.477-10-10v-33.605c0-5.523,4.477-10,10-10h33.605c5.523,0,10,4.477,10,10v33.605&#10;&#9;&#9;&#9;&#9;&#9;C121.105,461.693,116.627,466.17,111.105,466.17z"/>
			</g>
		</g>
	</g>
</g>















</svg>
