<svg id="svg14514" height="20" viewBox="0 0 16.933333 16.933334" width="20" xmlns="http://www.w3.org/2000/svg" xmlns:svg="http://www.w3.org/2000/svg"><g id="layer1" transform="translate(0 -280.067)"><path id="path10963" d="m2.3812518 285.6229h12.1708322v1.05833h-12.1708322z" fill="#5b493e"/><path id="path11735" d="m14.552084 290.91457h1.5875v-5.55625c0-.43974-.354013-.79375-.79375-.79375-.439738 0-.79375.35401-.79375.79375z" fill="#655045"/><path id="path11737" d="m.79375077 290.91457v4.49791c0 .43974.35401203.79375.79375003.79375h13.7583332c.439737 0 .79375-.35401.79375-.79375v-4.49791z" fill="#6f584b"/><path id="path11739" d="m1.5875008 284.56457c-.439737 0-.79375003.35401-.79375003.79375v5.55625h1.58750003v-5.55625c0-.43974-.354013-.79375-.79375-.79375z" fill="#655045"/><path id="path11129" d="m11.377083 284.56457h1.058335v3.70416h-1.058335z" fill="#c8d4d9"/><path id="path11131" d="m12.964584 290.91457v-2.64584h-2.116668v2.64584z" fill="#ff6b6b"/><path id="path11133" d="m5.5562539 287.73957h-1.0583341l-.0000011-4.7625-.529168-.52917.529168-1.5875h1.0583331l.5291661 1.5875-.5291651.52917z" fill="#dbe9ee"/><path id="path11135" d="m4.4979187 289.06248c0 .29225-.2369159.52917-.5291669.52917v1.32292h2.1166669v-1.32292c-.2922508 0-.5291669-.23692-.5291669-.52917s.2369161-.52916.5291669-.52916v-.79375h-2.1166669v.79375c.292251 0 .5291669.23691.5291669.52916z" fill="#33b9ef"/><path id="path12050" d="m9.260418 286.15207h-1.5875v4.7625h1.5875z" fill="#ffbc42"/><path id="path11137" d="m8.466668 284.56457-.79375 1.5875h1.5875z" fill="#fdd5a6"/><path id="path11141" d="m12.700002 282.97707-.000002 1.5875h-1.587498v-1.05924c.000001-.29224-.236008-.52825-.529167-.52825-.293158 0-.529166.23601-.529167.52735l-1.058334.002v-2.64583l1.058334.00001c.000001.29315.236009.52916.529167.52916.293159 0 .529168-.23601.529167-.52917h1.852082c.879475 0 1.587497.70802 1.587499 1.5875l.000001 1.05833s-.529166-1.05833-1.322916-1.05787c-.293159.00046-.529168.23647-.529166.52871z" fill="#dbe9ee"/><path id="path12761-4" d="m4.2462529 280.77561-.5291662 1.58802c-.03195.0955-.0069.20089.0646.27182l.451136.45113v2.27118h-1.5869839c-.0002646-.58146-.476769-1.05778-1.058333-1.05778-.5817399 0-1.05833303.4766-1.05833303 1.05834v4.49791c-.0051.3578.53422703.3578.52916613 0v-4.49791c0-.29774.2314329-.52917.5291669-.52917.297735 0 .529166.23143.529166.52917v5.29166h-1.32291603c-.146119.00002-.264569.11847-.264583.26459v4.49791c0 .58174.47659103 1.05834 1.05833303 1.05834h13.7583322c.581742 0 1.058334-.4766 1.058334-1.05834v-.79375c.0051-.3578-.534228-.3578-.529167 0v.79375c0 .29773-.231434.52917-.529167.52917h-13.7583372c-.2977349 0-.5291669-.23144-.5291669-.52917v-1.58801h15.0864161c.114288 0 .259417-.0914.259417-.26407v-2.64583-5.55625c0-.58174-.476594-1.05833-1.058333-1.05833-.581565 0-1.058048.47631-1.058334 1.05781h-1.588016v-.52916c.146119.00053.265034-.11743.265616-.26355v-1.58802c0-.1498.112172-.26332.263551-.26355.279248-.00017.552818.20086.759643.43718s.326595.4749.326595.4749c.124575.25182.503945.16157.501777-.11937v-1.05833c-.000002-1.02148-.83009-1.85157-1.851566-1.85157h-1.866295c-.124584 0-.250888.10666-.250888.27544 0 .13118-.129987.25373-.263549.25373-.144206 0-.263973-.11353-.265102-.26355.000529-.14651-.118067-.26558-.264583-.26562h-1.072028c-.149037.0136-.252053.12753-.251921.26355v2.64635c.000529.14612.119497.26411.265616.26355l1.058851-.002c.116417 0 .262515-.0817.262515-.26768 0-.15213.140263-.25993.266652-.25993.140819 0 .263549.11376.263549.26355v1.06091c.000529.14532.118234.26297.263549.26355v.52917h-1.952334l-.455787-.91209c-.04441-.0888-.134803-.14528-.234093-.14624-.100965-.0008-.193585.0559-.238747.14624l-.456303.91209h-1.9538841v-2.27119l.4516511-.45114c.07133-.071.09616-.1764.06408-.27181l-.5291672-1.58761c-.03647-.10709-.136983-.17916-.2501159-.17932h-1.072025c-.1173991.0103-.2054072.0805-.238488.17932zm.441317.34989h.6779948l.4180631 1.25005-.414446.41393c-.04993.0497-.07802.11716-.07803.18759v4.49791h-.529167c.0007937-1.50125 0-2.99651 0-4.49791.0005291-.0701-.02679-.1376-.07596-.18759l-.414446-.41393zm5.8968061 1.58802c-.35969 0-.639119.22174-.749824.52709h-.574643l-.000008-2.11511h.572574c.110911.30621.410015.52917.751893.52917.341879 0 .638398-.22295.74879-.52917h1.631942c.737472 0 1.322397.58493 1.3224 1.3224v.24598c-.228967-.2395-.588502-.5098-1.058849-.50953-.434938.00079-.792718.35803-.792718.79272v1.3224h-1.058849l.000529-.82166c0-.3681-.319133-.76429-.793229-.76429zm1.056256 2.11511h.529685v3.17603h-.529685zm3.705202.00053c.297735 0 .529166.23143.529166.52917v5.29167h-2.646349v-2.38178c-.00053-.14532-.118237-.26298-.263551-.26356h-.265616v-1.05884h1.588016v2.91041c-.0051.3578.534228.3578.529166 0v-4.49791c0-.29774.231432-.52917.529168-.52917zm-6.878651.32555.365353.73226h-.730706zm-5.8213492.73226h1.586984v.52968h-1.586984zm3.1744841 0h1.6887851c-.03417.0667-.100769.17004-.100769.26613v.26355h-1.5880161zm3.6028791 0h1.688269v.52968h-1.58595v-.26355c-.0087-.1237-.05649-.17447-.102319-.26613zm3.276287 0h1.588016v.52968h-1.588016zm-4.761468.52968h1.058334v4.23333h-1.058334zm-4.2348943 3.1755v1.05783h-1.0572879v-3.70416h1.586984v.52916h-.2635519c-.1463202-.00079-.2655491.11723-.2661341.26355v.7953c-.0000339.1494.1235239.26921.2728521.26458.1457478.004.2568339.11772.2568339.26459 0 .14386-.1072311.25257-.2581301.26018-.1565069.001-.2741398.12205-.271566.26897zm2.1171882-.52914c0-.14777.1148818-.2623.2619978-.26458.1473203.002.2676583-.11726.2676843-.26459v-.7953c-.000529-.14531-.118237-.26296-.2635483-.26355h-.2661338l.000008-.52917h1.5880161v3.70416h-1.058334v-1.05782c.0026-.14915-.118517-.27098-.2733721-.26896-.146971-.008-.256318-.11645-.256318-.26019zm3.7052061-2.11719h1.58595v1.05884h-.263549c-.145314.00053-.262969.11824-.263549.26356v2.38176h-1.058852zm-5.2926982 1.05884h1.5875001v.308c-.3059751.11103-.529167.40858-.529167.75034 0 .34172.2232449.63773.529167.74827v.83871h-1.5875001v-.83974c.314777-.10891.5291659-.40473.5291659-.74724 0-.3425-.2216438-.64452-.5291659-.74983zm6.8786482.52917h1.588018v2.11615h-1.588018zm-10.0531321 2.64532h1.2784739c.02908.005.05877.005.08785 0 4.5008062.0179 8.9646632 0 13.4503422 0v2.11615h-14.8166661z" font-variant-ligatures="normal" font-variant-position="normal" font-variant-caps="normal" font-variant-numeric="normal" font-variant-alternates="normal" font-feature-settings="normal" text-indent="0" text-align="start" text-decoration-line="none" text-decoration-style="solid" text-decoration-color="#000000" text-transform="none" text-orientation="mixed" white-space="normal" shape-padding="0" isolation="auto" mix-blend-mode="normal" solid-color="#000000" solid-opacity="1" vector-effect="none"/></g></svg>