<svg width="20px" height="20px" id="Layer_1" enable-background="new 0 0 512 512" viewBox="0 0 512 512" xmlns="http://www.w3.org/2000/svg" xmlns:xlink="http://www.w3.org/1999/xlink"><linearGradient id="lg1"><stop offset=".33" stop-color="#52c5dc"/><stop offset=".63" stop-color="#3c99d4"/><stop offset=".895" stop-color="#3e7abc"/></linearGradient><linearGradient id="SVGID_1_" gradientTransform="matrix(1 0 0 -1 -50 373)" gradientUnits="userSpaceOnUse" x1="136.635" x2="470.615" xlink:href="#lg1" y1="-49.995" y2="283.985"/><linearGradient id="SVGID_2_" gradientTransform="matrix(1 0 0 -1 -50 373)" gradientUnits="userSpaceOnUse" x1="136.623" x2="470.603" xlink:href="#lg1" y1="-49.983" y2="283.998"/><linearGradient id="SVGID_3_" gradientTransform="matrix(1 0 0 -1 -50 373)" gradientUnits="userSpaceOnUse" x1="500.861" x2="500.861" xlink:href="#lg1" y1="215.83" y2="215.83"/><g><g><g><path d="m420.18 213.56s-22.24 22.2-46.22 46.11c-.17-13.17-2.34-26.09-6.46-38.42-.74-2.21-1.53-4.39-2.38-6.53l28.1-28.1c9.47-9.46 14.72-22.07 14.78-35.52.06-13.35-5.03-25.84-14.33-35.16-9.24-9.24-21.65-14.33-34.93-14.33-13.52 0-26.21 5.25-35.74 14.77l-98.54 98.55c-2.36 2.36-4.48 4.94-6.28 7.64-13.33 19.81-10.87 46.32 5.84 63.03 2.7 2.7 5.72 5.07 8.97 7.07l-27.37 27.37c-2.99-2.31-5.85-4.81-8.53-7.5-9.64-9.64-16.7-21.05-20.99-33.92-9.68-28.92-3.52-61.39 16.09-84.81 3.27-3.52 63.79-64.21 103.88-104.36 16.7-16.73 38.96-25.93 62.67-25.93 23.46 0 45.43 9.05 61.87 25.49 34.21 34.21 34.02 90.09-.43 124.55z" fill="url(#SVGID_1_)"/></g><g><path d="m335.66 261.72c-.1 21.01-7.24 40.55-20.69 56.56-.26.31-.51.62-.78.93-3.02 3.2-75.33 75.63-103.02 103.34-16.72 16.73-38.98 25.93-62.67 25.93-23.45 0-45.42-9.05-61.87-25.49-16.54-16.54-25.6-38.66-25.49-62.28.1-23.52 9.3-45.64 25.91-62.27 0 0 28.06-27.99 46.27-46.14.15 13.1 2.32 26.12 6.43 38.43.73 2.2 1.53 4.38 2.37 6.53l-28.11 28.11c-9.46 9.45-14.71 22.06-14.77 35.51-.06 13.37 5.02 25.86 14.32 35.16 9.24 9.25 21.65 14.35 34.94 14.35 13.52 0 26.21-5.25 35.74-14.77l98.55-98.57c2.37-2.38 4.48-4.94 6.26-7.61 1.65-2.44 3.1-5.09 4.31-7.86 2.76-6.31 4.17-13.05 4.2-20.03.05-13.39-5.05-25.88-14.34-35.15-2.7-2.71-5.72-5.08-8.97-7.07l27.37-27.37c2.99 2.3 5.84 4.81 8.53 7.5 4.16 4.15 7.87 8.69 11.05 13.51 4.2 6.31 7.55 13.16 9.95 20.38 3.03 9.06 4.54 18.61 4.51 28.37z" fill="url(#SVGID_2_)"/></g><g><path d="" fill="url(#SVGID_3_)"/></g></g></g></svg>