<?xml version="1.0" encoding="UTF-8"?>
<svg xmlns="http://www.w3.org/2000/svg" xmlns:xlink="http://www.w3.org/1999/xlink" version="1.1" id="Capa_1" x="0px" y="0px" viewBox="0 0 511 511" style="enable-background:new 0 0 511 511;" xml:space="preserve" width="20" height="20">
<g>
	<g>
		<path style="fill:#E3DFE3;" d="M99.334,476.5c-16.568,0-30-13.431-30-30s13.431-30,30-30h312.332c16.569,0,30-13.431,30-30v30v30&#10;&#9;&#9;&#9;c0,16.569-13.431,30-30,30H99.334z"/>
		<path style="fill:#D0CED0;" d="M411.666,458.5H99.334c-13.433,0-24.801-8.829-28.624-21c-0.893,2.841-1.376,5.864-1.376,9&#10;&#9;&#9;&#9;c0,16.569,13.431,30,30,30h312.332c16.569,0,30-13.431,30-30v-18C441.666,445.069,428.234,458.5,411.666,458.5z"/>
		<path style="fill:#F9DA86;" d="M411.666,7.5H114.49v409h297.175c16.569,0,30-13.431,30-30v-349&#10;&#9;&#9;&#9;C441.666,20.932,428.234,7.5,411.666,7.5z"/>
		<path style="fill:#FC686C;" d="M99.334,416.5h15.157V7.5H99.334c-16.569,0-30,13.432-30,30v409c0,0,0,0,0,0&#10;&#9;&#9;&#9;C69.334,429.931,82.765,416.5,99.334,416.5z"/>
		<path style="fill:#F1C976;" d="M411.666,398.5H114.49v18h297.175c16.569,0,30-13.431,30-30v-18&#10;&#9;&#9;&#9;C441.666,385.069,428.234,398.5,411.666,398.5z"/>
		<path style="fill:#EC6267;" d="M69.334,428.5v18c0,0,0,0,0,0c0-16.569,13.431-30,30-30h15.157v-18H99.334&#10;&#9;&#9;&#9;C82.765,398.5,69.334,411.931,69.334,428.5z"/>
		<polygon style="fill:#E74D4B;" points="211.534,503.5 181.163,485.5 150.793,503.5 150.793,446.5 211.534,446.5 &#9;&#9;"/>
		<rect x="150.793" y="446.5" style="fill:#D63B3E;" width="60.741" height="18"/>
	</g>
	<g>
		<g>
			<g>
				<g>
					
						<line style="fill:none;stroke:#000000;stroke-width:15;stroke-linecap:round;stroke-linejoin:round;stroke-miterlimit:10;" x1="290.562" y1="222.579" x2="290.562" y2="271.263"/>
				</g>
				<g>
					
						<polyline style="fill:none;stroke:#000000;stroke-width:15;stroke-linecap:round;stroke-linejoin:round;stroke-miterlimit:10;" points="&#10;&#9;&#9;&#9;&#9;&#9;&#9;399.759,222.801 379.432,222.801 379.432,271.041 399.759,271.041 &#9;&#9;&#9;&#9;&#9;"/>
					
						<line style="fill:none;stroke:#000000;stroke-width:15;stroke-linecap:round;stroke-linejoin:round;stroke-miterlimit:10;" x1="398.26" y1="246.921" x2="379.432" y2="246.921"/>
				</g>
				<g>
					
						<line style="fill:none;stroke:#000000;stroke-width:15;stroke-linecap:round;stroke-linejoin:round;stroke-miterlimit:10;" x1="318.871" y1="223.348" x2="318.871" y2="269.776"/>
					<path style="fill:none;stroke:#000000;stroke-width:15;stroke-linecap:round;stroke-linejoin:round;stroke-miterlimit:10;" d="&#10;&#9;&#9;&#9;&#9;&#9;&#9;M351.33,246.921c0,13.017-7.225,23.318-18.687,23.518c-3.815,0.067-13.676,0.104-13.676,0.104s-0.062-17.112-0.062-23.674&#10;&#9;&#9;&#9;&#9;&#9;&#9;c0-5.389-0.034-23.57-0.034-23.57s8.871,0,13.38,0C344.824,223.299,351.33,233.904,351.33,246.921z"/>
				</g>
				<g>
					<path style="fill:none;stroke:#000000;stroke-width:15;stroke-linecap:round;stroke-linejoin:round;stroke-miterlimit:10;" d="&#10;&#9;&#9;&#9;&#9;&#9;&#9;M192.788,226.736c-3.885-2.625-8.569-4.157-13.61-4.157c-13.444,0-24.342,10.898-24.342,24.342&#10;&#9;&#9;&#9;&#9;&#9;&#9;c0,13.444,10.898,24.342,24.342,24.342c13.444,0,21.013-10.898,21.013-24.342h-14.564"/>
				</g>
				<g>
					<path style="fill:none;stroke:#000000;stroke-width:15;stroke-linecap:round;stroke-linejoin:round;stroke-miterlimit:10;" d="&#10;&#9;&#9;&#9;&#9;&#9;&#9;M228.43,222.579v33.5c0,5.705,2.83,9.546,7.637,12.618c2.342,1.496,5.299,2.561,8.974,2.566&#10;&#9;&#9;&#9;&#9;&#9;&#9;c3.183,0.004,5.843-0.733,8.042-1.84c5.602-2.822,9.175-7.106,9.175-13.379v-33.465"/>
				</g>
			</g>
			<g>
				<g>
					
						<polyline style="fill:none;stroke:#000000;stroke-width:15;stroke-linecap:round;stroke-linejoin:round;stroke-miterlimit:10;" points="&#10;&#9;&#9;&#9;&#9;&#9;&#9;320.982,128.419 300.656,128.419 300.656,176.658 320.982,176.658 &#9;&#9;&#9;&#9;&#9;"/>
					
						<line style="fill:none;stroke:#000000;stroke-width:15;stroke-linecap:round;stroke-linejoin:round;stroke-miterlimit:10;" x1="319.484" y1="152.539" x2="300.656" y2="152.539"/>
				</g>
				<g>
					<path style="fill:none;stroke:#000000;stroke-width:15;stroke-linecap:round;stroke-linejoin:round;stroke-miterlimit:10;" d="&#10;&#9;&#9;&#9;&#9;&#9;&#9;M270.409,133.202c0,0-8.736-7.343-19.037-4.24c-9.459,2.849-10.782,13.756-3.939,18.218c0,0,6.715,2.996,14.163,5.743&#10;&#9;&#9;&#9;&#9;&#9;&#9;c17.928,6.613,10.206,23.958-4.227,23.958c-7.228,0-13.294-3.165-16.965-7.217"/>
				</g>
				<g>
					<path style="fill:none;stroke:#000000;stroke-width:15;stroke-linecap:round;stroke-linejoin:round;stroke-miterlimit:10;" d="&#10;&#9;&#9;&#9;&#9;&#9;&#9;M178.444,128.197v33.5c0,5.705,2.83,9.546,7.638,12.617c2.341,1.496,5.298,2.562,8.973,2.567&#10;&#9;&#9;&#9;&#9;&#9;&#9;c3.183,0.004,5.843-0.733,8.042-1.84c5.603-2.822,9.175-7.106,9.175-13.379v-33.465"/>
				</g>
				<g>
					
						<line style="fill:none;stroke:#000000;stroke-width:15;stroke-linecap:round;stroke-linejoin:round;stroke-miterlimit:10;" x1="355.701" y1="153.645" x2="376.151" y2="176.881"/>
					
						<line style="fill:none;stroke:#000000;stroke-width:15;stroke-linecap:round;stroke-linejoin:round;stroke-miterlimit:10;" x1="349.83" y1="128.197" x2="349.83" y2="176.881"/>
					<path style="fill:none;stroke:#000000;stroke-width:15;stroke-linecap:round;stroke-linejoin:round;stroke-miterlimit:10;" d="&#10;&#9;&#9;&#9;&#9;&#9;&#9;M376.151,140.849c0,6.988-6.127,12.652-13.368,12.652c-3.591,0-12.847,0.056-12.847,0.056s-0.058-9.186-0.058-12.708&#10;&#9;&#9;&#9;&#9;&#9;&#9;c0-2.893-0.032-12.652-0.032-12.652s8.693,0,12.937,0C370.024,128.197,376.151,133.862,376.151,140.849z"/>
				</g>
			</g>
		</g>
		<path style="fill:none;stroke:#000000;stroke-width:15;stroke-linecap:round;stroke-linejoin:round;stroke-miterlimit:10;" d="&#10;&#9;&#9;&#9;M441.666,416.5c0,16.569-13.432,30-30,30H114.49"/>
		<path style="fill:none;stroke:#000000;stroke-width:15;stroke-linecap:round;stroke-linejoin:round;stroke-miterlimit:10;" d="&#10;&#9;&#9;&#9;M226.534,416.5h185.132c16.569,0,30-13.431,30-30v-349c0-16.568-13.431-30-30-30H364.83"/>
		
			<polyline style="fill:none;stroke:#000000;stroke-width:15;stroke-linecap:round;stroke-linejoin:round;stroke-miterlimit:10;" points="&#10;&#9;&#9;&#9;334.83,7.5 114.49,7.5 114.49,416.5 196.534,416.5 &#9;&#9;"/>
		<path style="fill:none;stroke:#000000;stroke-width:15;stroke-linecap:round;stroke-linejoin:round;stroke-miterlimit:10;" d="&#10;&#9;&#9;&#9;M69.334,446.5c0,16.569,13.431,30,30,30h51.459"/>
		<path style="fill:none;stroke:#000000;stroke-width:15;stroke-linecap:round;stroke-linejoin:round;stroke-miterlimit:10;" d="&#10;&#9;&#9;&#9;M364.83,476.5h46.835c16.569,0,30-13.431,30-30v-30v-30"/>
		
			<line style="fill:none;stroke:#000000;stroke-width:15;stroke-linecap:round;stroke-linejoin:round;stroke-miterlimit:10;" x1="211.534" y1="476.5" x2="334.83" y2="476.5"/>
		<path style="fill:none;stroke:#000000;stroke-width:15;stroke-linecap:round;stroke-linejoin:round;stroke-miterlimit:10;" d="&#10;&#9;&#9;&#9;M99.334,416.5h15.157V7.5H99.334c-16.569,0-30,13.432-30,30v409c0,0,0,0,0,0C69.334,429.931,82.765,416.5,99.334,416.5z"/>
		
			<polygon style="fill:none;stroke:#000000;stroke-width:15;stroke-linecap:round;stroke-linejoin:round;stroke-miterlimit:10;" points="&#10;&#9;&#9;&#9;211.534,503.5 181.163,485.5 150.793,503.5 150.793,446.5 211.534,446.5 &#9;&#9;"/>
	</g>
</g>















</svg>
