<svg width="20px" height="20px" viewBox="0 0 32 32" xmlns="http://www.w3.org/2000/svg"><g id="_11._yaml_YAML_Ain_t_Markup_Language_" data-name="11. yaml (YAML Ain't Markup Language)"><path d="m7 5v22a2 2 0 0 0 2 2h14a2 2 0 0 0 2-2v-18l-6-6h-10a2 2 0 0 0 -2 2z" fill="#fff"/><path d="m7 21h18v1h-18z" fill="#808080"/><path d="m5 20v3l2 1v-3z" fill="#a6a4a1"/><path d="m27 20v3l-2 1v-3z" fill="#a6a4a1"/><rect fill="#f2f0eb" height="10" rx="2" width="22" x="5" y="11"/><path d="m18 3v6a1 1 0 0 0 1 1h6v-1l-6-6z" fill="#808080"/><path d="m19 3 6 6h-5a1 1 0 0 1 -1-1z" fill="#f2f0eb"/><path d="m8.5 6a.5.5 0 0 1 .5-.5h5a.5.5 0 0 1 0 1h-5a.5.5 0 0 1 -.5-.5zm7.5 2.5h-7a.5.5 0 0 0 0 1h7a.5.5 0 0 0 0-1zm-7 15h9a.5.5 0 0 0 0-1h-9a.5.5 0 0 0 0 1zm14-1h-3a.5.5 0 0 0 0 1h3a.5.5 0 0 0 0-1zm-2 3h-12a.5.5 0 0 0 0 1h12a.5.5 0 0 0 0-1zm6.5-12.5v9a2.5 2.5 0 0 1 -2 2.45v2.55a2.5 2.5 0 0 1 -2.5 2.5h-14a2.5 2.5 0 0 1 -2.5-2.5v-2.55a2.5 2.5 0 0 1 -2-2.45v-9a2.5 2.5 0 0 1 2-2.45v-5.55a2.5 2.5 0 0 1 2.5-2.5h10.06.07a.4.4 0 0 1 .22.12l6 6a.4.4 0 0 1 .12.22.64.64 0 0 1 0 .07s0 0 0 .06v1.55a2.5 2.5 0 0 1 2.03 2.48zm-8-8.79v3.79a.5.5 0 0 0 .5.5h3.79zm-12 6.29h17v-1h-4.5a1.5 1.5 0 0 1 -1.5-1.5v-4.5h-9.5a1.5 1.5 0 0 0 -1.5 1.5zm-2 8.5a1.5 1.5 0 0 0 1.5 1.5h18a1.5 1.5 0 0 0 1.5-1.5v-6a1.5 1.5 0 0 0 -1.5-1.5h-18a1.5 1.5 0 0 0 -1.5 1.5zm1 4.41v-2a2.54 2.54 0 0 1 -1-.46v1a1.51 1.51 0 0 0 1 1.46zm18-1.91h-17v5.5a1.5 1.5 0 0 0 1.5 1.5h14a1.5 1.5 0 0 0 1.5-1.5zm2 .5v-1a2.54 2.54 0 0 1 -1 .46v2a1.51 1.51 0 0 0 1-1.46zm-17-5.35v1.85a.5.5 0 0 0 1 0v-1.85l1.92-2.87a.57.57 0 0 0 .08-.28.52.52 0 0 0 -.22-.42.51.51 0 0 0 -.7.14l-1.58 2.38-1.58-2.38a.5.5 0 0 0 -.84.56zm2.64.16 1.4-3.5a.51.51 0 0 1 .92 0l2 5a.5.5 0 1 1 -.92.38l-.48-1.19h-2.12l-.48 1.19a.49.49 0 0 1 -.46.31.46.46 0 0 1 -.19 0 .49.49 0 0 1 -.27-.65l.59-1.49zm1.2-.31h1.32l-.66-1.65zm4.66 2.5a.5.5 0 0 0 .5-.5v-3.79l1.15 1.14a.48.48 0 0 0 .7 0l1.15-1.14v3.79a.5.5 0 0 0 1 0v-5a.5.5 0 0 0 -.31-.46.47.47 0 0 0 -.54.11l-1.65 1.64-1.65-1.64a.47.47 0 0 0 -.54-.11.5.5 0 0 0 -.31.46v5a.5.5 0 0 0 .5.5zm6 0a.5.5 0 0 0 .5-.5v-5a.5.5 0 0 0 -1 0v5a.5.5 0 0 0 .5.5z"/></g></svg>